<?xml version="1.0" encoding="UTF-8"?>
<svg width="128px" height="94px" viewBox="0 0 128 94" version="1.1" xmlns="http://www.w3.org/2000/svg" xmlns:xlink="http://www.w3.org/1999/xlink">
    <title>access</title>
    <g id="Page-1" stroke="none" stroke-width="1" fill="none" fill-rule="evenodd">
        <g id="home-2" transform="translate(-1055.000000, -1173.000000)" fill="#1685E4" fill-rule="nonzero">
            <g id="why" transform="translate(340.000000, 940.000000)">
                <g id="access" transform="translate(715.000000, 233.000000)">
                    <path d="M12.3701446,56.8567609 L47.2431214,56.8567609 C48.2787172,56.8567609 49.1182949,56.0174332 49.1182949,54.9815874 C49.1182949,53.9457415 48.2787172,53.1064139 47.2431214,53.1064139 L12.3701446,53.1064139 C11.3345488,53.1064139 10.4949711,53.9457415 10.4949711,54.9815874 C10.4949711,56.0174332 11.3345488,56.8567609 12.3701446,56.8567609 Z" id="Path"></path>
                    <path d="M12.3701446,65.1550287 L47.2431214,65.1550287 C48.2787172,65.1550287 49.1182949,64.3157011 49.1182949,63.2798552 C49.1182949,62.2440094 48.2787172,61.4046817 47.2431214,61.4046817 L12.3701446,61.4046817 C11.3345488,61.4046817 10.4949711,62.2440094 10.4949711,63.2798552 C10.4949711,64.3157011 11.3345488,65.1550287 12.3701446,65.1550287 Z" id="Path"></path>
                    <path d="M12.3701446,31.4961643 C11.3345488,31.4961643 10.4949711,32.335492 10.4949711,33.3713378 L10.4949711,43.0749857 C10.4949711,46.0087571 12.8816919,48.395728 15.8157134,48.395728 L43.7975525,48.395728 C46.731324,48.395728 49.1182949,46.0087571 49.1182949,43.0749857 L49.1182949,15.8159634 C49.1182949,12.882192 46.731324,10.4952211 43.7975525,10.4952211 L15.8157134,10.4952211 C12.881942,10.4952211 10.4949711,12.882192 10.4949711,15.8159634 L10.4949711,24.6050267 C10.4949711,25.6408725 11.3345488,26.4802002 12.3701446,26.4802002 C13.4057404,26.4802002 14.2453181,25.6408725 14.2453181,24.6050267 L14.2453181,15.8159634 C14.2453181,14.9498833 14.9496333,14.2455681 15.8157134,14.2455681 L43.7975525,14.2455681 C44.6633827,14.2455681 45.3679479,14.9498833 45.3679479,15.8159634 L45.3679479,43.0749857 C45.3679479,43.9410658 44.6633827,44.645381 43.7975525,44.645381 L42.5021827,44.645381 L42.5021827,42.8822179 C42.5021827,38.6305745 40.4037385,34.7467151 36.9931729,32.411249 C37.977764,30.9813667 38.5158138,29.276959 38.5158138,27.482793 C38.5158138,22.6805986 34.6089523,18.7737371 29.806758,18.7737371 C25.0045636,18.7737371 21.0977022,22.6805986 21.0977022,27.482793 C21.0977022,29.276959 21.6355019,30.9811167 22.620343,32.411249 C19.2095274,34.7467151 17.1113333,38.6305745 17.1113333,42.8822179 L17.1113333,44.645381 L15.8159634,44.645381 C14.9501333,44.645381 14.2455681,43.9410658 14.2455681,43.0749857 L14.2455681,33.3713378 C14.2453181,32.335742 13.4057404,31.4961643 12.3701446,31.4961643 L12.3701446,31.4961643 Z M29.806758,22.5243342 C32.541011,22.5243342 34.7654668,24.74879 34.7654668,27.483043 C34.7654668,29.0274359 34.064902,30.455568 32.843539,31.4034057 C32.8370384,31.4084062 32.8307878,31.4134067 32.8242872,31.4181571 C31.9527066,32.0879691 30.90936,32.4417518 29.806758,32.4417518 C28.704656,32.4417518 27.6623096,32.0884691 26.7909789,31.4196572 C26.7837283,31.4139067 26.7764776,31.4084062 26.7692269,31.4026557 C25.5481139,30.4545679 24.8480492,29.0266858 24.8480492,27.482793 C24.8477991,24.74879 27.072505,22.5243342 29.806758,22.5243342 L29.806758,22.5243342 Z M20.8614303,42.8822179 C20.8614303,39.5891631 22.6478456,36.6093874 25.4851081,35.0469929 C26.7944793,35.7993125 28.2678656,36.1920988 29.806758,36.1920988 C31.3456504,36.1920988 32.8190367,35.7990625 34.1284079,35.0469929 C36.9656704,36.6093874 38.7520857,39.5891631 38.7520857,42.8822179 L38.7520857,44.645381 L20.8614303,44.645381 L20.8614303,42.8822179 Z" id="Shape"></path>
                    <path d="M119.711077,13.8957858 L119.711077,7.25292111 C119.711077,3.25380107 116.457526,0 112.458406,0 L7.25267108,0 C3.25355105,0 0,3.25355105 0,7.25292111 L0,73.4890499 C0,77.4881699 3.25355105,80.741721 7.25267108,80.741721 L36.4463723,80.741721 C37.4819682,80.741721 38.3215459,79.9023933 38.3215459,78.8665474 C38.3215459,77.8307016 37.4819682,76.9913739 36.4463723,76.9913739 L7.25267108,76.9913739 C5.32149239,76.9913739 3.75034702,75.4202286 3.75034702,73.4890499 L3.75034702,7.25292111 C3.75034702,5.32149239 5.32149239,3.75034702 7.25267108,3.75034702 L112.458406,3.75034702 C114.389584,3.75034702 115.96073,5.32149239 115.96073,7.25292111 L115.96073,11.1150285 C106.338339,5.29248971 93.6766678,6.56785772 85.4096529,14.8348727 C79.4315997,20.8129258 76.9401192,29.3197129 78.602273,37.4767177 C77.1871421,37.5377233 75.7902628,38.107026 74.712163,39.1848757 L74.712163,39.1851258 C72.4592046,41.4385843 72.4274516,45.0849217 74.6169042,47.3768837 L43.7095444,78.2842436 C42.6801992,79.3135888 42.1093963,80.6824655 42.1021457,82.1383502 L42.0721429,88.2881692 C42.0581416,91.1524342 44.3738559,93.4653983 47.2236196,93.4653983 L47.2493719,93.4653983 L53.399191,93.4351455 C54.8548257,93.4281448 56.2237023,92.857092 57.2532976,91.8277467 L58.2491397,90.8321546 C59.1619742,89.9193201 59.6560199,88.6557032 59.6047652,87.3658339 L59.4637521,83.8170055 C59.4425002,83.2872065 59.884291,82.8584168 60.4143401,82.89267 L63.720646,83.1156906 C65.0575197,83.2041988 66.367891,82.7141535 67.3149786,81.7665658 C68.0785492,80.9624914 68.5813458,80.6227099 69.0523894,79.7891328 C69.4771787,79.0370632 69.6836978,78.1839843 69.6494446,77.3216545 L69.5084315,73.7728261 C69.4871796,73.2430271 69.9312207,72.8119872 70.4590195,72.8484906 L73.7653254,73.0715112 C75.1014491,73.1575192 76.4123204,72.6699741 77.359658,71.7223864 L78.35425,70.7277944 C79.2670845,69.8149599 79.7611302,68.551343 79.7098755,67.2614736 L79.5688624,63.7126453 C79.5476105,63.180346 79.9949019,62.7510563 80.5194504,62.7883097 L83.8255063,63.0113304 C85.1631301,63.1003386 86.4727512,62.6095432 87.4198389,61.6622055 L88.1854097,60.8966347 C90.4568699,62.715303 93.8271817,62.6162938 95.9853814,60.4580941 C96.964472,59.4787535 97.5545266,58.2146365 97.677788,56.8522605 C103.894363,58.2118863 110.481473,57.1425373 115.96123,53.842232 L115.96123,73.4895499 C115.96123,75.4207286 114.390084,76.991874 112.458906,76.991874 L75.9795303,76.991874 C74.9439345,76.991874 74.1043568,77.8312016 74.1043568,78.8670475 C74.1043568,79.9028933 74.9439345,80.742221 75.9795303,80.742221 L112.458406,80.742221 C116.457526,80.742221 119.711077,77.48867 119.711077,73.4895499 L119.711077,51.0672252 C130.761599,41.1460572 130.76435,23.8184539 119.711077,13.8957858 L119.711077,13.8957858 Z M84.0770296,59.2687341 L80.7712237,59.0457134 C78.0119684,58.8659468 75.7112555,61.1066541 75.8207656,63.861159 L75.9617787,67.4099874 C75.9717796,67.6577603 75.8767708,67.9005328 75.7015046,68.075549 L74.7069126,69.070141 C74.5251457,69.2521578 74.2761227,69.3466666 74.0168487,69.3289149 L70.7105428,69.1058943 C67.9500374,68.9231274 65.6510746,71.1720855 65.7603347,73.9213399 L65.9013478,77.4701682 C65.9113487,77.7219415 65.8133396,77.9637139 65.6410737,78.1357298 L64.6622331,79.1143204 C64.4804663,79.2963372 64.2306932,79.391596 63.9721693,79.3730943 L60.6658634,79.1500737 C57.9043578,78.970307 55.6061452,81.2127645 55.7156553,83.9655192 L55.8566684,87.5143476 C55.8666693,87.7621205 55.7716605,88.004893 55.5963943,88.1799092 L54.6008022,89.1752513 C54.274522,89.5012815 53.8412319,89.6820482 53.3799392,89.6842984 L47.2303702,89.7145512 L47.2233695,89.7145512 C46.4485478,89.7145512 45.8179895,89.085993 45.8217232,88.3059209 L45.8517426,82.1561018 C45.8539928,81.6950592 46.0347596,81.2615191 46.3607897,80.9354889 L77.2668994,50.0293792 L85.5066618,58.2691416 L84.7665934,59.0092101 C84.5853266,59.191727 84.3338033,59.2879859 84.0770296,59.2687341 L84.0770296,59.2687341 Z M93.332886,57.8055987 C92.5095598,58.6289249 91.1701859,58.6289249 90.3468597,57.8055987 L77.3639084,44.8223974 C76.5408323,43.9993212 76.5408323,42.6601973 77.3639084,41.8366211 C78.1867345,41.013795 79.5258585,41.013795 80.3491846,41.8363711 C80.353185,41.8403714 80.3571854,41.8441218 80.3611857,41.8481222 L93.332886,54.8200724 C94.1562122,55.6431486 94.1562122,56.9825225 93.332886,57.8055987 L93.332886,57.8055987 Z M96.3906689,52.6171186 C96.0958917,52.2555852 82.9264231,39.1108689 82.9006707,39.0863666 C80.4376928,31.5436687 82.4403781,23.1076381 88.0613982,17.486868 C95.8748712,9.67339507 108.29202,9.22010313 116.633542,16.1907481 C126.779731,24.6632821 126.795482,40.2642256 116.645793,48.7615119 C116.640793,48.7657622 116.635792,48.7697626 116.630792,48.774013 C111.040024,53.4436951 103.31631,54.9025801 96.3906689,52.6171186 Z" id="Shape"></path>
                    <path d="M114.850377,20.6869141 C111.777343,17.6138798 106.769129,17.6018787 103.682844,20.6869141 C100.502049,23.8674584 100.599808,29.082941 103.977121,32.1339733 C107.087659,34.9429832 111.881602,34.8232222 114.850377,31.8544475 C114.850377,31.8544475 114.850377,31.8544475 114.850377,31.8541974 C117.936163,28.7686619 117.936663,23.7729497 114.850377,20.6869141 Z M106.412596,29.2784591 C106.412096,29.2779591 106.411596,29.277709 106.411346,29.277209 C106.400845,29.2672081 106.390344,29.2569571 106.379843,29.2467062 C106.377343,29.2442059 106.375093,29.2419557 106.372593,29.2397055 C106.360091,29.2274544 106.34759,29.2149532 106.335089,29.2027021 C104.714939,27.5820521 104.714439,24.9598095 106.335089,23.3391596 C107.951239,21.72276 110.582232,21.7222599 112.198882,23.3391596 C113.819282,24.9595595 113.819282,27.5820521 112.198882,29.2024521 C110.607484,30.7930993 108.034746,30.8188516 106.412596,29.2784591 Z" id="Shape"></path>
                </g>
            </g>
        </g>
    </g>
</svg>