<svg width="128" height="94" viewBox="0 0 128 94" xmlns="http://www.w3.org/2000/svg"><g fill="#1685E4" fill-rule="nonzero"><path d="M12.37 56.857h34.873a1.875 1.875 0 1 0 0-3.75H12.37a1.875 1.875 0 1 0 0 3.75ZM12.37 65.155h34.873a1.875 1.875 0 1 0 0-3.75H12.37a1.875 1.875 0 1 0 0 3.75ZM12.37 31.496c-1.035 0-1.875.84-1.875 1.875v9.704a5.327 5.327 0 0 0 5.32 5.32h27.983a5.327 5.327 0 0 0 5.32-5.32V15.816a5.327 5.327 0 0 0-5.32-5.32H15.816a5.327 5.327 0 0 0-5.321 5.32v8.789a1.875 1.875 0 1 0 3.75 0v-8.789c0-.866.705-1.57 1.57-1.57h27.983c.865 0 1.57.704 1.57 1.57v27.259c0 .866-.705 1.57-1.57 1.57h-1.296v-1.763c0-4.251-2.098-8.135-5.509-10.47a8.657 8.657 0 0 0 1.523-4.93c0-4.801-3.907-8.708-8.71-8.708-4.801 0-8.708 3.907-8.708 8.709 0 1.794.538 3.498 1.522 4.928a12.665 12.665 0 0 0-5.509 10.471v1.763h-1.295c-.866 0-1.57-.704-1.57-1.57v-9.704c0-1.035-.84-1.875-1.876-1.875Zm17.437-8.972a4.964 4.964 0 0 1 4.958 4.959 4.93 4.93 0 0 1-1.921 3.92l-.02.015a4.91 4.91 0 0 1-3.017 1.024 4.91 4.91 0 0 1-3.016-1.022l-.022-.017a4.93 4.93 0 0 1-1.921-3.92 4.964 4.964 0 0 1 4.959-4.959ZM20.86 42.882a8.925 8.925 0 0 1 4.624-7.835 8.624 8.624 0 0 0 4.322 1.145 8.626 8.626 0 0 0 4.321-1.145 8.925 8.925 0 0 1 4.624 7.835v1.763h-17.89v-1.763Z"/><path d="M119.711 13.896V7.253c0-4-3.253-7.253-7.253-7.253H7.253C3.253 0 0 3.254 0 7.253v66.236c0 4 3.254 7.253 7.253 7.253h29.193a1.875 1.875 0 1 0 0-3.75H7.253a3.506 3.506 0 0 1-3.503-3.503V7.253A3.506 3.506 0 0 1 7.253 3.75h105.205a3.506 3.506 0 0 1 3.503 3.503v3.862c-9.623-5.823-22.284-4.547-30.551 3.72a24.945 24.945 0 0 0-6.808 22.642 5.84 5.84 0 0 0-3.89 1.708 5.869 5.869 0 0 0-.095 8.192L43.71 78.284a5.456 5.456 0 0 0-1.608 3.854l-.03 6.15a5.15 5.15 0 0 0 5.152 5.177h.025l6.15-.03a5.456 5.456 0 0 0 3.854-1.607l.996-.996a4.655 4.655 0 0 0 1.356-3.466l-.141-3.549a.89.89 0 0 1 .95-.924l3.307.223a4.646 4.646 0 0 0 3.594-1.35c.764-.804 1.266-1.143 1.737-1.977a4.64 4.64 0 0 0 .597-2.467l-.14-3.55a.89.89 0 0 1 .95-.924l3.306.224a4.656 4.656 0 0 0 3.595-1.35l.994-.994a4.655 4.655 0 0 0 1.356-3.467l-.141-3.548a.89.89 0 0 1 .95-.925l3.307.223a4.644 4.644 0 0 0 3.594-1.349l.765-.765a5.86 5.86 0 0 0 7.8-.439 5.817 5.817 0 0 0 1.693-3.606 25.144 25.144 0 0 0 18.283-3.01V73.49a3.506 3.506 0 0 1-3.502 3.502h-36.48a1.875 1.875 0 1 0 0 3.75h36.48c3.999 0 7.252-3.253 7.252-7.252V51.067c11.05-9.92 11.053-27.249 0-37.171ZM84.077 59.269l-3.306-.223a4.644 4.644 0 0 0-4.95 4.815l.14 3.549a.893.893 0 0 1-.26.666l-.994.994a.885.885 0 0 1-.69.259l-3.306-.223a4.644 4.644 0 0 0-4.95 4.815l.14 3.55a.894.894 0 0 1-.26.665l-.979.978a.884.884 0 0 1-.69.26l-3.306-.224a4.643 4.643 0 0 0-4.95 4.816l.14 3.548a.893.893 0 0 1-.26.666l-.995.995c-.326.326-.76.507-1.221.51l-6.15.03h-.007a1.401 1.401 0 0 1-1.401-1.41l.03-6.149c.002-.46.183-.894.509-1.22l30.906-30.907 8.24 8.24-.74.74a.88.88 0 0 1-.69.26Zm9.256-1.463a2.114 2.114 0 0 1-2.986 0L77.364 44.822a2.114 2.114 0 0 1 0-2.985 2.114 2.114 0 0 1 2.985 0l.012.011L93.333 54.82a2.113 2.113 0 0 1 0 2.986Zm3.058-5.189c-.295-.361-13.465-13.506-13.49-13.53-2.463-7.543-.46-15.98 5.16-21.6 7.814-7.814 20.231-8.267 28.573-1.296 10.146 8.472 10.161 24.073.012 32.57l-.015.013c-5.591 4.67-13.315 6.129-20.24 3.843Z"/><path d="M114.85 20.687c-3.073-3.073-8.08-3.085-11.167 0a7.893 7.893 0 0 0 .294 11.447c3.11 2.809 7.905 2.69 10.873-.28a7.892 7.892 0 0 0 0-11.167Zm-8.437 8.591h-.002l-.031-.031a.188.188 0 0 0-.007-.007l-.038-.037a4.144 4.144 0 0 1 0-5.864 4.151 4.151 0 0 1 5.864 0 4.144 4.144 0 0 1 0 5.863 4.152 4.152 0 0 1-5.786.076Z"/></g></svg>