<?xml version="1.0" encoding="UTF-8"?>
<svg width="186.2px" height="200px" viewBox="0 0 186.2 200" version="1.1" xmlns="http://www.w3.org/2000/svg" xmlns:xlink="http://www.w3.org/1999/xlink">
    <title>images/angular</title>
    <g id="images/angular" stroke="none" stroke-width="1" fill="none" fill-rule="evenodd">
        <polygon id="Path" fill="#000000" fill-rule="nonzero" points="76.1 105.4 93.1 105.4 93.1 105.4 93.1 105.4 110.1 105.4 93.1 64.5"></polygon>
        <path d="M93.1,0 L93.1,0 L93.1,0 L0,33.2 L14.2,156.3 L93.1,200 L93.1,200 L93.1,200 L172,156.3 L186.2,33.2 L93.1,0 Z M151.2,152.6 L129.5,152.6 L129.5,152.6 L117.8,123.4 L93.1,123.4 L93.1,123.4 L93.1,123.4 L68.4,123.4 L56.7,152.6 L56.7,152.6 L35,152.6 L35,152.6 L93.1,22.1 L93.1,22.1 L93.1,22.1 L93.1,22.1 L93.1,22.1 L151.2,152.6 L151.2,152.6 Z" id="Shape" fill="#000000" fill-rule="nonzero"></path>
    </g>
</svg>