<?xml version="1.0" encoding="UTF-8"?>
<svg width="66px" height="70px" viewBox="0 0 66 70" version="1.1" xmlns="http://www.w3.org/2000/svg" xmlns:xlink="http://www.w3.org/1999/xlink">
    <title>405A9826-1662-4349-9E86-F193D7115559</title>
    <g id="Page-1" stroke="none" stroke-width="1" fill="none" fill-rule="evenodd">
        <g id="landing" transform="translate(-927.000000, -5751.000000)" fill-rule="nonzero">
            <g id="our-customers" transform="translate(440.000000, 5643.000000)">
                <g id="row-1" transform="translate(0.000000, 108.000000)">
                    <g id="angular-logo" transform="translate(487.000000, 0.000000)">
                        <polygon id="Path" fill="#DD0031" points="32.585 0 32.585 0 32.585 0 0 11.62 4.97 54.705 32.585 70 32.585 70 32.585 70 60.2 54.705 65.17 11.62"></polygon>
                        <polygon id="Path" fill="#C3002F" points="32.585 0 32.585 7.77 32.585 7.735 32.585 43.19 32.585 43.19 32.585 70 32.585 70 60.2 54.705 65.17 11.62"></polygon>
                        <path d="M32.585,7.735 L12.215,53.41 L12.215,53.41 L19.81,53.41 L19.81,53.41 L23.905,43.19 L41.195,43.19 L45.29,53.41 L45.29,53.41 L52.885,53.41 L52.885,53.41 L32.585,7.735 L32.585,7.735 L32.585,7.735 L32.585,7.735 L32.585,7.735 Z M38.535,36.89 L26.635,36.89 L32.585,22.575 L38.535,36.89 Z" id="Shape" fill="#FFFFFF"></path>
                    </g>
                </g>
            </g>
        </g>
    </g>
</svg>