<svg width="128" height="105" viewBox="0 0 128 105" xmlns="http://www.w3.org/2000/svg"><path d="M127.451 46.382a1.875 1.875 0 0 0-1.326-.55h-22.237V21.15C103.888 9.488 94.4 0 82.738 0 74.7 0 67.576 4.465 64 11.318 60.424 4.465 53.3 0 45.263 0a21.05 21.05 0 0 0-11.778 3.581 1.875 1.875 0 0 0 2.09 3.113 17.313 17.313 0 0 1 9.688-2.944 17.34 17.34 0 0 1 16.914 13.318 1.875 1.875 0 0 0 3.646 0A17.34 17.34 0 0 1 82.738 3.75c9.594 0 17.4 7.806 17.4 17.4v13.302H27.863V21.15c0-3.47 1.018-6.82 2.946-9.69a1.875 1.875 0 1 0-3.113-2.09 21.05 21.05 0 0 0-3.583 11.78v24.683H1.875c-1.036 0-1.875.84-1.875 1.875 0 11.987 9.753 21.74 21.74 21.74h9.224c-4.954 3.538-8.194 9.331-8.194 15.87 0 10.75 8.746 19.497 19.496 19.497 10.75 0 19.496-8.746 19.496-19.496A2.24 2.24 0 0 1 64 83.08c1.23 0 2.233 1 2.238 2.23v.01c0 10.75 8.746 19.495 19.497 19.495 2.942 0 5.771-.64 8.41-1.904a1.875 1.875 0 0 0-1.62-3.382 15.598 15.598 0 0 1-6.79 1.536 15.65 15.65 0 0 1-8.014-2.199l12.65-16.52a1.875 1.875 0 1 0-2.978-2.28L74.746 96.583a15.695 15.695 0 0 1-4.759-11.254v-.024c.009-8.676 7.07-15.732 15.748-15.732 6.36 0 11.847 3.793 14.33 9.235l-10.42 13.606a1.875 1.875 0 1 0 2.978 2.28l8.723-11.392c.085.662.134 1.334.134 2.018 0 3.728-1.327 7.345-3.737 10.185a1.875 1.875 0 0 0 2.86 2.426 19.51 19.51 0 0 0 4.627-12.61c0-6.54-3.24-12.334-8.194-15.873h9.224c11.987 0 21.74-9.752 21.74-21.74 0-.497-.197-.974-.549-1.326Zm-27.313-8.18v7.63H27.863v-7.63h72.275Zm-57.872 62.863c-2.925 0-5.664-.804-8.013-2.2l12.65-16.52a1.875 1.875 0 1 0-2.978-2.28L31.28 96.582a15.697 15.697 0 0 1-4.759-11.264c0-8.682 7.064-15.746 15.746-15.746 6.36 0 11.848 3.793 14.33 9.234L46.18 92.412a1.875 1.875 0 1 0 2.977 2.28l8.722-11.39c.085.66.134 1.333.134 2.017 0 8.682-7.064 15.746-15.746 15.746ZM66.95 80.11a5.95 5.95 0 0 0-2.95-.78 5.949 5.949 0 0 0-2.95.78 19.556 19.556 0 0 0-7.482-10.663h20.865a19.555 19.555 0 0 0-7.483 10.663Zm39.31-14.413H21.74c-9.286 0-16.952-7.073-17.893-16.115h120.306c-.94 9.042-8.606 16.115-17.893 16.115Z" fill="#1685E4" fill-rule="nonzero"/></svg>