<?xml version="1.0" encoding="UTF-8"?>
<svg width="128px" height="105px" viewBox="0 0 128 105" version="1.1" xmlns="http://www.w3.org/2000/svg" xmlns:xlink="http://www.w3.org/1999/xlink">
    <title>anonymity</title>
    <g id="Page-1" stroke="none" stroke-width="1" fill="none" fill-rule="evenodd">
        <g id="home-2" transform="translate(-1373.000000, -6010.000000)" fill="#1685E4" fill-rule="nonzero">
            <g id="security" transform="translate(340.000000, 5878.000000)">
                <g id="anonymity" transform="translate(1033.000000, 132.000000)">
                    <path d="M127.451249,46.3820905 C127.099498,46.0303398 126.622747,45.8328394 126.125246,45.8328394 L103.887703,45.8328394 L103.887703,21.1500413 C103.887703,9.48801851 94.3999342,0 82.7376614,0 C74.7013958,0 67.5761319,4.46525871 64.0001249,11.3180221 C60.4241179,4.46525871 53.298604,0 45.2625883,0 C41.0458301,0 36.9733221,1.23825242 33.4848153,3.58100699 C32.6253137,4.15825811 32.3963132,5.32326039 32.9735643,6.18276206 C33.5513155,7.04251374 34.7158177,7.27126419 35.5755694,6.69401306 C38.443575,4.7680093 41.7930815,3.75000732 45.2625883,3.75000732 C53.3361041,3.75000732 60.2913676,9.226768 62.1771213,17.0682833 C62.3798717,17.9110349 63.1333732,18.5050361 64.0001249,18.5050361 C64.8668766,18.5050361 65.620378,17.9110349 65.8231284,17.0682833 C67.7088821,9.226518 74.6641457,3.75000732 82.7376614,3.75000732 C92.3319302,3.75000732 100.137695,11.5557725 100.137695,21.1500413 L100.137695,34.4520672 L27.8625544,34.4520672 L27.8625544,21.1500413 C27.8625544,17.6802845 28.8813064,14.329528 30.8088101,11.4605224 C31.3863112,10.6010207 31.1578108,9.43601841 30.2980591,8.85851729 C29.4385574,8.28126616 28.2733052,8.5097666 27.696054,9.36926828 C25.3517995,12.8587751 24.1125471,16.932533 24.1125471,21.1500413 L24.1125471,45.8328394 L1.87500366,45.8328394 C0.839251638,45.8328394 0,46.6723411 0,47.7078431 C0,59.6953665 9.75276903,69.4478855 21.7402924,69.4478855 L30.9643104,69.4478855 C26.0095508,72.9863924 22.7700444,78.7794037 22.7700444,85.3186665 C22.7700444,96.0686875 31.5158115,104.814955 42.2658325,104.814955 C53.0158534,104.814955 61.7616205,96.0686875 61.7616205,85.3186665 C61.7616205,84.0844141 62.7658725,83.0804121 63.9998749,83.0804121 C65.2308773,83.0804121 66.2326292,84.0796641 66.2376292,85.3094165 C66.2376292,85.3129165 66.2373792,85.3164165 66.2373792,85.3199165 C66.2373792,96.0696875 74.9838963,104.814955 85.7349173,104.814955 C88.676923,104.814955 91.5064286,104.174453 94.1446837,102.911201 C95.0784355,102.46395 95.4731863,101.344198 95.0259354,100.410196 C94.5786845,99.4761941 93.4586824,99.0816933 92.5249305,99.5289442 C90.3961764,100.548196 88.1119219,101.065197 85.7349173,101.065197 C82.8099116,101.065197 80.0706562,100.261196 77.7211517,98.8664429 L90.3704263,82.3456607 C90.9999276,81.5234091 90.8439273,80.3464068 90.0214257,79.7169055 C89.1991741,79.0871543 88.0221718,79.2439046 87.3926705,80.0659062 L74.7461459,96.5834385 C71.8151401,93.7239329 69.9898866,89.7366751 69.9873866,85.3291665 C69.9873866,85.3259165 69.9878866,85.3224165 69.9878866,85.3191665 C69.9878866,85.3144165 69.9876366,85.3099165 69.9876366,85.3054165 C69.9958866,76.6291495 77.0566504,69.5728858 85.7349173,69.5728858 C92.0949297,69.5728858 97.5821904,73.3661432 100.064445,78.8076538 L89.6456749,92.4136803 C89.0161737,93.2359319 89.172174,94.4126842 89.9946756,95.0421855 C90.3346763,95.302686 90.7356771,95.4286862 91.1331778,95.4286862 C91.6969289,95.4286862 92.25418,95.1754357 92.6234307,94.6934348 L101.346198,83.3024125 C101.431198,83.9636638 101.479948,84.6364151 101.479948,85.3204165 C101.479948,89.0481738 100.152695,92.6651808 97.7429407,95.5046864 C97.0729394,96.2941879 97.1699396,97.4774402 97.9594411,98.1474415 C98.7491927,98.8176928 99.932445,98.7204426 100.602196,97.9311911 C103.586452,94.4146842 105.229955,89.9359255 105.229955,85.3204165 C105.229955,78.7809037 101.990699,72.9873924 97.0361893,69.4483855 L106.259707,69.4483855 C118.247231,69.4483855 128,59.6956165 128,47.7080931 C128,47.2105921 127.802749,46.7335912 127.451249,46.3820905 L127.451249,46.3820905 Z M100.137695,38.2020745 L100.137695,45.8325894 L27.8625544,45.8325894 L27.8625544,38.2020745 L100.137695,38.2020745 Z M42.2658325,101.064697 C39.3413268,101.064697 36.6023214,100.260696 34.2530668,98.8659429 L46.9030915,82.3441607 C47.5325927,81.5219091 47.3765924,80.3449068 46.5540908,79.7154055 C45.7315892,79.0856543 44.5548369,79.2424046 43.9253357,80.0644062 L31.278561,96.5826885 C28.3458053,93.7211829 26.5200517,89.7301751 26.5200517,85.3189165 C26.5200517,76.6366495 33.5835655,69.5731358 42.2658325,69.5731358 C48.6263449,69.5731358 54.1141056,73.3661432 56.5963604,78.8074038 L46.1785901,92.4121803 C45.5490889,93.2344319 45.7050892,94.4111842 46.5275908,95.0406855 C46.8675915,95.301186 47.2685922,95.4271862 47.666093,95.4271862 C48.2298441,95.4271862 48.7870952,95.1739357 49.1563459,94.6919348 L57.8781129,83.3016625 C57.9631131,83.9626638 58.0118632,84.6349151 58.0118632,85.3186665 C58.0118632,94.0011834 50.9483494,101.064697 42.2658325,101.064697 Z M66.9501306,80.1106563 C66.0786289,79.6151554 65.072377,79.3304048 64.0001249,79.3304048 C62.9278728,79.3304048 61.9213708,79.6151554 61.0498691,80.1109063 C59.8406168,75.7553978 57.1556115,72.0106405 53.5676045,69.4481355 L74.4326452,69.4481355 C70.8443882,72.0106405 68.159383,75.7553978 66.9501306,80.1106563 Z M106.259957,65.6981282 L21.7402924,65.6981282 C12.4537743,65.6981282 4.78775934,58.6246144 3.84700751,49.5828467 L124.153492,49.5828467 C123.21249,58.6246144 115.546725,65.6981282 106.259957,65.6981282 Z" id="Shape"></path>
                </g>
            </g>
        </g>
    </g>
</svg>