<?xml version="1.0" encoding="UTF-8"?>
<svg width="180px" height="20px" viewBox="0 0 180 20" version="1.1" xmlns="http://www.w3.org/2000/svg" xmlns:xlink="http://www.w3.org/1999/xlink">
    <title>A02253FA-915A-47DA-9DD1-86E67973633B</title>
    <g id="Page-1" stroke="none" stroke-width="1" fill="none" fill-rule="evenodd">
        <g id="landing" transform="translate(-1101.000000, -5771.000000)" fill="#049BD4" fill-rule="nonzero">
            <g id="our-customers" transform="translate(440.000000, 5643.000000)">
                <g id="row-1" transform="translate(0.000000, 108.000000)">
                    <g id="blockchain-seeklogo.com" transform="translate(661.000000, 20.000000)">
                        <g id="g5" transform="translate(0.000000, 0.403927)">
                            <path d="M12.9004208,8.83590463 C14.5413745,8.11640954 15.7657784,6.85413745 15.7657784,4.70827489 L15.7657784,4.65778401 C15.7657784,3.3828892 15.3113604,2.41093969 14.5666199,1.66619916 C13.4810659,0.580645161 11.8401122,-7.17518611e-15 9.50490884,-7.17518611e-15 L0,-7.17518611e-15 L0,18.5301543 L9.56802244,18.5301543 C13.9859748,18.5301543 16.5862553,16.598878 16.5862553,13.4179523 L16.5862553,13.3674614 C16.5736325,10.8429173 15.1472651,9.56802244 12.9004208,8.83590463 L12.9004208,8.83590463 L12.9004208,8.83590463 Z M5.0112202,4.11500701 L8.34361851,4.11500701 C9.87096774,4.11500701 10.6788219,4.69565217 10.6788219,5.70546985 L10.6788219,5.75596073 C10.6788219,6.84151473 9.80785414,7.371669 8.24263675,7.371669 L5.0112202,7.371669 L5.0112202,4.11500701 L5.0112202,4.11500701 L5.0112202,4.11500701 Z M11.4361851,12.6984572 C11.4361851,13.7840112 10.5399719,14.3899018 8.97475456,14.3899018 L4.99859748,14.3899018 L4.99859748,10.9817672 L8.91164095,10.9817672 C10.628331,10.9817672 11.4235624,11.6381487 11.4235624,12.6479663 L11.4235624,12.6984572 L11.4361851,12.6984572 Z" id="path7"></path>
                        </g>
                        <g id="g9" transform="translate(18.858345, 0.391304)">
                            <polygon id="polygon11" points="5.12482468 7.17518611e-15 3.58759306e-15 7.17518611e-15 3.58759306e-15 18.5175316 14.0995792 18.5175316 14.0995792 14.0364656 5.12482468 14.0364656"></polygon>
                        </g>
                        <g id="g13" transform="translate(33.462833, 0.025245)">
                            <path d="M10.0098177,0 C4.29172511,0 0,4.31697055 0,9.64375877 L0,9.70687237 C0,15.0336606 4.2286115,19.2875175 9.94670407,19.2875175 C15.6647966,19.2875175 19.9565217,14.970547 19.9565217,9.64375877 L19.9565217,9.58064516 C19.9565217,4.25385694 15.7279102,0 10.0098177,0 Z M14.7180926,9.68162693 C14.7180926,12.3576438 12.8499299,14.6423562 9.99719495,14.6423562 C7.18232819,14.6423562 5.25105189,12.3197756 5.25105189,9.64375877 L5.25105189,9.58064516 C5.25105189,6.90462833 7.11921459,4.61991585 9.93408135,4.61991585 C12.7615708,4.61991585 14.6928471,6.94249649 14.6928471,9.61851332 L14.6928471,9.68162693 L14.7180926,9.68162693 L14.7180926,9.68162693 Z" id="path15"></path>
                        </g>
                        <g id="g17" transform="translate(55.476858, 0.000000)">
                            <path d="M9.70687237,14.5918654 C7.10659187,14.5918654 5.30154278,12.4207574 5.30154278,9.63113604 L5.30154278,9.56802244 C5.30154278,6.87938289 7.13183731,4.67040673 9.70687237,4.67040673 C11.486676,4.67040673 12.6858345,5.52875175 13.7587658,6.84151473 L17.6213184,3.86255259 C15.9803647,1.57784011 13.5441795,0 9.75736325,0 C4.14025245,0 -7.17518611e-15,4.2286115 -7.17518611e-15,9.64375877 L-7.17518611e-15,9.70687237 C-7.17518611e-15,15.2230014 4.25385694,19.2875175 9.55539972,19.2875175 C13.657784,19.2875175 16.0182328,17.5077139 17.772791,15.1093969 L13.8723703,12.3576438 C12.7741935,13.6956522 11.6381487,14.5918654 9.70687237,14.5918654" id="path19"></path>
                        </g>
                        <g id="g21" transform="translate(92.650771, 0.000000)">
                            <path d="M9.71949509,14.5918654 C7.11921459,14.5918654 5.28892006,12.4207574 5.28892006,9.63113604 L5.28892006,9.56802244 C5.28892006,6.87938289 7.11921459,4.67040673 9.71949509,4.67040673 C11.4992987,4.67040673 12.6984572,5.52875175 13.7713885,6.84151473 L17.6339411,3.86255259 C15.9929874,1.57784011 13.5568022,1.43503722e-14 9.76998597,1.43503722e-14 C4.15287518,1.43503722e-14 -1.43503722e-14,4.2286115 -1.43503722e-14,9.64375877 L-1.43503722e-14,9.70687237 C-1.43503722e-14,10.5273492 0.113604488,11.3099579 0.290322581,12.0673212 L0.290322581,12.0673212 C1.30014025,16.3338008 5.03646564,19.2875175 9.542777,19.2875175 C13.6451613,19.2875175 16.0056101,17.5077139 17.7601683,15.1093969 L13.8976157,12.3576438 C12.799439,13.6956522 11.6507714,14.5918654 9.71949509,14.5918654" id="path23"></path>
                        </g>
                        <g id="g25" transform="translate(112.632539, 0.391304)">
                            <polygon id="polygon27" points="5.12482468 11.4740533 11.7265077 11.4740533 11.7265077 18.5175316 16.8513324 18.5175316 16.8513324 7.17518611e-15 11.7265077 7.17518611e-15 11.7265077 6.92987377 5.12482468 6.92987377 5.12482468 7.17518611e-15 0 7.17518611e-15 0 18.5175316 5.12482468 18.5175316"></polygon>
                        </g>
                        <g id="g29" transform="translate(131.301543, 0.252454)">
                            <path d="M12.8373072,-7.17518611e-15 L7.87657784,-7.17518611e-15 L0,18.6563815 L5.40252454,18.6563815 L6.72791024,15.3366059 L13.8723703,15.3366059 L15.2230014,18.6563815 L20.7265077,18.6563815 L12.8373072,-7.17518611e-15 L12.8373072,-7.17518611e-15 L12.8373072,-7.17518611e-15 Z M8.23001403,11.3604488 L10.312763,6.09677419 L12.3828892,11.3604488 L8.23001403,11.3604488 Z" id="path31"></path>
                        </g>
                        <g id="g33" transform="translate(153.934081, 0.391303)">
                            <rect id="rect35" x="0" y="0" width="5.15007" height="18.5301543"></rect>
                        </g>
                        <g id="g37" transform="translate(162.492286, 0.391304)">
                            <polygon id="polygon39" points="4.78401122 7.17518611e-15 -2.87007444e-14 7.17518611e-15 -2.87007444e-14 18.5175316 5.0743338 18.5175316 5.0743338 8.35624123 13.0014025 18.5175316 17.5077139 18.5175316 17.5077139 7.17518611e-15 12.4081346 7.17518611e-15 12.4081346 9.79523142"></polygon>
                        </g>
                        <g id="g41" transform="translate(75.433380, 0.378682)">
                            <polygon id="polygon43" points="11.6633941 18.5301543 11.6633941 18.5301543 16.8008415 18.5301543 9.83309958 8.54558205 17.6086957 -7.17518611e-15 16.6367461 -7.17518611e-15 15.1346424 -7.17518611e-15 13.1402525 -7.17518611e-15 11.5119215 -7.17518611e-15 11.5119215 -7.17518611e-15 11.5119215 -7.17518611e-15 5.12482468 7.51051893 5.12482468 -7.17518611e-15 0 -7.17518611e-15 0 18.5301543 5.12482468 18.5301543 5.12482468 13.7335203 7.0056101 11.6633941"></polygon>
                        </g>
                    </g>
                </g>
            </g>
        </g>
    </g>
</svg>