<?xml version="1.0" encoding="UTF-8"?>
<svg width="82px" height="55px" viewBox="0 0 82 55" version="1.1" xmlns="http://www.w3.org/2000/svg" xmlns:xlink="http://www.w3.org/1999/xlink">
    <title>F85EA737-5225-4EEA-9430-6FD89DDECABF</title>
    <g id="Page-1" stroke="none" stroke-width="1" fill="none" fill-rule="evenodd">
        <g id="landing" transform="translate(-1016.000000, -3394.000000)" fill="#2B2A29" fill-rule="nonzero">
            <g id="our-customers" transform="translate(412.000000, 3173.000000)">
                <g id="row-2" transform="translate(39.000000, 221.000000)">
                    <g id="body-chief" transform="translate(565.000000, 0.000000)">
                        <path d="M4.08451794,35.9703962 C4.1317378,36.371765 4.17895766,36.7613289 4.22617752,37.1626977 C4.28520234,37.6112864 4.37964207,38.0008502 4.50949668,38.2959743 C5.45389389,37.5050417 5.97331236,37.068258 6.04414215,36.9974282 C6.58717055,36.4543998 6.85868475,35.8995664 6.85868475,35.3329281 C6.85868475,35.2030735 6.83507481,35.0732188 6.81146488,34.9551692 C6.74063509,34.5892153 6.48092586,34.2468713 5.99692229,33.9281372 C5.52472368,33.6212081 5.06433004,33.4559386 4.62754633,33.4559386 C4.30881228,33.4559386 4.06090801,33.5503783 3.8956385,33.7392578 C3.81300374,33.8691124 3.77758884,34.022577 3.77758884,34.2114564 C3.77758884,34.4003358 3.8248087,34.69546 3.91924843,35.0732188 C4.01368815,35.5100026 4.06090801,35.8169317 4.08451794,35.9703962 Z M3.48246472,28.9936618 C3.45885479,29.1235164 3.47065975,29.3242008 3.52968458,29.595715 C3.60051437,29.8554243 3.61231933,30.0679136 3.57690444,30.2095732 C4.07271297,30.2567931 4.52130165,30.1387434 4.93447543,29.8672292 C5.34764921,29.5839101 5.60735844,29.265176 5.71360313,28.8992221 C5.73721306,28.8520022 5.73721306,28.8165873 5.73721306,28.7811724 C5.73721306,28.6513178 5.57194354,28.5332682 5.24140452,28.4034135 C4.72198606,28.2145341 4.43866689,28.1082894 4.39144703,28.0964845 C4.29700731,28.0374596 4.20256759,28.0020447 4.1317378,28.0020447 C3.8248087,28.0020447 3.61231933,28.3325838 3.48246472,28.9936618 Z M1.47562064,30.5165023 C1.44020575,30.4102576 1.45201071,29.926254 1.49923057,29.0644916 C1.51103554,28.4624384 1.36937596,28.0728745 1.06244686,27.8839951 C1.00342204,27.8131653 0.84995749,27.7777504 0.613858187,27.7659454 C0.377758884,27.7423355 0.212489372,27.6715057 0.129854617,27.5416511 C0.0472198606,27.3999915 0,27.246527 0,27.0694525 C0,26.7861333 0.118049651,26.5382291 0.342343989,26.3021298 C0.578443292,26.0778354 0.779127699,25.9597858 0.944397211,25.9597858 L3.15192569,25.9597858 C3.99007822,26.0070056 4.67476619,26.1722751 5.19418466,26.4555943 C5.33584424,26.5382291 5.9260925,26.7625234 6.9767344,27.1520872 C7.69683727,27.3999915 8.2280607,27.7423355 8.54679476,28.1909242 C8.68845434,28.4860483 8.71206427,28.7221476 8.64123448,28.8992221 L7.18922377,30.1387434 C6.62258544,30.6463569 6.09136201,31.0359208 5.59555348,31.3192399 C5.54833361,31.3192399 5.47750382,31.3546548 5.37125914,31.4254846 C5.26501445,31.4963144 5.21779459,31.5671442 5.21779459,31.626169 C5.21779459,31.6733889 5.25320949,31.7088038 5.31223431,31.7206087 C7.36629825,32.1101726 8.58220966,32.9483251 8.94816357,34.2350663 C9.0071884,34.4829706 9.0426033,34.7190699 9.0426033,34.9787791 C9.0426033,35.9113714 8.46416,36.9502083 7.33088335,38.083485 C5.37125914,40.0431092 3.65953919,41.0583362 2.18391855,41.117361 C1.97142918,41.1409709 1.78254974,41.0937511 1.61728022,40.9757014 C1.39298589,40.8458468 1.2867412,40.6923823 1.2867412,40.5035028 C1.2867412,40.3028184 1.42840078,40.0431092 1.73532988,39.747985 C2.030454,39.4410559 2.18391855,39.2639815 2.18391855,39.1931517 C2.21933345,38.8626127 2.23113841,38.5320736 2.23113841,38.1779247 C2.23113841,37.4696268 2.04225897,35.9822012 1.66450008,33.7392578 C1.64089015,33.6330131 1.57006036,33.3969138 1.45201071,33.0545698 C1.3221561,32.7594457 1.26313127,32.5115414 1.26313127,32.322662 C1.26313127,32.1101726 1.33396106,31.9094882 1.47562064,31.7206087 C1.62908519,31.5671442 1.62908519,31.1657754 1.47562064,30.5165023 Z" id="Shape"></path>
                        <path d="M12.1473091,35.8287366 C12.4424333,37.2217225 13.0208765,37.9182154 13.882639,37.9182154 C14.0715184,37.9182154 14.2722029,37.8709956 14.4964972,37.7765559 C15.7006036,37.2217225 16.3026569,36.1946905 16.3026569,34.69546 C16.3026569,34.329506 16.255437,33.9753571 16.1846072,33.6212081 C15.9957278,32.9011053 15.3582596,32.5351513 14.2840078,32.5351513 C14.1187383,32.5351513 13.9770787,32.5469563 13.8354191,32.5823712 C13.4694652,32.653201 13.0799014,33.1253996 12.6549226,33.9635521 C12.2417488,34.8135096 12.0646744,35.4391728 12.1473091,35.8287366 Z M14.7325965,29.949864 C15.8186533,29.949864 16.7866604,30.4810874 17.601203,31.5317293 C18.285891,32.4171017 18.628235,33.4205237 18.628235,34.5538004 C18.628235,35.4155628 18.4157456,36.2419104 18.0025718,37.0328431 C17.5893981,37.8119708 17.0227597,38.4494389 16.3026569,38.9334424 C15.4645043,39.4882758 14.6027419,39.771595 13.7173695,39.771595 C12.8910219,39.771595 12.1591141,39.5354957 11.509841,39.0514921 C10.1876849,38.1070949 9.53841183,36.9029884 9.53841183,35.4509777 C9.53841183,34.1878465 10.0932452,32.9483251 11.2147169,31.7442187 C12.3243836,30.5519172 13.5048801,29.949864 14.7325965,29.949864 Z" id="Shape"></path>
                        <path d="M22.3704089,37.9536303 C22.4648487,37.9654353 22.5592884,37.9654353 22.6537281,37.9654353 C23.3974409,37.9654353 24.034909,37.5404566 24.5779374,36.702304 C25.3688701,35.4863926 25.7702389,34.5183855 25.7702389,33.7864776 C25.7702389,33.5031585 25.7112141,33.2316443 25.6167743,32.98374 C25.3216502,32.1455875 24.8612566,31.4136797 24.2473984,30.7998215 C23.5509054,30.1033285 22.7717778,29.7137647 21.9218203,29.619325 C21.9218203,30.3394278 21.9690401,31.8268534 22.0634798,34.0697968 C22.1697245,36.6550842 22.2759692,37.9418254 22.3704089,37.9536303 Z M20.4461996,39.9132546 C20.1864904,39.8188148 19.9385861,39.6417404 19.7260967,39.4056411 C19.5136074,39.1577368 19.4073627,38.9098325 19.4073627,38.6501233 C19.4073627,38.5792935 19.4191677,38.4966587 19.4545825,38.4258289 C19.4899974,38.3549992 19.631657,38.2133396 19.9031712,38.0126552 C20.1274656,37.8591906 20.2455152,37.6939211 20.2573202,37.5404566 C20.30454,35.7224919 20.1392705,32.9601301 19.7379017,29.253371 C19.7379017,29.1471263 19.6670719,28.9936618 19.5254123,28.8047824 L19.1476535,28.3561937 L19.1476535,27.8603851 C19.289313,27.3055518 19.7024868,27.0222326 20.3989798,27.0222326 C20.5288344,27.0222326 20.646884,27.0340376 20.7531287,27.0458426 C21.8982103,27.0458426 22.8662175,27.3173568 23.6571501,27.8603851 C24.8258417,28.6277079 25.8410687,29.60752 26.6910262,30.7762115 C27.3166893,31.649779 27.6354234,32.5941762 27.6354234,33.6212081 C27.6354234,34.8135096 27.2458595,35.9585912 26.4549269,37.0918679 C25.7112141,38.1425098 24.7786218,38.9570524 23.6571501,39.5118857 C22.8780224,39.9014496 22.1697245,40.102134 21.5204514,40.102134 C21.1426926,40.102134 20.7767386,40.0313042 20.4461996,39.9132546 Z" id="Shape"></path>
                        <path d="M29.465193,42.2624426 C29.3353384,42.0499532 29.3117284,41.6603894 29.3943632,41.0701411 C29.453388,40.6569674 29.7367072,39.6535453 30.2443207,38.059875 C30.6811044,36.7495239 30.8463739,35.7697118 30.7755441,35.1204387 C30.6574945,34.2822862 30.1852959,32.9365202 29.3353384,31.0831406 C28.4853809,29.2297611 28.0131823,27.8603851 27.8951326,26.9514028 C27.8479128,26.6916936 27.9777674,26.4555943 28.2728915,26.2431049 C28.5562107,26.0424205 28.8749447,25.9361758 29.2054838,25.9361758 C29.4297781,25.9361758 29.5950476,25.9833957 29.7012923,26.0778354 C30.1616859,26.4910092 30.5748597,27.4117965 30.9408136,28.8520022 C31.2949626,30.3748427 31.6727215,31.3546548 32.0504803,31.7914385 C32.2983846,31.4608995 32.6407286,30.5519172 33.0657074,29.0644916 C33.4552712,27.7541405 33.9038599,26.904183 34.4232783,26.5264241 C34.6711826,26.3375446 34.9663067,26.2431049 35.2732358,26.2431049 C35.898899,26.2431049 36.2058281,26.4673993 36.2058281,26.904183 C36.2058281,26.9868177 36.1822181,27.0694525 36.1586082,27.1756972 C35.54475,28.6985377 34.6357677,30.8588463 33.4552712,33.6212081 C33.3726364,33.8336975 33.3372215,34.0461869 33.3372215,34.2586763 C33.3372215,34.69546 33.4788811,35.0850238 33.7622003,35.4509777 C33.8212251,35.5100026 33.85664,35.6044423 33.85664,35.710687 C33.85664,35.9113714 33.7858102,36.1592756 33.6677606,36.4189849 C33.5851258,36.4898147 33.3726364,36.5842544 33.0184875,36.702304 C32.7351683,36.7967438 32.5580938,36.9502083 32.4754591,37.1626977 C32.2393598,38.3313892 31.8616009,39.9840843 31.3421824,42.144393 C31.2241328,42.4985419 30.9053987,42.6874214 30.3623703,42.6874214 C29.9255866,42.6874214 29.6186575,42.5457618 29.465193,42.2624426 Z" id="Path"></path>
                        <path d="M45.1185768,29.7609845 C45.5317505,29.6665448 45.9449243,29.619325 46.3580981,29.619325 C46.9365414,29.619325 47.6802542,29.7373746 48.5656266,29.9970838 C49.1676798,30.1623534 49.4628039,30.5046973 49.4628039,30.9887009 C49.4628039,31.1185555 49.427389,31.2484101 49.3447543,31.3664598 C49.2148997,31.6025591 49.0142153,31.7678286 48.7190911,31.8386584 C48.423967,31.9212932 48.1406478,31.9921229 47.8809386,32.0629527 C47.7156691,32.1101726 47.5503996,32.1337825 47.3733251,32.1337825 C47.1726407,32.1337825 46.8775166,32.0865627 46.4997577,32.0039279 C46.1219988,31.9094882 45.8386796,31.8622683 45.6734101,31.8622683 C45.5317505,31.8622683 45.4018959,31.8858783 45.2838463,31.9330981 C43.9144703,32.4171017 43.2297823,33.4913535 43.2297823,35.1676586 C43.2297823,35.6398572 43.3006121,36.1120558 43.4422717,36.5842544 C43.678371,37.3515771 44.1151547,37.9536303 44.7644278,38.414024 C45.4137009,38.8744176 46.1338038,39.098712 46.9247364,39.098712 C47.3261052,39.098712 47.7038641,39.0396871 48.093428,38.9098325 C48.2350876,38.8626127 48.5538216,38.6855382 49.0614351,38.3668041 C49.4864139,38.0952899 49.8169529,37.9654353 50.0294423,37.9654353 C50.1711018,37.9654353 50.3009565,38.0008502 50.4190061,38.083485 C50.9620345,38.5320736 51.2453537,38.9570524 51.2453537,39.3702262 C51.2453537,39.6299354 51.1036941,39.8660347 50.8203749,40.0785241 C49.8995876,40.7396021 48.8135308,41.0701411 47.5622045,41.0701411 C46.724052,41.0701411 45.8386796,40.9284816 44.8824775,40.6451624 C43.7019809,40.2792085 42.8166086,39.8660347 42.2499702,39.3938361 C41.2819631,38.5792935 40.8097645,37.4460168 40.8097645,35.9940061 C40.8097645,34.5419954 41.1639134,33.2434493 41.8958213,32.1101726 C42.6867539,30.8706513 43.7610058,30.0915236 45.1185768,29.7609845 Z" id="Path"></path>
                        <path d="M52.0244814,34.8843394 C52.0126764,34.7898997 51.9654565,34.6010202 51.8828218,34.3058961 C51.8356019,34.1052117 51.823797,33.9517472 51.8356019,33.8573074 C51.8474069,33.7510628 51.8946267,33.5503783 51.9772615,33.2670592 C52.0598963,32.98374 52.1071161,32.7594457 52.1189211,32.5823712 C52.142531,32.2282222 52.130726,31.7206087 52.0835062,31.0595307 C52.0480913,30.3394278 52.0244814,29.8200094 52.0244814,29.5130803 C52.0244814,28.5332682 52.1897509,27.7423355 52.5202899,27.1520872 C52.7209743,26.8097433 53.0869282,26.6444737 53.6417616,26.6444737 C53.9841056,26.6444737 54.3146446,26.7271085 54.6333787,26.880573 C55.0583574,27.2819419 55.2590418,27.6360908 55.2118219,27.9548249 C55.1764071,28.1555093 55.0347475,28.7221476 54.7868432,29.6665448 C54.5979638,30.3866477 54.4917191,30.965091 54.4917191,31.3900697 C54.4917191,31.8622683 54.6097687,32.2754421 54.845868,32.6295911 C55.0701624,32.9719351 55.5659709,33.1490095 56.3096837,33.1490095 C56.6756376,33.1490095 56.899932,33.0545698 56.9825667,32.8656904 C57.2068611,32.2636371 57.3131057,31.4608995 57.3131057,30.4692824 L57.3131057,29.619325 L57.3131057,28.7339526 C57.3131057,28.1318993 57.3485206,27.6242858 57.4075455,27.1993071 C57.5019852,26.561839 57.9387689,26.2431049 58.7060916,26.2431049 C59.2255101,26.2431049 59.5442442,26.3965695 59.6740988,26.6916936 C59.8865881,27.2819419 59.9928328,27.9666298 59.9928328,28.7339526 C59.9928328,29.1589313 59.933808,29.926254 59.7921484,31.0123108 C59.6977087,31.980318 59.6622938,32.7358358 59.6859037,33.2906691 C59.7095137,33.3969138 59.8393683,33.5857932 60.0990775,33.8455025 C60.3469818,34.1052117 60.4768364,34.329506 60.5004463,34.5065805 C60.5122513,34.6482401 60.4414215,34.8017046 60.276152,34.9669742 C60.1108825,35.1322437 60.0164428,35.2384884 59.9928328,35.2857082 C59.933808,35.6516621 59.8983931,36.041226 59.8983931,36.4425948 C59.8983931,37.0328431 60.0164428,37.9064105 60.2407371,39.0632971 C60.4532265,40.2319886 60.5712761,41.117361 60.5712761,41.7076093 C60.3469818,41.7666341 60.1462974,41.790244 59.945613,41.790244 C59.1900952,41.790244 58.6352618,41.3888752 58.2693079,40.5979425 C58.0332086,40.090329 57.8325242,39.2285666 57.6790597,38.0126552 C57.5019852,36.714109 57.3367157,35.8523465 57.1714462,35.4155628 C57.0179816,34.9787791 56.6048078,34.7662898 55.9437298,34.7662898 C55.3770915,34.7662898 55.0347475,34.8725344 54.9166978,35.0968288 C54.7042084,35.4273678 54.5861588,35.8405416 54.5861588,36.3245452 C54.5861588,36.6432792 54.6569886,37.1508927 54.7750382,37.8591906 C54.9048929,38.5674885 54.9639177,39.086907 54.9639177,39.4410559 C54.9639177,39.8424248 54.9048929,40.2201836 54.7750382,40.5507227 C53.830641,40.5861376 53.145953,40.2555985 52.7209743,39.5827155 C52.4140452,39.075102 52.2369707,38.2959743 52.1661409,37.2571374 C52.1189211,36.4662047 52.0717012,35.6752721 52.0244814,34.8843394 Z" id="Path"></path>
                        <path d="M61.2559641,37.0210381 C61.2559641,36.9029884 61.2441591,35.9822012 61.2323542,34.2350663 C61.2205492,33.1372046 61.2205492,32.2046123 61.2559641,31.4608995 C61.291379,30.4574775 61.3740138,29.5012753 61.5156733,28.6277079 C61.6573329,27.7541405 62.1295315,27.3173568 62.9440741,27.3173568 C63.321833,27.3173568 63.7113968,27.4472114 64.1009607,27.7187256 C64.2898401,27.8958 64.3842799,28.0728745 64.3842799,28.261754 C64.3842799,28.3089738 64.3842799,28.3561937 64.3606699,28.4034135 C63.8884713,29.7845945 63.652372,31.4372896 63.652372,33.3614989 C63.652372,33.9753571 63.6877869,35.0732188 63.7704217,36.6314742 C63.8294465,38.0126552 63.8530564,39.098712 63.8412515,39.8896446 C63.8294465,40.1375489 63.5461273,40.2674035 63.0149039,40.2674035 C62.7433897,40.2674035 62.5072904,40.2083787 62.294801,40.102134 C61.7989925,39.8424248 61.4802584,39.4056411 61.3504038,38.7681729 C61.291379,38.5084637 61.2559641,37.9182154 61.2559641,37.0210381 Z" id="Path"></path>
                        <path d="M65.340482,32.0865627 C65.340482,31.8386584 65.2814572,31.4608995 65.1752125,30.941481 C65.0571629,30.4220626 65.009943,30.0443037 65.009943,29.8082044 C65.009943,29.3950306 65.1043827,29.0526866 65.2932622,28.7811724 C66.0487799,27.6951156 67.1938616,27.1520872 68.728507,27.1520872 C69.8735887,27.1520872 70.8770107,27.4826263 71.7387731,28.1437043 C71.8568228,28.2263391 71.9040427,28.3443887 71.9040427,28.4978533 C71.9040427,28.6749277 71.8214079,28.8520022 71.6325285,29.0172717 C71.455454,29.1943462 71.2311596,29.3005909 70.9832554,29.3478108 C70.6999362,29.3832257 70.3103724,29.3360058 69.8263688,29.2061512 C69.2833404,29.0644916 68.9055815,28.9936618 68.6812872,28.9936618 C68.4451879,28.9936618 68.2208935,29.0408817 68.0202091,29.1117115 C67.5952304,29.3005909 67.382741,29.7137647 67.382741,30.3276229 C67.382741,30.4692824 67.4063509,30.7053817 67.4535708,31.0241158 C67.5007907,31.3546548 67.5244006,31.5907541 67.5244006,31.7442187 C67.5244006,32.0629527 67.4771807,32.322662 67.382741,32.5115414 C67.6896701,32.6768109 68.0910389,32.7712506 68.5750425,32.7712506 C68.740312,32.7712506 68.9646063,32.7594457 69.2715354,32.7358358 C69.5784645,32.7122258 69.8027589,32.7004209 69.9444184,32.7004209 C70.7943759,32.7004209 71.3610143,33.0427648 71.6207235,33.7156479 C71.3019894,34.2822862 70.6645213,34.5774103 69.6729042,34.6010202 C68.5986524,34.6128252 67.9257694,34.7662898 67.6660602,35.0614139 C67.394546,35.356538 67.2528864,35.8287366 67.2528864,36.4898147 C67.2528864,36.2891303 67.3237162,37.044648 67.4771807,38.744563 C67.6660602,38.7917829 67.8549396,38.8153928 68.067429,38.8153928 C68.6458723,38.8153928 69.3777801,38.6383183 70.2513475,38.2723644 C71.431844,37.7883608 72.1519469,37.5050417 72.4116562,37.4460168 C72.470681,37.3633821 72.6123406,37.4342119 72.8366349,37.6585062 C72.8838548,37.8119708 72.9074647,37.9772403 72.9074647,38.1307048 C72.9074647,38.7209531 72.6241455,39.1105169 72.0693122,39.3230063 C71.2193547,39.6299354 70.3693972,39.9604744 69.5312447,40.2910134 C68.5750425,40.6215525 67.7014751,40.775017 66.9223474,40.7396021 C66.6272232,40.7041872 66.3202941,40.6805773 66.02517,40.6569674 C65.7182409,40.6333574 65.5529714,40.5153078 65.5057515,40.2910134 C65.340482,39.8188148 65.2696522,39.2403715 65.2696522,38.5792935 C65.2696522,38.3549992 65.2814572,38.0244601 65.3050671,37.5758715 C65.3286771,37.1272828 65.340482,36.7731338 65.340482,36.5370345 C65.340482,35.9703962 65.2814572,35.4745877 65.1752125,35.0496089 C65.1516026,34.9787791 65.0807728,34.8371195 64.9391132,34.6010202 C64.8092586,34.4003358 64.7384288,34.2468713 64.7384288,34.1170167 C64.7384288,34.010772 64.7738437,33.9163323 64.8446735,33.8336975 L65.2106274,33.5031585 C65.2932622,33.3614989 65.340482,32.8893003 65.340482,32.0865627 Z" id="Path"></path>
                        <path d="M74.2296208,31.3664598 C73.7928371,29.619325 73.6039576,28.1673142 73.6865924,27.0222326 C73.6865924,26.904183 73.7338123,26.7625234 73.828252,26.6090588 C73.9226917,26.4673993 74.0171314,26.3847645 74.1115711,26.3847645 C74.9851386,26.0896404 75.8941209,25.9361758 76.8385181,25.9361758 C78.2669189,25.9361758 79.6008799,26.2667149 80.8285963,26.9277929 C81.0528906,27.0458426 81.1591353,27.1875021 81.1591353,27.3645766 C81.1591353,27.6597007 80.8758162,27.9902398 80.3091778,28.3325838 C80.0730785,28.4388284 79.8133693,28.4978533 79.5418551,28.4978533 C79.234926,28.4978533 78.6918976,28.3443887 77.9363798,28.0256547 C77.2516919,27.7423355 76.6968585,27.6242858 76.2718798,27.6951156 C76.2246599,28.0256547 76.20105,28.3679986 76.20105,28.7339526 C76.20105,29.4304455 76.3072947,30.280403 76.531589,31.2720201 C76.7440784,32.0983676 76.9447628,32.9247152 77.1572521,33.7628677 C77.3697415,33.7864776 77.7475004,33.7628677 78.2905288,33.6920379 C78.904387,33.6330131 79.3293657,33.5975982 79.565465,33.5975982 C80.5334722,33.5975982 81.0056708,33.9281372 80.9702559,34.6010202 C80.9584509,35.025999 80.4744473,35.2739033 79.5182452,35.3329281 C78.4912132,35.3919529 77.9245749,35.5454175 77.8183302,35.7697118 C77.7002805,35.9940061 77.6530607,36.2419104 77.6530607,36.4898147 C77.6530607,36.8675735 77.8065252,37.398797 78.1252593,38.083485 C78.5030182,38.9216375 78.7273125,39.4646659 78.7863373,39.7243751 C78.8335572,39.8424248 78.8571671,39.9722794 78.8571671,40.102134 C78.8571671,40.3972581 78.7273125,40.6451624 78.4676033,40.8340418 C78.207894,41.0229213 77.9127699,41.117361 77.6058408,41.117361 C77.3343266,41.117361 77.1100323,41.0465312 76.9329578,40.9048716 C76.4961741,40.4680879 76.1538301,39.6535453 75.9177308,38.4730488 C75.6816315,37.2925523 75.3747024,36.4898147 74.9969435,36.041226 C74.9615286,35.9822012 74.9025038,35.9467863 74.831674,35.9467863 C74.7962591,35.9467863 74.6664045,35.9703962 74.4303052,36.0176161 C74.2060109,36.0648359 74.0289364,36.0766409 73.8990818,36.041226 C73.4622981,35.9349813 73.2380037,35.710687 73.2380037,35.3801479 C73.2380037,35.2739033 73.2852236,35.1558536 73.3678583,35.0496089 C73.4504931,34.9315593 73.6983974,34.7662898 74.0879612,34.5301905 C74.4185002,34.3177011 74.6073797,34.1406266 74.6427946,33.9753571 C74.6900144,33.8218925 74.7018194,33.656623 74.7018194,33.4795486 C74.7018194,33.1962294 74.6545995,32.8420804 74.5365499,32.4171017 C74.4303052,32.0629527 74.3240605,31.7206087 74.2296208,31.3664598 Z" id="Path"></path>
                        <path d="M56.4985631,6.54061811 C56.3923185,4.15601515 54.7042084,1.79502212 50.3717862,1.08672422 C50.3717862,1.08672422 50.3127614,2.76302927 48.5892365,2.13736611 C46.8893215,1.51170296 41.8013816,-2.1596412 38.4487715,1.84224198 C35.2496259,1.05130932 33.0184875,3.10537325 32.5344839,5.30109677 C31.8970158,8.1342884 34.6947925,10.6959658 37.4217395,10.9556751 C37.587009,10.96748 37.7640835,10.979285 37.941158,10.96748 C37.4217395,12.3014411 35.6982146,16.385959 35.4385053,19.9982784 C35.4385053,19.9982784 35.8280692,19.5024698 36.217633,18.3573882 C37.0557856,14.9811682 38.4723814,11.4632886 40.0542467,10.4362566 L40.0542467,10.4362566 C41.5888922,9.75156863 42.7103639,8.63009694 42.7103639,8.63009694 L42.6985589,8.63009694 C42.9582681,8.68912176 43.2415873,8.73634163 43.5367114,8.77175652 C43.2651972,9.4564445 43.2533923,11.0973347 43.2533923,11.0973347 C43.4540767,10.1293275 43.9971051,9.26756506 44.3040342,8.84258631 C44.374864,8.84258631 44.4456937,8.85439128 44.5165235,8.85439128 C44.8470626,8.86619624 45.1421867,8.83078135 45.4137009,8.79536645 C45.2838463,9.44463953 44.9887221,11.1327495 45.2130165,12.0417319 C45.2130165,12.0417319 45.5553605,9.44463953 46.3699031,8.52385225 C48.081623,7.76833448 48.435772,6.00939468 48.435772,6.00939468 C48.435772,6.00939468 45.6852151,9.58629912 39.948002,7.24891602 C39.948002,7.24891602 40.6090801,8.06345861 42.3089951,8.53565722 L42.2971901,8.53565722 C40.0542467,10.0939126 37.9883778,9.79878849 37.9883778,9.79878849 C33.6559556,9.07868561 33.6323457,5.85593013 33.6323457,5.85593013 C34.3996684,0.118717075 41.3882078,3.24703284 41.3882078,3.24703284 C40.644495,2.71580941 39.9361971,2.34985549 39.2515091,2.09014625 C39.4758034,1.67697247 40.5500552,0.0124723886 43.5957363,0.720770297 C47.066396,1.53531289 47.5740095,3.50674207 49.3919741,3.66020662 C50.9030097,3.77825627 51.3397934,2.84566402 51.2571586,2.2790257 C51.2571586,2.2790257 55.3888964,2.94010374 55.5777759,6.52881314 C55.5777759,6.52881314 55.518751,12.2306113 50.6669104,10.3772318 C51.7057473,10.0466928 52.9452686,9.40922464 53.2285878,8.32316785 C53.2285878,8.32316785 52.0008714,10.2591821 49.5100238,9.2203452 C49.5100238,9.2203452 47.6330343,9.97586296 47.7038641,15.2172675 L47.6094244,19.7385691 C47.5858145,21.0135054 46.9719563,22.0641473 43.7610058,20.6003316 C40.9042042,19.3017854 37.9057431,17.1414768 36.217633,18.3573882 C35.8280692,18.6407074 35.5211401,19.0892961 35.4503103,19.8566188 C35.2378209,22.0995622 39.4876084,21.6745834 39.4876084,21.6745834 C38.8973601,21.6037536 37.8821331,21.4030692 37.2800799,21.0725302 C35.6391898,20.1517429 37.1266154,18.2983634 40.1014666,19.785789 C42.0610908,20.7656011 45.0831619,21.9815125 46.2872683,22.2058068 C48.5656266,22.6425906 48.3649422,20.0218883 48.3649422,20.0218883 C48.3649422,20.0218883 48.093428,13.340278 49.1322649,10.8730403 C49.6516834,11.321629 50.9974494,12.2660262 52.7445842,12.006317 C55.0229425,11.663973 56.6048078,9.04327072 56.4985631,6.54061811 Z" id="Path"></path>
                        <path d="M19.8441464,49.91206 L20.1982954,49.91206 L20.1982954,50.3842586 C20.1982954,50.950897 20.0212209,51.2224112 19.643462,51.2224112 C19.2657031,51.2224112 19.0768237,50.950897 19.0768237,50.3842586 L19.0768237,48.2593649 C19.0768237,47.6927266 19.2657031,47.4212124 19.643462,47.4212124 C20.0212209,47.4212124 20.1982954,47.6927266 20.1982954,48.2593649 L20.1982954,48.6017089 L19.8441464,48.6017089 L19.8441464,48.0114606 C19.8441464,47.8698011 19.7733166,47.7989713 19.643462,47.7989713 C19.5254123,47.7989713 19.4545825,47.8698011 19.4545825,48.0114606 L19.4545825,50.6203579 C19.4545825,50.7738225 19.5254123,50.8446523 19.643462,50.8446523 C19.7733166,50.8446523 19.8441464,50.7738225 19.8441464,50.6203579 L19.8441464,49.91206 Z" id="Path"></path>
                        <path d="M21.7919656,50.242599 L22.1697245,50.242599 L22.0398699,49.1683472 L21.9808451,48.4954642 L21.9218203,49.1683472 L21.7919656,50.242599 Z M21.2843521,51.2224112 L21.7919656,47.4212124 L22.1815295,47.4212124 L22.677338,51.2224112 L22.2995791,51.2224112 L22.2287494,50.6557728 L21.7447458,50.6557728 L21.673916,51.2224112 L21.2843521,51.2224112 Z" id="Shape"></path>
                        <polygon id="Path" points="23.4800757 47.4212124 24.6251573 47.4212124 24.6251573 47.7989713 24.2473984 47.7989713 24.2473984 51.2224112 23.8578345 51.2224112 23.8578345 47.7989713 23.4800757 47.7989713"></polygon>
                        <polygon id="Path" points="26.1243878 50.8446523 26.7146361 50.8446523 26.7146361 51.2224112 25.746629 51.2224112 25.746629 47.4212124 26.7146361 47.4212124 26.7146361 47.7989713 26.1243878 47.7989713 26.1243878 49.0975174 26.4549269 49.0975174 26.4549269 49.4752763 26.1243878 49.4752763"></polygon>
                        <path d="M28.4971858,49.0975174 C28.6624554,49.0975174 28.7450901,49.0030777 28.7450901,48.8378082 L28.7450901,48.0586805 C28.7450901,47.881606 28.6624554,47.7989713 28.4971858,47.7989713 L28.2965014,47.7989713 L28.2965014,49.0975174 L28.4971858,49.0975174 Z M28.2965014,51.2224112 L27.9069376,51.2224112 L27.9069376,47.4212124 L28.4971858,47.4212124 C28.9221646,47.4212124 29.134654,47.6809216 29.134654,48.212145 L29.134654,48.6371238 C29.134654,48.9912727 29.0284093,49.239177 28.8395298,49.3926416 L29.122849,51.2224112 L28.7332851,51.2224112 L28.4971858,49.4752763 L28.2965014,49.4752763 L28.2965014,51.2224112 Z" id="Shape"></path>
                        <polygon id="Path" points="30.3151505 47.4212124 30.6929094 47.4212124 30.6929094 51.2224112 30.3151505 51.2224112"></polygon>
                        <polygon id="Path" points="32.3692144 48.9912727 32.2983846 48.4836592 32.2983846 51.2224112 31.9560406 51.2224112 31.9560406 47.4212124 32.4164343 47.4212124 32.8059981 49.593326 32.8768279 50.1599643 32.8768279 47.4212124 33.2191719 47.4212124 33.2191719 51.2224112 32.7587783 51.2224112"></polygon>
                        <path d="M35.0489415,49.4752763 L35.6391898,49.4752763 L35.6391898,51.2224112 L35.4503103,50.9745069 C35.3794805,51.1397764 35.2378209,51.2224112 35.0489415,51.2224112 C34.6711826,51.2224112 34.4823032,50.950897 34.4823032,50.3842586 L34.4823032,48.2593649 C34.4823032,47.6927266 34.6711826,47.4212124 35.0489415,47.4212124 C35.4503103,47.4212124 35.6391898,47.6927266 35.6391898,48.2593649 L35.6391898,48.6017089 L35.2732358,48.6017089 L35.2732358,48.0114606 C35.2732358,47.8698011 35.202406,47.7989713 35.0489415,47.7989713 C34.9190869,47.7989713 34.8600621,47.8698011 34.8600621,48.0114606 L34.8600621,50.6203579 C34.8600621,50.7738225 34.9190869,50.8446523 35.0489415,50.8446523 C35.1906011,50.8446523 35.2732358,50.7738225 35.2732358,50.6203579 L35.2732358,49.8530352 L35.0489415,49.8530352 L35.0489415,49.4752763 Z" id="Path"></path>
                        <path d="M39.1688743,48.0114606 C39.1688743,47.8698011 39.0980445,47.7989713 38.9799949,47.7989713 L38.7793105,47.7989713 L38.7793105,50.8446523 L38.9799949,50.8446523 C39.0980445,50.8446523 39.1688743,50.7738225 39.1688743,50.6203579 L39.1688743,48.0114606 Z M39.5466332,50.3842586 C39.5466332,50.950897 39.3577538,51.2224112 38.9799949,51.2224112 L38.4015516,51.2224112 L38.4015516,47.4212124 L38.9799949,47.4212124 C39.3577538,47.4212124 39.5466332,47.6927266 39.5466332,48.2593649 L39.5466332,50.3842586 Z" id="Shape"></path>
                        <polygon id="Path" points="40.7979595 47.4212124 41.1875234 47.4212124 41.1875234 51.2224112 40.7979595 51.2224112"></polygon>
                        <polygon id="Path" points="42.8166086 50.8446523 43.4068568 50.8446523 43.4068568 51.2224112 42.4388497 51.2224112 42.4388497 47.4212124 43.4068568 47.4212124 43.4068568 47.7989713 42.8166086 47.7989713 42.8166086 49.0975174 43.1589525 49.0975174 43.1589525 49.4752763 42.8166086 49.4752763"></polygon>
                        <polygon id="Path" points="44.4693037 47.4212124 45.6143853 47.4212124 45.6143853 47.7989713 45.2366264 47.7989713 45.2366264 51.2224112 44.8470626 51.2224112 44.8470626 47.7989713 44.4693037 47.7989713"></polygon>
                        <polygon id="Path" points="47.1136159 50.8446523 47.7038641 50.8446523 47.7038641 51.2224112 46.735857 51.2224112 46.735857 47.4212124 47.7038641 47.4212124 47.7038641 47.7989713 47.1136159 47.7989713 47.1136159 49.0975174 47.4441549 49.0975174 47.4441549 49.4752763 47.1136159 49.4752763"></polygon>
                        <polygon id="Path" points="48.766311 47.4212124 49.8995876 47.4212124 49.8995876 47.7989713 49.5218288 47.7989713 49.5218288 51.2224112 49.1440699 51.2224112 49.1440699 47.7989713 48.766311 47.7989713"></polygon>
                        <polygon id="Path" points="51.3752083 51.2224112 51.3752083 49.593326 50.8675948 47.4212124 51.2571586 47.4212124 51.4932579 48.5899039 51.5640877 49.1093224 51.6349175 48.5899039 51.8592118 47.4212124 52.2487757 47.4212124 51.7529672 49.593326 51.7529672 51.2224112"></polygon>
                        <path d="M54.1139602,49.91206 L54.4799141,49.91206 L54.4799141,50.3842586 C54.4799141,50.950897 54.2910347,51.2224112 53.9250807,51.2224112 C53.5473219,51.2224112 53.3584424,50.950897 53.3584424,50.3842586 L53.3584424,48.2593649 C53.3584424,47.6927266 53.5473219,47.4212124 53.9250807,47.4212124 C54.2910347,47.4212124 54.4799141,47.6927266 54.4799141,48.2593649 L54.4799141,48.6017089 L54.1139602,48.6017089 L54.1139602,48.0114606 C54.1139602,47.8698011 54.0549354,47.7989713 53.9250807,47.7989713 C53.7952261,47.7989713 53.7362013,47.8698011 53.7362013,48.0114606 L53.7362013,50.6203579 C53.7362013,50.7738225 53.7952261,50.8446523 53.9250807,50.8446523 C54.0549354,50.8446523 54.1139602,50.7738225 54.1139602,50.6203579 L54.1139602,49.91206 Z" id="Path"></path>
                        <polygon id="Path" points="55.6722156 47.4212124 56.7700773 47.4212124 56.7700773 47.881606 56.0145596 50.8446523 56.7700773 50.8446523 56.7700773 51.2224112 55.6368007 51.2224112 55.6368007 50.7974324 56.4277334 47.7989713 55.6722156 47.7989713"></polygon>
                        <polygon id="Path" points="58.3637476 48.9912727 58.2929178 48.4836592 58.2929178 51.2224112 57.9505739 51.2224112 57.9505739 47.4212124 58.4109675 47.4212124 58.8005314 49.593326 58.8713611 50.1599643 58.8713611 47.4212124 59.2137051 47.4212124 59.2137051 51.2224112 58.7651165 51.2224112"></polygon>
                        <polygon id="Path" points="60.8191804 51.2224112 60.8191804 49.593326 60.3233719 47.4212124 60.7129357 47.4212124 60.93723 48.5899039 61.0198648 49.1093224 61.0906946 48.5899039 61.3149889 47.4212124 61.7045528 47.4212124 61.2087442 49.593326 61.2087442 51.2224112"></polygon>
                        <path d="M13.9062489,53.1348155 L66.8751275,53.1348155 L66.8751275,45.532418 L13.9062489,45.532418 L13.9062489,53.1348155 Z M67.2056665,53.4653545 L13.5757099,53.4653545 L13.5757099,45.190074 L67.2056665,45.190074 L67.2056665,53.4653545 Z" id="Shape"></path>
                        <polygon id="Path" points="16.3498767 55 7.74405713 55 7.74405713 54.7757057 7.76766706 54.7284858 10.5300289 50.8682622 7.74405713 46.9608187 7.74405713 46.7365244 7.90932664 46.7247194 13.7409794 46.7247194 13.7409794 47.0670634 8.2280607 47.0670634 10.9432027 50.8682622 8.2280607 54.669461 16.0193377 54.669461 16.0193377 53.300085 16.3498767 53.300085"></polygon>
                        <polygon id="Path" points="72.8720498 55 64.4314997 55 64.4314997 53.300085 64.7620387 53.300085 64.7620387 54.669461 72.5533157 54.669461 69.8381738 50.8682622 72.5533157 47.0670634 67.040397 47.0670634 67.040397 46.7247194 73.0373193 46.7247194 73.0373193 46.9490138 73.0137094 46.9962336 70.2513475 50.8682622 73.0373193 54.7639007 73.0373193 54.988195"></polygon>
                    </g>
                </g>
            </g>
        </g>
    </g>
</svg>