<svg width="128" height="115" viewBox="0 0 128 115" xmlns="http://www.w3.org/2000/svg"><g fill="#1685E4" fill-rule="nonzero"><path d="M101.193 114.7a2.04 2.04 0 0 1-1.488-.644l-17.58-18.727a28.309 28.309 0 0 1-6.085-9.655 26.41 26.41 0 0 1-1.604-10.895 27.998 27.998 0 0 1 8.085-17.908c4.98-4.997 11.611-7.75 18.672-7.75 7.06 0 13.69 2.753 18.672 7.75a27.993 27.993 0 0 1 8.082 17.9 26.41 26.41 0 0 1-1.598 10.89 28.373 28.373 0 0 1-6.104 9.684l-17.565 18.71a2.04 2.04 0 0 1-1.487.646Zm0-61.5c-13.285 0-21.966 11.106-22.685 21.843a22.348 22.348 0 0 0 1.354 9.204 24.297 24.297 0 0 0 5.221 8.275l16.11 17.158 16.093-17.142a24.329 24.329 0 0 0 5.241-8.303 22.362 22.362 0 0 0 1.349-9.2c-.718-10.729-9.399-21.835-22.683-21.835Zm0 34.257c-6.929 0-12.565-5.763-12.565-12.846 0-7.085 5.636-12.848 12.565-12.848 6.927 0 12.563 5.763 12.563 12.848 0 7.083-5.636 12.846-12.563 12.846Zm0-21.614c-4.68 0-8.485 3.933-8.485 8.768 0 4.833 3.807 8.766 8.485 8.766 4.677 0 8.484-3.933 8.484-8.766 0-4.835-3.807-8.768-8.484-8.768Z"/><path d="M79.792 91.103H13.697C6.145 91.103 0 84.958 0 77.406V13.697C0 6.145 6.145 0 13.697 0h75.771c7.554 0 13.697 6.145 13.697 13.697v37.464a2.04 2.04 0 1 1-4.08 0V13.697c0-5.303-4.314-9.617-9.617-9.617H13.697c-5.303 0-9.617 4.314-9.617 9.617v63.709c0 5.302 4.314 9.617 9.617 9.617h66.095a2.04 2.04 0 0 1 0 4.08Z"/><path d="M101.125 27.786H2.04a2.04 2.04 0 0 1 0-4.08h99.085a2.04 2.04 0 1 1 0 4.08ZM29.253 19.69a5.709 5.709 0 0 1-5.702-5.701 5.709 5.709 0 0 1 5.702-5.702 5.708 5.708 0 0 1 5.701 5.702 5.708 5.708 0 0 1-5.701 5.701Zm0-7.323c-.894 0-1.622.728-1.622 1.622 0 .894.728 1.621 1.622 1.621.894 0 1.622-.727 1.622-1.621s-.728-1.622-1.622-1.622ZM12.804 19.639a5.709 5.709 0 0 1-5.701-5.702 5.709 5.709 0 0 1 5.701-5.702 5.709 5.709 0 0 1 5.702 5.702 5.709 5.709 0 0 1-5.702 5.702Zm0-7.324c-.894 0-1.622.728-1.622 1.622 0 .894.728 1.622 1.622 1.622.894 0 1.622-.728 1.622-1.622 0-.895-.728-1.622-1.622-1.622ZM45.702 19.741A5.708 5.708 0 0 1 40 14.04a5.709 5.709 0 0 1 5.702-5.702 5.709 5.709 0 0 1 5.702 5.702 5.708 5.708 0 0 1-5.702 5.701Zm0-7.323c-.894 0-1.622.728-1.622 1.622 0 .894.728 1.622 1.622 1.622.895 0 1.621-.728 1.621-1.622 0-.894-.726-1.622-1.621-1.622Z"/></g></svg>