<?xml version="1.0" encoding="UTF-8"?>
<svg width="128px" height="115px" viewBox="0 0 128 115" version="1.1" xmlns="http://www.w3.org/2000/svg" xmlns:xlink="http://www.w3.org/1999/xlink">
    <title>browser</title>
    <g id="Page-1" stroke="none" stroke-width="1" fill="none" fill-rule="evenodd">
        <g id="home-2" transform="translate(-419.000000, -6005.000000)" fill="#1685E4" fill-rule="nonzero">
            <g id="security" transform="translate(340.000000, 5878.000000)">
                <g id="browser" transform="translate(79.000000, 127.000000)">
                    <path d="M101.192547,114.700528 C100.628765,114.700528 100.091179,114.467042 99.705074,114.055881 L82.1241974,95.3292171 C79.4579087,92.5501721 77.4066547,89.2973227 76.0399112,85.6743136 C74.740366,82.1640607 74.2027803,78.5023274 74.4362656,74.7790902 C74.8895687,68.0057377 77.7597299,61.6492414 82.520553,56.8713343 C87.5000549,51.8736088 94.1321776,49.1207598 101.192547,49.1207598 C108.252916,49.1207598 114.883899,51.8736088 119.86454,56.8713343 C124.624224,61.6492414 127.494385,68.0057377 127.94655,74.7711175 C128.181174,78.5023274 127.642449,82.1640607 126.348599,85.6617851 C124.977299,89.2973227 122.924906,92.5501721 120.24495,95.3451623 L102.680019,114.055881 C102.293914,114.467042 101.756328,114.700528 101.192547,114.700528 L101.192547,114.700528 Z M101.192547,53.2004891 C87.9078002,53.2004891 79.2267012,64.3064187 78.5080219,75.0433273 C78.3109831,78.1856984 78.7665643,81.2847891 79.8622371,84.2472055 C81.0285248,87.3383237 82.7870681,90.1264804 85.0831971,92.5216984 L101.192547,109.680023 L117.285951,92.5376436 C119.598025,90.1264804 121.356568,87.3383237 122.527412,84.2346772 C123.61739,81.285928 124.072971,78.1868373 123.875932,75.0353546 C123.158392,64.3064187 114.477293,53.2004891 101.192547,53.2004891 L101.192547,53.2004891 Z M101.192547,87.4567748 C94.2642962,87.4567748 88.6276184,81.6936733 88.6276184,74.6105252 C88.6276184,67.5262383 94.2642962,61.7631367 101.192547,61.7631367 C108.119658,61.7631367 113.756336,67.5262383 113.756336,74.6105252 C113.756336,81.6936733 108.119658,87.4567748 101.192547,87.4567748 L101.192547,87.4567748 Z M101.192547,65.8428661 C96.5137282,65.8428661 92.7084867,69.7756703 92.7084867,74.6105252 C92.7084867,79.4442412 96.5148671,83.3770458 101.192547,83.3770458 C105.870226,83.3770458 109.676607,79.4442412 109.676607,74.6105252 C109.676607,69.7756703 105.870226,65.8428661 101.192547,65.8428661 L101.192547,65.8428661 Z" id="Shape"></path>
                    <path d="M79.7916219,91.1025629 L13.6970472,91.1025629 C6.14465086,91.1025629 0,84.9579121 0,77.4055157 L0,13.6970474 C0,6.1446508 6.14465086,0 13.6970472,0 L89.4681655,0 C97.021701,0 103.165213,6.1446508 103.165213,13.6970474 L103.165213,51.1606244 C103.165213,52.2870488 102.252912,53.2004891 101.125348,53.2004891 C99.998924,53.2004891 99.0854836,52.2870488 99.0854836,51.1606244 L99.0854836,13.6970474 C99.0854836,8.39408281 94.7711301,4.0797293 89.4681655,4.0797293 L13.6970472,4.0797293 C8.39408258,4.0797293 4.07972936,8.39408281 4.07972936,13.6970474 L4.07972936,77.4055157 C4.07972936,82.7084803 8.39408258,87.0228339 13.6970472,87.0228339 L79.7916219,87.0228339 C80.9180465,87.0228339 81.8314865,87.9362739 81.8314865,89.0626985 C81.8314865,90.1891229 80.9180465,91.1025629 79.7916219,91.1025629 L79.7916219,91.1025629 Z" id="Path"></path>
                    <path d="M101.125348,27.7858944 L2.03986468,27.7858944 C0.913440064,27.7858944 1.65739458e-14,26.8724543 1.65739458e-14,25.74603 C1.65739458e-14,24.6196054 0.913440064,23.7061653 2.03986468,23.7061653 L101.125348,23.7061653 C102.252912,23.7061653 103.165213,24.6196054 103.165213,25.74603 C103.165213,26.8724543 102.252912,27.7858944 101.125348,27.7858944 Z" id="Path"></path>
                    <path d="M29.2528658,19.6902173 C26.1093558,19.6902173 23.5512678,17.1321293 23.5512678,13.9886194 C23.5512678,10.8451094 26.1093558,8.2870211 29.2528658,8.2870211 C32.3975146,8.2870211 34.9544637,10.8451094 34.9544637,13.9886194 C34.9544637,17.1321293 32.3975146,19.6902173 29.2528658,19.6902173 Z M29.2528658,12.3667505 C28.3587878,12.3667505 27.6309969,13.0945411 27.6309969,13.9886194 C27.6309969,14.8826973 28.3587878,15.6104883 29.2528658,15.6104883 C30.1469437,15.6104883 30.8747347,14.8826973 30.8747347,13.9886194 C30.8747347,13.0945411 30.1469437,12.3667505 29.2528658,12.3667505 Z" id="Shape"></path>
                    <path d="M12.8041081,19.6389645 C9.66059818,19.6389645 7.10251016,17.0808765 7.10251016,13.9373666 C7.10251016,10.7927174 9.66059818,8.23462941 12.8041081,8.23462941 C15.9476181,8.23462941 18.5057064,10.7927174 18.5057064,13.9373666 C18.5057064,17.0808765 15.9476181,19.6389645 12.8041081,19.6389645 Z M12.8041081,12.3154977 C11.9100302,12.3154977 11.1822392,13.0432883 11.1822392,13.9373666 C11.1822392,14.8314445 11.9100302,15.5592355 12.8041081,15.5592355 C13.6981864,15.5592355 14.425977,14.8314445 14.425977,13.9373666 C14.425977,13.0421494 13.6981864,12.3154977 12.8041081,12.3154977 Z" id="Shape"></path>
                    <path d="M45.7016234,19.7414704 C42.5581135,19.7414704 40.0000252,17.184521 40.0000252,14.0398722 C40.0000252,10.8963622 42.5581135,8.3382739 45.7016234,8.3382739 C48.8462722,8.3382739 51.4043603,10.8963622 51.4043603,14.0398722 C51.4043603,17.184521 48.8462722,19.7414704 45.7016234,19.7414704 Z M45.7016234,12.4180033 C44.8075452,12.4180033 44.0797545,13.1457942 44.0797545,14.0398722 C44.0797545,14.9339501 44.8075452,15.6617411 45.7016234,15.6617411 C46.5968402,15.6617411 47.3234923,14.9339501 47.3234923,14.0398722 C47.3234923,13.1457942 46.5968402,12.4180033 45.7016234,12.4180033 Z" id="Shape"></path>
                </g>
            </g>
        </g>
    </g>
</svg>