<?xml version="1.0" encoding="UTF-8"?>
<svg width="56px" height="16px" viewBox="0 0 56 16" version="1.1" xmlns="http://www.w3.org/2000/svg" xmlns:xlink="http://www.w3.org/1999/xlink">
    <title>CB89A502-123C-4C93-827C-DA26A6029B8B</title>
    <g id="Page-1" stroke="none" stroke-width="1" fill="none" fill-rule="evenodd">
        <g id="landing" transform="translate(-576.000000, -2923.000000)" fill-rule="nonzero">
            <g id="testimonials" transform="translate(0.000000, 2470.000000)">
                <g id="Group-10" transform="translate(382.000000, 449.000000)">
                    <g id="clutch-logo" transform="translate(194.000000, 4.000000)">
                        <polygon id="Path" fill="#17313B" points="14.56 -2.65269288e-15 17.136 -2.65269288e-15 17.136 15.904 14.56 15.904"></polygon>
                        <path d="M26.096,10.864 C26.096,13.328 24.08,13.552 23.408,13.552 C21.84,13.552 21.616,12.096 21.616,11.312 L21.616,5.152 L19.04,5.152 L19.04,11.2 C19.04,12.656 19.488,14 20.384,14.784 C21.168,15.568 22.176,15.904 23.408,15.904 C24.304,15.904 25.424,15.68 26.096,15.008 L26.096,15.904 L28.672,15.904 L28.672,5.152 L26.096,5.152 C26.096,5.152 26.096,10.864 26.096,10.864 Z" id="Path" fill="#17313B"></path>
                        <polygon id="Path" fill="#17313B" points="33.712 1.232 31.136 1.232 31.136 5.152 29.232 5.152 29.232 7.616 31.136 7.616 31.136 15.904 33.712 15.904 33.712 7.616 35.616 7.616 35.616 5.152 33.712 5.152"></polygon>
                        <path d="M43.68,12.656 C43.12,13.104 42.336,13.44 41.552,13.44 C39.76,13.44 38.528,12.096 38.528,10.304 C38.528,8.512 39.76,7.28 41.552,7.28 C42.336,7.28 43.12,7.504 43.68,8.064 L44.016,8.4 L45.808,6.72 L45.36,6.384 C44.352,5.488 43.008,4.928 41.552,4.928 C38.416,4.928 36.064,7.28 36.064,10.416 C36.064,13.552 38.416,15.904 41.552,15.904 C43.008,15.904 44.352,15.344 45.36,14.448 L45.808,14.112 L44.016,12.32 L43.68,12.656 Z" id="Path" fill="#17313B"></path>
                        <path d="M54.88,6.048 C54.096,5.264 53.312,4.928 52.08,4.928 C51.184,4.928 50.288,5.152 49.616,5.824 L49.616,-2.65269288e-15 L47.04,-2.65269288e-15 L47.04,15.904 L49.616,15.904 L49.616,9.968 C49.616,7.504 51.296,7.28 51.968,7.28 C53.536,7.28 53.424,8.736 53.424,9.52 L53.424,15.792 L56,15.792 L56,9.632 C56,8.176 55.664,6.832 54.88,6.048 Z" id="Path" fill="#17313B"></path>
                        <circle id="Oval" fill="#EF4335" cx="41.44" cy="10.416" r="1.792"></circle>
                        <path d="M10.976,11.984 C10.08,12.88 8.736,13.44 7.28,13.44 C4.48,13.44 2.464,11.2 2.464,8.176 C2.464,5.152 4.48,2.912 7.392,2.912 C8.736,2.912 10.08,3.472 11.088,4.48 L11.424,4.816 L13.104,3.136 L12.768,2.8 C11.312,1.344 9.408,0.56 7.392,0.56 C3.136,0.448 0,3.808 0,8.176 C0,12.544 3.136,15.904 7.28,15.904 C9.296,15.904 11.312,15.12 12.656,13.664 L12.992,13.328 L11.312,11.648 L10.976,11.984 Z" id="Path" fill="#17313B"></path>
                    </g>
                </g>
            </g>
        </g>
    </g>
</svg>