<svg width="128" height="110" viewBox="0 0 128 110" xmlns="http://www.w3.org/2000/svg"><g fill="#1685E4" fill-rule="nonzero"><path d="M16.51 43.97h-3.738a1.876 1.876 0 1 0 0 3.751h3.74a1.876 1.876 0 1 0-.001-3.752ZM16.51 34.965h-3.738a1.876 1.876 0 1 0 0 3.752h3.74a1.876 1.876 0 1 0-.001-3.752ZM16.51 52.974h-3.738a1.876 1.876 0 1 0 0 3.752h3.74a1.876 1.876 0 1 0-.001-3.752ZM16.51 61.978h-3.738a1.876 1.876 0 1 0 0 3.752h3.74a1.876 1.876 0 1 0-.001-3.752ZM16.51 70.983h-3.738a1.876 1.876 0 1 0 0 3.752h3.74a1.876 1.876 0 1 0-.001-3.752ZM16.51 79.987h-3.738a1.876 1.876 0 1 0 0 3.752h3.74a1.876 1.876 0 1 0-.001-3.752ZM16.51 88.992h-3.738a1.876 1.876 0 1 0 0 3.752h3.74a1.876 1.876 0 1 0-.001-3.752ZM51.042 85.75l-3.303-3.303 3.303-3.303a1.877 1.877 0 0 0-2.653-2.653l-4.63 4.63a1.876 1.876 0 0 0 0 2.652l4.63 4.63c.367.366.847.55 1.327.55s.96-.184 1.327-.55a1.876 1.876 0 0 0 0-2.653ZM71.142 81.12l-4.63-4.63a1.877 1.877 0 0 0-2.653 2.654l3.303 3.303-3.303 3.303a1.876 1.876 0 0 0 2.654 2.653l4.63-4.63a1.877 1.877 0 0 0-.001-2.653ZM60.49 73.954a1.876 1.876 0 0 0-2.405 1.121l-5.2 14.286a1.876 1.876 0 1 0 3.526 1.283l5.2-14.286a1.875 1.875 0 0 0-1.122-2.404ZM14.61 11.428a1.902 1.902 0 0 0-.51-.958 1.89 1.89 0 0 0-1.328-.55 1.884 1.884 0 0 0-1.561.835c-.068.1-.125.21-.17.323a1.838 1.838 0 0 0-.145.718c0 .493.2.978.55 1.326a1.884 1.884 0 0 0 1.693.512c.12-.022.238-.06.35-.107a1.872 1.872 0 0 0 .611-.405c.348-.348.548-.833.548-1.326 0-.123-.013-.245-.038-.368ZM20.458 10.47a1.89 1.89 0 0 0-1.328-.55c-.493 0-.976.2-1.326.55-.35.348-.55.833-.55 1.326 0 .493.2.978.55 1.326.35.35.833.55 1.326.55.495 0 .977-.2 1.328-.55.348-.348.55-.833.55-1.326 0-.493-.203-.978-.55-1.326ZM27.329 11.428a1.94 1.94 0 0 0-.28-.673 1.618 1.618 0 0 0-.233-.285 1.97 1.97 0 0 0-.285-.235 1.972 1.972 0 0 0-.323-.173 2.206 2.206 0 0 0-.352-.107 1.903 1.903 0 0 0-.733 0 1.934 1.934 0 0 0-.675.28 2.01 2.01 0 0 0-.286.235 1.864 1.864 0 0 0-.547 1.326c0 .493.2.978.547 1.326.087.087.182.165.285.232.103.068.21.128.325.173.113.047.23.085.35.107a1.812 1.812 0 0 0 .734 0 1.848 1.848 0 0 0 .96-.512c.35-.348.55-.833.55-1.326 0-.123-.012-.245-.037-.368ZM78.031 9.92h-44.73a1.876 1.876 0 1 0 0 3.752h44.73a1.876 1.876 0 1 0 0-3.752ZM92.299 9.92h-7.67a1.876 1.876 0 1 0 0 3.752h7.67a1.876 1.876 0 1 0 0-3.752ZM107.635 48.72H83.023a1.876 1.876 0 1 0 0 3.752h24.612a1.876 1.876 0 1 0 0-3.752ZM97.142 39.715h-7.128a1.876 1.876 0 1 0 0 3.752h7.128a1.876 1.876 0 1 0 0-3.752ZM115.936 39.715h-11.603a1.876 1.876 0 1 0 0 3.752h11.603a1.876 1.876 0 1 0 0-3.752ZM81.947 39.715h-23.7a1.876 1.876 0 1 0 0 3.752h23.7a1.876 1.876 0 1 0 0-3.752ZM76.067 48.72h-7.129a1.876 1.876 0 1 0 0 3.752h7.129a1.876 1.876 0 1 0 0-3.752ZM61.645 48.72h-3.739a1.876 1.876 0 1 0 0 3.752h3.74a1.876 1.876 0 1 0 0-3.752ZM48.575 48.72h-3.739a1.876 1.876 0 1 0 0 3.752h3.739a1.876 1.876 0 1 0 0-3.752ZM48.575 39.715h-3.739a1.876 1.876 0 1 0 0 3.752h3.739a1.876 1.876 0 1 0 0-3.752ZM117.774 50.23a1.778 1.778 0 0 0-.107-.352 1.814 1.814 0 0 0-.173-.323 1.827 1.827 0 0 0-.84-.693 1.962 1.962 0 0 0-.353-.105 1.89 1.89 0 0 0-1.408.277c-.103.07-.198.148-.286.235a1.97 1.97 0 0 0-.405.609 1.974 1.974 0 0 0-.107.352 1.988 1.988 0 0 0 0 .733 1.865 1.865 0 0 0 .28.673 1.864 1.864 0 0 0 1.926.798c.12-.022.238-.06.353-.105a1.864 1.864 0 0 0 1.013-1.016 1.834 1.834 0 0 0 .108-1.083Z"/><path d="M123.123 67.853h-19.814V61.1h19.814A4.883 4.883 0 0 0 128 56.223v-20.26a4.883 4.883 0 0 0-4.877-4.877h-5.235a1.876 1.876 0 1 0 0 3.752h5.235c.61 0 1.125.516 1.125 1.126v20.259a1.14 1.14 0 0 1-1.125 1.125h-86.82a1.14 1.14 0 0 1-1.126-1.125v-20.26c0-.61.515-1.125 1.125-1.125h72.832a1.876 1.876 0 1 0 0-3.752h-5.825V9.216c0-5.08-4.134-9.214-9.215-9.214C3.822.015 9.284-.025 8.542.03A9.22 9.22 0 0 0 .34 6.824c-.468 1.74-.317 1.877-.317 25.64a1.876 1.876 0 1 0 3.752 0v-8.875h95.782v7.498H36.302a4.883 4.883 0 0 0-4.877 4.877v20.259a4.883 4.883 0 0 0 4.877 4.877h63.255v6.753H36.302a4.883 4.883 0 0 0-4.877 4.878V92.99a4.883 4.883 0 0 0 4.877 4.877h63.255v1.96a5.469 5.469 0 0 1-5.462 5.462H29.867a1.876 1.876 0 1 0 0 3.752h64.227c5.081 0 9.215-4.134 9.215-9.215v-1.959h19.814A4.883 4.883 0 0 0 128 92.99V72.73a4.883 4.883 0 0 0-4.877-4.877ZM3.775 19.837c.009-10.989-.573-12.495 1.778-14.65a5.456 5.456 0 0 1 3.685-1.433h84.857a5.469 5.469 0 0 1 5.462 5.462v10.621H3.775ZM124.248 92.99a1.14 1.14 0 0 1-1.125 1.126h-86.82a1.14 1.14 0 0 1-1.126-1.126V72.731c0-.61.515-1.126 1.125-1.126h86.82c.61 0 1.126.516 1.126 1.126v20.258Z"/><path d="M21.112 105.288H9.238a5.469 5.469 0 0 1-5.463-5.462V41.218a1.876 1.876 0 1 0-3.752 0v58.608c0 5.08 4.134 9.214 9.215 9.214h11.875a1.876 1.876 0 1 0 0-3.752Z"/></g></svg>