<?xml version="1.0" encoding="UTF-8"?>
<svg width="128px" height="110px" viewBox="0 0 128 110" version="1.1" xmlns="http://www.w3.org/2000/svg" xmlns:xlink="http://www.w3.org/1999/xlink">
    <title>coding</title>
    <g id="Page-1" stroke="none" stroke-width="1" fill="none" fill-rule="evenodd">
        <g id="home-2" transform="translate(-419.000000, -1165.000000)" fill="#1685E4" fill-rule="nonzero">
            <g id="why" transform="translate(340.000000, 940.000000)">
                <g id="coding" transform="translate(79.000000, 225.000000)">
                    <path d="M16.5108552,43.9690937 L12.7721171,43.9690937 C11.7358704,43.9690937 10.8961231,44.808841 10.8961231,45.8450877 C10.8961231,46.8813344 11.7358704,47.7210818 12.7721171,47.7210818 L16.5111052,47.7210818 C17.5473519,47.7210818 18.3870992,46.8813344 18.3870992,45.8450877 C18.3870992,44.808841 17.5471019,43.9690937 16.5108552,43.9690937 Z" id="Path"></path>
                    <path d="M16.5108552,34.9646224 L12.7721171,34.9646224 C11.7358704,34.9646224 10.8961231,35.8043697 10.8961231,36.8406164 C10.8961231,37.8768631 11.7358704,38.7166105 12.7721171,38.7166105 L16.5111052,38.7166105 C17.5473519,38.7166105 18.3870992,37.8768631 18.3870992,36.8406164 C18.3868492,35.8041197 17.5471019,34.9646224 16.5108552,34.9646224 Z" id="Path"></path>
                    <path d="M16.5108552,52.973565 L12.7721171,52.973565 C11.7358704,52.973565 10.8961231,53.8133124 10.8961231,54.8495591 C10.8961231,55.8858058 11.7358704,56.7255531 12.7721171,56.7255531 L16.5111052,56.7255531 C17.5473519,56.7255531 18.3870992,55.8858058 18.3870992,54.8495591 C18.3868492,53.8135624 17.5471019,52.973565 16.5108552,52.973565 Z" id="Path"></path>
                    <path d="M16.5108552,61.9780364 L12.7721171,61.9780364 C11.7358704,61.9780364 10.8961231,62.8180337 10.8961231,63.8540304 C10.8961231,64.8902771 11.7358704,65.7300244 12.7721171,65.7300244 L16.5111052,65.7300244 C17.5473519,65.7300244 18.3870992,64.8902771 18.3870992,63.8540304 C18.3868492,62.8180337 17.5471019,61.9780364 16.5108552,61.9780364 Z" id="Path"></path>
                    <path d="M16.5108552,70.9827577 L12.7721171,70.9827577 C11.7358704,70.9827577 10.8961231,71.822755 10.8961231,72.8587517 C10.8961231,73.8949984 11.7358704,74.7347457 12.7721171,74.7347457 L16.5111052,74.7347457 C17.5473519,74.7347457 18.3870992,73.8949984 18.3870992,72.8587517 C18.3868492,71.822505 17.5471019,70.9827577 16.5108552,70.9827577 Z" id="Path"></path>
                    <path d="M16.5108552,79.987229 L12.7721171,79.987229 C11.7358704,79.987229 10.8961231,80.8272263 10.8961231,81.863223 C10.8961231,82.8994697 11.7358704,83.739217 12.7721171,83.739217 L16.5111052,83.739217 C17.5473519,83.739217 18.3870992,82.8994697 18.3870992,81.863223 C18.3868492,80.8272263 17.5471019,79.987229 16.5108552,79.987229 Z" id="Path"></path>
                    <path d="M16.5108552,88.9917003 L12.7721171,88.9917003 C11.7358704,88.9917003 10.8961231,89.8316976 10.8961231,90.8676943 C10.8961231,91.903941 11.7358704,92.7436883 12.7721171,92.7436883 L16.5111052,92.7436883 C17.5473519,92.7436883 18.3870992,91.903941 18.3870992,90.8676943 C18.3868492,89.8316976 17.5471019,88.9917003 16.5108552,88.9917003 Z" id="Path"></path>
                    <path d="M51.0424952,85.7502106 L47.7392557,82.4472211 L51.0424952,79.1442317 C51.7747428,78.410734 51.7747428,77.2232378 51.0422452,76.4907401 C50.3094975,75.7584925 49.1217513,75.7584925 48.3892536,76.4907401 L43.7597684,81.1202254 C43.0272707,81.853223 43.0272707,83.0407193 43.7597684,83.7734669 L48.3892536,88.4029522 C48.7557525,88.769201 49.2360009,88.9522004 49.7159994,88.9522004 C50.1959979,88.9522004 50.6762463,88.769201 51.0427452,88.4029522 C51.7749928,87.6702045 51.7749928,86.4827083 51.0424952,85.7502106 Z" id="Path"></path>
                    <path d="M71.1419311,81.1197254 L66.5121959,76.4907401 C65.7791982,75.7584925 64.591702,75.7584925 63.8592043,76.4907401 C63.1267067,77.2237378 63.1267067,78.411234 63.8592043,79.1437317 L67.1624438,82.4467211 L63.8592043,85.7497106 C63.1267067,86.4827083 63.1267067,87.6702045 63.8592043,88.4027022 C64.2257032,88.768951 64.7059516,88.9519504 65.1859501,88.9519504 C65.6659486,88.9519504 66.1461971,88.768951 66.5126959,88.4027022 L71.1421811,83.7732169 C71.8744288,83.0402193 71.8744288,81.852723 71.1419311,81.1197254 Z" id="Path"></path>
                    <path d="M60.4894651,73.9544982 C59.5144682,73.6004993 58.4392216,74.1022477 58.0849727,75.0754946 L52.8852393,89.3611991 C52.5307404,90.334946 53.0329888,91.4111926 54.0062357,91.7656915 C54.2182351,91.8426912 54.4347344,91.8791911 54.6474837,91.8791911 C55.4137312,91.8791911 56.133229,91.4059426 56.4107281,90.644195 L61.6104615,76.3584905 C61.9649604,75.3854936 61.462962,74.3087471 60.4894651,73.9544982 Z" id="Path"></path>
                    <path d="M14.6098612,11.4279474 C14.5873613,11.3106978 14.5498614,11.1906981 14.5048616,11.0779485 C14.4573617,10.9654489 14.3998619,10.8551992 14.3323621,10.7551995 C14.2626123,10.6501999 14.1848626,10.5552002 14.0998629,10.4697004 C13.749614,10.1197016 13.2668655,9.9197022 12.7716171,9.9197022 C12.2786187,9.9197022 11.7936202,10.1197016 11.4456213,10.4697004 C11.3581216,10.5549502 11.2806218,10.6499499 11.2106221,10.7551995 C11.1428723,10.8549492 11.0856225,10.9651989 11.0403726,11.0779485 C10.9928728,11.1904482 10.9553729,11.3104478 10.932873,11.4279474 C10.907873,11.550447 10.8956231,11.6734466 10.8956231,11.7959462 C10.8956231,12.2886947 11.0956224,12.7736931 11.4456213,13.121692 C11.7936202,13.4716909 12.2786187,13.6719402 12.7716171,13.6719402 C12.8938667,13.6719402 13.0163663,13.6591903 13.1393659,13.6344404 C13.2591155,13.6119404 13.3768652,13.5744406 13.4893648,13.5269407 C13.6018644,13.4816909 13.7121141,13.421941 13.8148638,13.3544413 C13.9171134,13.2869415 14.0123631,13.2094417 14.1001129,13.121942 C14.4478618,12.7739431 14.6478611,12.2889447 14.6478611,11.7961962 C14.6473611,11.6734466 14.6346112,11.550697 14.6098612,11.4279474 Z" id="Path"></path>
                    <path d="M20.4578426,10.4699504 C20.1075937,10.1199516 19.6248453,9.9199522 19.1295968,9.9199522 C18.6365984,9.9199522 18.1540999,10.1199516 17.8036011,10.4699504 C17.4536022,10.8179493 17.2536028,11.3029478 17.2536028,11.7959462 C17.2536028,12.2886947 17.4536022,12.7736931 17.8036011,13.121692 C18.1538499,13.4716909 18.6365984,13.6719402 19.1295968,13.6719402 C19.6245953,13.6719402 20.1073437,13.4716909 20.4578426,13.121692 C20.8055915,12.7736931 21.0080909,12.2886947 21.0080909,11.7959462 C21.0080909,11.3029478 20.8053415,10.8179493 20.4578426,10.4699504 Z" id="Path"></path>
                    <path d="M27.3285707,11.4279474 C27.3038208,11.3106978 27.2688209,11.1906981 27.2213211,11.0779485 C27.1738212,10.9654489 27.1163214,10.8551992 27.0488216,10.7551995 C26.9813218,10.6501999 26.9040721,10.5552002 26.8163223,10.4697004 C26.7288226,10.3822007 26.6340729,10.304951 26.5310733,10.2347012 C26.4285736,10.1669514 26.3210739,10.1097016 26.2083243,10.0622017 C26.0933247,10.0172019 25.975575,9.97970201 25.8555754,9.95470209 C25.6153262,9.90720224 25.365327,9.90720224 25.1225777,9.95470209 C25.0025781,9.97970201 24.8850785,10.0172019 24.7723289,10.0622017 C24.6573292,10.1097016 24.5498296,10.1672014 24.4470799,10.2347012 C24.3445802,10.304701 24.2495805,10.3822007 24.1615808,10.4697004 C24.0765811,10.5549502 23.9968313,10.6499499 23.9290815,10.7551995 C23.8615818,10.8549492 23.8040819,10.9651989 23.7568321,11.0779485 C23.7093322,11.1904482 23.6743324,11.3104478 23.6490824,11.4279474 C23.6265825,11.550447 23.6140826,11.6734466 23.6140826,11.7959462 C23.6140826,12.2886947 23.8140819,12.7736931 24.1615808,13.121692 C24.2493305,13.2091917 24.3440802,13.2866915 24.4470799,13.3541913 C24.5495796,13.421941 24.6570792,13.4816909 24.7723289,13.5266907 C24.8848285,13.5739406 25.0023281,13.6116904 25.1225777,13.6341904 C25.2423274,13.6591903 25.367327,13.6716902 25.4903266,13.6716902 C25.6128262,13.6716902 25.7350758,13.6589403 25.8555754,13.6341904 C25.975325,13.6116904 26.0933247,13.5741906 26.2083243,13.5266907 C26.3208239,13.4814409 26.4283236,13.421691 26.5310733,13.3541913 C26.6338229,13.2866915 26.7285726,13.2091917 26.8163223,13.121692 C27.1665712,12.7736931 27.3665706,12.2886947 27.3665706,11.7959462 C27.3660706,11.6734466 27.3535706,11.550697 27.3285707,11.4279474 Z" id="Path"></path>
                    <path d="M78.0314092,9.9197022 L33.3008017,9.9197022 C32.264555,9.9197022 31.4248077,10.7594495 31.4248077,11.7956962 C31.4248077,12.8319429 32.264555,13.6716902 33.3008017,13.6716902 L78.0314092,13.6716902 C79.0676559,13.6716902 79.9074032,12.8319429 79.9074032,11.7956962 C79.9074032,10.7596995 79.0674059,9.9197022 78.0314092,9.9197022 Z" id="Path"></path>
                    <path d="M92.2986137,9.9197022 L84.6281382,9.9197022 C83.5918915,9.9197022 82.7521442,10.7594495 82.7521442,11.7956962 C82.7521442,12.8319429 83.5918915,13.6716902 84.6281382,13.6716902 L92.2986137,13.6716902 C93.3348604,13.6716902 94.1746078,12.8319429 94.1746078,11.7956962 C94.1746078,10.7596995 93.3348604,9.9197022 92.2986137,9.9197022 Z" id="Path"></path>
                    <path d="M107.634815,48.7198286 L83.0233933,48.7198286 C81.9871466,48.7198286 81.1473993,49.5595759 81.1473993,50.5958226 C81.1473993,51.6320693 81.9871466,52.4718166 83.0233933,52.4718166 L107.634815,52.4718166 C108.671062,52.4718166 109.510809,51.6320693 109.510809,50.5958226 C109.510809,49.5593259 108.671062,48.7198286 107.634815,48.7198286 Z" id="Path"></path>
                    <path d="M97.1420983,39.7151073 L90.013621,39.7151073 C88.9773743,39.7151073 88.137627,40.5548546 88.137627,41.5911013 C88.137627,42.627348 88.9773743,43.4670953 90.013621,43.4670953 L97.1420983,43.4670953 C98.178345,43.4670953 99.0180923,42.627348 99.0180923,41.5911013 C99.0180923,40.5548546 98.178345,39.7151073 97.1420983,39.7151073 Z" id="Path"></path>
                    <path d="M115.935538,39.7151073 L104.333325,39.7151073 C103.297079,39.7151073 102.457331,40.5548546 102.457331,41.5911013 C102.457331,42.627348 103.297079,43.4670953 104.333325,43.4670953 L115.935538,43.4670953 C116.971785,43.4670953 117.811532,42.627348 117.811532,41.5911013 C117.811532,40.5551046 116.971535,39.7151073 115.935538,39.7151073 Z" id="Path"></path>
                    <path d="M81.9471467,39.7151073 L58.2477222,39.7151073 C57.2114755,39.7151073 56.3717282,40.5548546 56.3717282,41.5911013 C56.3717282,42.627348 57.2114755,43.4670953 58.2477222,43.4670953 L81.9471467,43.4670953 C82.9833934,43.4670953 83.8231407,42.627348 83.8231407,41.5911013 C83.8231407,40.5548546 82.9833934,39.7151073 81.9471467,39.7151073 Z" id="Path"></path>
                    <path d="M76.0666654,48.7198286 L68.9381882,48.7198286 C67.9019415,48.7198286 67.0621941,49.5595759 67.0621941,50.5958226 C67.0621941,51.6320693 67.9019415,52.4718166 68.9381882,52.4718166 L76.0666654,52.4718166 C77.1029121,52.4718166 77.9426595,51.6320693 77.9426595,50.5958226 C77.9424095,49.5593259 77.1029121,48.7198286 76.0666654,48.7198286 Z" id="Path"></path>
                    <path d="M61.6452114,48.7198286 L57.9062233,48.7198286 C56.8699766,48.7198286 56.0302293,49.5595759 56.0302293,50.5958226 C56.0302293,51.6320693 56.8699766,52.4718166 57.9062233,52.4718166 L61.6452114,52.4718166 C62.6814581,52.4718166 63.5212054,51.6320693 63.5212054,50.5958226 C63.5212054,49.5593259 62.6817081,48.7198286 61.6452114,48.7198286 Z" id="Path"></path>
                    <path d="M48.575003,48.7198286 L44.8360149,48.7198286 C43.7997682,48.7198286 42.9600209,49.5595759 42.9600209,50.5958226 C42.9600209,51.6320693 43.7997682,52.4718166 44.8360149,52.4718166 L48.575003,52.4718166 C49.6112497,52.4718166 50.4509971,51.6320693 50.4509971,50.5958226 C50.4509971,49.5595759 49.6112497,48.7198286 48.575003,48.7198286 Z" id="Path"></path>
                    <path d="M48.575003,39.7151073 L44.8360149,39.7151073 C43.7997682,39.7151073 42.9600209,40.5548546 42.9600209,41.5911013 C42.9600209,42.627348 43.7997682,43.4670953 44.8360149,43.4670953 L48.575003,43.4670953 C49.6112497,43.4670953 50.4509971,42.627348 50.4509971,41.5911013 C50.4509971,40.5551046 49.6112497,39.7151073 48.575003,39.7151073 Z" id="Path"></path>
                    <path d="M117.774283,50.2300738 C117.751783,50.1100742 117.714283,49.9928245 117.666533,49.8775749 C117.621783,49.7650753 117.561783,49.6575756 117.494283,49.5548259 C117.426534,49.4523263 117.349284,49.3545766 117.261784,49.2693268 C117.176534,49.1818271 117.079285,49.1043274 116.976285,49.0345776 C116.873785,48.9668278 116.766286,48.909578 116.653536,48.8620781 C116.538537,48.8170783 116.421037,48.7795784 116.300787,48.7570785 C116.060788,48.7070786 115.810539,48.7070786 115.56804,48.7570785 C115.44829,48.7795784 115.33029,48.8170783 115.217791,48.8620781 C115.105541,48.909578 114.995041,48.9670778 114.892542,49.0345776 C114.790042,49.1043274 114.695042,49.1820771 114.607293,49.2693268 C114.522293,49.3543266 114.444793,49.4518263 114.374793,49.5548259 C114.307044,49.6573256 114.249794,49.7648253 114.202294,49.8775749 C114.154794,49.9925745 114.119794,50.1100742 114.094794,50.2300738 C114.072294,50.3500734 114.059544,50.472823 114.059544,50.5955726 C114.059544,50.7178222 114.072294,50.8408218 114.094794,50.9633214 C114.119794,51.0833211 114.154544,51.2010707 114.202294,51.3133203 C114.249794,51.42582 114.307294,51.5360696 114.374793,51.6360693 C114.444543,51.741069 114.522293,51.8363187 114.607293,51.9215684 C114.694792,52.0090681 114.789542,52.0865679 114.892542,52.1565676 C114.995041,52.2243174 115.105291,52.2815672 115.217791,52.3290671 C115.33029,52.3740669 115.44804,52.4115668 115.56804,52.4340668 C115.690539,52.4590667 115.813039,52.4715666 115.935788,52.4715666 C116.058538,52.4715666 116.181038,52.4588167 116.301037,52.4340668 C116.421037,52.4115668 116.538787,52.3740669 116.653786,52.3290671 C116.766286,52.2815672 116.873785,52.2240674 116.976535,52.1565676 C117.079035,52.0868179 117.176534,52.0090681 117.262034,51.9215684 C117.349534,51.8365687 117.426784,51.741319 117.494533,51.6360693 C117.562033,51.5363196 117.622033,51.42607 117.666783,51.3133203 C117.714283,51.2010707 117.752033,51.0833211 117.774533,50.9633214 C117.799532,50.8408218 117.811782,50.7183222 117.811782,50.5955726 C117.811532,50.472823 117.799032,50.3503234 117.774283,50.2300738 Z" id="Path"></path>
                    <path d="M123.122516,67.8530176 L103.308579,67.8530176 L103.308579,61.1000391 L123.122516,61.1000391 C125.811757,61.1000391 128,58.9120461 128,56.2225547 L128,35.9638692 C128,33.2746278 125.812007,31.0863848 123.122516,31.0863848 L117.888282,31.0863848 C116.852286,31.0863848 116.012288,31.9261321 116.012288,32.9623788 C116.012288,33.9986255 116.852286,34.8383728 117.888282,34.8383728 L123.122516,34.8383728 C123.732514,34.8383728 124.248012,35.3538712 124.248012,35.9638692 L124.248012,56.2225547 C124.248012,56.8325527 123.732514,57.3480511 123.122516,57.3480511 C115.667039,57.3480511 38.2952858,57.3480511 36.3022921,57.3480511 C35.6920441,57.3480511 35.1767957,56.8325527 35.1767957,56.2225547 L35.1767957,35.9638692 C35.1767957,35.3538712 35.6920441,34.8383728 36.3022921,34.8383728 C39.4165322,34.8383728 105.89757,34.8383728 109.13406,34.8383728 C110.170307,34.8383728 111.010054,33.9986255 111.010054,32.9623788 C111.010054,31.9261321 110.170307,31.0863848 109.13406,31.0863848 L103.308579,31.0863848 C103.308579,27.5956459 103.308579,12.7234433 103.308579,9.21595444 C103.308579,4.13522063 99.1753418,0.00173379512 94.094358,0.00173379512 C3.82164561,0.0149837529 9.2841282,-0.0252661189 8.54188057,0.0309837019 C4.58139319,0.328482754 1.33440353,3.12147386 0.340156697,6.82421206 C-0.127591812,8.56395652 0.0231577073,8.70145608 0.0231577073,32.4633804 C0.0231577073,33.4996271 0.862905032,34.3393744 1.89915173,34.3393744 C2.93539843,34.3393744 3.77514575,33.4996271 3.77514575,32.4633804 L3.77514575,23.5891587 L99.5565906,23.5891587 L99.5565906,31.0866348 L36.3022921,31.0866348 C33.6130507,31.0866348 31.4248077,33.2746278 31.4248077,35.9641192 L31.4248077,56.2228047 C31.4248077,58.9122961 33.6128007,61.1002891 36.3022921,61.1002891 L99.5568406,61.1002891 L99.5568406,67.8532676 L36.3022921,67.8532676 C33.6130507,67.8532676 31.4248077,70.0412607 31.4248077,72.7307521 L31.4248077,92.9896876 C31.4248077,95.679179 33.6128007,97.867172 36.3022921,97.867172 L99.5568406,97.867172 L99.5568406,99.8264158 C99.5568406,102.838156 97.1063484,105.288648 94.094608,105.288648 L29.8668126,105.288648 C28.8305659,105.288648 27.9908186,106.128646 27.9908186,107.164642 C27.9908186,108.200889 28.8305659,109.040636 29.8668126,109.040636 L94.094358,109.040636 C99.1750918,109.040636 103.308579,104.9074 103.308579,99.8264158 L103.308579,97.867172 L123.122516,97.867172 C125.811757,97.867172 128,95.679179 128,92.9896876 L128,72.7307521 C128,70.0412607 125.811757,67.8530176 123.122516,67.8530176 Z M3.77539575,19.8371706 C3.78364573,8.84820561 3.20164758,7.34221041 5.55339009,5.18771727 C6.52838698,4.29772011 7.82488285,3.75397184 9.23762835,3.75397184 L94.094608,3.75397184 C97.1063484,3.75397184 99.5568406,6.20446403 99.5568406,9.21620444 L99.5568406,19.8371706 L3.77539575,19.8371706 Z M124.248012,92.9894376 C124.248012,93.5996856 123.732514,94.114934 123.122516,94.114934 C115.667039,94.114934 38.2952858,94.114934 36.3022921,94.114934 C35.6920441,94.114934 35.1767957,93.5996856 35.1767957,92.9894376 L35.1767957,72.7305021 C35.1767957,72.120504 35.6920441,71.6050057 36.3022921,71.6050057 C38.3962855,71.6050057 115.984288,71.6050057 123.122516,71.6050057 C123.732514,71.6050057 124.248012,72.120504 124.248012,72.7305021 L124.248012,92.9894376 Z" id="Shape"></path>
                    <path d="M21.1123405,105.288398 L9.23762835,105.288398 C6.22588795,105.288398 3.77539575,102.837906 3.77539575,99.8261658 L3.77539575,41.2176025 C3.77539575,40.1813558 2.93564843,39.3416085 1.89940173,39.3416085 C0.863155031,39.3416085 0.0234077065,40.1813558 0.0234077065,41.2176025 L0.0234077065,99.8261658 C0.0234077065,104.9069 4.15664454,109.040386 9.23762835,109.040386 L21.1125905,109.040386 C22.1488372,109.040386 22.9885845,108.200639 22.9885845,107.164392 C22.9883345,106.128396 22.1488372,105.288398 21.1123405,105.288398 Z" id="Path"></path>
                </g>
            </g>
        </g>
    </g>
</svg>