<svg width="128" height="113" viewBox="0 0 128 113" xmlns="http://www.w3.org/2000/svg"><g fill="#1685E4" fill-rule="nonzero"><path d="M120.794 0H7.207A7.214 7.214 0 0 0 0 7.205v75.087a7.213 7.213 0 0 0 7.205 7.205H53.35a32.686 32.686 0 0 1-5.035 8.736c-.024.032-.047.066-.07.099l-13.857.84a7.01 7.01 0 0 0-6.575 6.987v4.115a2 2 0 0 0 2 2H98.19a2 2 0 0 0 2-2v-4.115a7.01 7.01 0 0 0-6.578-6.987l-13.89-.842a2.025 2.025 0 0 0-.19-.29 32.675 32.675 0 0 1-4.882-8.543h46.144A7.213 7.213 0 0 0 128 82.292V7.205A7.214 7.214 0 0 0 120.794 0ZM96.19 106.16v2.115H31.81v-2.116a3.005 3.005 0 0 1 2.819-2.994L64 101.383l29.37 1.782a3.005 3.005 0 0 1 2.819 2.994ZM74.58 98.017l-10.46-.635a2.057 2.057 0 0 0-.242 0l-10.456.635a36.697 36.697 0 0 0 4.18-8.52h12.794a36.637 36.637 0 0 0 4.183 8.52ZM124 82.292a3.209 3.209 0 0 1-3.206 3.205H7.207A3.209 3.209 0 0 1 4 82.292V7.205A3.209 3.209 0 0 1 7.205 4h113.59A3.209 3.209 0 0 1 124 7.205v75.087ZM117.25 8.75H10.75a2 2 0 0 0-2 2v62.623a2 2 0 0 0 2 2h106.5a2 2 0 0 0 2-2V10.75a2 2 0 0 0-2-2Zm-2 62.623H12.75V12.75h102.5v58.623ZM66 80.434a2 2 0 1 1-4 0 2 2 0 0 1 4 0Z"/><path d="M76.707 74H58.324v-5.107h-2.898a7.187 7.187 0 0 1-6.69-4.633l-1.072-2.873c-.149-.4-.53-.664-.957-.664h-.639a3.063 3.063 0 0 1-3.025-3.574c.243-1.456 1.583-2.553 3.128-2.553h2.297a5.107 5.107 0 0 1 4.698 3.089l1.213 2.821a2.043 2.043 0 0 0 1.876 1.239h2.069c.178-2.503 1.008-4.481 2.425-5.873l.281-.268C54.545 53.46 50.154 48.2 50.154 42.341a12.37 12.37 0 0 1 2.042-6.741v-4.25c0-1.662.384-3.3 1.124-4.788l.293-.562h1.762a8.12 8.12 0 0 1 5.783 2.387l.485.485a21.087 21.087 0 0 1 11.77 0l.485-.485A8.12 8.12 0 0 1 79.668 26h1.762l.28.562a10.75 10.75 0 0 1 1.124 4.787V35.6a12.37 12.37 0 0 1 2.043 6.74c0 5.86-4.392 11.12-10.877 13.264l.243.243a8.222 8.222 0 0 1 2.464 5.847V74Zm-16.34-2.043h14.297V61.694a6.166 6.166 0 0 0-1.851-4.38l-2.834-2.77 1.813-.42c6.497-1.532 11.042-6.37 11.042-11.783a10.363 10.363 0 0 0-1.864-5.86l-.178-.255v-4.877a8.709 8.709 0 0 0-.651-3.306h-.473a6.088 6.088 0 0 0-4.327 1.8l-1.38 1.366-.6-.205a19 19 0 0 0-11.693 0l-.6.205-1.378-1.366a6.088 6.088 0 0 0-4.328-1.8h-.472a8.709 8.709 0 0 0-.651 3.306v4.877l-.18.255a10.366 10.366 0 0 0-1.863 5.86c0 5.412 4.545 10.25 11.042 11.77l1.813.42-2.872 2.81c-1.06 1.033-1.672 2.565-1.826 4.57a2.043 2.043 0 0 1-2.03 1.876h-2.068a4.085 4.085 0 0 1-3.753-2.476l-1.2-2.822a3.064 3.064 0 0 0-2.82-1.85h-2.299c-.549 0-1.034.37-1.11.842a1.02 1.02 0 0 0 .995 1.2h.626a3.076 3.076 0 0 1 2.872 1.991l1.073 2.86a5.132 5.132 0 0 0 4.787 3.319h2.898c1.128 0 2.042.914 2.042 2.042v3.064Z" stroke="#1685E4" stroke-linejoin="round" stroke-width="1.6"/></g></svg>