<?xml version="1.0" encoding="UTF-8"?>
<svg width="128px" height="113px" viewBox="0 0 128 113" version="1.1" xmlns="http://www.w3.org/2000/svg" xmlns:xlink="http://www.w3.org/1999/xlink">
    <title>coding (1)</title>
    <g id="Page-1" stroke="none" stroke-width="1" fill="none" fill-rule="evenodd">
        <g id="home-2" transform="translate(-737.000000, -6006.000000)" fill="#1685E4" fill-rule="nonzero">
            <g id="security" transform="translate(340.000000, 5878.000000)">
                <g id="coding-(1)" transform="translate(397.000000, 128.000000)">
                    <path d="M120.7945,0 L7.2055,0 C3.2279944,0.00454611625 0.00468412106,3.22774456 0,7.20525 L0,82.292 C0.00454665386,86.2695625 3.22793737,89.4928414 7.2055,89.49725 L53.35,89.49725 C52.1337792,92.6521174 50.4354102,95.599173 48.3155,98.23325 C48.2905,98.26525 48.2675,98.29875 48.24425,98.33175 L34.38775,99.17225 C30.6957814,99.4016673 27.8175023,102.460413 27.81275,106.1595 L27.81275,110.2745 C27.81275,111.379069 28.7081805,112.2745 29.81275,112.2745 L98.19025,112.2745 C99.2948195,112.2745 100.19025,111.379069 100.19025,110.2745 L100.19025,106.1595 C100.185406,102.459417 97.3055533,99.4002774 93.6125,99.17225 L79.72175,98.32975 C79.6671304,98.2279523 79.6038997,98.1310153 79.53275,98.04 C77.4832807,95.4552108 75.8370357,92.5749774 74.65,89.49725 L120.7945,89.49725 C124.772063,89.4928414 127.995453,86.2695625 128,82.292 L128,7.20525 C127.995316,3.22774456 124.772006,0.00454611625 120.7945,0 Z M96.18875,106.1595 L96.18875,108.2745 L31.81125,108.2745 L31.81125,106.1595 C31.8133542,104.573925 33.0472146,103.262907 34.62975,103.16475 L64,101.3835 L93.37025,103.16475 C94.9527854,103.262907 96.1866458,104.573925 96.18875,106.1595 L96.18875,106.1595 Z M74.5805,98.01775 L64.121,97.3835 C64.0404033,97.3787502 63.9595967,97.3787502 63.879,97.3835 L53.42325,98.0175 C55.1792346,95.3702737 56.5840616,92.5062485 57.6025,89.49725 L70.397,89.49725 C71.4161223,92.5068111 72.8224221,95.3710105 74.5805,98.01775 L74.5805,98.01775 Z M124,82.292 C123.997933,84.0614515 122.563952,85.4953213 120.7945,85.49725 L7.2055,85.49725 C5.43604833,85.4953213 4.00206671,84.0614515 4,82.292 L4,7.20525 C4.00206671,5.43579849 5.43604833,4.0019287 7.2055,4 L120.7945,4 C122.563952,4.0019287 123.997933,5.43579849 124,7.20525 L124,82.292 Z M117.25,8.75 L10.75,8.75 C9.6454305,8.75 8.75,9.6454305 8.75,10.75 L8.75,73.3725 C8.75,74.4770695 9.6454305,75.3725 10.75,75.3725 L117.25,75.3725 C118.354569,75.3725 119.25,74.4770695 119.25,73.3725 L119.25,10.75 C119.25,9.6454305 118.354569,8.75 117.25,8.75 Z M115.25,71.3725 L12.75,71.3725 L12.75,12.75 L115.25,12.75 L115.25,71.3725 Z M66,80.43475 C66,81.5393195 65.1045695,82.43475 64,82.43475 C62.8954305,82.43475 62,81.5393195 62,80.43475 C62,79.3301805 62.8954305,78.43475 64,78.43475 C65.1045695,78.43475 66,79.3301805 66,80.43475 Z" id="Shape"></path>
                    <g id="github-(1)" transform="translate(43.000000, 26.000000)" stroke="#1685E4" stroke-linejoin="round" stroke-width="1.6">
                        <path d="M33.7065344,48 L15.3236998,48 L15.3236998,42.8934077 L12.4259499,42.8934077 C9.45227809,42.8814397 6.79276601,41.039117 5.73659078,38.259551 L4.66433354,35.3872331 C4.51510772,34.9878015 4.13325402,34.7230096 3.70689424,34.7233837 L3.06847677,34.7233837 C2.16564138,34.7245057 1.30843401,34.3280659 0.725368507,33.6387845 C0.142302909,32.9498769 -0.107528909,32.0388136 0.0428189334,31.1490683 C0.285544828,29.6934613 1.62595985,28.5957721 3.17057868,28.5957721 L5.468433,28.5957721 C7.51121956,28.5931541 9.35915219,29.8082792 10.1662435,31.6850099 L11.3791247,34.5064638 C11.7007645,35.2570813 12.4386659,35.7440289 13.2554813,35.7447769 L15.3236998,35.7447769 C15.5024717,33.2423447 16.3320031,31.2638861 17.749088,29.8722332 L18.0299619,29.6040754 C11.5448066,27.4595609 7.15367572,22.2000028 7.15367572,16.3405491 C7.16676574,13.9432108 7.87661727,11.6015985 9.1960883,9.59995196 L9.1960883,5.34907111 C9.19571433,3.68813825 9.58018595,2.0492715 10.3195835,0.561874604 L10.6131732,6.3011585e-05 L12.3747119,6.3011585e-05 C14.5439103,-0.00847503236 16.6263408,0.850976369 18.1578697,2.38736725 L18.6429473,2.87244487 C22.4865426,1.75530766 26.5691236,1.75530766 30.4130928,2.87244487 L30.8981704,2.38736725 C32.4263333,0.854342343 34.5035278,-0.00510903003 36.6682383,6.3011585e-05 L38.429777,6.3011585e-05 L38.7106508,0.561874604 C39.4500482,2.0492715 39.8345199,3.68813825 39.834146,5.34907111 L39.834146,9.59995196 C41.153617,11.6015985 41.8634684,13.9432108 41.8765584,16.3405491 C41.8765584,22.2000028 37.4850537,27.4595609 31.0002724,29.6040754 L31.2426242,29.8468012 C32.813049,31.3876801 33.7005504,33.4932985 33.7065344,35.6935389 L33.7065344,48 Z M17.3661123,45.9572134 L31.6641218,45.9572134 L31.6641218,35.6935389 C31.6570159,34.0453222 30.9905484,32.4681653 29.8128232,31.3147501 L26.9790273,28.5445341 L28.7918039,28.1234105 C35.2893013,26.5915076 39.834146,21.7530731 39.834146,16.3405491 C39.8199339,14.2439066 39.1699224,12.2007461 37.9701313,10.4810953 L37.7917334,10.2256535 L37.7917334,5.34907111 C37.7921074,4.21510394 37.5706996,3.09198273 37.1405999,2.04291094 L36.6682383,2.04291094 C35.0432094,2.04141743 33.4851266,2.68918505 32.3406874,3.84260012 L30.9617504,5.20882119 L30.3618548,5.00424332 C26.5608956,3.77490619 22.4693386,3.77490619 18.6683794,5.00424332 L18.0684838,5.20882119 L16.6895468,3.84260012 C15.5451077,2.68918505 13.9870248,2.04141743 12.361996,2.04291094 L11.8896343,2.04291094 C11.4595347,3.09198273 11.2381268,4.21510394 11.2385008,5.34907111 L11.2385008,10.2256535 L11.059729,10.4810953 C9.86031182,12.2007461 9.21030025,14.2439066 9.1960883,16.3405491 C9.1960883,21.7530731 13.740559,26.5915076 20.2384302,28.1106944 L22.0512069,28.5318182 L19.178889,31.3405562 C18.1193477,32.3742913 17.5067362,33.9061942 17.3533963,35.9104587 C17.2673764,36.968504 16.385111,37.7838234 15.3236998,37.7871894 L13.2554813,37.7871894 C11.6218505,37.7864414 10.1456735,36.8121721 9.50239401,35.3105632 L8.30260288,32.4894833 C7.81715129,31.3633701 6.7071201,30.6351926 5.48114894,30.6381846 L3.18329462,30.6381846 C2.63426311,30.6381846 2.1491854,31.0084444 2.07288945,31.480806 C2.02015551,31.7766398 2.10056548,32.0807015 2.29242732,32.3118334 C2.48428915,32.5429652 2.76815497,32.6779792 3.06847677,32.6809712 L3.69380432,32.6809712 C4.97213534,32.6835891 6.11545248,33.4760945 6.56612222,34.6721456 L7.63875344,37.5317476 C8.39086692,39.5244181 10.2960215,40.8450112 12.4259499,40.8509952 L15.3236998,40.8509952 C16.451683,40.8509952 17.3661123,41.7654245 17.3661123,42.8934077 L17.3661123,45.9572134 Z" id="Shape"></path>
                    </g>
                </g>
            </g>
        </g>
    </g>
</svg>