<?xml version="1.0" encoding="UTF-8"?>
<svg width="256px" height="256px" viewBox="0 0 256 256" version="1.1" xmlns="http://www.w3.org/2000/svg" xmlns:xlink="http://www.w3.org/1999/xlink">
    <title>contact</title>
    <g id="Page-1" stroke="none" stroke-width="1" fill="none" fill-rule="evenodd">
        <g id="home-2" transform="translate(-449.000000, -6810.000000)" fill="#1685E4" fill-rule="nonzero">
            <g id="Group-6" transform="translate(340.000000, 6690.000000)">
                <g id="contact" transform="translate(109.000000, 120.000000)">
                    <path d="M238.926554,42.6623195 L87.4658882,42.6623195 L77.6529436,10.1985391 C75.3300234,2.63725052 67.3539465,-1.64570486 59.7677856,0.594652966 L38.0385132,6.9943994 C35.6447792,7.70243675 33.4742626,9.01620921 31.7368963,10.8086483 L7.25573292,36.1644436 C5.41492666,38.0882266 4.14464983,40.4855048 3.58654496,43.0889693 C1.09064386,54.6085128 -5.7997498,96.3689915 10.5409361,150.391384 C26.881622,204.413777 55.7658109,235.618941 64.2561411,243.89168 C66.1585408,245.759252 68.5402218,247.064525 71.1380018,247.663264 L105.666767,255.628815 C106.734311,255.875483 107.826434,256 108.922105,256 C110.314298,256 111.699217,255.799213 113.035008,255.406957 L125.057999,251.861497 L134.747215,249.002944 C138.435918,247.940079 141.540009,245.434348 143.357007,242.052819 C145.167489,238.728332 145.565678,234.815635 144.46203,231.194583 L139.056377,213.322224 L238.926554,213.322224 C248.35184,213.322224 255.992544,205.68152 255.992544,196.256234 L255.992544,59.72831 C255.992544,50.3030237 248.35184,42.6623195 238.926554,42.6623195 Z M171.729216,126.712323 L246.93477,56.8868226 C247.273001,57.7964275 247.45057,58.7578968 247.459549,59.72831 L247.459549,196.256234 C247.447287,197.170447 247.287365,198.076672 246.985968,198.939861 L171.729216,126.712323 Z M238.926554,51.1953147 C239.410506,51.2023929 239.892963,51.2509243 240.36863,51.3403757 L151.036703,134.25549 C147.763846,137.290824 142.704686,137.290824 139.431829,134.25549 L77.9942635,77.3788106 L82.5210174,76.0433969 C86.2026712,74.9731413 89.3001835,72.4689986 91.1180101,69.0932723 C92.9261032,65.7708281 93.3212781,61.860595 92.2145,58.2435688 L90.0684517,51.1953147 L238.926554,51.1953147 Z M67.1317605,175.909307 C58.323432,165.126088 51.7739016,152.6814 47.8727903,139.315557 C42.3623244,122.473996 41.6108086,104.437616 45.701143,87.1960217 C45.7892304,86.9634762 45.9850208,86.7883787 46.2259222,86.7267069 L68.4415753,80.1776331 L118.547323,126.545929 L67.1317605,175.909307 Z M135.822372,237.991114 C135.08257,239.362231 133.821392,240.377326 132.323844,240.807002 L126.666468,242.475203 L116.277547,208.095765 C115.858098,206.610821 114.669539,205.468077 113.169262,205.107294 C111.668985,204.746512 110.090815,205.22392 109.04208,206.355799 C107.993345,207.487678 107.637494,209.097618 108.11147,210.566067 L118.504658,244.894307 L110.628704,247.215281 C109.638477,247.509458 108.588884,247.541798 107.582424,247.309144 L73.0536592,239.34786 C71.9836877,239.097827 71.003419,238.557498 70.2207048,237.786322 C62.1143593,229.871969 34.4375893,199.993686 18.7070125,147.925349 C2.9764358,95.8570118 9.53830914,55.8884621 11.9232813,44.8894313 C12.1526783,43.8338639 12.6694778,42.8622809 13.4165555,42.0820758 L37.8721198,16.73908 C38.577566,16.0078743 39.4590423,15.4701736 40.4320184,15.1775418 L48.3719705,12.8395011 L58.7608922,47.2146725 C59.3044662,49.0152923 60.9630518,50.2475332 62.8439304,50.2481523 C63.2618893,50.2502697 63.6777103,50.1884 64.0769482,50.0646929 C66.3314394,49.3830947 67.6071465,47.0035568 66.9269686,44.7486368 L56.5721789,10.42893 L62.1783568,8.7777954 C65.2751433,7.84429724 68.5462372,9.57784383 69.5124662,12.6645747 L84.0185581,60.7053379 C84.4640043,62.1461018 84.3102108,63.7055706 83.5919083,65.0315665 C82.8499717,66.4017958 81.5898757,67.4175558 80.0933803,67.8517214 L74.4317379,69.519922 L72.7550044,63.9734751 C72.0304682,61.7751938 69.6852926,60.5555523 67.4695182,61.2246838 C65.2537434,61.8938152 63.9756227,64.2076393 64.5889279,66.4395107 L66.2485955,71.9347597 L43.815351,78.547831 C40.7397903,79.4465047 38.3429383,81.864311 37.4710691,84.9475774 C32.9706556,103.731401 33.745792,123.39329 39.7109803,141.764526 C44.9497671,160.411279 55.2029574,177.263817 69.3546058,190.487929 C71.7610073,192.609904 75.0938071,193.33618 78.1649234,192.407853 L100.653632,185.777716 L102.330366,191.324163 C102.749815,192.809106 103.938373,193.951851 105.438651,194.312633 C106.938928,194.673416 108.517097,194.196007 109.565832,193.064129 C110.614568,191.932249 110.970418,190.32231 110.496442,188.85386 L108.836775,183.358612 L114.438686,181.707477 C117.535836,180.781169 120.803196,182.51173 121.777062,185.594256 L136.283154,233.639286 C136.73194,235.089561 136.573373,236.65984 135.843705,237.991114 L135.822372,237.991114 Z M136.475146,204.789229 L129.938872,183.15382 C127.612322,175.578384 119.615965,171.292718 112.019582,173.549933 L75.7543522,184.241777 C75.4939124,184.319859 75.2118525,184.269151 74.9949156,184.105249 C74.397606,183.580469 73.7149663,182.927695 72.9256643,182.185325 L124.823341,132.352632 L133.629392,140.505909 C140.187616,146.553003 150.289449,146.553003 156.847672,140.505909 L165.465998,132.50196 L240.586221,204.60577 C240.040384,204.721389 239.484466,204.78284 238.926554,204.789229 L136.475146,204.789229 Z" id="Shape"></path>
                    <path d="M110.931625,68.2613052 L179.195587,68.2613052 C181.551908,68.2613052 183.462085,66.351129 183.462085,63.9948076 C183.462085,61.6384862 181.551908,59.72831 179.195587,59.72831 L110.931625,59.72831 C108.575304,59.72831 106.665127,61.6384862 106.665127,63.9948076 C106.665127,66.351129 108.575304,68.2613052 110.931625,68.2613052 Z" id="Shape"></path>
                    <path d="M234.660056,93.8602909 C232.303735,93.8602909 230.393558,95.7704672 230.393558,98.1267886 L230.393558,157.857755 C230.393558,160.214077 232.303735,162.124253 234.660056,162.124253 C237.016377,162.124253 238.926554,160.214077 238.926554,157.857755 L238.926554,98.1267886 C238.926554,95.7704672 237.016377,93.8602909 234.660056,93.8602909 Z" id="Shape"></path>
                </g>
            </g>
        </g>
    </g>
</svg>