<svg viewBox="0 0 256 256" xmlns="http://www.w3.org/2000/svg"><g fill="#1685E4" fill-rule="nonzero"><path d="M238.927 42.662H87.466L77.653 10.2C75.33 2.637 67.353-1.646 59.768.595l-21.73 6.4a14.506 14.506 0 0 0-6.301 3.814L7.256 36.164a14.374 14.374 0 0 0-3.67 6.925c-2.495 11.52-9.386 53.28 6.955 107.302 16.34 54.023 45.225 85.228 53.715 93.5a14.46 14.46 0 0 0 6.882 3.772l34.529 7.966a14.46 14.46 0 0 0 3.255.371c1.392 0 2.777-.2 4.113-.593l12.023-3.546 9.69-2.858a14.254 14.254 0 0 0 8.609-6.95 14.105 14.105 0 0 0 1.105-10.858l-5.406-17.873h99.87c9.426 0 17.067-7.64 17.067-17.066V59.728c0-9.425-7.641-17.066-17.066-17.066Zm-67.198 84.05 75.206-69.825c.338.91.516 1.87.525 2.841v136.528a8.486 8.486 0 0 1-.474 2.684l-75.257-72.228Zm67.198-75.517c.484.007.966.056 1.442.145l-89.332 82.915a8.533 8.533 0 0 1-11.605 0L77.994 77.38l4.527-1.336a14.297 14.297 0 0 0 8.597-6.95 14.08 14.08 0 0 0 1.097-10.85l-2.147-7.048h148.859ZM67.132 175.91a103.83 103.83 0 0 1-19.26-36.593 96.197 96.197 0 0 1-2.17-52.12.764.764 0 0 1 .524-.47l22.216-6.548 50.105 46.368-51.415 49.363Zm68.69 62.082a5.79 5.79 0 0 1-3.498 2.816l-5.658 1.668-10.388-34.38a4.266 4.266 0 1 0-8.167 2.471l10.394 34.328-7.876 2.321c-.99.294-2.04.327-3.047.094l-34.528-7.961a5.973 5.973 0 0 1-2.833-1.562c-8.107-7.914-35.783-37.792-51.514-89.86-15.73-52.069-9.169-92.038-6.784-103.037a5.858 5.858 0 0 1 1.494-2.807L37.872 16.74a5.93 5.93 0 0 1 2.56-1.561l7.94-2.338 10.389 34.375a4.266 4.266 0 0 0 5.316 2.85 4.266 4.266 0 0 0 2.85-5.316l-10.355-34.32 5.606-1.651a5.9 5.9 0 0 1 7.334 3.887l14.507 48.04c.445 1.441.291 3-.427 4.327a5.824 5.824 0 0 1-3.499 2.82l-5.661 1.668-1.677-5.547a4.266 4.266 0 0 0-8.166 2.467l1.66 5.495-22.434 6.613a9.305 9.305 0 0 0-6.344 6.4 104.862 104.862 0 0 0 2.24 56.817 105.882 105.882 0 0 0 29.644 48.723 9.267 9.267 0 0 0 8.81 1.92l22.489-6.63 1.676 5.546a4.266 4.266 0 1 0 8.166-2.47l-1.66-5.495 5.603-1.652a5.918 5.918 0 0 1 7.338 3.887l14.506 48.045c.449 1.45.29 3.02-.44 4.352h-.02Zm.653-33.202-6.536-21.635c-2.327-7.576-10.323-11.861-17.92-9.604l-36.265 10.692a.853.853 0 0 1-.76-.137c-.596-.525-1.279-1.177-2.068-1.92l51.897-49.832 8.806 8.153c6.559 6.047 16.66 6.047 23.219 0l8.618-8.004 75.12 72.104a8.478 8.478 0 0 1-1.66.183h-102.45Z"/><path d="M110.932 68.261h68.264a4.266 4.266 0 0 0 0-8.533h-68.264a4.266 4.266 0 0 0 0 8.533ZM234.66 93.86a4.266 4.266 0 0 0-4.266 4.267v59.73a4.266 4.266 0 0 0 8.533 0v-59.73a4.266 4.266 0 0 0-4.267-4.267Z"/></g></svg>