<?xml version="1.0" encoding="UTF-8"?>
<svg width="456px" height="456px" viewBox="0 0 456 456" version="1.1" xmlns="http://www.w3.org/2000/svg" xmlns:xlink="http://www.w3.org/1999/xlink">
    <title>images/dotnet</title>
    <g id="images/dotnet" stroke="none" stroke-width="1" fill="none" fill-rule="evenodd">
        <path d="M392.667,187.695 L359.457,187.695 L359.457,289.515 L340.272,289.515 L340.272,187.695 L307.143,187.695 L307.143,171 L392.667,171 L392.667,187.695 Z M300.449,289.515 L235.561,289.515 L235.561,171 L297.87,171 L297.87,187.695 L254.746,187.695 L254.746,221.249 L294.485,221.249 L294.485,237.861 L254.746,237.861 L254.746,272.903 L300.449,272.903 L300.449,289.515 Z M210.167,289.515 L189.209,289.515 L133.994,202.406 C132.597,200.202 131.441,197.915 130.528,195.546 L130.044,195.546 C130.474,198.081 130.689,203.508 130.689,211.827 L130.689,289.515 L112.149,289.515 L112.149,171 L134.477,171 L187.839,256.043 C190.096,259.57 191.547,261.994 192.192,263.316 L192.514,263.316 C191.977,260.176 191.708,254.859 191.708,247.365 L191.708,171 L210.167,171 L210.167,289.515 Z M89.576,288.11 C87.319,290.259 84.552,291.333 81.274,291.333 C78.05,291.333 75.309,290.259 73.052,288.11 C70.795,285.906 69.667,283.289 69.667,280.259 C69.667,277.173 70.795,274.529 73.052,272.325 C75.309,270.121 78.05,269.019 81.274,269.019 C84.552,269.019 87.319,270.121 89.576,272.325 C91.887,274.529 93.042,277.173 93.042,280.259 C93.042,283.289 91.887,285.906 89.576,288.11 L89.576,288.11 Z M0,456 L456,456 L456,0 L0,0 L0,456 Z" id="Fill-1" fill="#512BD4"></path>
    </g>
</svg>