<?xml version="1.0" encoding="UTF-8"?>
<svg width="132px" height="31px" viewBox="0 0 132 31" version="1.1" xmlns="http://www.w3.org/2000/svg" xmlns:xlink="http://www.w3.org/1999/xlink">
    <title>8FF03558-4DA6-421B-AF35-B17D8CEBF365</title>
    <g id="Page-1" stroke="none" stroke-width="1" fill="none" fill-rule="evenodd">
        <g id="landing" transform="translate(-797.000000, -3311.000000)" fill-rule="nonzero">
            <g id="our-customers" transform="translate(412.000000, 3173.000000)">
                <g id="row-1" transform="translate(0.000000, 126.000000)">
                    <g id="e_promag" transform="translate(385.000000, 12.000000)">
                        <g id="#21a73fff" transform="translate(0.000000, 0.002995)" fill="#21A73F">
                            <path d="M8.2819987,0.194751296 C10.3573658,-0.217419509 12.5589965,0.027851146 14.4863304,0.900085841 C16.6197497,1.85214235 18.4034043,3.56032909 19.4526983,5.64730662 C21.3669704,9.32636643 20.7211394,14.1287368 17.8925447,17.1648682 C16.3918947,18.8280645 14.3339433,19.9847551 12.1250561,20.373705 C9.80732094,20.8061941 7.34445526,20.4027311 5.28650385,19.2532971 C3.33740036,18.1735257 1.75837982,16.442118 0.864375536,14.4015823 C-0.0397878826,12.3581439 -0.238616756,10.0171879 0.286755888,7.84748598 C1.17205233,4.03200343 4.43023351,0.908793675 8.2819987,0.194751296 M7.24141255,6.66031796 C6.24001166,7.54851702 5.87863655,8.93886783 5.86267219,10.2334325 C5.82493824,11.4873605 6.11084545,12.8327209 7.00775235,13.7601052 C7.90465924,14.7150643 9.25437349,15.0836959 10.5300712,15.0895012 C11.744814,15.1025629 13.0045473,14.9980689 14.0973804,14.418998 C14.0901239,13.6657703 14.0944778,12.9125427 14.0944778,12.1593151 C12.9450438,12.6933955 11.6388687,12.9923645 10.3747814,12.7775713 C9.62735904,12.6440511 9.05554462,11.9720966 9.03667764,11.2130638 C10.9219237,11.2087099 12.8057184,11.2130638 14.6909644,11.2116125 C14.6764514,10.0229931 14.8085202,8.76325984 14.2584754,7.66317016 C13.7418106,6.5427622 12.5735095,5.85339202 11.3776337,5.70245623 C9.95680542,5.50507866 8.35021007,5.66327098 7.24141255,6.66031796 Z" id="Shape"></path>
                            <path d="M9.42272494,8.27271853 C9.90165581,7.62543621 11.0133559,7.5949588 11.5082512,8.2378872 C11.7390088,8.51363527 11.7956097,8.8793643 11.8376975,9.22477504 C10.9248263,9.22187243 10.011955,9.24219071 9.09908378,9.21316459 C9.16439254,8.88952343 9.21663954,8.54411269 9.42272494,8.27271853 Z" id="Path"></path>
                        </g>
                        <g id="#2b2a29ff" transform="translate(27.467171, 0.000000)" fill="#2B2A29">
                            <path d="M38.5840491,0.183233704 C40.0963096,-0.0620369509 41.650658,-0.0620369509 43.1629185,0.189038926 C44.604065,0.435760886 46.052468,1.01918576 47.0408072,2.1352398 C47.9914124,3.19033901 48.3963266,4.63583943 48.4021319,6.03489808 C48.4050345,8.83736928 48.4035832,11.6412918 48.4035832,14.443763 C48.4108397,15.9502183 47.9507758,17.520531 46.8622966,18.603205 C45.477751,19.9979097 43.4415691,20.4449119 41.5447127,20.5319902 C39.4504786,20.6016529 37.1893444,20.3883109 35.4419724,19.1213211 C34.0559755,18.1271767 33.3462871,16.4160874 33.312907,14.7441833 C33.2925887,11.9388095 33.3114557,9.13198433 33.3041992,6.32515921 C33.2708192,4.88256139 33.6191325,3.37320352 34.5682864,2.25134425 C35.5609795,1.05256579 37.0804965,0.432858275 38.5840491,0.183233704 M39.3982316,3.45592794 C38.7320823,3.59670459 38.0499687,3.87390397 37.6261874,4.43120534 C37.1820879,5.00592237 37.068886,5.7576987 37.0775939,6.46448455 C37.0804965,9.08118863 37.0717887,11.6964414 37.0819478,14.3116942 C37.0848504,15.1302306 37.348988,16.0140757 38.0340043,16.5176788 C38.8322224,17.1040063 39.8641007,17.2085003 40.8234138,17.2201107 C41.7928859,17.2172081 42.8320208,17.1156167 43.6462032,16.5379971 C44.3529891,16.034394 44.6287372,15.1302306 44.6258346,14.2957298 C44.6301885,11.5875935 44.6345424,8.87945715 44.6243832,6.1698695 C44.6258346,5.23522867 44.2049559,4.23382777 43.326916,3.80859521 C42.1150758,3.22371904 40.6971502,3.24693993 39.3982316,3.45592794 Z" id="Shape"></path>
                            <path d="M93.9353953,0.656359345 C95.9672232,-0.104124815 98.1877208,-0.0605856453 100.319689,0.0918014478 C101.739066,0.23112679 103.183115,0.374806049 104.532829,0.860993441 L104.532829,4.46313406 C103.342758,4.45587753 102.154139,4.47909842 100.96552,4.45007231 C100.966971,4.15400596 100.968422,3.8564883 100.96552,3.55897064 C99.7362639,3.45157402 98.4997515,3.37320352 97.267593,3.44141488 C96.4592158,3.50382103 95.5826272,3.71716296 95.0325823,4.35718875 C94.508661,4.97544495 94.4056183,5.82155615 94.4085209,6.60235859 C94.4070696,9.07393211 94.4070696,11.5455056 94.4085209,14.0170791 C94.404167,14.7935277 94.523174,15.6323823 95.0514493,16.2390281 C95.6043968,16.8659921 96.4708262,17.0735288 97.2733983,17.1373863 C98.5070081,17.2128542 99.7435205,17.0880419 100.966971,16.9254957 C100.971325,15.5177292 100.968422,14.111414 100.968422,12.7050988 C100.384998,12.7050988 99.803024,12.7080014 99.2225017,12.696391 C99.2312096,11.8299615 99.2268557,10.9635321 99.223953,10.0971026 C100.993095,10.0796869 102.763688,10.0942 104.532829,10.0898461 L104.532829,19.6423398 C102.834801,20.1314298 101.075819,20.383957 99.3153853,20.5000615 C97.5273767,20.6016529 95.6740594,20.5813346 93.9789344,19.932601 C92.865783,19.510271 91.868736,18.7236634 91.3157886,17.6555024 C90.6931784,16.5002631 90.6017462,15.1563541 90.6322236,13.8704973 C90.6351262,11.2566958 90.6322236,8.64289433 90.6336749,6.03054416 C90.6336749,4.90142837 90.8136368,3.73893254 91.3810973,2.74769078 C91.9369474,1.76225425 92.8890039,1.05111448 93.9353953,0.656359345 Z" id="Path"></path>
                            <path d="M0.00108847924,0.302240767 C2.62504909,0.29788685 5.2475584,0.29788685 7.8700677,0.302240767 C9.47521175,0.32110774 11.2124246,0.51122878 12.5142458,1.54165579 C13.6012737,2.39502351 14.0381167,3.81294913 14.0961689,5.14524772 C14.129549,6.26275306 14.1034255,7.38170972 14.110682,8.49921507 C14.1048768,9.77491273 13.8131643,11.1333348 12.9177087,12.0911965 C11.959847,13.1317827 10.5245057,13.5395996 9.16318104,13.6977919 C7.36791595,13.869046 5.56104042,13.7108537 3.76432403,13.8037372 C3.78899622,15.9502183 3.76577533,18.0966993 3.77593447,20.2446317 C2.51765247,20.2489856 1.25937048,20.246083 0.00108847924,20.246083 C-0.000362826412,13.5976518 -0.000362826412,6.94922064 0.00108847924,0.302240767 M3.76722664,3.64604898 C3.78609361,5.9129884 3.76867794,8.18137913 3.77448316,10.4497699 C5.14016178,10.4526725 6.50438909,10.4613803 7.8686164,10.4454159 C8.63200317,10.4192924 9.53181267,10.2727106 9.98316873,9.58188908 C10.4562944,8.82430753 10.3111638,7.89402061 10.335836,7.04645811 C10.3053586,6.16696689 10.478064,5.17717644 9.93527564,4.41233836 C9.42296475,3.74764038 8.51299611,3.64459767 7.73219367,3.62863331 C6.41150553,3.63298723 5.08791478,3.5996072 3.76722664,3.64604898 Z" id="Shape"></path>
                            <path d="M15.772427,20.2388265 C15.78694,13.5932979 15.7695243,6.94631802 15.7811348,0.299338155 C18.322371,0.299338155 20.8621559,0.299338155 23.4033921,0.299338155 C24.9780587,0.286276405 26.6310958,0.358841687 28.051924,1.1077154 C28.9996266,1.59825671 29.7107664,2.48935838 30.0140893,3.50817494 C30.4451271,4.88691531 30.2695191,6.34692879 30.3087043,7.76775702 C30.3348278,8.95492504 30.240493,10.2015966 29.6367498,11.2537932 C29.1418546,12.1376383 28.2855843,12.7776641 27.3364304,13.1056592 C28.929964,15.5133753 30.6236377,17.8601365 32.2549052,20.246083 C30.7528039,20.2533395 29.2507025,20.2359238 27.7500525,20.2547908 C26.1957041,18.0676732 24.6863463,15.8471756 23.142157,13.6542527 C21.9462812,13.6571553 20.7518566,13.655704 19.5559808,13.655704 C19.547273,15.8515295 19.5574321,18.0488062 19.5516269,20.246083 C18.2918936,20.2417291 17.0321603,20.2562421 15.772427,20.2388265 M19.5530782,3.6257307 C19.547273,5.87380315 19.5646886,8.12332691 19.5443703,10.3713994 C21.0217995,10.4192924 22.5006799,10.3844611 23.9795604,10.3902663 C24.7719733,10.3713994 25.7167733,10.2451358 26.1840937,9.51948294 C26.6630245,8.73287528 26.5033809,7.77211094 26.5338583,6.89697363 C26.5135401,6.06972941 26.6441576,5.14960163 26.1463597,4.42830272 C25.6848445,3.79408216 24.841636,3.66056204 24.1101779,3.63298723 C22.5906609,3.61412026 21.0711439,3.63008462 19.5530782,3.6257307 Z" id="Shape"></path>
                            <path d="M51.137843,0.300789461 C52.5456095,0.29788685 53.953376,0.299338155 55.3611424,0.300789461 C57.0722318,5.85203357 58.7847725,11.4032777 60.4886053,16.9559731 C60.6032584,16.7716573 60.6685672,16.5641206 60.7266194,16.3565838 C62.3651435,11.0041686 64.0312424,5.66046122 65.6610586,0.306594684 C67.0717277,0.292081627 68.4823968,0.300789461 69.8930659,0.302240767 C69.8466241,6.95067194 69.7972797,13.5976518 69.7435814,20.246083 C68.6957387,20.2475343 67.6464447,20.246083 66.5986021,20.246083 C66.5927968,15.9763418 66.6058586,11.7080519 66.5927968,7.43831064 C65.3229044,11.6906362 64.1487981,15.9748905 62.9108344,20.2388265 C61.3129469,20.2344725 59.7150594,20.2417291 58.1171719,20.2344725 C56.9111369,16.0126244 55.7138097,11.7878737 54.4932617,7.57037945 C54.3873163,7.86789711 54.4366607,8.19008697 54.4279529,8.49921507 C54.404732,12.4148377 54.390219,16.3304603 54.3640955,20.246083 C53.2669084,20.246083 52.1711726,20.246083 51.0754369,20.246083 C51.0943038,13.5976518 51.118976,6.94922064 51.137843,0.300789461 Z" id="Path"></path>
                            <path d="M78.0087671,0.309497295 C79.7735547,0.292081627 81.541245,0.292081627 83.307484,0.309497295 C85.3828511,6.96083108 87.4974034,13.5991031 89.5843809,20.246083 C88.2709493,20.2518882 86.9560664,20.2373752 85.6426348,20.2533395 C85.1854735,18.8775018 84.7892671,17.482797 84.3306545,16.1069593 C81.8619836,16.1359854 79.3933127,16.0822871 76.9260931,16.1330828 C76.5240814,17.5089205 76.1003001,18.8789531 75.6779702,20.2489856 C74.361636,20.2417291 73.0453018,20.2504369 71.7304188,20.2446317 C73.8188477,13.5991031 75.9348513,6.96083108 78.0087671,0.309497295 M77.8723443,12.853132 C79.708246,12.8429729 81.5455989,12.8545833 83.3829519,12.8487781 C82.4874963,9.7139579 81.5615633,6.58784553 80.6777182,3.45012272 C79.689379,6.56607594 78.8127904,9.72121442 77.8723443,12.853132 Z" id="Shape"></path>
                        </g>
                        <g id="#898989ff" transform="translate(63.547718, 26.012530)" fill="#898989">
                            <path d="M0.846111193,0.211480548 C1.52096832,-0.100550166 2.38449518,-0.0787805813 3.00420269,0.353708502 C3.32929516,0.583014794 3.44539961,0.980672542 3.51506228,1.35220679 C3.37283433,1.36526854 3.09128103,1.38848943 2.94905308,1.40009987 C2.84746168,0.495936455 1.69367369,0.323231083 1.03623223,0.722340137 C0.734360658,0.918266399 0.664697987,1.42041815 0.982533924,1.6366627 C1.67916064,2.02996653 2.57461622,1.94288819 3.22044723,2.44794255 C3.70663463,2.8194768 3.75307641,3.57705835 3.39750652,4.0530866 C3.13046628,4.44493912 2.65879195,4.61038797 2.21178981,4.69020978 L1.57031271,4.69020978 C0.757581548,4.62199841 0.0391852525,4.00374221 8.24971749e-15,3.16198493 C0.187218429,3.14456926 0.378790774,3.1271536 0.568911814,3.10973793 C0.67050321,4.14742147 2.04488966,4.42316954 2.79521468,3.90650473 C3.13191759,3.6684906 3.14933326,3.09522487 2.78505554,2.87607772 C2.06811055,2.459553 1.11315143,2.57420614 0.487638698,1.98062213 C-0.0362826412,1.46831124 0.195926263,0.503192984 0.846111193,0.211480548 Z" id="Path"></path>
                            <path d="M4.43809267,0.0779604288 C4.63256763,0.0794117344 4.82849389,0.0794117344 5.02587146,0.0794117344 C5.03167668,0.826834143 5.02587146,1.57570786 5.03022538,2.32313027 C5.77474517,1.58006177 6.5265215,0.842798505 7.26378477,0.0881195683 C7.53372762,0.08086304 7.80367047,0.0765091231 8.07506463,0.0750578175 C7.46987017,0.713632303 6.80662349,1.29415456 6.1927212,1.92402121 C6.85306527,2.81657419 7.51631195,3.70912716 8.16794819,4.61038797 C7.90235926,4.61329058 7.63967293,4.61183927 7.3755353,4.60893666 C6.84580874,3.84119597 6.31027696,3.0778092 5.76603734,2.32167896 C5.53092583,2.58146267 5.22905425,2.78464546 5.0360306,3.0763579 C5.0113584,3.58866879 5.0360306,4.10097969 5.02877407,4.61329058 C4.82704259,4.61183927 4.62676241,4.61183927 4.42793353,4.61329058 C4.43373876,3.10103009 4.41487178,1.58876961 4.43809267,0.0779604288 Z" id="Path"></path>
                            <path d="M8.65413558,0.08086304 C8.85296445,0.0794117344 9.05034202,0.0794117344 9.2491709,0.0794117344 C9.25787873,1.41171032 9.2491709,2.74546021 9.25497612,4.0792101 C9.99369069,4.07630749 10.7338566,4.08066141 11.4754738,4.07630749 C11.4783764,4.25481808 11.4827303,4.43477998 11.4870842,4.61474189 C10.5422842,4.61038797 9.59748425,4.61474189 8.65413558,4.61183927 C8.65413558,3.10103009 8.65123297,1.59167222 8.65413558,0.08086304 Z" id="Path"></path>
                            <path d="M12.2214449,0.0750578175 C13.3099241,0.0866682626 14.3984033,0.0794117344 15.4868826,0.0794117344 C15.4868826,0.256471023 15.4883339,0.436432924 15.4955904,0.614943519 C14.6015861,0.614943519 13.7075818,0.613492213 12.8135776,0.614943519 C12.8121263,1.07791002 12.8121263,1.54087652 12.8135776,2.00384302 C13.646627,2.00094041 14.4811278,2.00964825 15.3141772,1.9980378 C15.3141772,2.1765484 15.3185311,2.35360769 15.3257876,2.53211828 C14.486933,2.54227742 13.6495296,2.52776436 12.8121263,2.54082611 C12.8135776,3.0516857 12.8164802,3.56254529 12.8092237,4.07340488 C13.7380593,4.08211271 14.6668949,4.0777588 15.5942792,4.07630749 C15.5957305,4.21127892 15.5971818,4.47977046 15.5986331,4.61474189 C14.4709686,4.61183927 13.3418528,4.61329058 12.2141883,4.61329058 C12.2185423,3.10103009 12.2054805,1.5873183 12.2214449,0.0750578175 Z" id="Path"></path>
                            <path d="M16.4171695,0.0939247909 C17.2705372,0.0953760965 18.1398693,0.0126516746 18.9845292,0.157782239 C20.0599467,0.384185921 20.1920155,2.03867436 19.2820468,2.55243656 C18.5854201,2.896396 17.7784942,2.73094715 17.0310718,2.76577849 C17.0209126,3.38113208 17.0281692,3.99793698 17.0267179,4.61474189 C16.8757821,4.61329058 16.5753618,4.61329058 16.4258773,4.61183927 C16.4215234,3.10683532 16.4389391,1.60038005 16.4171695,0.0939247909 M17.0267179,0.614943519 C17.0252666,1.15628053 17.0252666,1.69616623 17.0267179,2.23605193 C17.6072401,2.21428234 18.2022754,2.29845807 18.7726386,2.15913273 C19.4329826,1.97336561 19.4344339,0.884886369 18.7944081,0.670093133 C18.2124346,0.56124521 17.6144967,0.636713103 17.0267179,0.614943519 Z" id="Shape"></path>
                            <path d="M22.402354,0.0794117344 C22.6011829,0.0794117344 22.8000117,0.0794117344 22.9988406,0.08086304 C23.0017432,1.59022091 22.995938,3.10103009 23.0017432,4.61038797 C22.8000117,4.61038797 22.5997316,4.61038797 22.4009027,4.61474189 C22.402354,3.1024814 22.3980001,1.59022091 22.402354,0.0794117344 Z" id="Path"></path>
                            <path d="M24.0539398,0.0779604288 C24.2600252,0.0953760965 24.4893315,0.035872565 24.6867091,0.117145681 C25.4834759,1.28254412 26.2555705,2.46680953 27.0494347,3.63511057 C27.0552399,2.44939386 27.0392755,1.26222584 27.0566912,0.0765091231 C27.2453609,0.08086304 27.4340307,0.0823143457 27.625603,0.08086304 C27.6212491,1.59457483 27.6314082,3.10683532 27.6197978,4.62054711 C27.4093585,4.61474189 27.2003705,4.60893666 26.9928338,4.60313144 C26.2163852,3.41741473 25.4283263,2.23750323 24.6286569,1.06775088 C24.6243029,2.24911368 24.6286569,3.43047648 24.6272055,4.61183927 C24.4341819,4.61183927 24.2426095,4.61183927 24.0524885,4.61474189 C24.0539398,3.1024814 24.0510372,1.59022091 24.0539398,0.0779604288 Z" id="Path"></path>
                            <path d="M28.2932036,0.08086304 C29.4905308,0.0794117344 30.6878579,0.08086304 31.8851851,0.0794117344 C31.8822825,0.257922329 31.8837338,0.436432924 31.8866364,0.614943519 C31.3873873,0.614943519 30.8866868,0.614943519 30.3874377,0.614943519 C30.3830837,1.94869341 30.3932429,3.28389461 30.3816324,4.6176445 C30.2335993,4.61619319 29.9360816,4.61329058 29.7865971,4.61183927 C29.790951,3.28389461 29.7822432,1.95594994 29.7924023,0.628005269 C29.2917019,0.604784379 28.7910015,0.61784613 28.2917523,0.613492213 C28.2917523,0.434981618 28.2917523,0.257922329 28.2932036,0.08086304 Z" id="Path"></path>
                            <path d="M32.5150517,0.08086304 C33.6078849,0.0794117344 34.6992667,0.0823143457 35.7920999,0.0794117344 C35.7906486,0.256471023 35.7906486,0.436432924 35.7950025,0.614943519 C34.9009982,0.614943519 34.0084453,0.614943519 33.1158923,0.614943519 C33.114441,1.07791002 33.114441,1.54087652 33.114441,2.00384302 C33.950393,2.00239172 34.7848938,2.00529433 35.6222971,2.00239172 C35.6193945,2.17945101 35.6179432,2.3579616 35.6237484,2.5364722 C34.7863451,2.5364722 33.950393,2.53356959 33.114441,2.5379235 C33.114441,3.0502344 33.114441,3.56254529 33.114441,4.07630749 C34.0331175,4.07195357 34.9517939,4.09517446 35.8704704,4.06179443 C35.8994965,4.24611025 35.8980452,4.43332868 35.8893374,4.62054711 C34.7660268,4.60458275 33.6412649,4.61619319 32.5179544,4.61474189 C32.5121491,3.10393271 32.5179544,1.59167222 32.5150517,0.08086304 Z" id="Path"></path>
                            <path d="M36.7368999,0.0823143457 C37.6309042,0.102632625 38.532165,0.0242621198 39.4232666,0.136012655 C40.2766344,0.239055356 40.6438147,1.39719726 40.1271499,2.03722305 C39.8891357,2.36376682 39.4827702,2.47841997 39.1083333,2.55388786 C39.8963923,3.00379262 40.2214847,3.91085865 40.7323443,4.61474189 C40.4798171,4.61329058 40.2301926,4.61329058 39.980568,4.61329058 C39.5872642,4.02986571 39.2621717,3.39419384 38.7875948,2.8702725 C38.4175118,2.46680953 37.8210252,2.63516098 37.340643,2.60323226 C37.3333865,3.27373547 37.3377404,3.94278737 37.3377404,4.61329058 C37.1882559,4.61329058 36.889287,4.61329058 36.7398025,4.61329058 C36.7354486,3.10393271 36.7398025,1.59312353 36.7368999,0.0823143457 M37.3377404,0.581563489 C37.3362891,1.08081263 37.3362891,1.58151308 37.3377404,2.08221353 C37.9980845,2.04593089 38.688906,2.1779997 39.3289318,1.9719143 C39.8934897,1.75131584 39.8688175,0.826834143 39.2795874,0.655580077 C38.6453668,0.508998206 37.9835714,0.610589602 37.3377404,0.581563489 Z" id="Shape"></path>
                            <path d="M41.3012561,0.0794117344 C41.5015363,0.08086304 41.7018165,0.0794117344 41.903548,0.0765091231 C42.7206331,1.22158928 43.4245163,2.45374778 44.2938484,3.55528876 C44.2909458,2.40150077 44.3040075,1.24626148 44.2851406,0.0924734852 C44.4839694,0.0794117344 44.6842496,0.0794117344 44.8859811,0.101181319 C44.8482471,1.60618528 44.8787246,3.11118923 44.8700167,4.61619319 C44.6581261,4.61183927 44.4491381,4.60748536 44.2401501,4.60458275 C43.4607989,3.42031734 42.6770939,2.23895454 41.8745219,1.07065349 C41.870168,2.25056498 41.8730706,3.43192778 41.8730706,4.61183927 C41.6800469,4.61038797 41.4870233,4.61038797 41.2969022,4.61329058 C41.2998048,3.1024814 41.291097,1.59022091 41.3012561,0.0794117344 Z" id="Path"></path>
                            <path d="M45.9091516,0.0678012892 C46.9947282,0.0953760965 48.0817561,0.0736065118 49.1687841,0.08086304 C49.1658814,0.257922329 49.1673328,0.436432924 49.1687841,0.614943519 C48.2762311,0.616394824 47.3836781,0.613492213 46.4911251,0.614943519 C46.4896738,1.07791002 46.4896738,1.53942522 46.4896738,2.00239172 C47.2762815,2.00529433 48.0614378,2.00384302 48.8480455,2.00094041 C49.135404,1.96901169 48.9409291,2.37973119 49.0018839,2.53502089 C48.1630292,2.53937481 47.3241746,2.52776436 46.4867712,2.54227742 C46.4882225,3.0516857 46.4969304,3.56254529 46.4824173,4.07195357 C47.4127042,4.08791794 48.3429911,4.06905096 49.2732781,4.08211271 C49.2747294,4.21418153 49.2747294,4.47831915 49.2747294,4.61183927 C48.1470649,4.61474189 47.0179491,4.61183927 45.8902846,4.61329058 C45.9033464,3.09812748 45.8656124,1.58151308 45.9091516,0.0678012892 Z" id="Path"></path>
                            <path d="M49.7638194,0.0794117344 C50.9611465,0.08086304 52.1584737,0.0823143457 53.3558009,0.0794117344 C53.3528982,0.257922329 53.3543495,0.436432924 53.3587035,0.614943519 C52.858003,0.614943519 52.3573026,0.614943519 51.8580534,0.614943519 C51.8522482,1.94869341 51.8624073,3.2824433 51.8522482,4.61619319 C51.704215,4.61474189 51.4052461,4.61329058 51.2572129,4.61183927 C51.2644694,3.28679722 51.2441511,1.96030385 51.267372,0.635261798 C50.7666716,0.59462524 50.2630685,0.623651353 49.7623681,0.613492213 C49.7623681,0.434981618 49.7623681,0.257922329 49.7638194,0.0794117344 Z" id="Path"></path>
                            <path d="M54.0712945,0.905204648 C54.8129117,-0.264547704 56.7344404,-0.303732957 57.5457203,0.80796717 C58.1465608,1.65262706 58.1668791,2.86882119 57.6386038,3.75411764 C57.3091574,4.3099677 56.6836447,4.60458275 56.0624859,4.69020978 L55.5995194,4.69020978 C55.1815434,4.62054711 54.762116,4.47831915 54.4413775,4.19241194 C53.5328601,3.38983992 53.4544896,1.90370293 54.0712945,0.905204648 M55.4572914,0.562696515 C54.2976982,0.821028921 54.0901615,2.28394501 54.4384749,3.23600152 C54.7505056,4.11259013 55.9217092,4.45509826 56.6807421,3.93843345 C57.4499341,3.42031734 57.525402,2.32458157 57.2569104,1.51185041 C57.0319581,0.777489751 56.1858469,0.359513725 55.4572914,0.562696515 Z" id="Shape"></path>
                            <path d="M58.3744158,0.0823143457 C58.5775986,0.0823143457 58.7822327,0.08086304 58.9897694,0.0779604288 C59.2829331,1.37397637 59.6080256,2.66273579 59.8721632,3.96455695 C60.1870965,2.65838187 60.5847543,1.37397637 60.9388729,0.0794117344 C61.1797896,0.0823143457 61.4221576,0.0837656513 61.665977,0.0837656513 C62.012839,1.34640157 62.4046916,2.59597573 62.6746344,3.87747862 C62.9837625,2.61194009 63.2957932,1.34785287 63.5991161,0.0823143457 C64.0809496,0.0692525949 64.5627831,0.0837656513 65.0460679,0.0924734852 C65.4814595,0.805064559 65.9618417,1.48717821 66.3885256,2.20557451 C66.8094042,1.47411646 67.2970429,0.786197585 67.7542042,0.0794117344 C67.9849618,0.0794117344 68.2171707,0.0794117344 68.4522822,0.08086304 L68.4522822,0.08086304 C67.8616008,0.96470818 67.2099646,1.81081937 66.6570171,2.7164341 C66.6120266,3.34775205 66.6584684,3.98052132 66.6425041,4.61329058 C66.4930196,4.61329058 66.1925993,4.61329058 66.0431148,4.61329058 C66.0271505,3.98197262 66.0721409,3.34775205 66.0286018,2.7164341 C65.5438657,1.82533243 64.847239,1.05904305 64.4031394,0.146171794 C64.3117072,0.205675326 64.2217262,0.266630163 64.1346479,0.327585 C63.7486006,1.75857237 63.3523942,3.18665713 62.9605416,4.61474189 C62.7660667,4.61183927 62.573043,4.61038797 62.3814707,4.60893666 C62.017193,3.28679722 61.6500126,1.96465777 61.2857349,0.642518326 C60.9388729,1.97046299 60.5513743,3.28824852 60.1929018,4.61183927 C59.9868164,4.61038797 59.7821823,4.61038797 59.5789995,4.61329058 C59.1769878,3.1024814 58.7778788,1.59167222 58.3744158,0.0823143457 Z" id="Path"></path>
                        </g>
                    </g>
                </g>
            </g>
        </g>
    </g>
</svg>