<?xml version="1.0" encoding="UTF-8"?>
<svg width="64px" height="12px" viewBox="0 0 64 12" version="1.1" xmlns="http://www.w3.org/2000/svg" xmlns:xlink="http://www.w3.org/1999/xlink">
    <title>DB278310-3D7A-4018-B4FD-14BDFCDCFF73</title>
    <g id="Page-1" stroke="none" stroke-width="1" fill="none" fill-rule="evenodd">
        <g id="landing" transform="translate(-642.000000, -2925.000000)" fill="#7D7E7F" fill-rule="nonzero">
            <g id="testimonials" transform="translate(0.000000, 2470.000000)">
                <g id="Group-10" transform="translate(382.000000, 449.000000)">
                    <g id="five-stars" transform="translate(260.000000, 6.000000)">
                        <g id="star">
                            <path d="M11.9686041,4.34506746 C11.8895929,4.10208281 11.6740745,3.9300526 11.4201033,3.9070725 L7.9560612,3.59258408 L6.58705229,0.38745708 C6.48597653,0.151979857 6.25599255,0 6,0 C5.74402186,0 5.51394631,0.151979857 5.41351143,0.38745708 L4.04450253,3.59258408 L0.57991113,3.9070725 C0.32593996,3.93051036 0.110879314,4.10254058 0.0314103283,4.34506746 C-0.0476008922,4.58805214 0.025367744,4.85456622 0.217448322,5.02302582 L2.835988,7.31911186 L2.06391203,10.7196154 C2.00742313,10.9696497 2.10447049,11.2281986 2.31193216,11.3781642 C2.4234451,11.4591896 2.55445905,11.4996566 2.68593078,11.4996566 C2.79890859,11.4996566 2.91197794,11.4696268 3.01296213,11.4092011 L6,9.6231631 L8.98650294,11.4092011 C9.20559197,11.5401235 9.48107834,11.5281299 9.68808223,11.3781642 C9.8955439,11.2281986 9.99259128,10.9696497 9.93610239,10.7196154 L9.16402641,7.31911186 L11.7825661,5.02302582 C11.9745551,4.85456622 12.0476153,4.58860147 11.9686041,4.34506746 Z" id="Path"></path>
                        </g>
                        <g id="star" transform="translate(13.000000, 0.000000)">
                            <path d="M11.9686041,4.34506746 C11.8895929,4.10208281 11.6740745,3.9300526 11.4201033,3.9070725 L7.9560612,3.59258408 L6.58705229,0.38745708 C6.48597653,0.151979857 6.25599255,0 6,0 C5.74402186,0 5.51394631,0.151979857 5.41351143,0.38745708 L4.04450253,3.59258408 L0.57991113,3.9070725 C0.32593996,3.93051036 0.110879314,4.10254058 0.0314103283,4.34506746 C-0.0476008922,4.58805214 0.025367744,4.85456622 0.217448322,5.02302582 L2.835988,7.31911186 L2.06391203,10.7196154 C2.00742313,10.9696497 2.10447049,11.2281986 2.31193216,11.3781642 C2.4234451,11.4591896 2.55445905,11.4996566 2.68593078,11.4996566 C2.79890859,11.4996566 2.91197794,11.4696268 3.01296213,11.4092011 L6,9.6231631 L8.98650294,11.4092011 C9.20559197,11.5401235 9.48107834,11.5281299 9.68808223,11.3781642 C9.8955439,11.2281986 9.99259128,10.9696497 9.93610239,10.7196154 L9.16402641,7.31911186 L11.7825661,5.02302582 C11.9745551,4.85456622 12.0476153,4.58860147 11.9686041,4.34506746 Z" id="Path"></path>
                        </g>
                        <g id="star" transform="translate(26.000000, 0.000000)">
                            <path d="M11.9686041,4.34506746 C11.8895929,4.10208281 11.6740745,3.9300526 11.4201033,3.9070725 L7.9560612,3.59258408 L6.58705229,0.38745708 C6.48597653,0.151979857 6.25599255,0 6,0 C5.74402186,0 5.51394631,0.151979857 5.41351143,0.38745708 L4.04450253,3.59258408 L0.57991113,3.9070725 C0.32593996,3.93051036 0.110879314,4.10254058 0.0314103283,4.34506746 C-0.0476008922,4.58805214 0.025367744,4.85456622 0.217448322,5.02302582 L2.835988,7.31911186 L2.06391203,10.7196154 C2.00742313,10.9696497 2.10447049,11.2281986 2.31193216,11.3781642 C2.4234451,11.4591896 2.55445905,11.4996566 2.68593078,11.4996566 C2.79890859,11.4996566 2.91197794,11.4696268 3.01296213,11.4092011 L6,9.6231631 L8.98650294,11.4092011 C9.20559197,11.5401235 9.48107834,11.5281299 9.68808223,11.3781642 C9.8955439,11.2281986 9.99259128,10.9696497 9.93610239,10.7196154 L9.16402641,7.31911186 L11.7825661,5.02302582 C11.9745551,4.85456622 12.0476153,4.58860147 11.9686041,4.34506746 Z" id="Path"></path>
                        </g>
                        <g id="star" transform="translate(39.000000, 0.000000)">
                            <path d="M11.9686041,4.34506746 C11.8895929,4.10208281 11.6740745,3.9300526 11.4201033,3.9070725 L7.9560612,3.59258408 L6.58705229,0.38745708 C6.48597653,0.151979857 6.25599255,0 6,0 C5.74402186,0 5.51394631,0.151979857 5.41351143,0.38745708 L4.04450253,3.59258408 L0.57991113,3.9070725 C0.32593996,3.93051036 0.110879314,4.10254058 0.0314103283,4.34506746 C-0.0476008922,4.58805214 0.025367744,4.85456622 0.217448322,5.02302582 L2.835988,7.31911186 L2.06391203,10.7196154 C2.00742313,10.9696497 2.10447049,11.2281986 2.31193216,11.3781642 C2.4234451,11.4591896 2.55445905,11.4996566 2.68593078,11.4996566 C2.79890859,11.4996566 2.91197794,11.4696268 3.01296213,11.4092011 L6,9.6231631 L8.98650294,11.4092011 C9.20559197,11.5401235 9.48107834,11.5281299 9.68808223,11.3781642 C9.8955439,11.2281986 9.99259128,10.9696497 9.93610239,10.7196154 L9.16402641,7.31911186 L11.7825661,5.02302582 C11.9745551,4.85456622 12.0476153,4.58860147 11.9686041,4.34506746 Z" id="Path"></path>
                        </g>
                        <g id="star" transform="translate(52.000000, 0.000000)">
                            <path d="M11.9686041,4.34506746 C11.8895929,4.10208281 11.6740745,3.9300526 11.4201033,3.9070725 L7.9560612,3.59258408 L6.58705229,0.38745708 C6.48597653,0.151979857 6.25599255,0 6,0 C5.74402186,0 5.51394631,0.151979857 5.41351143,0.38745708 L4.04450253,3.59258408 L0.57991113,3.9070725 C0.32593996,3.93051036 0.110879314,4.10254058 0.0314103283,4.34506746 C-0.0476008922,4.58805214 0.025367744,4.85456622 0.217448322,5.02302582 L2.835988,7.31911186 L2.06391203,10.7196154 C2.00742313,10.9696497 2.10447049,11.2281986 2.31193216,11.3781642 C2.4234451,11.4591896 2.55445905,11.4996566 2.68593078,11.4996566 C2.79890859,11.4996566 2.91197794,11.4696268 3.01296213,11.4092011 L6,9.6231631 L8.98650294,11.4092011 C9.20559197,11.5401235 9.48107834,11.5281299 9.68808223,11.3781642 C9.8955439,11.2281986 9.99259128,10.9696497 9.93610239,10.7196154 L9.16402641,7.31911186 L11.7825661,5.02302582 C11.9745551,4.85456622 12.0476153,4.58860147 11.9686041,4.34506746 Z" id="Path"></path>
                        </g>
                    </g>
                </g>
            </g>
        </g>
    </g>
</svg>