<?xml version="1.0" encoding="UTF-8"?>
<svg width="195px" height="18px" viewBox="0 0 195 18" version="1.1" xmlns="http://www.w3.org/2000/svg" xmlns:xlink="http://www.w3.org/1999/xlink">
    <title>E2B33CF9-CFAF-4550-9B38-BBF5991A1FCB</title>
    <g id="Page-1" stroke="none" stroke-width="1" fill="none" fill-rule="evenodd">
        <g id="landing" transform="translate(-382.000000, -102.000000)" fill="#262626" fill-rule="nonzero">
            <g id="menu" transform="translate(382.000000, 100.000000)">
                <g id="new-logo" transform="translate(0.000000, 2.000000)">
                    <g id="G–Group">
                        <path d="M10.392,10.848039 L16.656,10.848039 C16.56,12.120039 14.88,13.944039 10.704,13.944039 C5.112,13.944039 4.32,10.776039 4.32,8.735999 C4.32,6.719999 5.088,3.623999 10.704,3.623999 C15.264,3.623999 16.416,5.519999 16.656,6.791999 L21.048,6.791999 C20.784,2.615999 17.424,0 10.704,0 C3.792,0 0,3.071999 0,8.639999 C0,14.208039 3.792,17.280039 9.984,17.280039 C13.56,17.280039 16.08,16.128039 17.664,14.400039 L17.856,17.040039 L21.048,17.040039 L21.048,8.039999 L10.392,8.039999 L10.392,10.848039 Z" id="Path"></path>
                        <polygon id="Path" points="23.3606 7.175999 23.3606 10.584039 47.3606 10.584039 47.3606 7.175999"></polygon>
                        <path d="M60.0561,10.848039 L66.3201,10.848039 C66.2241,12.120039 64.5441,13.944039 60.3681,13.944039 C54.7761,13.944039 53.9841,10.776039 53.9841,8.735999 C53.9841,6.719999 54.7521,3.623999 60.3681,3.623999 C64.9281,3.623999 66.0801,5.519999 66.3201,6.791999 L70.7121,6.791999 C70.4481,2.615999 67.0881,0 60.3681,0 C53.4561,0 49.6641,3.071999 49.6641,8.639999 C49.6641,14.208039 53.4561,17.280039 59.6481,17.280039 C63.2241,17.280039 65.7441,16.128039 67.3281,14.400039 L67.5201,17.040039 L70.7121,17.040039 L70.7121,8.039999 L60.0561,8.039999 L60.0561,10.848039 Z" id="Path"></path>
                        <path d="M92.0361,6.407999 C92.0361,2.663999 89.4201,0.239999 85.6041,0.239999 L72.4041,0.239999 L72.4041,17.040039 L76.7241,17.040039 L76.7241,12.552039 L83.6841,12.552039 L86.3961,17.040039 L91.4841,17.040039 L88.3881,12.048039 C90.6441,11.160039 92.0361,9.144039 92.0361,6.407999 Z M76.7241,3.863999 L84.4041,3.863999 C85.7001,3.863999 87.7161,3.863999 87.7161,6.407999 C87.7161,8.927999 85.7001,8.927999 84.4041,8.927999 L76.7241,8.927999 L76.7241,3.863999 Z" id="Shape"></path>
                        <path d="M103.771,17.280039 C111.139,17.280039 114.331,14.184039 114.331,8.615999 C114.331,3.071999 111.139,0 103.771,0 C96.3789,0 93.2109,3.047999 93.2109,8.615999 C93.2109,14.208039 96.3789,17.280039 103.771,17.280039 Z M103.771,13.656039 C99.2829,13.656039 97.5309,12.072039 97.5309,8.615999 C97.5309,5.183999 99.2589,3.623999 103.771,3.623999 C108.283,3.623999 110.011,5.207999 110.011,8.615999 C110.011,12.048039 108.259,13.656039 103.771,13.656039 Z" id="Shape"></path>
                        <path d="M137.141,8.615999 L137.141,0.239999 L132.821,0.239999 L132.821,8.615999 C132.821,10.944039 132.173,13.656039 126.581,13.656039 C120.989,13.656039 120.341,10.968039 120.341,8.615999 L120.341,0.239999 L116.021,0.239999 L116.021,8.615999 C116.021,14.472039 119.189,17.280039 126.581,17.280039 C133.949,17.280039 137.141,14.448039 137.141,8.615999 Z" id="Path"></path>
                        <path d="M152.143,0.239999 L138.943,0.239999 L138.943,17.040039 L143.263,17.040039 L143.263,12.552039 L152.143,12.552039 C155.959,12.552039 158.575,10.152039 158.575,6.407999 C158.575,2.663999 155.959,0.239999 152.143,0.239999 Z M150.943,8.927999 L143.263,8.927999 L143.263,3.863999 L150.943,3.863999 C152.239,3.863999 154.255,3.863999 154.255,6.407999 C154.255,8.927999 152.239,8.927999 150.943,8.927999 Z" id="Shape"></path>
                    </g>
                    <g id="dev" transform="translate(159.000000, 9.000000)">
                        <path d="M5.55111512e-16,6.516001 L5.55111512e-16,8.400001 L2.472002,8.400001 L2.472002,6.516001 L5.55111512e-16,6.516001 Z M9.762692,-4.4408921e-16 L3.582652,-4.4408921e-16 L3.582652,8.400001 L9.762692,8.400001 C11.850692,8.400001 13.758692,7.056001 13.758692,4.200001 C13.758692,1.344001 11.850692,-4.4408921e-16 9.762692,-4.4408921e-16 Z M8.862652,6.168001 L6.222652,6.168001 L6.222652,2.232001 L8.862652,2.232001 C10.014692,2.232001 11.118692,2.400001 11.118692,4.200001 C11.118692,6.000001 10.014692,6.168001 8.862652,6.168001 Z M23.568792,2.052001 L23.568792,-4.4408921e-16 L14.688792,-4.4408921e-16 L14.688792,8.400001 L23.568792,8.400001 L23.568792,6.348001 L17.328792,6.348001 L17.328792,5.100001 L23.568792,5.100001 L23.568792,3.300001 L17.328792,3.300001 L17.328792,2.052001 L23.568792,2.052001 Z M32.979492,-4.4408921e-16 L30.111492,6.552001 L27.243492,-4.4408921e-16 L24.315492,-4.4408921e-16 L28.227492,8.400001 L32.007492,8.400001 L35.907492,-4.4408921e-16 L32.979492,-4.4408921e-16 Z" id="Shape"></path>
                    </g>
                </g>
            </g>
        </g>
    </g>
</svg>