<?xml version="1.0" encoding="UTF-8"?>
<svg width="32px" height="31.3338596px" viewBox="0 0 32 31.3338596" version="1.1" xmlns="http://www.w3.org/2000/svg" xmlns:xlink="http://www.w3.org/1999/xlink">
    <title>images/github</title>
    <g id="images/github" stroke="none" stroke-width="1" fill="none" fill-rule="evenodd">
        <path d="M15.998,0 C7.164,0 0,7.192 0,16.064 C0,23.16 4.584,29.18 10.944,31.306 C11.744,31.454 12.036,30.958 12.036,30.532 C12.036,30.15 12.022,29.14 12.014,27.8 C7.564,28.77 6.624,25.646 6.624,25.646 C5.898,23.79 4.848,23.296 4.848,23.296 C3.394,22.3 4.956,22.32 4.956,22.32 C6.562,22.434 7.406,23.976 7.406,23.976 C8.834,26.43 11.152,25.722 12.064,25.31 C12.208,24.272 12.622,23.564 13.08,23.162 C9.528,22.756 5.792,21.378 5.792,15.224 C5.792,13.47 6.416,12.036 7.44,10.912 C7.274,10.506 6.726,8.872 7.596,6.662 C7.596,6.662 8.94,6.23 11.996,8.308 C13.272,7.952 14.64,7.774 16.002,7.768 C17.36,7.776 18.73,7.952 20.008,8.31 C23.062,6.232 24.404,6.664 24.404,6.664 C25.276,8.876 24.728,10.508 24.564,10.914 C25.59,12.038 26.208,13.472 26.208,15.226 C26.208,21.396 22.468,22.754 18.904,23.152 C19.478,23.648 19.99,24.628 19.99,26.126 C19.99,28.274 19.97,30.006 19.97,30.532 C19.97,30.962 20.258,31.462 21.07,31.304 C27.42,29.176 32,23.158 32,16.064 C32,7.192 24.836,0 15.998,0 Z" id="Path" fill="#000000" fill-rule="nonzero"></path>
    </g>
</svg>