<?xml version="1.0" encoding="UTF-8"?>
<svg width="116px" height="128px" viewBox="0 0 116 128" version="1.1" xmlns="http://www.w3.org/2000/svg" xmlns:xlink="http://www.w3.org/1999/xlink">
    <title>goal</title>
    <g id="Page-1" stroke="none" stroke-width="1" fill="none" fill-rule="evenodd">
        <g id="home-2" transform="translate(-1379.000000, -1156.000000)" fill="#1685E4" fill-rule="nonzero">
            <g id="why" transform="translate(340.000000, 940.000000)">
                <g id="goal" transform="translate(1039.000000, 216.000000)">
                    <path d="M114.271485,17.2070313 L108.801758,12.390625 L114.271485,7.57519525 C115.12207,6.82519525 115.413086,5.65625 115.013672,4.595703 C114.612305,3.53417975 113.621094,2.84863275 112.487305,2.84863275 L89.852539,2.84863275 L89.852539,1.8759765 C89.852539,0.83984375 89.0126953,0 87.9765625,0 C86.9404298,0 86.100586,0.83984375 86.100586,1.8759765 L86.100586,27.1767578 L70.6933595,35.5429688 C70.6083985,34.8652345 70.4052735,34.1992188 70.0839845,33.5722655 L67.913086,29.3339845 C66.4228515,26.423828 62.8427735,25.2705078 59.9345703,26.7597655 L58.2558595,27.6191405 C56.845703,28.341797 55.8017578,29.5683595 55.3154298,31.076172 C54.8291015,32.5830078 54.9589845,34.189453 55.6816405,35.5986328 L57.852539,39.8378905 C58.359375,40.8271485 59.1083985,41.6103515 59.9892578,42.1591798 C58.836914,43.7109375 58.290039,45.6191405 57.727539,47.6015625 L57.3232423,49.033203 C57.0410155,50.0302735 57.6210938,51.0673828 58.618164,51.3486328 C58.788086,51.397461 58.959961,51.419922 59.1289063,51.419922 C59.9472655,51.419922 60.6992188,50.8808595 60.9335938,50.053711 L61.3378905,48.625 C62.1601563,45.725586 62.665039,44.1728515 64.272461,43.2998048 L67.154297,41.734375 L67.5097655,41.5527345 C67.6279298,41.4921875 67.7382813,41.423828 67.850586,41.3564453 L88.3896485,30.203125 C88.2597655,32.7705078 86.8779298,35.196289 84.602539,36.578125 L71.2460938,44.6933595 C71.2304688,44.7021485 71.2148438,44.7109375 71.2001953,44.720703 L67.0429688,47.2460938 C66.158203,47.7841798 65.8759765,48.9384765 66.4140625,49.8242188 C66.9208985,50.6591798 67.975586,50.9560548 68.8359375,50.5371095 L65.6816405,60.0722655 L63.3759765,61.017578 L57.1064453,63.586914 L58.913086,57.2001953 C59.194336,56.203125 58.6152345,55.1660155 57.618164,54.883789 C56.6201173,54.600586 55.5839845,55.1816405 55.3017578,56.178711 L52.4472655,66.2734375 C52.4101563,66.4033203 52.3857423,66.5458985 52.3798828,66.6816405 L51.6328125,80.404297 C51.6103515,80.9277345 51.7216798,81.9169923 51.4794923,82.4277345 L43.1826173,99.8828125 L37.1533203,99.8828125 C33.6210938,99.8828125 30.748047,102.75586 30.748047,106.28711 L30.748047,111.702149 C29.939453,111.332031 29.0419923,111.125 28.095703,111.125 L12.7841798,111.125 C9.25292975,111.125 6.37988275,113.99707 6.37988275,117.529297 L6.37988275,124.248047 L1.8759765,124.248047 C0.83984375,124.248047 0,125.087891 0,126.124024 C0,127.160156 0.83984375,128 1.8759765,128 L112.485352,128 C113.521485,128 114.361328,127.160156 114.361328,126.124024 C114.361328,125.087891 113.521485,124.248047 112.485352,124.248047 L107.606445,124.248047 L107.606445,75.8935548 C107.606445,72.3623048 104.733399,69.4892578 101.202149,69.4892578 L89.852539,69.4892578 L89.852539,36.7617188 C91.9326173,33.9423828 92.703125,30.2470703 91.7373048,26.7353515 C91.5859375,26.1835938 91.1904298,25.7304688 90.663086,25.506836 C90.404297,25.3964845 90.126953,25.3476562 89.852539,25.3583985 L89.852539,21.9335937 L112.486328,21.9335937 C113.621094,21.9335937 114.612305,21.248047 115.012695,20.1875 C115.413086,19.126953 115.12207,17.9570312 114.271485,17.2070312 L114.271485,17.2070313 Z M58.8867187,32.2285155 C59.0654297,31.6748047 59.4482422,31.2236328 59.9658202,30.9589845 L61.6445312,30.0996095 C61.9609375,29.9375 62.298828,29.8603515 62.6328125,29.8603515 C63.423828,29.8603515 64.1884765,30.2929688 64.5732422,31.0439453 L66.7451172,35.283203 C67.251953,36.2734375 66.923828,37.4736328 66.022461,38.080078 L65.4111327,38.4111328 L64.1210938,39.0722655 C63.053711,39.6191405 61.7392577,39.1953125 61.1923827,38.126953 L59.0205077,33.888672 C58.7558595,33.3710938 58.7080077,32.78125 58.8867187,32.2285155 L58.8867187,32.2285155 Z M55.1171875,100.459961 C54.4794922,100.168945 53.7861327,99.9785155 53.0576172,99.9111328 L55.1171875,97.1757812 L55.1171875,100.459961 Z M64.024414,85.34375 C64.9267577,84.2626952 65.1757812,83 65.376953,81.982422 C65.4277345,81.7402345 66.3535155,76.6835938 66.3535155,76.6835938 C66.3535155,76.6835938 67.2294922,77.2294923 67.321289,77.2685548 C67.3847655,77.296875 67.4296875,77.359375 67.4365235,77.4326173 L68.4570312,87.8066405 L62.169922,87.8066405 L64.024414,85.34375 Z M75.118164,74.9892578 L73.5341798,87.7978515 L72.2265625,87.7978515 L71.1708985,77.0654298 C71.0361328,75.6904298 70.194336,74.4902345 68.9609375,73.8935548 L67.0742188,72.6972655 L68.3310548,65.7314453 C68.3310548,65.7314453 73.6259765,72.0214845 73.7490235,72.1816405 C74.8447265,73.6064453 75.2197265,74.1767578 75.118164,74.9892578 Z M54.8544922,84.0683595 C55.2333985,82.9277345 55.4091797,81.7666015 55.3798827,80.5859375 L56.0615235,68.0703125 L64.7382812,64.5146485 L63.1611327,73.2509765 C63.15625,73.274414 63.1513672,73.298828 63.1484375,73.3222655 L61.84375,80.5458985 C61.673828,81.2939453 61.5253905,82.428711 61.0585937,83.044922 L48.381836,99.8828125 L47.336914,99.8828125 L54.8544922,84.0683595 Z M10.131836,117.52832 C10.131836,116.066406 11.321289,114.876953 12.7841797,114.876953 L28.095703,114.876953 C29.5585937,114.876953 30.7490235,116.066406 30.7490235,117.52832 L30.7490235,124.248047 L10.131836,124.248047 L10.131836,117.52832 Z M34.5,117.52832 L34.5,106.287109 C34.5,104.824219 35.6904297,103.634766 37.1533202,103.634766 L52.4648437,103.634766 C53.9277345,103.634766 55.1171875,104.824219 55.1171875,106.287109 L55.1171875,124.248047 L34.5009765,124.248047 L34.5009765,117.52832 L34.5,117.52832 Z M103.854492,75.8935548 L103.854492,124.248047 L83.2382812,124.248047 L83.2382812,113 C83.2382812,111.963867 82.3984375,111.124024 81.3623048,111.124024 C80.3251953,111.124024 79.4853515,111.963867 79.4853515,113 L79.4853515,124.248047 L58.8691405,124.248047 L58.8691405,94.209961 C58.8691405,92.748047 60.0585938,91.5585938 61.5214845,91.5585938 L76.8330078,91.5585938 C78.2958985,91.5585938 79.4853515,92.748047 79.4853515,94.209961 L79.4853515,103.614258 C79.4853515,104.650391 80.3251953,105.490235 81.361328,105.490235 C82.3984375,105.490235 83.2373048,104.650391 83.2373048,103.614258 L83.2373048,75.8935548 C83.2373048,74.430664 84.4277345,73.241211 85.890625,73.241211 L87.9570312,73.241211 C87.9628905,73.241211 87.9697265,73.2421875 87.9765625,73.2421875 C87.982422,73.2421875 87.9892577,73.241211 87.9951173,73.241211 L101.201172,73.241211 C102.664063,73.241211 103.854492,74.4316405 103.854492,75.8935548 L103.854492,75.8935548 Z M85.890625,69.4892578 C82.359375,69.4892578 79.486328,72.3623048 79.486328,75.8935548 L79.486328,88.383789 C78.814453,88.0771485 78.0820313,87.8828125 77.3115235,87.826172 L78.841797,75.451172 C79.142578,73.0390625 77.9121095,71.4404298 76.7226563,69.8935548 C76.5966798,69.7294923 69.3046875,61.071289 69.3046875,61.071289 L73.7783203,47.5458985 L86.100586,40.0595703 L86.100586,69.4892578 L85.890625,69.4892578 Z M89.852539,18.180664 L89.852539,6.6015625 L109.699219,6.6015625 L105.424805,10.3652345 C104.842774,10.8779298 104.508789,11.616211 104.508789,12.3916015 C104.508789,13.1669923 104.842774,13.9052735 105.424805,14.4179688 L109.699219,18.1816405 L89.852539,18.1816405 L89.852539,18.180664 Z" id="Shape"></path>
                </g>
            </g>
        </g>
    </g>
</svg>