<svg width="116" height="128" viewBox="0 0 116 128" xmlns="http://www.w3.org/2000/svg"><path d="m114.271 17.207-5.47-4.816 5.47-4.816a2.682 2.682 0 0 0 .743-2.98 2.68 2.68 0 0 0-2.527-1.746H89.853v-.973a1.876 1.876 0 1 0-3.752 0v25.3l-15.408 8.367a5.935 5.935 0 0 0-.609-1.97l-2.17-4.239a5.935 5.935 0 0 0-7.98-2.574l-1.678.86a5.89 5.89 0 0 0-2.94 3.456 5.885 5.885 0 0 0 .366 4.523l2.17 4.239a5.892 5.892 0 0 0 2.137 2.321c-1.152 1.552-1.699 3.46-2.261 5.443l-.405 1.431a1.875 1.875 0 1 0 3.61 1.02l.405-1.428c.822-2.9 1.327-4.452 2.934-5.325l2.882-1.566.356-.181c.118-.06.228-.13.34-.197l20.54-11.153a7.94 7.94 0 0 1-3.787 6.375l-13.357 8.115-.046.028-4.157 2.525a1.875 1.875 0 0 0 1.793 3.291l-3.154 9.535-2.306.946-6.27 2.569 1.807-6.387a1.877 1.877 0 0 0-3.611-1.021l-2.855 10.094a1.8 1.8 0 0 0-.067.409l-.747 13.722c-.023.524.089 1.513-.154 2.024l-8.296 17.455h-6.03a6.412 6.412 0 0 0-6.405 6.404v5.415a6.354 6.354 0 0 0-2.652-.577H12.784a6.411 6.411 0 0 0-6.404 6.404v6.719H1.876a1.876 1.876 0 1 0 0 3.752h110.61a1.876 1.876 0 1 0 0-3.752h-4.88V75.894a6.412 6.412 0 0 0-6.404-6.405h-11.35V36.762c2.08-2.82 2.851-6.515 1.885-10.027a1.873 1.873 0 0 0-1.884-1.377v-3.424h22.633a2.679 2.679 0 0 0 2.527-1.747c.4-1.06.11-2.23-.742-2.98ZM58.887 32.229a2.161 2.161 0 0 1 1.079-1.27l1.679-.86a2.18 2.18 0 0 1 2.929.944l2.171 4.24a2.18 2.18 0 0 1-.723 2.797l-.61.331-1.29.661a2.178 2.178 0 0 1-2.93-.945l-2.171-4.238a2.162 2.162 0 0 1-.134-1.66Zm-3.77 68.231a6.368 6.368 0 0 0-2.06-.549l2.06-2.735v3.284Zm8.907-15.116c.903-1.081 1.152-2.344 1.353-3.362.05-.242.977-5.298.977-5.298s.875.545.967.585a.2.2 0 0 1 .116.164l1.02 10.374H62.17l1.854-2.463Zm11.094-10.355-1.584 12.809h-1.307L71.17 77.065a3.952 3.952 0 0 0-2.21-3.171l-1.887-1.197 1.257-6.966s5.295 6.29 5.418 6.45c1.096 1.425 1.47 1.996 1.37 2.808Zm-20.264 9.08a10.17 10.17 0 0 0 .526-3.483l.682-12.516 8.676-3.555-1.577 8.736a.91.91 0 0 0-.013.071l-1.304 7.224c-.17.748-.319 1.883-.785 2.499L48.382 99.883h-1.045l7.517-15.815Zm-44.722 33.46a2.655 2.655 0 0 1 2.652-2.652h15.312a2.655 2.655 0 0 1 2.653 2.651v6.72H10.132v-6.72Zm24.368 0v-11.242a2.656 2.656 0 0 1 2.653-2.652h15.312a2.655 2.655 0 0 1 2.652 2.652v17.961H34.501v-6.72H34.5Zm69.354-41.635v48.354H83.238V113a1.876 1.876 0 1 0-3.753 0v11.248H58.87V94.21a2.655 2.655 0 0 1 2.652-2.651h15.312a2.655 2.655 0 0 1 2.652 2.651v9.404a1.876 1.876 0 1 0 3.752 0v-27.72a2.656 2.656 0 0 1 2.654-2.653h2.066l.02.001H101.2a2.656 2.656 0 0 1 2.653 2.652Zm-17.963-6.405a6.412 6.412 0 0 0-6.405 6.405v12.49a6.35 6.35 0 0 0-2.174-.558l1.53-12.375c.3-2.412-.93-4.01-2.12-5.557-.125-.165-7.417-8.823-7.417-8.823l4.473-13.525 12.323-7.486v29.43h-.21Zm3.962-51.308V6.6h19.846l-4.274 3.764a2.701 2.701 0 0 0 0 4.053l4.274 3.764H89.853v-.001Z" fill="#1685E4" fill-rule="nonzero"/></svg>