<?xml version="1.0" encoding="UTF-8"?>
<svg width="61px" height="48px" viewBox="0 0 61 48" version="1.1" xmlns="http://www.w3.org/2000/svg" xmlns:xlink="http://www.w3.org/1999/xlink">
    <title>BB1E878B-83FD-4D3A-952F-E44813A9EBCE</title>
    <g id="Page-1" stroke="none" stroke-width="1" fill="none" fill-rule="evenodd">
        <g id="landing" transform="translate(-521.000000, -1344.000000)" fill="#FFFFFF">
            <g id="how-can-we-help" transform="translate(0.000000, 1074.000000)">
                <g id="icon1" transform="translate(521.200000, 270.000000)">
                    <path d="M48,36 L48,48 L36,48 L36,36 L48,36 Z M24,36 L24,48 L12,48 L12,36 L24,36 Z M60,12 L60,36 L48,36 L48,12 L60,12 Z M12,12 L12,36 L0,36 L0,12 L12,12 Z M48,0 L48,12 L36,12 L36,0 L48,0 Z M24,0 L24,12 L12,12 L12,0 L24,0 Z" id="Combined-Shape"></path>
                </g>
            </g>
        </g>
    </g>
</svg>