<?xml version="1.0" encoding="UTF-8"?>
<svg width="134px" height="22px" viewBox="0 0 134 22" version="1.1" xmlns="http://www.w3.org/2000/svg" xmlns:xlink="http://www.w3.org/1999/xlink">
    <title>F88EA4F2-00ED-4C75-A3A4-6ED175198E8B</title>
    <g id="Page-1" stroke="none" stroke-width="1" fill="none" fill-rule="evenodd">
        <g id="landing" transform="translate(-1375.000000, -3410.000000)" fill="#565656" fill-rule="nonzero" stroke="#565656" stroke-width="0.09375">
            <g id="our-customers" transform="translate(412.000000, 3173.000000)">
                <g id="row-2" transform="translate(39.000000, 221.000000)">
                    <g id="linomag" transform="translate(925.000000, 17.000000)">
                        <path d="M128.326646,0.0378459398 C128.986986,-0.0626405009 129.677993,0.0365409211 130.275039,0.340610281 C130.68612,0.538320615 131.020857,0.859355218 131.320359,1.19735506 C132.107285,2.12848591 132.215602,3.55356634 131.620513,4.6106315 C131.307961,5.16983202 130.851205,5.66639164 130.271776,5.95349575 C129.3289,6.43504766 128.140028,6.42330249 127.226515,5.87519463 C126.601411,5.51370445 126.095717,4.93492865 125.864728,4.24653128 C125.492145,3.09093721 125.729006,1.71675251 126.599454,0.841737465 C127.084268,0.418911403 127.690449,0.13833238 128.326646,0.0378459398 M128.25487,0.42217395 C127.395515,0.622494322 126.687543,1.28674885 126.328662,2.07824269 C125.973697,2.91867474 126.059176,3.9411569 126.587709,4.69089015 C127.142994,5.50717935 128.149816,5.99460384 129.13641,5.87258459 C130.316147,5.76948811 131.351679,4.80312176 131.54417,3.63643503 C131.698162,2.83776358 131.428023,2.00842419 130.954954,1.36439746 C130.778124,1.10665626 130.515162,0.926563681 130.250896,0.769961436 C129.657765,0.418911403 128.932827,0.235556274 128.25487,0.42217395 Z" id="Shape"></path>
                        <path d="M127.165179,1.27435117 C127.780496,1.27369866 128.396465,1.27435117 129.012433,1.27304615 C129.410464,1.28218128 129.842425,1.36896502 130.135402,1.66063671 C130.412718,1.93991071 130.393143,2.44886801 130.096904,2.70726171 C129.826765,2.95391025 129.449615,3.01981369 129.103132,3.0831071 C129.428734,3.16532328 129.766734,3.32584058 129.923336,3.64230762 C130.085811,3.91570904 130.073414,4.2406587 130.138012,4.54211802 C130.167375,4.68697509 130.355298,4.72743067 130.460352,4.6315118 C130.591506,4.48078214 130.562796,4.26414903 130.581718,4.07948888 C130.638487,4.07948888 130.752023,4.08014139 130.808792,4.08014139 C130.790521,4.33527255 130.789216,4.63281682 130.587591,4.82139202 C130.357255,5.00605217 130.02056,4.99626453 129.756294,4.90099816 C129.486155,4.80442678 129.386321,4.48926476 129.400676,4.226956 C129.413074,3.95420709 129.401981,3.65666282 129.208839,3.44263975 C129.018958,3.18946612 128.680959,3.14835804 128.388634,3.1601032 C128.395812,3.5574814 128.372322,3.95681713 128.398422,4.35354281 C128.425175,4.61193652 128.723372,4.64195195 128.924345,4.68632258 C128.924345,4.73852333 128.924997,4.84357734 128.924997,4.8964306 C128.338391,4.89577809 127.751785,4.8964306 127.165832,4.89577809 C127.165832,4.84357734 127.165832,4.73852333 127.165832,4.68567008 C127.382465,4.6523921 127.70872,4.58844618 127.698932,4.30329959 C127.712635,3.53921114 127.698932,2.77447017 127.705457,2.00972921 C127.69567,1.88575243 127.711982,1.73306524 127.609538,1.64171393 C127.488824,1.53143985 127.315909,1.51969468 127.165832,1.48054412 C127.165832,1.42899588 127.165832,1.32589941 127.165179,1.27435117 M128.57721,1.52948233 C128.464978,1.57515798 128.381457,1.6880421 128.389939,1.81071386 C128.382762,2.18786426 128.391244,2.56501467 128.388634,2.94151257 C128.720109,2.94542763 129.084209,2.95913032 129.373924,2.76729257 C129.673425,2.56436216 129.726279,2.1134782 129.524653,1.82441655 C129.320418,1.52817731 128.911947,1.41398817 128.57721,1.52948233 Z" id="Shape"></path>
                        <path d="M97.0479576,1.35460982 C97.3063513,1.25738592 97.4048802,1.58429311 97.4792663,1.76569071 C99.0544239,6.15968871 100.594346,10.5667369 102.172114,14.9600824 C102.451388,15.6941554 102.661496,16.4602014 103.041909,17.1512088 C103.291167,17.6249306 103.751839,17.9361775 104.21512,18.1769535 C104.509402,18.3342083 104.840877,18.4131619 105.124066,18.592602 C105.270881,18.6780807 105.253915,18.8712235 105.21607,19.012818 C105.161911,19.1504975 104.994217,19.1400573 104.874807,19.1491924 C103.197206,19.1243971 101.520257,19.0741539 99.8426552,19.0852465 C99.3186902,19.0937291 98.7927676,19.0578411 98.2720652,19.1283121 C98.1043703,19.1426673 97.8688144,19.1916055 97.7774631,19.0049879 C97.6828492,18.7505092 97.7122122,18.3629187 98.0064939,18.2546021 C98.3542814,18.1338879 98.7203391,18.0784246 99.0785667,17.9955559 C99.2625744,17.9570578 99.4759449,17.8683166 99.5203156,17.6627761 C99.5731688,17.3900272 99.5242306,17.1042281 99.4315743,16.8458344 C99.2025435,16.3427497 99.0863969,15.7992094 98.9180494,15.2752444 C98.6961963,14.5189861 98.4599879,13.7659903 98.2531424,13.0058169 C98.156571,12.6515043 97.7402701,12.6064811 97.4329381,12.5993035 C96.1664175,12.5803808 94.9012018,12.6704271 93.6346812,12.6619444 C93.4689438,12.6495468 93.3012489,12.738288 93.2451331,12.8994578 C93.0578629,13.3927549 92.815782,13.8625616 92.6141566,14.3506386 C92.2246085,15.2804645 91.8624658,16.2259505 91.6210373,17.2066721 C91.5355586,17.4578882 91.6980334,17.7130193 91.910099,17.8396062 C92.3348826,18.1064825 92.8699402,18.0497142 93.3175616,18.2559071 C93.5746503,18.3831465 93.5642102,18.7204938 93.4963492,18.9573547 C93.4108705,19.1485399 93.1648745,19.1367948 92.9893494,19.1491924 C91.7926473,19.1530346 90.5959451,19.1491924 89.3998955,19.1504975 C88.7787066,19.1407098 88.1575177,19.1707252 87.5382863,19.1348372 C85.3099668,19.1759453 83.0790374,19.0369608 80.8494129,19.0969917 C80.440942,19.1022118 80.0226835,19.2053082 79.6213903,19.0996017 C79.3310236,18.9129841 79.4726182,18.3929341 79.7884327,18.3035403 C80.2993475,18.1364979 80.8481079,18.1247528 81.3655478,17.9805482 C81.6180689,17.9185598 81.6957175,17.6405908 81.6846249,17.4109075 C81.6865824,13.8436389 81.6846249,10.2770227 81.6859299,6.70975409 C81.6865824,6.48137582 81.6904974,6.25299755 81.6696171,6.02592429 C81.5684782,6.04484706 81.4307987,6.01091658 81.382513,6.12836826 C79.8549886,10.0258066 78.2961438,13.9121524 76.7594843,17.8063282 C76.6576928,18.0464516 76.5722141,18.3015828 76.4045192,18.5051657 C76.2361717,18.7198413 75.8648939,18.7531193 75.6841488,18.5384437 C75.5379867,18.3550886 75.4812184,18.1221427 75.3879096,17.9113822 C73.7442385,14.0739747 72.0986099,10.2378722 70.4549389,6.40046466 C70.393603,6.28888556 70.3544524,6.13032579 70.2187305,6.09052272 C70.0699583,6.13619837 70.0575607,6.31107088 70.0542981,6.44026773 C70.0536456,9.8561542 70.0536456,13.2726932 70.0542981,16.6885797 C70.0686533,17.1133633 70.1228116,17.5890426 70.4438462,17.900942 C70.7302978,18.1723859 71.1479038,18.2056639 71.5237492,18.1906562 C71.9361351,18.1847836 72.4235596,18.2258917 72.696961,18.5795518 C72.8085401,18.7139687 72.8679185,18.9828026 72.6747757,19.0735014 C72.4764128,19.1557175 72.2565172,19.1426673 72.0470617,19.1504975 C70.1541321,19.1498449 68.2605499,19.15115 66.3669678,19.1504975 C66.2299408,19.1394048 66.070076,19.1583276 65.9604544,19.0597987 C65.8338676,18.8353354 65.8514854,18.4425248 66.1503346,18.3707488 C66.6997475,18.2252392 67.324199,18.2774399 67.812276,17.9427026 C68.2468472,17.6047028 68.304268,17.0083092 68.3551638,16.5000045 C68.5861521,12.7161027 68.8158354,8.93220096 69.0396461,5.14829921 C69.0396461,4.71307547 69.1094646,4.18845795 68.7584145,3.85894072 C68.3753916,3.52159339 67.8325038,3.53529608 67.360087,3.43741968 C67.0344848,3.36629616 66.6364541,3.35585601 66.417211,3.06744688 C66.348045,2.91802223 66.3402149,2.72618448 66.4178635,2.57871737 C66.5333576,2.40253984 66.7689135,2.41232748 66.9548787,2.40841243 C68.1515808,2.43190276 69.345673,2.54804943 70.5436801,2.54674441 C70.9834714,2.54478688 71.4310929,2.41885258 71.8663166,2.52129654 C72.2304168,2.62830808 72.3583087,3.01785616 72.4862005,3.33301818 C73.812752,6.40372721 75.1314734,9.47835129 76.4593299,12.5484078 C76.5911368,12.8452996 76.6661754,13.1741643 76.8606232,13.4397356 C76.9904726,13.5904652 77.233206,13.4912838 77.3095496,13.332724 C77.4929048,12.9771064 77.5366229,12.5692881 77.6847425,12.1999678 C78.6752517,9.65844387 79.6957763,7.12997012 80.7071659,4.5969288 C80.930324,4.02337308 81.1502197,3.43480964 81.518235,2.93563999 C81.7544434,2.61199535 82.1668293,2.49258613 82.5518098,2.48671355 C83.9821103,2.47301085 85.4143683,2.51672898 86.8427113,2.41559003 C87.0606494,2.40971745 87.3125181,2.39536224 87.4873906,2.55196448 C87.6472553,2.73205707 87.6048422,3.07266695 87.3699389,3.17184837 C87.0038811,3.33497571 86.5901902,3.31148537 86.2012946,3.37347376 C85.807179,3.43285211 85.3680402,3.45503743 85.0515731,3.72648132 C84.764469,4.00771286 84.7944844,4.44228409 84.7716466,4.81095187 C84.7677316,5.79428347 84.7494613,6.77892009 84.8271099,7.76094667 C84.8747431,9.56121998 84.8571253,11.3627983 84.900191,13.1637241 C84.8904033,13.6844266 84.9249863,14.2077391 84.8616929,14.726484 C84.8068821,15.1858506 84.8564728,15.6465222 84.8532103,16.1065413 C84.866913,16.5430701 84.8825732,16.9828614 84.9771871,17.4109075 C85.0156851,17.5609847 85.0607083,17.7384672 85.2199205,17.8043707 C85.9579086,18.1808686 86.7918156,18.3257256 87.551989,18.6369726 C87.9852552,18.4170769 88.5000851,18.3733588 88.8902857,18.0673319 C89.4122932,17.688224 89.7933586,17.1440312 90.0608875,16.5626454 C92.2370062,11.760829 94.4157349,6.95966518 96.5905486,2.15719632 C96.726923,1.88379491 96.7980465,1.55166764 97.0479576,1.35460982 M95.8081899,6.71171162 C95.6692054,6.78936024 95.5798116,6.92703971 95.4995529,7.0588466 C95.260082,7.46992749 95.084557,7.91298135 94.8979393,8.34885759 C94.5925649,9.06466036 94.2911056,9.78176814 93.9831212,10.4962659 C93.8872023,10.7148565 93.8395691,10.9608525 93.8832873,11.1983659 C93.9322255,11.3040725 94.0646849,11.3027674 94.1651713,11.307335 C95.0786844,11.3203852 95.991545,11.3575782 96.9050581,11.3732385 C97.0975483,11.3634508 97.3631196,11.3530107 97.4472934,11.1415976 C97.5145018,10.891034 97.355942,10.6652658 97.2835135,10.436235 C96.966394,9.49205398 96.6531895,8.54656793 96.3380274,7.60173438 C96.2421086,7.31854532 96.1611974,7.02165357 95.9863249,6.77435252 C95.9413018,6.71301664 95.8819234,6.69213634 95.8081899,6.71171162 Z" id="Shape"></path>
                        <path d="M54.7209808,2.12652839 C56.0736327,2.00777168 57.4621726,2.06192996 58.7613187,2.48867108 C60.6170553,3.08636965 62.230711,4.37246559 63.2897336,6.00308646 C64.5993199,8.04413573 64.8374858,10.6274203 64.3180884,12.9594887 C63.9415905,14.6605806 63.0091546,16.2370432 61.6721629,17.3574017 C59.894075,18.8712235 57.5378637,19.6633698 55.2097103,19.6079065 C53.8348731,19.5987714 52.4659085,19.222926 51.2737739,18.5384437 C50.3974538,18.035359 49.6144426,17.3828496 48.9175626,16.6539967 C48.0601653,15.7554913 47.3985208,14.6592756 47.0774862,13.4547433 C46.7584091,12.2547786 46.6931582,10.993478 46.81844,9.76154035 C46.9678646,8.36060276 47.4631192,6.99359566 48.2735359,5.83865411 C49.3586589,4.3039521 50.9057586,3.05113414 52.7216921,2.50628883 C53.3715914,2.30531595 54.0443286,2.18721176 54.7209808,2.12652839 M54.9213012,2.971528 C54.1519926,3.10202987 53.413352,3.42241196 52.8019508,3.90853143 C52.0280747,4.50427247 51.4695267,5.34013696 51.0878087,6.23081223 C50.5344808,7.52995835 50.3432955,8.95308126 50.3211102,10.3553239 C50.3165426,11.7001456 50.4385619,13.0567126 50.8196274,14.3512912 C51.1034689,15.3176575 51.5393452,16.2553134 52.1983796,17.024622 C52.9311476,17.9022471 53.9993054,18.5032082 55.1398918,18.62849 C56.0892929,18.7550768 57.0811071,18.5678066 57.909794,18.0836447 C58.8507125,17.5433669 59.5534651,16.6650893 60.0461096,15.7117732 C60.6457657,14.5359513 60.9589702,13.2335426 61.1077424,11.9272189 C61.1964836,11.0822193 61.2408543,10.2293896 61.1886535,9.37982238 C61.116225,8.11852179 60.7599549,6.86961889 60.1178857,5.77862325 C59.5626002,4.81029936 58.8037318,3.92288664 57.8177902,3.3760838 C56.9440802,2.88604927 55.8948451,2.79339295 54.9213012,2.971528 Z" id="Shape"></path>
                        <path d="M114.623297,2.1278334 C116.047073,2.01299176 117.485203,2.08346277 118.899191,2.28052059 C119.654144,2.4064549 120.431283,2.54478688 121.10663,2.92454733 C121.361109,3.05374418 121.451155,3.34411084 121.530109,3.59728447 C121.712811,4.24718379 121.754572,4.92709854 121.768927,5.59853066 C121.773495,5.8660595 121.730429,6.19361919 121.477255,6.34173882 C121.29651,6.423955 121.110545,6.30324077 121.023109,6.14663852 C120.670754,5.58287044 120.450858,4.93362363 120.003889,4.42988641 C119.335067,3.62860492 118.349126,3.13530785 117.327296,2.96957047 C116.216072,2.79078291 115.057868,2.91149714 114.004066,3.30496028 C112.909155,3.71473616 111.948661,4.45859682 111.257001,5.3988628 C110.438755,6.5009511 109.971558,7.83141768 109.775153,9.18211204 C109.58201,10.5569493 109.606805,11.9813772 110.004183,13.3196739 C110.316735,14.3702139 110.82243,15.3757308 111.546063,16.2044177 C112.220105,17.0070042 113.051402,17.6993167 114.022988,18.10844 C115.101586,18.5717217 116.317211,18.6206599 117.46367,18.4281696 C118.013083,18.3342083 118.576851,18.0875597 118.886793,17.6020928 C119.271774,17.0056992 119.32789,16.2735837 119.380743,15.5851863 C119.407496,14.7193064 119.444689,13.850164 119.37487,12.9855891 C119.348117,12.6625969 119.181075,12.3369948 118.868523,12.2097554 C118.174906,11.9259139 117.407555,11.9918173 116.675439,11.9526668 C116.546895,11.9461417 116.395513,11.9154737 116.336134,11.7869294 C116.294374,11.5774739 116.41574,11.3614933 116.609536,11.2760146 C116.963848,11.1115822 117.361226,11.1853158 117.732504,11.239474 C118.684515,11.2473041 119.637179,11.239474 120.589843,11.2420841 C121.264537,11.2336015 121.9438,11.2805821 122.613274,11.1657405 C123.217498,11.1246324 123.853694,11.0247985 124.441605,11.2101111 C124.76525,11.3092925 124.662806,11.8038946 124.366567,11.8704506 C123.854347,12.0179177 123.268394,11.9924698 122.831865,12.3415623 C122.450147,12.6730371 122.429919,13.2217975 122.390116,13.6896467 C122.347703,14.8197929 122.379676,15.9518966 122.371193,17.0826953 C122.365973,17.4043824 122.410344,17.795888 122.139552,18.0301389 C121.765012,18.3387758 121.324568,18.5547564 120.880209,18.7426791 C119.604554,19.2555515 118.232326,19.4774046 116.866624,19.5733235 C115.504185,19.6509721 114.123475,19.6320494 112.787788,19.3260225 C111.484075,19.0343508 110.223427,18.4934205 109.171581,17.6621236 C108.463609,17.1114057 107.8633,16.4269234 107.395451,15.662835 C106.661378,14.4628703 106.280965,13.0691103 106.190266,11.6720877 C106.11327,10.3507563 106.208536,8.99353684 106.690088,7.7492015 C107.454829,5.77666572 109.011717,4.15648499 110.886376,3.19925376 C112.043928,2.5950301 113.327414,2.25572524 114.623297,2.1278334 Z" id="Path"></path>
                        <path d="M39.3524279,2.34055145 C41.0685276,2.51346643 42.7891947,2.28247812 44.5046418,2.20482951 C44.729105,2.20156696 45.0103366,2.19830441 45.1591087,2.3992773 C45.2380623,2.55587954 45.2954832,2.7764277 45.1584562,2.91867474 C44.6697267,3.25993713 44.0465802,3.23187923 43.4971674,3.40153166 C43.1754803,3.48962043 43.0123529,3.81130754 42.9568896,4.11602941 C42.7813646,5.00931472 42.8550982,5.92478534 42.8172526,6.8285108 C42.7578743,10.5510767 42.6952334,14.27299 42.63194,17.9955559 C42.6182373,18.5195209 42.772882,19.0434859 42.6528203,19.5654934 C42.6228048,19.7618987 42.5340636,20.0711882 42.2756699,20.0157249 C41.7053767,19.9635241 41.4978787,19.3501653 41.2055545,18.9495246 C40.7664157,18.3511735 40.2417982,17.8200309 39.7661189,17.2497377 C36.5107497,13.5049865 33.2566856,9.7582778 30.0006639,6.01352661 C29.8447141,5.84322167 29.7507528,5.60962332 29.5445598,5.49021411 C29.4368958,5.42235314 29.3057414,5.43866587 29.1850272,5.43475081 C29.2750735,6.37762683 29.2587607,7.32441791 29.2574557,8.27055647 C29.2868186,9.01050208 29.2633283,9.7511002 29.274421,10.4916983 C29.309004,11.2949373 29.2620233,12.1001339 29.3037839,12.9033729 C29.314224,13.6211332 29.2894287,14.3388935 29.3220541,15.0560013 C29.3403244,15.7411361 29.2457106,16.4654215 29.5347722,17.1094482 C29.7592354,17.6040503 30.2955981,17.8350386 30.7908527,17.9655405 C31.2182463,18.0986524 31.6743504,18.1182277 32.0945664,18.2735249 C32.3549176,18.3622662 32.4795469,18.7041811 32.3359949,18.9371269 C32.2009254,19.1309222 31.9386167,19.1433199 31.7239411,19.1504975 C30.0045789,19.1485399 28.2852168,19.15376 26.5658546,19.1478874 C26.2037119,19.1243971 25.8200364,19.1687677 25.4800791,19.015428 C25.2778012,18.9201617 25.2477857,18.6500228 25.3273919,18.4640576 C25.4454961,18.2931002 25.6706118,18.2676523 25.8585345,18.2291542 C26.3687968,18.1528107 26.8934143,18.0986524 27.3717037,17.8944169 C27.7260163,17.7325946 27.8134525,17.3071585 27.8251977,16.955456 C27.916549,12.9523111 28.0000702,8.94851369 28.0927265,4.9453688 C28.1175219,4.62107165 28.1005566,4.27067413 27.9087189,3.99466267 C27.6209623,3.55617638 27.080032,3.34215331 26.5678122,3.35977107 C26.2317698,3.37151623 25.857882,3.34541586 25.5975307,3.10594493 C25.441581,2.97479055 25.4631138,2.73075205 25.5707779,2.57675984 C25.7038898,2.4273352 25.9192179,2.42342014 26.1045305,2.41167497 C26.6722137,2.38687962 27.2412018,2.29357078 27.8095375,2.36926187 C28.4790121,2.44234291 29.1504442,2.37448194 29.8199188,2.33924643 C30.215992,2.33076381 30.6120651,2.33272134 31.0087908,2.33728891 C31.2084587,2.34577153 31.4518447,2.36077924 31.5719064,2.54804943 C31.7148059,2.75424238 31.8505279,2.96696043 32.0247479,3.14966305 C34.9740902,6.59230241 37.9214749,10.0382043 40.8721222,13.4808437 C41.028072,13.6792065 41.1507437,13.9049748 41.3438865,14.0739747 C41.4619907,13.8808319 41.4672108,13.6478861 41.4756934,13.4279904 C41.4900486,10.5347639 41.5298517,7.64218996 41.5415968,4.74831097 C41.5246316,4.35028027 41.4541606,3.89156619 41.131821,3.62077481 C40.5843656,3.32845062 39.946864,3.31213788 39.3419878,3.26058964 C39.146235,3.23253174 38.8747911,3.21034642 38.8088877,2.98327317 C38.7808298,2.81427325 38.8023626,2.62439302 38.9152467,2.48932359 C39.0203007,2.36273677 39.1977832,2.34055145 39.3524279,2.34055145 Z" id="Path"></path>
                        <path d="M23.3176631,2.27725805 C23.6223849,2.23810748 23.7913849,2.64723085 23.6458753,2.8808292 C23.5245085,3.01133107 23.3339758,3.02568628 23.1695434,3.05700673 C22.6403583,3.13465534 22.0987756,3.21687152 21.6126561,3.44981736 C21.3470848,3.57444664 21.2916215,3.89091368 21.2961891,4.15517997 C21.2968416,7.94169176 21.2961891,11.7282035 21.2968416,15.5147153 C21.2942316,16.1026263 21.2916215,16.6977148 21.4149458,17.2751856 C21.4834593,17.5505445 21.5917758,17.863749 21.8684398,17.9929459 C22.3447716,18.2187141 22.897447,18.1325829 23.3887866,18.3061504 C23.5864969,18.420992 23.6556629,18.6800382 23.6243425,18.8953663 C23.5969371,19.0506635 23.4344622,19.120482 23.2935202,19.1315747 C22.9711806,19.1615901 22.6468834,19.1557175 22.3238913,19.1413623 C20.1556027,18.9240767 17.9710014,19.0252157 15.7994503,19.1446249 C15.3740142,19.1700727 15.3309486,18.4718877 15.6806936,18.3315982 C16.0363112,18.2043589 16.4219442,18.2865751 16.7899595,18.2389419 C17.1455771,18.1991388 17.527295,18.0947373 17.765461,17.8089382 C18.0192871,17.4944287 18.0754029,17.0761702 18.1067234,16.6859696 C18.1517465,15.8403175 18.1230361,14.9927078 18.1308662,14.1464032 C18.1628392,13.3209789 18.1419589,12.4942495 18.1478314,11.6688252 C18.1928546,10.6248102 18.1432639,9.57949024 18.1817619,8.53547527 C18.1661017,7.18934847 18.2111248,5.84387418 18.1922021,4.49709487 C18.1719743,4.1153769 18.0956307,3.66971301 17.7563258,3.43741968 C17.3974457,3.19403369 16.9465617,3.35324597 16.549836,3.26515721 C16.3495157,3.21882905 16.13223,3.07723452 16.1230949,2.85146628 C16.097647,2.65832351 16.2196663,2.46844329 16.4082415,2.41559003 C16.7579865,2.30401093 17.1318744,2.33989894 17.492712,2.35229662 C19.4339274,2.378397 21.3829728,2.49323864 23.3176631,2.27725805 Z" id="Path"></path>
                        <path d="M0.558136758,2.44625797 C0.699731288,2.41559003 0.844588365,2.40841243 0.988792932,2.40906494 C1.94145659,2.43125025 2.89477276,2.48149347 3.84743642,2.47235834 C5.04674861,2.46322321 6.2454083,2.41167497 7.445373,2.41820007 C7.74161225,2.41754756 8.06199434,2.35033909 8.3380058,2.48867108 C8.59835703,2.63091812 8.55985898,3.06809938 8.28776258,3.17772096 C7.65809105,3.45829998 6.91096784,3.37673631 6.31261676,3.74670911 C6.07706088,3.88895615 5.94199145,4.15256993 5.91850111,4.4220563 C5.85716523,4.79398663 5.98505706,5.16069689 5.96417676,5.53327973 C5.93938141,9.18733212 5.86695287,12.8400795 5.83236987,16.4941319 C5.85194516,16.9202205 5.8199722,17.3789346 6.03073272,17.7665251 C6.23235811,18.1201852 6.68389458,18.1639033 7.04864731,18.1867411 C8.57029913,18.2330693 10.1506768,18.0275289 11.5013712,17.2849732 C12.1845484,16.9280506 12.6497876,16.293159 13.1300345,15.7124257 C13.3114321,15.5049277 13.4582467,15.2400089 13.722513,15.1277773 C13.9887368,15.0501287 14.1988448,15.3346227 14.1303313,15.5806188 C13.9613314,16.6461666 13.7773238,17.7097568 13.6011463,18.7746521 C13.5776559,18.9390844 13.5065324,19.1609376 13.2990344,19.1439724 C11.8452436,19.1661577 10.3901477,19.1139569 8.93635688,19.0976442 C6.59058574,19.050011 4.24546712,19.1198295 1.89969599,19.15115 C1.33462289,19.1367948 0.766939752,19.1779028 0.203171669,19.1296172 C-0.0239015867,19.1074318 -0.0219440586,18.8242428 0.0256891243,18.6591579 C0.145098336,18.4255596 0.443947621,18.420992 0.659275708,18.3283357 C1.13430252,18.1475906 1.67392775,18.1515056 2.11437157,17.8813668 C2.53654512,17.5903476 2.61680377,17.0376722 2.65203928,16.5639504 C2.70293501,15.1714954 2.67618212,13.7770829 2.68466475,12.3833229 C2.72773036,11.5363658 2.67879216,10.6881036 2.71533269,9.84114649 C2.72446782,9.10054837 2.7022825,8.35995025 2.73099291,7.61935214 C2.737518,6.7802251 2.71533269,5.93979306 2.75970332,5.10131853 C2.78058362,4.80703682 2.85888474,4.50231495 2.76427089,4.21390581 C2.63050647,3.82892529 2.28532902,3.53203354 1.8931709,3.43350462 C1.44489697,3.32127301 0.977047764,3.30887534 0.532036384,3.18489856 C0.359773914,3.13791789 0.173808748,3.00219594 0.201214141,2.80122306 C0.197299085,2.6022077 0.385221779,2.48410351 0.558136758,2.44625797 Z" id="Path"></path>
                    </g>
                </g>
            </g>
        </g>
    </g>
</svg>