<?xml version="1.0" encoding="UTF-8"?>
<svg width="241.558763px" height="26px" viewBox="0 0 241.558763 26" version="1.1" xmlns="http://www.w3.org/2000/svg" xmlns:xlink="http://www.w3.org/1999/xlink">
    <title>images/logo</title>
    <g id="images/logo" stroke="none" stroke-width="1" fill="none" fill-rule="evenodd">
        <path d="M35.4618557,23.7886598 C33.1835052,23.7886598 31.3474227,23.185567 29.9402062,21.9793814 C28.5329897,20.7731959 27.7824742,19.0979381 27.6886598,16.9402062 L27.6618557,15.7474227 L27.6886598,14.5278351 C27.7690722,12.3701031 28.5195876,10.6948454 29.9268041,9.47525773 C31.3474227,8.2556701 33.1835052,7.65257732 35.4618557,7.65257732 C37.1907216,7.65257732 38.6515464,7.96082474 39.8175258,8.57731959 C40.9969072,9.19381443 41.8680412,9.93092784 42.457732,10.7752577 C43.0340206,11.6195876 43.342268,12.3969072 43.3824742,13.0938144 C43.3958763,13.3082474 43.328866,13.4958763 43.1680412,13.643299 C43.0072165,13.7907216 42.8195876,13.871134 42.6051546,13.871134 L38.5979381,13.871134 C38.3701031,13.871134 38.2092784,13.8175258 38.0886598,13.7237113 C37.9680412,13.6164948 37.8608247,13.4556701 37.7536082,13.2412371 C37.5391753,12.6783505 37.257732,12.2762887 36.9092784,12.0082474 C36.5608247,11.7536082 36.1185567,11.6195876 35.5824742,11.6195876 C34.0412371,11.6195876 33.2505155,12.6381443 33.1835052,14.6752577 L33.156701,15.814433 L33.1835052,16.7927835 C33.2103093,17.8381443 33.4113402,18.5886598 33.8134021,19.0845361 C34.2154639,19.5670103 34.8051546,19.8082474 35.5824742,19.8082474 C36.1587629,19.8082474 36.614433,19.6876289 36.9360825,19.4463918 C37.271134,19.1917526 37.5391753,18.7762887 37.7536082,18.2 C37.8608247,17.985567 37.9680412,17.8247423 38.0886598,17.7175258 C38.2092784,17.6237113 38.3701031,17.5701031 38.5979381,17.5701031 L42.6051546,17.5701031 C42.8061856,17.5701031 42.9804124,17.6371134 43.1412371,17.7845361 C43.3020619,17.9185567 43.3824742,18.0927835 43.3824742,18.2938144 C43.3824742,18.9103093 43.1010309,19.6474227 42.5515464,20.5185567 C42.0020619,21.3896907 41.1309278,22.1402062 39.9381443,22.7969072 C38.7453608,23.4670103 37.2443299,23.7886598 35.4618557,23.7886598 Z M53.4206186,23.7886598 C50.914433,23.7886598 48.9845361,23.2123711 47.6309278,22.0463918 C46.2907216,20.8804124 45.5536082,19.2185567 45.4463918,17.0608247 C45.4195876,16.8061856 45.4061856,16.3639175 45.4061856,15.7206186 C45.4061856,15.0773196 45.4195876,14.6350515 45.4463918,14.3804124 C45.5536082,12.2628866 46.3175258,10.614433 47.6979381,9.43505155 C49.0783505,8.24226804 50.9948454,7.65257732 53.4206186,7.65257732 C55.8463918,7.65257732 57.7628866,8.24226804 59.143299,9.43505155 C60.5237113,10.614433 61.2742268,12.2628866 61.3948454,14.3804124 C61.4350515,14.8896907 61.4618557,15.3453608 61.4618557,15.7206186 C61.4618557,16.0958763 61.4350515,16.5515464 61.3948454,17.0608247 C61.2742268,19.2185567 60.5505155,20.8804124 59.1969072,22.0463918 C57.856701,23.2123711 55.9268041,23.7886598 53.4206186,23.7886598 Z M53.4206186,20.0226804 C54.2381443,20.0226804 54.8412371,19.7680412 55.243299,19.2587629 C55.6453608,18.7494845 55.8731959,17.9721649 55.9268041,16.9134021 C55.9536082,16.7123711 55.9536082,16.3237113 55.9536082,15.7206186 C55.9536082,15.1175258 55.9536082,14.728866 55.9268041,14.5278351 C55.8731959,13.4824742 55.6453608,12.7051546 55.243299,12.1958763 C54.8412371,11.6731959 54.2381443,11.4185567 53.4206186,11.4185567 C52.6030928,11.4185567 52,11.6731959 51.5979381,12.1958763 C51.1958763,12.7051546 50.9680412,13.4824742 50.914433,14.5278351 L50.8742268,15.7206186 L50.914433,16.9134021 C50.9680412,17.9721649 51.1958763,18.7494845 51.5979381,19.2587629 C52,19.7680412 52.6030928,20.0226804 53.4206186,20.0226804 Z M70.1195876,23.7886598 C68.1896907,23.7886598 66.6752577,23.185567 65.5628866,21.9659794 C64.4639175,20.7463918 63.8742268,19.0175258 63.7938144,16.7659794 L63.7670103,15.7206186 L63.7938144,14.6484536 C63.8742268,12.4773196 64.4639175,10.7618557 65.5896907,9.51546392 C66.7020619,8.26907216 68.2164948,7.65257732 70.1195876,7.65257732 C71.9154639,7.65257732 73.3628866,8.22886598 74.4618557,9.3814433 L74.4618557,3.01546392 C74.4618557,2.80103093 74.528866,2.61340206 74.6896907,2.47938144 C74.8371134,2.34536082 75.0113402,2.26494845 75.2123711,2.26494845 L79.0587629,2.26494845 C79.2865979,2.26494845 79.4608247,2.34536082 79.6216495,2.47938144 C79.7690722,2.61340206 79.8360825,2.80103093 79.8360825,3.01546392 L79.8360825,22.743299 C79.8360825,22.957732 79.7690722,23.1453608 79.6216495,23.2793814 C79.4608247,23.4268041 79.2865979,23.4938144 79.0587629,23.4938144 L75.5072165,23.4938144 C75.3061856,23.4938144 75.1319588,23.4134021 74.9845361,23.2659794 C74.8371134,23.1185567 74.756701,22.9443299 74.756701,22.743299 L74.756701,21.8185567 C73.6845361,23.1319588 72.143299,23.7886598 70.1195876,23.7886598 Z M71.8618557,19.6340206 C72.7195876,19.6340206 73.3494845,19.3659794 73.7783505,18.8164948 C74.1938144,18.2670103 74.4216495,17.5701031 74.4618557,16.7391753 C74.5020619,16.1762887 74.5154639,15.8010309 74.5154639,15.6 C74.5154639,15.385567 74.5020619,15.0103093 74.4618557,14.5010309 C74.4216495,13.7237113 74.1804124,13.0804124 73.7515464,12.571134 C73.3226804,12.0618557 72.6927835,11.8072165 71.8618557,11.8072165 C70.9639175,11.8072165 70.3206186,12.0752577 69.9319588,12.5979381 C69.543299,13.1206186 69.3154639,13.857732 69.2618557,14.7958763 L69.2350515,15.7206186 L69.2618557,16.6453608 C69.3154639,17.5835052 69.543299,18.3206186 69.9319588,18.843299 C70.3206186,19.3659794 70.9639175,19.6340206 71.8618557,19.6340206 Z M90.5443299,23.7886598 C88.1051546,23.7886598 86.1886598,23.1319588 84.7948454,21.8319588 C83.4010309,20.5319588 82.6907216,18.628866 82.6505155,16.1360825 L82.6505155,15.2113402 C82.7309278,12.8391753 83.4680412,10.9896907 84.8618557,9.64948454 C86.2556701,8.32268041 88.1319588,7.65257732 90.5041237,7.65257732 C92.2195876,7.65257732 93.6670103,8.00103093 94.8597938,8.68453608 C96.0391753,9.36804124 96.9237113,10.3195876 97.5134021,11.5257732 C98.1030928,12.7319588 98.3979381,14.0989691 98.3979381,15.6268041 L98.3979381,16.3773196 C98.3979381,16.5917526 98.3309278,16.7793814 98.1701031,16.9268041 C98.0226804,17.0742268 97.8350515,17.1546392 97.6206186,17.1546392 L88.1453608,17.1546392 L88.1453608,17.328866 C88.1721649,18.2268041 88.3731959,18.9505155 88.7752577,19.5 C89.1773196,20.0494845 89.7402062,20.3175258 90.4773196,20.3175258 C90.9597938,20.3175258 91.3350515,20.2237113 91.6298969,20.0360825 C91.9247423,19.8484536 92.1927835,19.6072165 92.4474227,19.3123711 C92.6350515,19.1113402 92.7690722,18.9773196 92.8896907,18.9371134 C92.9969072,18.8835052 93.171134,18.856701 93.4123711,18.856701 L97.3257732,18.856701 C97.5,18.856701 97.6608247,18.9103093 97.7814433,19.0175258 C97.9154639,19.1381443 97.9824742,19.2721649 97.9824742,19.4329897 C97.9824742,19.942268 97.6876289,20.5453608 97.0979381,21.2556701 C96.5082474,21.9525773 95.6505155,22.542268 94.5247423,23.0381443 C93.3989691,23.5474227 92.0721649,23.7886598 90.5443299,23.7886598 Z M92.9030928,14.1123711 L92.9030928,14.0453608 C92.9030928,13.0938144 92.6886598,12.343299 92.2731959,11.8206186 C91.857732,11.2979381 91.2680412,11.0298969 90.5041237,11.0298969 C89.7536082,11.0298969 89.1639175,11.2979381 88.7618557,11.8206186 C88.3463918,12.343299 88.1453608,13.0938144 88.1453608,14.0453608 L88.1453608,14.1123711 L92.9030928,14.1123711 Z M101.842268,23.4938144 C101.641237,23.4938144 101.46701,23.4134021 101.306186,23.2659794 C101.158763,23.1185567 101.091753,22.9443299 101.091753,22.743299 L101.091753,8.72474227 C101.091753,8.51030928 101.158763,8.32268041 101.292784,8.17525773 C101.440206,8.02783505 101.614433,7.94742268 101.842268,7.94742268 L105.487629,7.94742268 C105.702062,7.94742268 105.889691,8.02783505 106.037113,8.17525773 C106.184536,8.32268041 106.264948,8.51030928 106.264948,8.72474227 L106.264948,9.86391753 C106.814433,9.24742268 107.471134,8.77835052 108.221649,8.44329897 C108.958763,8.10824742 109.789691,7.94742268 110.714433,7.94742268 L112.054639,7.94742268 C112.282474,7.94742268 112.456701,8.01443299 112.590722,8.16185567 C112.738144,8.29587629 112.805155,8.48350515 112.805155,8.69793814 L112.805155,11.9546392 C112.805155,12.1556701 112.738144,12.3298969 112.590722,12.4773196 C112.456701,12.6247423 112.282474,12.7051546 112.054639,12.7051546 L109.039175,12.7051546 C108.235052,12.7051546 107.631959,12.9195876 107.203093,13.3618557 C106.774227,13.8041237 106.559794,14.4206186 106.559794,15.2113402 L106.559794,22.743299 C106.559794,22.957732 106.479381,23.1453608 106.331959,23.2793814 C106.184536,23.4268041 105.996907,23.4938144 105.782474,23.4938144 L101.842268,23.4938144 Z M122.039175,23.7886598 C119.613402,23.7886598 117.696907,23.1319588 116.303093,21.8319588 C114.909278,20.5319588 114.185567,18.628866 114.145361,16.1360825 L114.145361,15.2113402 C114.225773,12.8391753 114.962887,10.9896907 116.356701,9.64948454 C117.750515,8.32268041 119.640206,7.65257732 122.012371,7.65257732 C123.727835,7.65257732 125.175258,8.00103093 126.354639,8.68453608 C127.547423,9.36804124 128.431959,10.3195876 129.021649,11.5257732 C129.61134,12.7319588 129.892784,14.0989691 129.892784,15.6268041 L129.892784,16.3773196 C129.892784,16.5917526 129.825773,16.7793814 129.678351,16.9268041 C129.530928,17.0742268 129.343299,17.1546392 129.128866,17.1546392 L119.653608,17.1546392 L119.653608,17.328866 C119.66701,18.2268041 119.881443,18.9505155 120.270103,19.5 C120.672165,20.0494845 121.248454,20.3175258 121.985567,20.3175258 C122.454639,20.3175258 122.843299,20.2237113 123.124742,20.0360825 C123.419588,19.8484536 123.687629,19.6072165 123.95567,19.3123711 C124.129897,19.1113402 124.27732,18.9773196 124.384536,18.9371134 C124.491753,18.8835052 124.665979,18.856701 124.907216,18.856701 L128.820619,18.856701 C129.008247,18.856701 129.15567,18.9103093 129.289691,19.0175258 C129.410309,19.1381443 129.47732,19.2721649 129.47732,19.4329897 C129.47732,19.942268 129.182474,20.5453608 128.592784,21.2556701 C128.016495,21.9525773 127.158763,22.542268 126.03299,23.0381443 C124.907216,23.5474227 123.56701,23.7886598 122.039175,23.7886598 Z M124.397938,14.1123711 L124.397938,14.0453608 C124.397938,13.0938144 124.196907,12.343299 123.768041,11.8206186 C123.352577,11.2979381 122.762887,11.0298969 122.012371,11.0298969 C121.248454,11.0298969 120.672165,11.2979381 120.256701,11.8206186 C119.854639,12.343299 119.653608,13.0938144 119.653608,14.0453608 L119.653608,14.1123711 L124.397938,14.1123711 Z M137.545361,23.4938144 C137.27732,23.4938144 137.062887,23.4268041 136.902062,23.2927835 C136.754639,23.1721649 136.634021,22.9845361 136.540206,22.743299 L130.857732,8.87216495 C130.830928,8.8185567 130.830928,8.73814433 130.830928,8.63092784 C130.830928,8.44329897 130.884536,8.26907216 131.018557,8.14845361 C131.152577,8.01443299 131.313402,7.94742268 131.514433,7.94742268 L135.065979,7.94742268 C135.481443,7.94742268 135.789691,8.16185567 135.963918,8.57731959 L139.220619,17.5164948 L142.517526,8.57731959 C142.571134,8.41649485 142.664948,8.26907216 142.812371,8.14845361 C142.946392,8.01443299 143.134021,7.94742268 143.375258,7.94742268 L146.96701,7.94742268 C147.141237,7.94742268 147.302062,8.01443299 147.436082,8.14845361 C147.583505,8.26907216 147.650515,8.44329897 147.650515,8.63092784 L147.596907,8.87216495 L141.941237,22.743299 C141.847423,22.9845361 141.713402,23.1721649 141.552577,23.2927835 C141.391753,23.4268041 141.17732,23.4938144 140.895876,23.4938144 L137.545361,23.4938144 Z M150.639175,5.80309278 C150.424742,5.80309278 150.237113,5.72268041 150.103093,5.57525773 C149.969072,5.42783505 149.88866,5.24020619 149.88866,5.0257732 L149.88866,2.23814433 C149.88866,2.02371134 149.969072,1.83608247 150.116495,1.68865979 C150.263918,1.54123711 150.438144,1.46082474 150.639175,1.46082474 L154.378351,1.46082474 C154.592784,1.46082474 154.780412,1.54123711 154.927835,1.68865979 C155.075258,1.83608247 155.15567,2.02371134 155.15567,2.23814433 L155.15567,5.0257732 C155.15567,5.24020619 155.075258,5.42783505 154.927835,5.57525773 C154.780412,5.72268041 154.592784,5.80309278 154.378351,5.80309278 L150.639175,5.80309278 Z M150.639175,23.4938144 C150.438144,23.4938144 150.263918,23.4134021 150.116495,23.2659794 C149.969072,23.1185567 149.88866,22.9443299 149.88866,22.743299 L149.88866,8.69793814 C149.88866,8.48350515 149.969072,8.29587629 150.116495,8.16185567 C150.263918,8.01443299 150.438144,7.94742268 150.639175,7.94742268 L154.378351,7.94742268 C154.592784,7.94742268 154.780412,8.01443299 154.927835,8.16185567 C155.075258,8.29587629 155.15567,8.48350515 155.15567,8.69793814 L155.15567,22.743299 C155.15567,22.957732 155.075258,23.1453608 154.927835,23.2793814 C154.780412,23.4268041 154.592784,23.4938144 154.378351,23.4938144 L150.639175,23.4938144 Z M165.850515,23.7886598 C163.424742,23.7886598 161.508247,23.1319588 160.114433,21.8319588 C158.720619,20.5319588 157.996907,18.628866 157.956701,16.1360825 L157.956701,15.2113402 C158.037113,12.8391753 158.774227,10.9896907 160.168041,9.64948454 C161.575258,8.32268041 163.451546,7.65257732 165.823711,7.65257732 C167.539175,7.65257732 168.986598,8.00103093 170.165979,8.68453608 C171.358763,9.36804124 172.243299,10.3195876 172.83299,11.5257732 C173.42268,12.7319588 173.717526,14.0989691 173.717526,15.6268041 L173.717526,16.3773196 C173.717526,16.5917526 173.637113,16.7793814 173.489691,16.9268041 C173.342268,17.0742268 173.154639,17.1546392 172.940206,17.1546392 L163.464948,17.1546392 L163.464948,17.328866 C163.478351,18.2268041 163.692784,18.9505155 164.094845,19.5 C164.483505,20.0494845 165.059794,20.3175258 165.796907,20.3175258 C166.265979,20.3175258 166.654639,20.2237113 166.949485,20.0360825 C167.230928,19.8484536 167.512371,19.6072165 167.76701,19.3123711 C167.941237,19.1113402 168.08866,18.9773196 168.195876,18.9371134 C168.303093,18.8835052 168.47732,18.856701 168.718557,18.856701 L172.631959,18.856701 C172.819588,18.856701 172.96701,18.9103093 173.101031,19.0175258 C173.235052,19.1381443 173.28866,19.2721649 173.28866,19.4329897 C173.28866,19.942268 173.007216,20.5453608 172.417526,21.2556701 C171.827835,21.9525773 170.970103,22.542268 169.84433,23.0381443 C168.718557,23.5474227 167.391753,23.7886598 165.850515,23.7886598 Z M168.209278,14.1123711 L168.209278,14.0453608 C168.209278,13.0938144 168.008247,12.343299 167.592784,11.8206186 C167.163918,11.2979381 166.574227,11.0298969 165.823711,11.0298969 C165.059794,11.0298969 164.483505,11.2979381 164.068041,11.8206186 C163.665979,12.343299 163.464948,13.0938144 163.464948,14.0453608 L163.464948,14.1123711 L168.209278,14.1123711 Z M180.284536,23.4938144 C180.003093,23.4938144 179.78866,23.4268041 179.641237,23.2927835 C179.493814,23.1721649 179.386598,22.9845361 179.306186,22.743299 L175.004124,8.91237113 L174.937113,8.63092784 C174.937113,8.44329897 175.004124,8.26907216 175.151546,8.14845361 C175.285567,8.01443299 175.446392,7.94742268 175.620619,7.94742268 L178.87732,7.94742268 C179.118557,7.94742268 179.319588,8.01443299 179.480412,8.14845361 C179.641237,8.26907216 179.735052,8.41649485 179.775258,8.57731959 L182.227835,16.8597938 L184.827835,8.63092784 C184.868041,8.45670103 184.975258,8.29587629 185.136082,8.16185567 C185.283505,8.01443299 185.497938,7.94742268 185.752577,7.94742268 L187.816495,7.94742268 C188.084536,7.94742268 188.285567,8.01443299 188.446392,8.16185567 C188.607216,8.29587629 188.714433,8.45670103 188.781443,8.63092784 L191.381443,16.8597938 L193.793814,8.57731959 C193.860825,8.41649485 193.954639,8.26907216 194.115464,8.14845361 C194.262887,8.01443299 194.450515,7.94742268 194.691753,7.94742268 L197.948454,7.94742268 C198.149485,7.94742268 198.310309,8.01443299 198.44433,8.14845361 C198.578351,8.26907216 198.631959,8.44329897 198.631959,8.63092784 C198.631959,8.73814433 198.631959,8.83195876 198.605155,8.91237113 L194.276289,22.743299 C194.128866,23.2391753 193.820619,23.4938144 193.324742,23.4938144 L190.483505,23.4938144 C189.987629,23.4938144 189.639175,23.2391753 189.464948,22.743299 L186.797938,14.7958763 L184.117526,22.743299 C183.970103,23.2391753 183.648454,23.4938144 183.125773,23.4938144 L180.284536,23.4938144 Z M200.669072,23.4938144 C200.454639,23.4938144 200.26701,23.4268041 200.119588,23.2793814 C199.972165,23.1453608 199.891753,22.957732 199.891753,22.743299 L199.891753,18.8030928 C199.891753,18.5752577 199.972165,18.4010309 200.119588,18.2402062 C200.26701,18.0927835 200.454639,18.0257732 200.669072,18.0257732 L204.609278,18.0257732 C204.837113,18.0257732 205.01134,18.0927835 205.158763,18.2402062 C205.292784,18.4010309 205.359794,18.5752577 205.359794,18.8030928 L205.359794,22.743299 C205.359794,22.9443299 205.292784,23.1185567 205.158763,23.2659794 C205.01134,23.4134021 204.837113,23.4938144 204.609278,23.4938144 L200.669072,23.4938144 Z M215.129897,23.7886598 C213.508247,23.7886598 212.141237,23.5608247 211.042268,23.1051546 C209.943299,22.6494845 209.139175,22.1 208.603093,21.456701 C208.080412,20.8268041 207.812371,20.2371134 207.812371,19.7278351 C207.812371,19.5268041 207.892784,19.3659794 208.040206,19.2319588 C208.187629,19.0979381 208.348454,19.0443299 208.536082,19.0443299 L212.141237,19.0443299 C212.261856,19.0443299 212.369072,19.071134 212.449485,19.1515464 C212.784536,19.3793814 212.972165,19.5 213.012371,19.5402062 C213.387629,19.8216495 213.749485,20.0360825 214.071134,20.1835052 C214.406186,20.3443299 214.794845,20.4113402 215.250515,20.4113402 C215.8,20.4113402 216.242268,20.3041237 216.590722,20.1030928 C216.939175,19.8886598 217.113402,19.5938144 217.113402,19.2185567 C217.113402,18.8969072 217.019588,18.642268 216.818557,18.4412371 C216.630928,18.2402062 216.282474,18.0525773 215.746392,17.8515464 C215.223711,17.6639175 214.419588,17.4762887 213.347423,17.2752577 C209.889691,16.5783505 208.174227,14.9835052 208.174227,12.4907216 C208.174227,11.6731959 208.442268,10.8958763 208.964948,10.1453608 C209.487629,9.39484536 210.264948,8.79175258 211.296907,8.33608247 C212.315464,7.88041237 213.548454,7.65257732 214.982474,7.65257732 C216.443299,7.65257732 217.703093,7.88041237 218.761856,8.32268041 C219.834021,8.77835052 220.651546,9.31443299 221.201031,9.93092784 C221.763918,10.5608247 222.045361,11.1371134 222.045361,11.6597938 C222.045361,11.8340206 221.978351,11.9948454 221.84433,12.128866 C221.710309,12.2762887 221.562887,12.343299 221.38866,12.343299 L218.091753,12.343299 C217.917526,12.343299 217.770103,12.3030928 217.676289,12.2226804 C217.435052,12.1020619 217.193814,11.9546392 216.952577,11.7804124 C216.604124,11.5391753 216.282474,11.3515464 216.014433,11.2175258 C215.746392,11.0969072 215.41134,11.0298969 214.982474,11.0298969 C214.486598,11.0298969 214.097938,11.1371134 213.816495,11.3515464 C213.548454,11.5793814 213.401031,11.8608247 213.401031,12.1958763 C213.401031,12.4907216 213.481443,12.7319588 213.65567,12.9195876 C213.829897,13.1206186 214.178351,13.2948454 214.701031,13.4824742 C215.237113,13.656701 216.027835,13.8443299 217.113402,14.0453608 C219.056701,14.3804124 220.47732,14.9835052 221.361856,15.8546392 C222.259794,16.7257732 222.702062,17.7309278 222.702062,18.8835052 C222.702062,20.3845361 222.031959,21.5773196 220.705155,22.4618557 C219.378351,23.3463918 217.528866,23.7886598 215.129897,23.7886598 Z M226.039175,23.4938144 C225.824742,23.4938144 225.637113,23.4268041 225.489691,23.2793814 C225.342268,23.1453608 225.261856,22.957732 225.261856,22.743299 L225.261856,3.01546392 C225.261856,2.80103093 225.342268,2.61340206 225.489691,2.47938144 C225.637113,2.34536082 225.824742,2.26494845 226.039175,2.26494845 L230.073196,2.26494845 C230.301031,2.26494845 230.48866,2.34536082 230.636082,2.47938144 C230.783505,2.61340206 230.850515,2.80103093 230.850515,3.01546392 L230.850515,9.68969072 C232.016495,8.32268041 233.571134,7.65257732 235.554639,7.65257732 C236.680412,7.65257732 237.712371,7.90721649 238.623711,8.42989691 C239.548454,8.95257732 240.258763,9.71649485 240.781443,10.7350515 C241.290722,11.7402062 241.558763,12.9731959 241.558763,14.4072165 L241.558763,22.743299 C241.558763,22.957732 241.478351,23.1453608 241.330928,23.2793814 C241.183505,23.4268041 240.995876,23.4938144 240.781443,23.4938144 L236.720619,23.4938144 C236.519588,23.4938144 236.345361,23.4134021 236.184536,23.2659794 C236.037113,23.1185567 235.970103,22.9443299 235.970103,22.743299 L235.970103,14.5814433 C235.970103,13.7103093 235.742268,13.0268041 235.313402,12.5309278 C234.871134,12.0484536 234.241237,11.8072165 233.423711,11.8072165 C232.63299,11.8072165 232.003093,12.0484536 231.547423,12.5309278 C231.091753,13.0268041 230.850515,13.7103093 230.850515,14.5814433 L230.850515,22.743299 C230.850515,22.957732 230.783505,23.1453608 230.636082,23.2793814 C230.48866,23.4268041 230.301031,23.4938144 230.073196,23.4938144 L226.039175,23.4938144 Z" id="Shape" fill="#FEFEFE" fill-rule="nonzero"></path>
        <path d="M0.777319588,23.4938144 C0.562886598,23.4938144 0.375257732,23.4268041 0.227835052,23.2793814 C0.0804123711,23.1453608 0,22.957732 0,22.743299 L0,18.8030928 C0,18.5752577 0.0804123711,18.4010309 0.227835052,18.2402062 C0.375257732,18.0927835 0.562886598,18.0257732 0.777319588,18.0257732 L4.71752577,18.0257732 C4.94536082,18.0257732 5.11958763,18.0927835 5.25360825,18.2402062 C5.40103093,18.4010309 5.46804124,18.5752577 5.46804124,18.8030928 L5.46804124,22.743299 C5.46804124,22.9443299 5.40103093,23.1185567 5.25360825,23.2659794 C5.11958763,23.4134021 4.94536082,23.4938144 4.71752577,23.4938144 L0.777319588,23.4938144 Z M8.33608247,26 C8.17525773,26 8.04123711,25.9329897 7.90721649,25.8123711 C7.77319588,25.6783505 7.70618557,25.5309278 7.70618557,25.3701031 C7.70618557,25.2762887 7.73298969,25.1690722 7.77319588,25.0752577 L17.8783505,0.750515464 C18.0927835,0.254639175 18.4546392,0 18.9773196,0 L21.8185567,0 C21.9927835,0 22.1402062,0.0670103093 22.2608247,0.187628866 C22.3814433,0.321649485 22.4484536,0.469072165 22.4484536,0.629896907 C22.4484536,0.72371134 22.4216495,0.830927835 22.3814433,0.924742268 L12.2226804,25.2494845 C12.0216495,25.7587629 11.6597938,26 11.1237113,26 L8.33608247,26 Z" id="Shape" fill="#FEFEFE" fill-rule="nonzero"></path>
    </g>
</svg>