<?xml version="1.0" encoding="UTF-8"?>
<svg width="112px" height="128px" viewBox="0 0 112 128" version="1.1" xmlns="http://www.w3.org/2000/svg" xmlns:xlink="http://www.w3.org/1999/xlink">
    <title>man</title>
    <g id="Page-1" stroke="none" stroke-width="1" fill="none" fill-rule="evenodd">
        <g id="home-2" transform="translate(-1063.000000, -5998.000000)" fill="#1685E4" fill-rule="nonzero">
            <g id="security" transform="translate(340.000000, 5878.000000)">
                <g id="man" transform="translate(723.000000, 120.000000)">
                    <path d="M55.9836407,92.18532 C51.6346492,92.18532 48.0966561,95.723563 48.0966561,100.072555 C48.0966561,104.421546 51.6346492,107.959539 55.9836407,107.959539 C60.3326322,107.959539 63.8706253,104.421546 63.8706253,100.072555 C63.8706253,95.723563 60.3326322,92.18532 55.9836407,92.18532 Z M55.9836407,104.209546 C53.7023951,104.209546 51.8466487,102.3538 51.8466487,100.072555 C51.8466487,97.791309 53.7023951,95.9353126 55.9836407,95.9353126 C58.2648862,95.9353126 60.1206326,97.791309 60.1206326,100.072555 C60.1206326,102.3538 58.2648862,104.209546 55.9836407,104.209546 Z" id="Shape"></path>
                    <path d="M108.088289,116.233773 L90.6930729,116.233773 C92.6985689,114.103527 93.9310665,111.238283 93.9310665,108.088539 L93.9310665,75.789602 C93.9310665,71.5256103 91.2130718,67.7548677 87.1678298,66.4061203 L72.711358,61.5873797 C71.0193613,61.0233808 69.8826135,59.4461339 69.8826135,57.6623874 L69.8826135,50.8706506 C74.773854,46.8481585 77.8985979,40.7519204 77.8985979,33.9394337 L77.8985979,29.179943 C77.8985979,28.144445 77.0590995,27.3049467 76.0236015,27.3049467 C74.9881035,27.3049467 74.1486052,28.144445 74.1486052,29.179943 L74.1486052,33.9396837 C74.1486052,43.9559141 65.9996211,52.1048982 55.9833907,52.1048982 C45.9671602,52.1048982 37.8181761,43.9559141 37.8181761,33.9396837 L37.8181761,25.2359507 C37.8181761,23.5954539 38.4569249,22.0534569 39.6166726,20.8934592 L44.0801639,16.4299679 C45.3739114,15.1362204 47.3219076,14.840221 48.9276544,15.6934693 C53.1691462,17.9479649 59.6526335,21.0944588 66.4526202,23.2829545 C70.0671132,24.4464523 73.9083556,23.8239535 76.9933496,21.5759579 C80.1160935,19.3004623 81.90684,15.7829692 81.90684,11.9252267 L81.90684,1.87499634 C81.90684,0.83949836 81.0673417,0 80.0318437,0 L43.9594141,0 C36.2954291,0 30.0601913,6.23498782 30.0601913,13.8992229 L30.0601913,20.5989598 C30.0601913,23.2409546 31.0889393,25.7246998 32.9571856,27.5931961 L34.0681835,28.7041939 L34.0681835,33.9396837 C34.0681835,40.7521704 37.1929274,46.8481585 42.0841678,50.8709006 L42.0841678,57.6628874 C42.0841678,59.4463839 40.94742,61.0236308 39.2554233,61.5876297 L24.7989516,66.4063703 C20.7537095,67.7551177 18.0359648,71.5258603 18.0359648,75.789852 L18.0359648,108.088789 C18.0359648,111.238283 19.2687124,114.103777 21.2739584,116.234023 L3.87899242,116.234023 C1.7399966,116.234023 -7.10541348e-15,117.97402 -7.10541348e-15,120.113015 L-7.10541348e-15,124.121008 C-7.10541348e-15,126.260003 1.7399966,128 3.87899242,128 L108.088539,128 C110.227535,128 111.967531,126.260003 111.967531,124.121008 L111.967531,120.113015 C111.967531,117.97377 110.227285,116.233773 108.088289,116.233773 Z M33.810434,13.8992229 C33.810434,8.30298378 38.3631751,3.74999268 43.9596641,3.74999268 L78.1570973,3.74999268 L78.1570973,11.9252267 C78.1570973,14.5709715 76.9280997,16.9837168 74.7851039,18.5452138 C72.680108,20.0792108 70.0616132,20.50496 67.601868,19.7132115 C61.0638807,17.6089656 54.795143,14.5649716 50.687901,12.3819758 C47.617157,10.749729 43.8961643,11.3107279 41.4289191,13.7779731 L36.9654278,18.2414644 C35.6266804,19.5802118 34.7189322,21.2352085 34.311933,23.038205 C33.9831836,22.2782065 33.810434,21.4517081 33.810434,20.5989598 L33.810434,13.8992229 Z M31.8064379,112.096531 L31.8064379,88.048078 C31.8064379,85.7668325 33.6621843,83.9110861 35.9434298,83.9110861 L76.0238515,83.9110861 C78.3050971,83.9110861 80.1608434,85.7668325 80.1608434,88.048078 L80.1608434,112.096531 C80.1608434,114.377777 78.3050971,116.233523 76.0238515,116.233523 L35.9434298,116.233523 C33.6621843,116.233523 31.8064379,114.377777 31.8064379,112.096531 Z M55.9836407,55.8546409 C59.6438835,55.8546409 63.0966268,54.9513927 66.1328708,53.3581458 L66.1328708,57.6623874 C66.1328708,60.2496323 67.3896184,62.6063777 69.4106144,64.0603749 C65.4563722,66.7013697 60.7826313,68.1368669 55.9836407,68.1368669 C51.1939,68.1368669 46.5101592,66.7001197 42.5564169,64.0606249 C44.5776629,62.6063777 45.8346605,60.2496323 45.8346605,57.6623874 L45.8346605,53.3578958 C48.8706545,54.9513927 52.3233978,55.8546409 55.9836407,55.8546409 Z M21.7859574,75.789602 C21.7859574,73.1423571 23.4734542,70.8011117 25.9849492,69.9638634 L38.5541747,65.7741215 C43.4844151,69.7161138 49.654153,71.8871096 55.9836407,71.8871096 C62.3248783,71.8871096 68.4783663,69.7191138 73.4128566,65.7741215 L85.9820821,69.9638634 C88.4935772,70.8011117 90.1810739,73.1423571 90.1810739,75.789602 L90.1810739,108.088539 C90.1810739,112.336781 86.9113303,115.833774 82.7565884,116.200023 C83.4883369,115.003775 83.9108361,113.598778 83.9108361,112.096531 L83.9108361,88.048078 C83.9108361,83.6990865 80.372843,80.1610934 76.0238515,80.1610934 L35.9434298,80.1610934 C31.5944383,80.1610934 28.0564452,83.6990865 28.0564452,88.048078 L28.0564452,112.096531 C28.0564452,113.598528 28.4789444,115.003775 29.2106929,116.200023 C25.0559511,115.833774 21.7859574,112.336781 21.7859574,108.088539 L21.7859574,75.789602 L21.7859574,75.789602 Z M108.217539,124.120758 C108.217539,124.192007 108.159789,124.249757 108.088539,124.249757 L3.87899242,124.249757 C3.80774256,124.249757 3.74999268,124.192007 3.74999268,124.120758 L3.74999268,120.112765 C3.74999268,120.041516 3.80774256,119.983766 3.87899242,119.983766 L108.088539,119.983766 C108.159789,119.983766 108.217539,120.041516 108.217539,120.112765 L108.217539,124.120758 Z" id="Shape"></path>
                </g>
            </g>
        </g>
    </g>
</svg>