<svg width="112" height="128" viewBox="0 0 112 128" xmlns="http://www.w3.org/2000/svg"><g fill="#1685E4" fill-rule="nonzero"><path d="M55.984 92.185c-4.35 0-7.887 3.539-7.887 7.888s3.538 7.887 7.887 7.887 7.887-3.538 7.887-7.887c0-4.35-3.538-7.888-7.887-7.888Zm0 12.025a4.142 4.142 0 0 1-4.137-4.137 4.142 4.142 0 0 1 4.137-4.138 4.142 4.142 0 0 1 4.137 4.138 4.142 4.142 0 0 1-4.137 4.137Z"/><path d="M108.088 116.234H90.693a11.848 11.848 0 0 0 3.238-8.145v-32.3a9.879 9.879 0 0 0-6.763-9.383L72.71 61.587a4.132 4.132 0 0 1-2.828-3.925v-6.791c4.89-4.023 8.016-10.12 8.016-16.932v-4.76a1.875 1.875 0 0 0-3.75 0v4.76c0 10.017-8.15 18.166-18.166 18.166s-18.165-8.15-18.165-18.165v-8.704c0-1.64.639-3.183 1.799-4.343l4.463-4.463a4.1 4.1 0 0 1 4.848-.737c4.241 2.255 10.725 5.401 17.525 7.59 3.614 1.163 7.455.541 10.54-1.707 3.123-2.276 4.914-5.793 4.914-9.65V1.874C81.907.839 81.067 0 80.032 0H43.959C36.295 0 30.06 6.235 30.06 13.9v6.699a9.827 9.827 0 0 0 2.897 6.994l1.111 1.111v5.236c0 6.812 3.125 12.908 8.016 16.93v6.793a4.132 4.132 0 0 1-2.829 3.925L24.8 66.406a9.879 9.879 0 0 0-6.763 9.384v32.299a11.85 11.85 0 0 0 3.238 8.145H3.879A3.883 3.883 0 0 0 0 120.113v4.008A3.883 3.883 0 0 0 3.879 128h104.21a3.883 3.883 0 0 0 3.879-3.879v-4.008c0-2.14-1.74-3.88-3.88-3.88ZM33.81 13.899c0-5.596 4.553-10.149 10.15-10.149h34.197v8.175a8.11 8.11 0 0 1-3.372 6.62c-2.105 1.534-4.723 1.96-7.183 1.168-6.538-2.104-12.807-5.148-16.914-7.331-3.07-1.632-6.792-1.071-9.26 1.396l-4.463 4.463a9.826 9.826 0 0 0-2.653 4.797 6.131 6.131 0 0 1-.502-2.439v-6.7Zm-2.004 98.198V88.048a4.142 4.142 0 0 1 4.137-4.137h40.08a4.142 4.142 0 0 1 4.138 4.137v24.049a4.142 4.142 0 0 1-4.137 4.137h-40.08a4.142 4.142 0 0 1-4.138-4.137Zm24.178-56.242c3.66 0 7.113-.904 10.149-2.497v4.304a7.873 7.873 0 0 0 3.278 6.398 24.193 24.193 0 0 1-13.427 4.077c-4.79 0-9.474-1.437-13.428-4.076a7.874 7.874 0 0 0 3.279-6.399v-4.304a21.776 21.776 0 0 0 10.149 2.497ZM21.786 75.79a6.133 6.133 0 0 1 4.199-5.826l12.57-4.19a27.97 27.97 0 0 0 17.429 6.113 27.936 27.936 0 0 0 17.429-6.113l12.57 4.19a6.133 6.133 0 0 1 4.198 5.826v32.299c0 4.248-3.27 7.745-7.424 8.111a7.84 7.84 0 0 0 1.154-4.103V88.048c0-4.349-3.538-7.887-7.887-7.887h-40.08c-4.35 0-7.888 3.538-7.888 7.887v24.049a7.84 7.84 0 0 0 1.155 4.103c-4.155-.366-7.425-3.863-7.425-8.111v-32.3Zm86.432 48.33a.129.129 0 0 1-.13.13H3.88a.129.129 0 0 1-.129-.13v-4.007c0-.071.058-.13.129-.13h104.21c.07 0 .129.059.129.13v4.008Z"/></g></svg>