<?xml version="1.0" encoding="UTF-8"?>
<svg width="60px" height="55px" viewBox="0 0 60 55" version="1.1" xmlns="http://www.w3.org/2000/svg" xmlns:xlink="http://www.w3.org/1999/xlink">
    <title>8CA627C2-3B52-498F-8C19-0CF92C84B936</title>
    <g id="Page-1" stroke="none" stroke-width="1" fill="none" fill-rule="evenodd">
        <g id="landing" transform="translate(-642.000000, -3299.000000)" fill="#E00024" fill-rule="nonzero">
            <g id="our-customers" transform="translate(412.000000, 3173.000000)">
                <g id="row-1" transform="translate(0.000000, 126.000000)">
                    <g id="meble-vox" transform="translate(230.000000, 0.000000)">
                        <path d="M0,0 L59.1397849,0 L59.1397849,55 L0,55 L0,0 M34.2912186,5.89820789 C32.824552,7.14605735 32.1424731,9.1390681 32.2075269,11.0295699 C32.2114695,22.2030466 32.2055556,33.3765233 32.2094982,44.55 C32.2765233,46.9786738 33.7924731,49.5197133 36.2586022,50.1249104 C37.5241935,50.3240143 38.8548387,49.947491 39.8089606,49.0899642 C40.9602151,48.0826165 41.5811828,46.6100358 41.8335125,45.1275986 C41.9005376,44.0808244 41.8709677,43.0320789 41.8768817,41.9833333 C41.8729391,31.537276 41.8808244,21.0892473 41.8729391,10.64319 C41.8177419,8.43924731 40.7157706,6.0578853 38.596595,5.15304659 C37.1811828,4.49856631 35.4188172,4.84749104 34.2912186,5.89820789 M51.609319,5.46451613 C51.5560932,5.55913978 51.4496416,5.74641577 51.3964158,5.8390681 C50.968638,9.4702509 50.3437276,13.0777778 49.8765233,16.7030466 C49.6793907,17.8543011 49.602509,19.0292115 49.2930108,20.1607527 C48.6976703,15.2915771 47.8874552,10.45 47.2270609,5.58870968 C46.9924731,5.55125448 46.7598566,5.51379928 46.5272401,5.47437276 C45.6933692,5.47831541 44.8575269,5.63010753 44.0295699,5.45663082 C44.9777778,12.7781362 46.1625448,20.0740143 47.1797491,27.3876344 C46.1901434,34.7387097 45.0250896,42.0740143 44.0078853,49.4250896 C45.0743728,49.5492832 46.1586022,49.5571685 47.2231183,49.4231183 C47.6213262,46.6514337 48.0589606,43.8856631 48.4650538,41.1159498 C48.7351254,39.1741935 49.1215054,37.2462366 49.2890681,35.2926523 C49.5630824,36.4458781 49.6655914,37.6286738 49.8784946,38.7937276 C50.3575269,42.3342294 51.0060932,45.8530466 51.4181004,49.4014337 C52.516129,49.4724014 53.616129,49.4408602 54.716129,49.4270609 C53.7048387,42.7462366 52.7487455,36.0555556 51.7670251,29.3707885 C51.6822581,28.6453405 51.4713262,27.9238351 51.5521505,27.1905018 C52.5969534,19.9517921 53.6594982,12.7150538 54.7102151,5.47634409 C53.6772401,5.47437276 52.6422939,5.4921147 51.609319,5.46451613 M19.3702509,5.55716846 C20.0503584,16.0012545 20.8546595,26.4335125 21.5663082,36.8736559 C21.8403226,41.05681 22.2188172,45.2320789 22.4297491,49.421147 C22.7786738,49.4310036 23.1275986,49.4408602 23.4765233,49.4586022 C24.2571685,49.5551971 25.0437276,49.505914 25.8263441,49.4822581 C26.2206093,49.4802867 26.9697133,49.7267025 27.0209677,49.1333333 C28.0184588,34.6125448 29.0435484,20.0917563 30.068638,5.57293907 C28.9982079,5.49408602 27.9258065,5.59856631 26.853405,5.55716846 C26.1496416,15.0175627 25.5306452,24.4858423 24.8564516,33.9462366 C24.7086022,34.5356631 24.6415771,35.1388889 24.7362007,35.7421147 C24.6356631,35.4050179 24.4700717,35.0698925 24.5134409,34.7091398 C24.6218638,33.3173835 24.3951613,31.9315412 24.3222222,30.5456989 C23.8688172,23.7801075 23.3602151,17.0204301 22.9087814,10.2548387 C22.7057348,8.6718638 22.8023297,7.05537634 22.4908602,5.48817204 C21.4519713,5.51971326 20.4130824,5.60053763 19.3702509,5.55716846 Z" id="Shape"></path>
                        <path d="M35.4148746,10.8383513 C35.3971326,9.86648746 36.0693548,8.92616487 37.0609319,8.78028674 C37.6464158,8.94390681 38.2456989,9.26523297 38.4546595,9.87831541 C38.8607527,11.2168459 38.511828,12.6283154 38.6399642,13.9983871 C38.6202509,23.2675627 38.6281362,32.5367384 38.6301075,41.805914 C38.5808244,42.8664875 38.772043,43.9586022 38.4980287,44.9955197 C38.3265233,45.6716846 37.6858423,46.0304659 37.0629032,46.2137993 C36.0654122,46.0758065 35.4089606,45.1275986 35.4129032,44.1596774 C35.4109319,33.0532258 35.4069892,21.9448029 35.4148746,10.8383513 Z" id="Path"></path>
                    </g>
                </g>
            </g>
        </g>
    </g>
</svg>