<?xml version="1.0" encoding="UTF-8"?>
<svg width="132px" height="24px" viewBox="0 0 132 24" version="1.1" xmlns="http://www.w3.org/2000/svg" xmlns:xlink="http://www.w3.org/1999/xlink">
    <title>D46AA5FA-ED5F-44EF-941A-FAB722612A10</title>
    <g id="Page-1" stroke="none" stroke-width="1" fill="none" fill-rule="evenodd">
        <g id="landing" transform="translate(-412.000000, -3315.000000)" fill="#000000" fill-rule="nonzero">
            <g id="our-customers" transform="translate(412.000000, 3173.000000)">
                <g id="row-1" transform="translate(0.000000, 126.000000)">
                    <g id="neonail" transform="translate(0.000000, 16.000000)">
                        <g id="Group" transform="translate(66.000000, 11.530120) scale(-1, 1) rotate(-180.000000) translate(-66.000000, -11.530120) translate(0.000000, 0.000000)">
                            <path d="M28.8253012,21.9668675 L27.3343373,20.873494 L28.2289157,20.873494 C28.9246988,20.873494 29.5608434,21.1120482 31.1114458,21.9668675 L33.0993976,23.0403614 L31.7078313,23.060241 C30.3361446,23.060241 30.2963855,23.0403614 28.8253012,21.9668675 Z" id="Path"></path>
                            <path d="M47.4722892,19.760241 C46.8361446,19.6210843 45.7825301,19.223494 45.1066265,18.8656627 C38.3078313,15.4463855 38.3674699,4.47289157 45.1861446,1.2126506 C46.5578313,0.556626506 48.6054217,0 49.6590361,0 L50.3349398,0 L49.9373494,0.636144578 C49.6391566,1.09337349 49.2614458,1.35180723 48.4662651,1.59036145 C46.2795181,2.26626506 44.8879518,3.67771084 43.8939759,6.14277108 C43.5162651,7.09698795 43.4566265,7.63373494 43.436747,10.0391566 C43.436747,12.4644578 43.4963855,12.9813253 43.8939759,14.0150602 C45.1662651,17.3548193 47.7307229,19.0445783 51.2295181,18.8457831 C53.913253,18.686747 56.1,17.3746988 57.1933735,15.2277108 C58.1873494,13.2596386 58.5253012,9.84036145 57.9487952,7.45481928 C57.789759,6.79879518 57.6704819,6.20240964 57.6506024,6.12289157 C57.6506024,6.02349398 58.3066265,5.96385542 59.1216867,5.96385542 C60.5331325,5.96385542 60.5927711,5.98373494 60.8114458,6.52048193 C61.4674699,8.17048193 61.626506,11.2518072 61.1493976,13.0409639 C60.2548193,16.4204819 57.75,18.8259036 54.1518072,19.760241 C52.6409639,20.1578313 49.0626506,20.1578313 47.4722892,19.760241 Z" id="Path"></path>
                            <path d="M0,10.1584337 L0,0.596385542 L0.695783133,0.596385542 L1.39156627,0.596385542 L1.39156627,7.8126506 L1.39156627,15.0090361 L2.32590361,14.0150602 C2.84277108,13.4783133 5.90421687,10.2578313 9.1246988,6.85843373 C14.2536145,1.49096386 15.0686747,0.695783133 15.6451807,0.636144578 L16.3012048,0.576506024 L16.3012048,10.1186747 L16.3012048,19.6807229 L15.6054217,19.6807229 L14.9096386,19.6807229 L14.9096386,12.663253 C14.9096386,8.78674699 14.8698795,5.58614458 14.7903614,5.52650602 C14.7307229,5.46686747 13.2795181,6.89819277 11.5698795,8.72710843 C1.31204819,19.6012048 1.33192771,19.5813253 0.656024096,19.6409639 L0,19.7006024 L0,10.1584337 Z" id="Path"></path>
                            <polygon id="Path" points="23.2590361 10.1385542 23.2590361 0.596385542 29.4216867 0.596385542 35.5843373 0.596385542 35.5843373 1.29216867 35.5843373 1.98795181 30.813253 1.98795181 26.0421687 1.98795181 26.0421687 5.96385542 26.0421687 9.91987952 29.1831325 9.97951807 32.3042169 10.0391566 32.3638554 10.6951807 32.423494 11.3313253 29.2427711 11.3313253 26.0421687 11.3313253 26.0421687 14.810241 26.0421687 18.2891566 30.813253 18.2891566 35.5843373 18.2891566 35.5843373 18.9849398 35.5843373 19.6807229 29.4216867 19.6807229 23.2590361 19.6807229"></polygon>
                            <path d="M66.5963855,10.1584337 L66.5963855,0.596385542 L67.2921687,0.596385542 L67.9879518,0.596385542 L67.9879518,7.65361446 C67.9879518,11.5301205 68.0277108,14.7108434 68.0873494,14.7108434 C68.146988,14.7108434 68.4451807,14.4524096 68.7433735,14.1144578 C69.0415663,13.7963855 72.063253,10.6156627 75.4427711,7.05722892 C81.0487952,1.17289157 81.6650602,0.596385542 82.2614458,0.596385542 L82.8975904,0.596385542 L82.8975904,10.1385542 L82.8975904,19.6807229 L82.1024096,19.6807229 L81.3072289,19.6807229 L81.3072289,12.5042169 L81.3072289,5.32771084 L79.4783133,7.2560241 C78.4644578,8.32951807 75.4427711,11.5301205 72.7590361,14.3927711 C68.5644578,18.8457831 67.7891566,19.5813253 67.2325301,19.6409639 L66.5963855,19.7006024 L66.5963855,10.1584337 Z" id="Path"></path>
                            <path d="M95.5012048,19.2433735 C95.2626506,18.4283133 91.9228916,10.7548193 89.676506,5.76506024 C88.4638554,3.0813253 87.4698795,0.834939759 87.4698795,0.735542169 C87.4698795,0.656024096 87.8873494,0.596385542 88.3843373,0.636144578 L89.2789157,0.695783133 L90.75,4.1746988 L92.2012048,7.65361446 L95.8192771,7.65361446 L99.4373494,7.65361446 L100.948193,4.11506024 L102.478916,0.596385542 L104.049398,0.596385542 C105.222289,0.596385542 105.58012,0.656024096 105.500602,0.854819277 C105.440964,0.974096386 104.287952,3.55843373 102.956024,6.56024096 C101.643976,9.56204819 99.8548193,13.736747 98.9801205,15.8042169 L97.4295181,19.5813253 L96.5349398,19.6409639 C95.7596386,19.7006024 95.6403614,19.6409639 95.5012048,19.2433735 Z M97.310241,12.6433735 C98.1054217,10.8343373 98.7018072,9.30361446 98.6421687,9.2439759 C98.463253,9.06506024 92.7975904,9.1246988 92.8771084,9.30361446 C93.6325301,11.2518072 95.739759,16.0626506 95.7993976,16.003012 C95.8391566,15.963253 96.5150602,14.4524096 97.310241,12.6433735 Z" id="Shape"></path>
                            <polygon id="Path" points="110.927711 10.1385542 110.927711 0.596385542 112.21988 0.596385542 113.512048 0.596385542 113.512048 10.1385542 113.512048 19.6807229 112.21988 19.6807229 110.927711 19.6807229"></polygon>
                            <polygon id="Path" points="119.674699 10.1385542 119.674699 0.596385542 125.837349 0.596385542 132 0.596385542 132 1.29216867 132 1.98795181 127.228916 1.98795181 122.457831 1.98795181 122.457831 10.8343373 122.457831 19.6807229 121.066265 19.6807229 119.674699 19.6807229"></polygon>
                            <path d="M59.360241,4.98975904 C58.4855422,4.01566265 54.9668675,3.04156627 53.3168675,3.3 C52.2433735,3.47891566 50.9313253,3.06144578 50.653012,2.48493976 C50.1162651,1.29216867 51.0903614,0.397590361 52.9590361,0.397590361 C54.3108434,0.397590361 55.8415663,0.954216867 57.253012,1.94819277 C58.863253,3.06144578 60.6126506,5.36746988 59.8771084,5.36746988 C59.7777108,5.36746988 59.5391566,5.20843373 59.360241,4.98975904 Z" id="Path"></path>
                        </g>
                    </g>
                </g>
            </g>
        </g>
    </g>
</svg>