<?xml version="1.0" encoding="UTF-8"?>
<svg width="115px" height="70px" viewBox="0 0 115 70" version="1.1" xmlns="http://www.w3.org/2000/svg" xmlns:xlink="http://www.w3.org/1999/xlink">
    <title>47435882-4631-4B88-99DA-750DB24DBE93</title>
    <defs>
        <linearGradient x1="63.9975701%" y1="17.4785562%" x2="32.8982125%" y2="89.7007599%" id="linearGradient-1">
            <stop stop-color="#3F873F" offset="0%"></stop>
            <stop stop-color="#3F8B3D" offset="33%"></stop>
            <stop stop-color="#3E9637" offset="64%"></stop>
            <stop stop-color="#3DA92E" offset="93%"></stop>
            <stop stop-color="#3DAE2B" offset="100%"></stop>
        </linearGradient>
        <linearGradient x1="45.0256545%" y1="55.2276892%" x2="130.445243%" y2="-18.2974328%" id="linearGradient-2">
            <stop stop-color="#3F873F" offset="14%"></stop>
            <stop stop-color="#529F44" offset="40%"></stop>
            <stop stop-color="#63B649" offset="71%"></stop>
            <stop stop-color="#6ABF4B" offset="91%"></stop>
        </linearGradient>
        <linearGradient x1="-4406.5%" y1="50.5%" x2="5334.5%" y2="50.5%" id="linearGradient-3">
            <stop stop-color="#6ABF4B" offset="9%"></stop>
            <stop stop-color="#63B649" offset="29%"></stop>
            <stop stop-color="#529F44" offset="60%"></stop>
            <stop stop-color="#3F873F" offset="86%"></stop>
        </linearGradient>
        <linearGradient x1="-4.43960827%" y1="50.0067371%" x2="101.556039%" y2="50.0067371%" id="linearGradient-4">
            <stop stop-color="#6ABF4B" offset="9%"></stop>
            <stop stop-color="#63B649" offset="29%"></stop>
            <stop stop-color="#529F44" offset="60%"></stop>
            <stop stop-color="#3F873F" offset="86%"></stop>
        </linearGradient>
        <linearGradient x1="-9677%" y1="50.5%" x2="64%" y2="50.5%" id="linearGradient-5">
            <stop stop-color="#6ABF4B" offset="9%"></stop>
            <stop stop-color="#63B649" offset="29%"></stop>
            <stop stop-color="#529F44" offset="60%"></stop>
            <stop stop-color="#3F873F" offset="86%"></stop>
        </linearGradient>
        <linearGradient x1="-103.712248%" y1="50.0168067%" x2="100.587248%" y2="50.0168067%" id="linearGradient-6">
            <stop stop-color="#6ABF4B" offset="9%"></stop>
            <stop stop-color="#63B649" offset="29%"></stop>
            <stop stop-color="#529F44" offset="60%"></stop>
            <stop stop-color="#3F873F" offset="86%"></stop>
        </linearGradient>
        <linearGradient x1="130.369128%" y1="-51.555671%" x2="4.36241611%" y2="108.829137%" id="linearGradient-7">
            <stop stop-color="#3F873F" offset="0%"></stop>
            <stop stop-color="#3F8B3D" offset="33%"></stop>
            <stop stop-color="#3E9637" offset="64%"></stop>
            <stop stop-color="#3DA92E" offset="93%"></stop>
            <stop stop-color="#3DAE2B" offset="100%"></stop>
        </linearGradient>
    </defs>
    <g id="Page-1" stroke="none" stroke-width="1" fill="none" fill-rule="evenodd">
        <g id="landing" transform="translate(-440.000000, -5751.000000)">
            <g id="our-customers" transform="translate(440.000000, 5643.000000)">
                <g id="node" transform="translate(0.000000, 108.000000)">
                    <path d="M56.4922539,70 C56.1122103,70.0004255 55.7387578,69.9006005 55.4096902,69.7104743 L51.9630555,67.6693638 C51.4463187,67.3825749 51.7046871,67.2818112 51.8700429,67.2223865 C52.4137517,67.0494734 52.9343343,66.810873 53.4202534,66.5118733 C53.503853,66.4719414 53.602434,66.4798278 53.6786218,66.5325428 L56.3243144,68.1034228 C56.4233045,68.1576542 56.5431174,68.1576542 56.6421075,68.1034228 L66.9639257,62.1454471 C67.0625484,62.0872799 67.1226321,61.9809022 67.1215304,61.8664092 L67.1215304,49.9556253 C67.122349,49.8391769 67.0613868,49.7310183 66.961342,49.6714201 L56.6446912,43.7289465 C56.5463657,43.6721782 56.4252236,43.6721782 56.3268981,43.7289465 L46.012831,49.6714201 C45.9115939,49.7292503 45.8486466,49.8364573 45.8474752,49.9530416 L45.8474752,61.8638255 C45.8483631,61.9784622 45.9104361,62.0838877 46.0102473,62.1402798 L48.8393814,63.7731681 C50.3740898,64.5482734 51.3119671,63.6388166 51.3119671,62.7396945 L51.3119671,50.9710132 C51.3119641,50.8917614 51.3436226,50.8157926 51.3999041,50.7599963 C51.4561857,50.7041999 51.5324257,50.6732004 51.6116745,50.6738895 L52.9216024,50.6738895 C53.0861224,50.6738834 53.2198914,50.8064993 53.2213097,50.9710132 L53.2213097,62.7319434 C53.2213097,64.780805 52.1051582,65.9537976 50.1648114,65.9537976 C49.5679803,65.9537976 49.0977498,65.9537976 47.7852383,65.3078765 L45.080121,63.757666 C44.4091737,63.3678356 43.9966683,62.6501353 43.9975559,61.8741603 L43.9975559,49.9633764 C43.997059,49.1881823 44.4095831,48.4714339 45.080121,48.0824543 L55.4148576,42.1167276 C56.090193,41.7472387 56.9072331,41.7472387 57.5825686,42.1167276 L67.9173051,48.0824543 C68.5884481,48.4711672 69.0018858,49.1877926 69.0024525,49.9633764 L69.0024525,61.8741603 C69.0017468,62.6503832 68.5884691,63.3677153 67.9173051,63.757666 L57.5825686,69.7182254 C57.2505653,69.9072013 56.8742451,70.0044025 56.4922539,70 Z" id="Path" fill="#679E63" fill-rule="nonzero"></path>
                    <path d="M59.6831038,61.7914824 C55.1668239,61.7914824 54.2186118,59.7245351 54.2186118,57.9805483 C54.2186118,57.9012965 54.2502672,57.8253277 54.3065488,57.7695313 C54.3628303,57.713735 54.4390704,57.6827355 54.5183192,57.6834246 L55.8515002,57.6834246 C56.0015815,57.6821431 56.1290528,57.7929878 56.1486239,57.941793 C56.3501512,59.2982272 56.9521496,59.9854872 59.6831038,59.9854872 C61.8559821,59.9854872 62.7835248,59.4920035 62.7835248,58.3396804 C62.7835248,57.6756735 62.5251563,57.1796062 59.1405301,56.8488946 C56.3165633,56.5698567 54.5699928,55.9471889 54.5699928,53.6864652 C54.5699928,51.6040158 56.3243144,50.3638474 59.2697143,50.3638474 C62.5742463,50.3638474 64.2123021,51.5110032 64.4189968,53.9810052 C64.4254264,54.0642334 64.3971535,54.1464156 64.3408797,54.2080721 C64.2846059,54.2697286 64.205341,54.3053705 64.1218731,54.3065494 L62.7835248,54.3065494 C62.6441247,54.3050165 62.5241886,54.2075684 62.4941521,54.0714342 C62.1737753,52.6426568 61.390919,52.1853447 59.272298,52.1853447 C56.8978923,52.1853447 56.6214381,53.0121237 56.6214381,53.6322079 C56.6214381,54.3840599 56.9469823,54.6010894 60.1533343,55.0273973 C63.3596863,55.4537052 64.8298026,56.0402015 64.8298026,58.2673372 C64.8298026,60.494473 62.9514642,61.7914824 59.6831038,61.7914824 Z" id="Path" fill="#679E63" fill-rule="nonzero"></path>
                    <path d="M74.5625408,49.2993695 C74.5625408,50.3981051 73.6718396,51.2888063 72.573104,51.2888063 C71.4743684,51.2888063 70.5836672,50.3981051 70.5836672,49.2993695 C70.5836672,48.2006339 71.4743684,47.3099328 72.573104,47.3099328 C73.6706612,47.3127725 74.559701,48.2018124 74.5625408,49.2993695 L74.5625408,49.2993695 Z M70.9066097,49.2993695 C70.9034934,49.9758417 71.3089935,50.5873046 71.9333776,50.8476292 C72.5577617,51.1079538 73.2775302,50.9656495 73.7558734,50.4873063 C74.2342166,50.0089631 74.3765209,49.2891947 74.1161963,48.6648106 C73.8558716,48.0404264 73.2444088,47.6349264 72.5679366,47.6380426 C71.6541853,47.6422768 70.9136904,48.3804685 70.9066097,49.2942022 L70.9066097,49.2993695 Z M71.8264193,48.1883854 L72.6015245,48.1883854 C72.8598929,48.1883854 73.3766297,48.1883854 73.3766297,48.780049 C73.395516,49.0424858 73.2141898,49.2772087 72.9554892,49.3252064 C73.260364,49.3484595 73.2810334,49.5474032 73.3249561,49.8419432 C73.3358532,50.0425632 73.3741007,50.2407548 73.4386382,50.4310232 L72.9632403,50.4310232 C72.9632403,50.3250922 72.8779787,49.7566816 72.8779787,49.7256774 C72.8495582,49.5990769 72.8056356,49.5370685 72.6480308,49.5370685 L72.2578945,49.5370685 L72.2578945,50.4310232 L71.8264193,50.4310232 L71.8264193,48.1883854 Z M72.2475598,49.1676017 L72.6015245,49.1676017 C72.6898397,49.1784975 72.77843,49.1495859 72.8433166,49.0886923 C72.9082032,49.0277988 72.9426757,48.9412206 72.9374034,48.8523922 C72.9374034,48.5475175 72.7255413,48.5475175 72.6118592,48.5475175 L72.2527271,48.5475175 L72.2475598,49.1676017 Z" id="Shape" fill="#679E63" fill-rule="nonzero"></path>
                    <path d="M24.5294999,23.3953523 C24.5304372,22.9214156 24.2782497,22.4830427 23.8680741,22.2456129 L12.9184207,15.9491746 C12.7353791,15.842059 12.5284036,15.7825425 12.3164223,15.7760678 L12.2027402,15.7760678 C11.9909115,15.7835097 11.784168,15.8429595 11.6007418,15.9491746 L0.661423141,22.2456129 C0.252026921,22.4838191 0,22.921699 0,23.3953523 L0.0232531573,40.354655 C0.0215703892,40.5902611 0.148308836,40.8080928 0.353964728,40.9230655 C0.555137092,41.0470907 0.809048137,41.0470907 1.0102205,40.9230655 L7.5133535,37.2051441 C7.92195359,36.9674026 8.17373533,36.5307186 8.17477664,36.0579883 L8.17477664,28.1312453 C8.17354209,27.6585813 8.42605735,27.2216115 8.83619978,26.9866733 L11.6059092,25.3925401 C11.8063237,25.2746774 12.0348324,25.2130872 12.2673323,25.2142659 C12.4982492,25.2127274 12.7251888,25.2743763 12.9235881,25.3925401 L15.6932975,26.9866733 C16.102264,27.22279 16.354347,27.6590118 16.3547206,28.1312453 L16.3547206,36.0528209 C16.3544526,36.5272557 16.6063383,36.9660878 17.0161438,37.2051441 L23.5115257,40.9230655 C23.7136674,41.046952 23.9682235,41.046952 24.1703652,40.9230655 C24.3738271,40.8062155 24.4990562,40.5892831 24.4984931,40.354655 L24.5294999,23.3953523 Z" id="Path" fill="#333333"></path>
                    <path d="M77.1823965,0.0827702479 C76.9775036,-0.0306706811 76.727897,-0.0273014145 76.5261407,0.0916285882 C76.3243845,0.210558591 76.2005638,0.427314876 76.2005965,0.661515497 L76.2005965,17.4554624 C76.2008476,17.6210824 76.1125161,17.7741933 75.969014,17.8568804 C75.8255119,17.9395676 75.6487485,17.9392064 75.5055855,17.8559335 L72.7668803,16.2773025 C72.3575902,16.0409987 71.8533241,16.0409987 71.444034,16.2773025 L60.4969643,22.5944102 C60.0883863,22.8309154 59.8364453,23.2668914 59.8355411,23.7389823 L59.8355411,36.3783651 C59.8364453,36.850456 60.0883863,37.2864321 60.4969643,37.5229372 L71.444034,43.8452123 C71.8528911,44.0831266 72.3580232,44.0831266 72.7668803,43.8452123 L83.7113663,37.5229372 C84.1193385,37.2861652 84.3702384,36.8500666 84.3702384,36.3783651 L84.3702384,4.87292065 C84.3735327,4.39767349 84.1221539,3.95702125 83.7113663,3.71801384 L77.1823965,0.0827702479 Z M76.167014,32.2263847 C76.1672975,32.3440401 76.1040794,32.4526962 76.0016528,32.51059 L72.2449761,34.678301 C72.1427984,34.7379151 72.0164422,34.7379151 71.9142645,34.678301 L68.1550041,32.51059 C68.0525776,32.4526962 67.9893595,32.3440401 67.9896429,32.2263847 L67.9896429,27.8857953 C67.9889709,27.7673627 68.0521678,27.6577555 68.1550041,27.5990064 L71.9142645,25.4287117 C72.0164422,25.3690976 72.1427984,25.3690976 72.2449761,25.4287117 L76.0016528,27.5990064 C76.1044891,27.6577555 76.1676861,27.7673627 76.167014,27.8857953 L76.167014,32.2263847 Z" id="Shape" fill="#333333"></path>
                    <path d="M113.63818,27.7721132 C114.04477,27.5343027 114.294436,27.0985713 114.294436,26.6275412 L114.294436,23.5658755 C114.294738,23.0948123 114.043549,22.6594186 113.635596,22.4238871 L102.758286,16.1067793 C102.348996,15.8704756 101.84473,15.8704756 101.43544,16.1067793 L90.4909535,22.4238871 C90.0819871,22.6600038 89.829904,23.0962256 89.8295304,23.5684591 L89.8295304,36.2026746 C89.8295304,36.6783607 90.0851516,37.1173582 90.4987046,37.3524141 L101.373431,43.553256 C101.774506,43.7788212 102.264198,43.7788212 102.665273,43.553256 L109.243333,39.8973429 C109.449869,39.7790249 109.577275,39.5592072 109.577275,39.3211814 C109.577275,39.0831555 109.449869,38.8633379 109.243333,38.7450198 L98.2290876,32.4253284 C98.024594,32.3066505 97.8986328,32.0881865 97.898376,31.8517505 L97.898376,27.9038811 C97.898491,27.6680827 98.0246138,27.4503238 98.2290876,27.3328869 L101.667971,25.3460338 C101.872472,25.2273464 102.124893,25.2273464 102.329394,25.3460338 L105.757943,27.3225522 C105.962417,27.4399891 106.08854,27.6577479 106.088655,27.8935464 L106.088655,31.0043021 C106.087692,31.2409623 106.213735,31.459957 106.418853,31.5780065 C106.623971,31.696056 106.876645,31.6950215 107.080789,31.5752963 L113.63818,27.7721132 Z" id="Path" fill="#333333"></path>
                    <path d="M101.936674,27.1804496 C102.016614,27.1342965 102.115103,27.1342965 102.195043,27.1804496 L104.295578,28.3921974 C104.373257,28.4382473 104.421257,28.5215121 104.422178,28.6118106 L104.422178,31.03789 C104.421257,31.1281884 104.373257,31.2114533 104.295578,31.2575032 L102.195043,32.469251 C102.115103,32.5154041 102.016614,32.5154041 101.936674,32.469251 L99.8361391,31.2626705 C99.7584599,31.2166206 99.7104601,31.1333558 99.7095386,31.0430574 L99.7095386,28.616978 C99.7104601,28.5266795 99.7584599,28.4434147 99.8361391,28.3973648 L101.936674,27.1804496 Z" id="Path" fill="#679E63"></path>
                    <path d="M42.8400668,16.1713714 C42.4341177,15.9363796 41.9335045,15.9363796 41.5275553,16.1713714 L30.6399103,22.4523076 C30.2337507,22.6880324 29.9836545,23.1221042 29.9836545,23.5917123 L29.9836545,36.1716704 C29.9836545,36.6412785 30.2337507,37.0753503 30.6399103,37.3110751 L41.5249716,43.5971786 C41.9326629,43.8325593 42.4349592,43.8325593 42.8426505,43.5971786 L53.7251281,37.3110751 C54.1312877,37.0753503 54.3813839,36.6412785 54.3813839,36.1716704 L54.3813839,23.5917123 C54.3813839,23.1221042 54.1312877,22.6880324 53.7251281,22.4523076 L42.8400668,16.1713714 Z" id="Path" fill="url(#linearGradient-1)"></path>
                    <g id="Group" transform="translate(29.890642, 13.775004)">
                        <path d="M11.6136602,2.39636705 L0.705345772,8.6773032 C0.286306055,8.90672982 0.0185051293,9.33933131 0,9.81670791 L0,22.396666 C0.00775833813,22.7079645 0.129053086,23.005688 0.341046307,23.2337797 L12.5980439,2.26459915 C12.2651606,2.18064101 11.9127429,2.22781503 11.6136602,2.39636705 Z" id="Path"></path>
                        <path d="M12.6574686,29.9436074 C12.7650749,29.9151077 12.8684524,29.8725405 12.964927,29.8170069 L23.8629068,23.5309034 C24.2755764,23.2982531 24.5348654,22.8651227 24.5449994,22.3914987 L24.5449994,9.81670791 C24.5394725,9.47176169 24.3962022,9.14335656 24.147112,8.90466741 L12.6574686,29.9436074 Z" id="Path"></path>
                        <path d="M23.8499884,8.6773032 L12.9390902,2.39636705 C12.8319831,2.335801 12.7172951,2.28975203 12.5980439,2.25943179 L0.338462623,23.2286123 C0.444225875,23.3479114 0.568020111,23.4499108 0.705345772,23.5309034 L11.6394971,29.8170069 C11.9475545,29.9928641 12.3130777,30.0384382 12.6548849,29.9436074 L24.1445283,8.90466741 C24.0575506,8.815381 23.95839,8.73883591 23.8499884,8.6773032 Z" id="Path" fill="url(#linearGradient-2)" fill-rule="nonzero"></path>
                        <path d="M24.5449994,22.396666 L24.5449994,9.81670791 C24.5316962,9.34055444 24.2672639,8.9070427 23.8499884,8.6773032 L12.9390902,2.39636705 C12.8143534,2.32613563 12.6791384,2.27641137 12.5386192,2.24909705 L24.5062441,22.6937897 C24.5304849,22.5965569 24.5434884,22.4968636 24.5449994,22.396666 Z" id="Path"></path>
                        <path d="M0.705345772,8.6773032 C0.286306055,8.90672982 0.0185051293,9.33933131 0,9.81670791 L0,22.396666 C0.0195430555,22.874424 0.288258373,23.3069184 0.707929456,23.5360707 L11.6420808,29.8221743 C11.8974426,29.9671994 12.1933522,30.0243843 12.4843618,29.9849464 L0.769937876,8.64113163 L0.705345772,8.6773032 Z" id="Path"></path>
                        <polygon id="Path" fill="url(#linearGradient-3)" fill-rule="nonzero" points="11.2726139 0.0865534189 11.1227602 0.171814996 11.3217039 0.171814996"></polygon>
                        <path d="M23.8629068,23.5309034 C24.1791001,23.3473332 24.4102369,23.046577 24.5062441,22.6937897 L12.5386192,2.24392968 C12.2226406,2.17929787 11.8939423,2.23163252 11.6136602,2.39119968 L0.762186823,8.63596426 L12.4817781,29.979779 C12.6507643,29.9561707 12.8137935,29.9009511 12.9623434,29.8170069 L23.8629068,23.5309034 Z" id="Path" fill="url(#linearGradient-4)" fill-rule="nonzero"></path>
                        <polygon id="Path" fill="url(#linearGradient-5)" fill-rule="nonzero" points="24.875711 23.3267923 24.8033678 23.2053592 24.8033678 23.3681313"></polygon>
                        <path d="M23.8629068,23.5309034 L12.964927,29.8170069 C12.8163772,29.9009511 12.653348,29.9561707 12.4843618,29.979779 L12.7013913,30.3750827 L24.8033678,23.3681313 L24.8033678,23.2053592 L24.5062441,22.6886223 C24.4114522,23.0433285 24.1801749,23.3461253 23.8629068,23.5309034 L23.8629068,23.5309034 Z" id="Path" fill="url(#linearGradient-6)" fill-rule="nonzero"></path>
                        <path d="M23.8629068,23.5309034 L12.964927,29.8170069 C12.8163772,29.9009511 12.653348,29.9561707 12.4843618,29.979779 L12.7013913,30.3750827 L24.8033678,23.3681313 L24.8033678,23.2053592 L24.5062441,22.6886223 C24.4114522,23.0433285 24.1801749,23.3461253 23.8629068,23.5309034 L23.8629068,23.5309034 Z" id="Path" fill="url(#linearGradient-7)" fill-rule="nonzero"></path>
                    </g>
                </g>
            </g>
        </g>
    </g>
</svg>