<?xml version="1.0" encoding="UTF-8"?>
<svg width="132px" height="25px" viewBox="0 0 132 25" version="1.1" xmlns="http://www.w3.org/2000/svg" xmlns:xlink="http://www.w3.org/1999/xlink">
    <title>46307340-8C7A-49AC-9628-89A629FA2014</title>
    <defs>
        <polygon id="path-1" points="0 24.6645879 132 24.6645879 132 0 0 0"></polygon>
    </defs>
    <g id="Page-1" stroke="none" stroke-width="1" fill="none" fill-rule="evenodd">
        <g id="landing" transform="translate(-605.000000, -3409.000000)">
            <g id="our-customers" transform="translate(412.000000, 3173.000000)">
                <g id="row-2" transform="translate(39.000000, 221.000000)">
                    <g id="polpharma-logo" transform="translate(154.000000, 15.000000)">
                        <g id="g14-Clipped" transform="translate(66.000000, 12.332294) scale(-1, 1) rotate(-180.000000) translate(-66.000000, -12.332294) translate(0.000000, 0.000000)">
                            <mask id="mask-2" fill="white">
                                <use xlink:href="#path-1"></use>
                            </mask>
                            <g id="path16"></g>
                            <g id="g14" mask="url(#mask-2)">
                                <g transform="translate(-0.000076, -0.000029)">
                                    <g id="g20">
                                        <path d="M95.1717304,14.4483691 C94.7010508,14.9570277 94.2293973,15.2128178 92.6690131,15.209284 L88.4442574,15.209284 C87.3435162,15.209284 86.7267636,14.5240024 86.4047538,13.7244962 C86.4047538,13.7244962 86.3408063,13.5660882 86.4589631,13.4261827 C86.5232352,13.3511986 86.5920518,13.3044552 86.7481876,13.2982877 L91.6413084,13.2982877 C93.1257347,13.2982877 92.8115154,12.4319125 92.545338,11.6797989 L88.9574605,11.6797989 C85.9025873,11.6797989 84.6242862,10.907235 83.9357955,8.79501949 C83.4793985,7.52905352 83.9276803,6.23354834 85.9863358,6.23354834 L90.7638966,6.23517137 C91.0391631,6.24263732 91.7584914,6.25010328 92.5151495,6.57957904 C93.50098,7.00968286 93.7424873,7.78776503 93.9142042,8.18475897 L95.2684632,11.9411072 C95.4680963,12.4893679 95.5635307,12.950634 95.5645419,13.3369159 C95.5671014,13.8114908 95.4343372,14.1653121 95.1717304,14.4483691 M91.5828792,9.01120753 C91.3397488,8.44639194 90.8969853,8.08835079 90.1526623,8.03706294 L87.8275048,8.03706294 C87.0831817,8.0299216 86.4008585,8.08153405 86.6170465,8.78950118 C86.8682921,9.61627434 87.3571497,9.9847029 88.4987913,9.9847029 L91.9367005,9.98372908 L91.5828792,9.01120753 Z M131.60753,14.4483691 C131.135876,14.9570277 130.665846,15.2128178 129.105462,15.209284 L124.879732,15.209284 C123.778666,15.209284 123.163537,14.5240024 122.841202,13.7244962 C122.841202,13.7244962 122.778228,13.5660882 122.895736,13.4261827 C122.959359,13.3511986 123.027851,13.3044552 123.183987,13.2982877 L128.076458,13.2982877 C129.562508,13.2982877 129.247639,12.4319125 128.981137,11.6797989 L125.392611,11.6797989 C122.337413,11.6797989 121.060085,10.907235 120.371595,8.79501949 C119.915847,7.52905352 120.36283,6.23354834 122.42181,6.23354834 L127.199696,6.23517137 C127.475936,6.24263732 128.195264,6.25010328 128.951923,6.57957904 C129.937753,7.00968286 130.178287,7.78776503 130.350328,8.18475897 L131.704587,11.9411072 C131.903896,12.4893679 132.000026,12.950634 132.000026,13.3369159 C132.002901,13.8114908 131.870136,14.1653121 131.60753,14.4483691 M128.019652,9.01120753 C127.775548,8.44639194 127.332785,8.08835079 126.589111,8.03706294 L124.263629,8.03706294 C123.518981,8.0299216 122.836982,8.08153405 123.054144,8.78950118 C123.304091,9.61627434 123.793923,9.9847029 124.935564,9.9847029 L128.372824,9.98372908 L128.019652,9.01120753 Z M10.0186391,5.0279592 L6.74108561,5.0279592 C7.53896878,7.09992351 8.66210782,9.33354194 10.0793405,11.5827415 L0.900113363,11.5827415 C-0.347999246,8.48534474 -0.345402393,5.45579078 1.20556823,3.20399438 C4.36042036,-1.37523178 12.7232618,-1.00128491 19.8844093,4.03953192 C22.9597328,6.20335992 25.3118326,8.87487273 26.7472433,11.5827415 L13.3559201,11.5827415 C11.9396613,9.33354194 10.8165222,7.09992351 10.0186391,5.0279592 M54.9941903,14.2844427 C54.3206315,14.9959805 53.194571,15.390053 51.6838516,15.3865064 C48.4329158,15.377718 45.6809006,13.5644652 44.6609865,10.7345443 C44.4470707,10.1460324 44.3438457,9.60199165 44.3396259,9.10534346 C44.3334583,8.3373241 44.568149,7.69492752 45.0355825,7.19405944 C45.7081675,6.48252165 46.8355265,6.08877377 48.3455967,6.09232037 C51.5975062,6.10110882 54.3488722,7.91371241 55.3684618,10.7433087 C55.5817283,11.3321452 55.6862517,11.8758613 55.6888485,12.3731587 C55.6969637,13.1411781 55.4609747,13.7838993 54.9941903,14.2844427 M52.63008,10.7543453 C52.0191702,9.04723887 50.6710788,7.97311543 49.0142864,7.96824633 C48.3644238,7.96824633 47.8392103,8.12990045 47.5197973,8.47300969 C47.2679025,8.74210861 47.1549394,9.10534346 47.1581855,9.53025358 C47.1604577,9.88407484 47.2412848,10.280095 47.3983944,10.7244815 C48.010278,12.4302895 49.3580448,13.5053867 51.0151618,13.5105804 C51.665349,13.5105804 52.1899133,13.3482771 52.5099755,13.0051679 C52.7625195,12.7357443 52.8741842,12.3728341 52.8722616,11.9488978 C52.8693151,11.5944273 52.7888126,11.1980826 52.63008,10.7543453 M43.1635759,14.3220971 C42.5633782,14.9703366 41.6022179,15.2550166 39.7152794,15.2550166 L38.3123294,15.2550166 C36.1708993,15.2550166 34.8776663,14.2857412 34.269678,12.8048856 L30.7447743,3.34617209 C30.7220519,3.27638166 30.7330885,3.20399438 30.7678214,3.14848664 C30.7872978,3.11927204 30.8103449,3.09719878 30.8447532,3.07609935 C30.9138944,3.03552352 30.9677791,3.03292667 31.0236114,3.0248115 C31.2722601,2.99170162 31.8997248,2.98001578 32.5979537,3.27800469 C33.507177,3.66526044 33.8671658,4.44399182 33.957731,4.68160389 L34.2131965,5.36295327 C34.4956043,5.96477402 35.0315299,6.30171574 35.8959574,6.2900299 L36.7821336,6.2952236 C38.554486,6.29457439 39.8512896,6.48771535 41.2905955,7.63227844 C42.3212216,8.45710396 42.9847177,9.45364641 43.4157953,10.6459267 C43.6569781,11.3126688 43.7978573,11.9391596 43.8024018,12.476059 C43.8053233,12.7045821 43.7829254,12.921744 43.7433234,13.1252723 C43.6534074,13.5797217 43.4602664,14.0039826 43.1635759,14.3220971 M41.0964807,11.7132334 C40.5868483,9.28420173 39.0715844,8.15359673 36.9960494,8.15359673 L35.5694031,8.15359673 C35.4145657,8.15359673 35.2850477,8.12730359 35.2850477,8.12730359 L36.8613376,12.3562792 C37.0986251,12.9938066 37.696226,13.3791148 38.4058161,13.3791148 L39.061197,13.3791148 C39.6208188,13.3791148 41.4642601,13.4687062 41.0964807,11.7132334 M83.4391473,14.5003062 C82.9678184,15.0083156 82.0569722,15.2702732 80.4959387,15.2657287 L78.3859954,15.2657287 C78.1905822,15.2657287 78.0324988,15.2296973 78.0324988,15.2296973 L79.2020566,18.4887482 C79.2020566,18.4887482 79.204978,18.5033555 79.1984859,18.5104968 C79.1910199,18.5176382 79.1796587,18.5167091 79.1796587,18.5167091 C77.3767933,18.4945911 76.4341356,18.048257 75.9572884,16.899474 L72.2525526,6.61398734 C72.2301547,6.5438723 72.243139,6.47278345 72.2781965,6.41727571 C72.2979975,6.38708729 72.3210446,6.36436482 72.3561021,6.3439146 C72.4258925,6.30268956 72.4797772,6.30074192 72.5362588,6.29360057 C72.7845829,6.25984148 73.4120476,6.24880485 74.1067058,6.54646916 C75.0113846,6.93404951 75.3606614,7.7134301 75.4489544,7.95006836 L77.0778306,12.4682685 C77.1709927,12.730226 77.3410866,12.9347282 77.5420181,13.089241 C77.7143843,13.2259004 78.0139962,13.3502248 78.2399224,13.3502248 L79.5841186,13.3502248 C80.2115833,13.3421096 80.6121479,13.2963401 80.8581998,13.0528851 C80.9718121,12.9285607 81.0146602,12.7688542 81.0101157,12.5880483 C81.0101157,12.3608237 80.9445451,12.0836096 80.8137286,11.7271915 L78.9732089,6.61398734 C78.9504864,6.5438723 78.9621723,6.47278345 78.9985282,6.41727571 C79.0186538,6.38708729 79.0410517,6.36436482 79.0751354,6.3439146 C79.145575,6.30268956 79.1994597,6.30074192 79.2559413,6.29360057 C79.5042654,6.25984148 80.1317301,6.24880485 80.8270375,6.54646916 C81.7310671,6.93404951 81.9904278,7.7134301 82.0787208,7.95006836 L83.5358801,11.9927197 C83.7361624,12.541305 83.8312722,13.0019218 83.8326078,13.388853 C83.8351674,13.8624541 83.7017541,14.2162753 83.4391473,14.5003062 M62.5964783,18.5104968 C62.5899861,18.5176382 62.5783003,18.5167091 62.5783003,18.5167091 C60.7757595,18.4945911 59.7896045,18.048257 59.3124327,16.899474 L55.6086707,6.61398734 C55.586922,6.5438723 55.5986079,6.47278345 55.63399,6.41727571 C55.653791,6.38708729 55.6761889,6.36436482 55.7112464,6.3439146 C55.7810368,6.30268956 55.8358953,6.30074192 55.8917277,6.29360057 C56.1394026,6.25984148 56.7671919,6.24880485 57.4624993,6.54646916 C58.3665289,6.93404951 58.7171041,7.7134301 58.8050725,7.95006836 L62.6006981,18.4887482 C62.6006981,18.4887482 62.603295,18.5033555 62.5964783,18.5104968 M105.999959,15.0592788 C106.00775,15.1248494 106.005802,15.1995089 105.958085,15.2563151 L101.717099,15.2550166 C99.575669,15.2550166 98.2947711,14.2857412 97.7052854,12.8048856 L95.4755623,6.61398734 C95.4541382,6.5438723 95.4651749,6.47278345 95.5018554,6.41727571 C95.5210072,6.38708729 95.5434051,6.36436482 95.579761,6.3439146 C95.648253,6.30268956 95.7031115,6.30074192 95.7592685,6.29360057 C96.0069434,6.25984148 96.6353819,6.24880485 97.3290663,6.54646916 C98.2337451,6.93404951 98.5836711,7.7134301 98.6716395,7.95006836 L100.30084,12.4682685 C100.39595,12.730226 100.564096,12.9347282 100.764379,13.089241 C100.937719,13.2259004 101.237331,13.3502248 101.461958,13.3502248 C101.519089,13.3502248 103.869891,13.350874 103.869891,13.350874 C105.076778,13.350874 105.84642,14.0955217 105.999959,15.0592788 M72.2590447,13.1252723 C72.1694533,13.5797217 71.9759877,14.0039826 71.678648,14.3220971 C71.0774765,14.9703366 70.1169654,15.2550166 68.2303515,15.2550166 L66.8280507,15.2550166 C64.6866205,15.2550166 63.3937122,14.2857412 62.7853993,12.8048856 L59.2604956,3.34617209 C59.2361501,3.27638166 59.2484852,3.20399438 59.2835427,3.14848664 C59.3026945,3.11927204 59.3247677,3.09719878 59.3598252,3.07609935 C59.4286419,3.03552352 59.4835004,3.03292667 59.5390081,3.0248115 C59.7879814,2.99170162 60.4154461,2.98001578 61.1133504,3.27800469 C62.0228983,3.66526044 62.3819133,4.44399182 62.4737769,4.68160389 L62.7285932,5.36295327 C63.0097025,5.96477402 63.5469266,6.30171574 64.4113541,6.2900299 L65.2978549,6.2952236 C67.0698826,6.29457439 68.3666863,6.48771535 69.8056676,7.63227844 C70.8356445,8.45710396 71.4997897,9.45364641 71.9308674,10.6459267 C72.1720501,11.3126688 72.3126048,11.9391596 72.3177985,12.476059 C72.3203954,12.7045821 72.2986467,12.921744 72.2590447,13.1252723 M69.6112282,11.7132334 C69.1019203,9.28420173 67.5873057,8.15359673 65.5114461,8.15359673 L64.0841506,8.15359673 C63.9299624,8.15359673 63.800769,8.12730359 63.800769,8.12730359 L65.3770589,12.3562792 C65.6136972,12.9938066 66.2116226,13.3791148 66.921862,13.3791148 L67.5749706,13.3791148 C68.1365401,13.3791148 69.9796567,13.4687062 69.6112282,11.7132334 M120.062245,14.5003062 C119.59189,15.0083156 118.679745,15.2647548 117.120334,15.2609033 L110.017291,15.2609033 C107.875861,15.2609033 106.59399,14.2857412 106.003855,12.8048856 L103.774781,6.61398734 C103.753357,6.5438723 103.765043,6.47278345 103.801074,6.41727571 C103.819252,6.38708729 103.843922,6.36436482 103.877681,6.3439146 C103.946822,6.30268956 104.001356,6.30074192 104.057838,6.29360057 C104.306811,6.25984148 104.933627,6.24880485 105.629259,6.54646916 C106.533288,6.93404951 106.882565,7.7134301 106.971832,7.95006836 L108.600708,12.4682685 C108.693545,12.730226 108.863964,12.9347282 109.062948,13.089241 C109.236612,13.2259004 109.5359,13.3502248 109.762475,13.3502248 L112.04446,13.3502248 L109.623219,6.61398734 C109.600821,6.5438723 109.613156,6.47278345 109.649512,6.41727571 C109.668664,6.38708729 109.691062,6.36436482 109.726768,6.3439146 C109.796234,6.30268956 109.850444,6.30074192 109.906276,6.29360057 C110.156223,6.25984148 110.782389,6.24880485 111.478346,6.54646916 C112.382051,6.93404951 112.641087,7.7134301 112.72938,7.95006836 L114.110906,11.7703641 C114.473167,12.7750218 114.790308,13.3502248 115.786526,13.3502248 L116.205593,13.3502248 C116.835005,13.3421096 117.236544,13.2963401 117.481622,13.0528851 C117.595883,12.9285607 117.638082,12.7688542 117.632888,12.5880483 C117.632888,12.3608237 117.566669,12.0836096 117.436177,11.7271915 L115.595657,6.61398734 C115.574557,6.5438723 115.585269,6.47278345 115.622275,6.41727571 C115.640777,6.38708729 115.664149,6.36436482 115.699531,6.3439146 C115.769321,6.30268956 115.822882,6.30074192 115.878714,6.29360057 C116.127687,6.25984148 116.755477,6.24880485 117.450135,6.54646916 C118.354489,6.93404951 118.61385,7.7134301 118.701818,7.95006836 L120.159302,11.9927197 C120.359584,12.541305 120.454045,13.0019218 120.456327,13.388853 C120.457615,13.8624541 120.325825,14.2162753 120.062245,14.5003062" id="path22" fill="#034694" fill-rule="nonzero"></path>
                                    </g>
                                    <g id="g24" transform="translate(2.050000, 13.880307)">
                                        <path d="M9.57816873,0 L12.8557222,0 C14.4609021,2.22907394 16.172553,4.17022177 17.8530417,5.72573688 L14.5745144,5.72573688 C12.8937012,4.17022177 11.1826994,2.22907394 9.57816873,0 M25.0904718,7.57989013 C21.9356197,12.1591163 13.5727783,11.7858186 6.41130615,6.74467719 C3.63981448,4.79411577 1.45586087,2.43065467 0,0 L4.56948796,0 C5.51571637,1.64770341 6.81122155,3.26391997 8.41997216,4.71231489 C13.8600552,9.61355085 20.8160513,10.7467527 23.9549977,7.24164999 C25.5549839,5.45598875 25.8542713,2.8120675 25.0447023,0 L25.6909941,0 C26.6326781,2.81531357 26.5083537,5.52220851 25.0904718,7.57989013" id="path26" fill="#7DB1DF" fill-rule="nonzero"></path>
                                    </g>
                                </g>
                            </g>
                        </g>
                    </g>
                </g>
            </g>
        </g>
    </g>
</svg>