<?xml version="1.0" encoding="UTF-8"?>
<svg width="55px" height="55px" viewBox="0 0 55 55" version="1.1" xmlns="http://www.w3.org/2000/svg" xmlns:xlink="http://www.w3.org/1999/xlink">
    <title>4F46A710-645C-48B0-A2B3-FF809C8D6495</title>
    <defs>
        <radialGradient cx="-89.3326335%" cy="-29.9852488%" fx="-89.3326335%" fy="-29.9852488%" r="453.262484%" gradientTransform="translate(-0.893326,-0.299852),scale(1.000000,0.510851),translate(0.893326,0.299852)" id="radialGradient-1">
            <stop stop-color="#84D0F0" offset="0%"></stop>
            <stop stop-color="#00A8E4" offset="15%"></stop>
            <stop stop-color="#0078BE" offset="33.3%"></stop>
            <stop stop-color="#00509E" offset="50%"></stop>
            <stop stop-color="#001C54" offset="100%"></stop>
        </radialGradient>
        <radialGradient cx="-12.7438045%" cy="-113.908993%" fx="-12.7438045%" fy="-113.908993%" r="538.376703%" gradientTransform="translate(-0.127438,-1.139090),scale(1.000000,0.878014),translate(0.127438,1.139090)" id="radialGradient-2">
            <stop stop-color="#84D0F0" offset="0%"></stop>
            <stop stop-color="#00A8E4" offset="15%"></stop>
            <stop stop-color="#0078BE" offset="33.3%"></stop>
            <stop stop-color="#00509E" offset="50%"></stop>
            <stop stop-color="#001C54" offset="100%"></stop>
        </radialGradient>
        <radialGradient cx="-219.731862%" cy="-107.078342%" fx="-219.731862%" fy="-107.078342%" r="530.401306%" gradientTransform="translate(-2.197319,-1.070783),scale(1.000000,0.849336),translate(2.197319,1.070783)" id="radialGradient-3">
            <stop stop-color="#84D0F0" offset="0%"></stop>
            <stop stop-color="#00A8E4" offset="15%"></stop>
            <stop stop-color="#0078BE" offset="33.3%"></stop>
            <stop stop-color="#00509E" offset="50%"></stop>
            <stop stop-color="#001C54" offset="100%"></stop>
        </radialGradient>
        <radialGradient cx="20.9228378%" cy="18.0193775%" fx="20.9228378%" fy="18.0193775%" r="92.3236374%" id="radialGradient-4">
            <stop stop-color="#84D0F0" offset="0%"></stop>
            <stop stop-color="#00A8E4" offset="15%"></stop>
            <stop stop-color="#0078BE" offset="33.3%"></stop>
            <stop stop-color="#00509E" offset="50%"></stop>
            <stop stop-color="#001C54" offset="100%"></stop>
        </radialGradient>
    </defs>
    <g id="Page-1" stroke="none" stroke-width="1" fill="none" fill-rule="evenodd">
        <g id="landing" transform="translate(-1222.000000, -3394.000000)" fill-rule="nonzero">
            <g id="our-customers" transform="translate(412.000000, 3173.000000)">
                <g id="row-2" transform="translate(39.000000, 221.000000)">
                    <g id="pzu" transform="translate(771.000000, 0.000000)">
                        <polygon id="polygon20" fill="url(#radialGradient-1)" points="21.8856688 16.5389754 22.4939476 19.6555556 27.7259217 19.6555556 27.7067614 19.7098835 21.3685833 38.6451089 32.6615176 38.6451089 31.9205719 35.3272244 26.1843666 35.3272244 26.2027993 35.2745942 32.3209978 16.5389754"></polygon>
                        <path d="M18.086594,22.1456668 L12.7100687,22.1456668 L13.0923046,24.6845276 L13.0923046,32.8880456 L16.1082325,32.8880456 L16.1082325,30.3120769 L16.1482509,30.3120769 C16.1482509,30.3120769 17.908573,30.3142598 18.086594,30.3142598 C20.2905133,30.3142598 22.1420287,28.4067187 22.1420287,26.2042545 C22.1420287,23.9981523 20.2905133,22.1456668 18.086594,22.1456668 L18.086594,22.1456668 Z M17.8181073,27.9313492 C17.7987044,27.9313492 16.1482509,27.9347447 16.1482509,27.9347447 L16.1082325,27.9347447 L16.1082325,24.6898633 L16.1482509,24.6898633 C16.1482509,24.6898633 17.7620816,24.6867104 17.8181073,24.6867104 C18.6635857,24.6867104 19.4093822,25.4300814 19.4093822,26.2750749 C19.4091396,27.125404 18.6635857,27.9313492 17.8181073,27.9313492 L17.8181073,27.9313492 Z" id="path33" fill="url(#radialGradient-2)"></path>
                        <path d="M39.1287246,28.521923 C39.1287246,29.524807 38.3091974,30.2800623 37.3747084,30.2800623 C36.4402194,30.2800623 35.6214198,29.524807 35.6214198,28.521923 C35.6214198,28.436308 35.6245728,22.4769702 35.6253004,21.8919747 L32.5802682,22.3857768 L32.5802682,28.378342 C32.5802682,31.072183 34.7509602,33.1829687 37.3749509,33.1829687 C39.9989417,33.1829687 42.1701188,31.0724255 42.1701188,28.378342 L42.1701188,21.8922173 L39.1219336,22.3860194 C39.1224187,22.8769111 39.1287246,28.4404311 39.1287246,28.521923 L39.1287246,28.521923 Z" id="path46" fill="url(#radialGradient-3)"></path>
                        <path d="M27.5025466,0 C12.3375343,0.00315296048 0,12.3416574 0,27.5037593 C0,42.664891 12.3375343,55 27.5025466,55 C42.6627082,55 54.9980597,42.664891 55,27.5037593 C54.9980597,12.3416574 42.6624657,0.00291042505 27.5025466,0 Z M27.5030317,46.8374704 C16.8571819,46.8212205 8.18144736,38.1462136 8.16277214,27.5015765 C8.18144736,16.8574245 16.8574245,8.18193243 27.5025466,8.16301467 L27.5030317,8.16301467 C38.1428181,8.18193243 46.8170974,16.8574245 46.8398958,27.5015765 C46.8168549,38.1462136 38.1428181,46.820978 27.5030317,46.8374704 L27.5030317,46.8374704 Z" id="path59" fill="url(#radialGradient-4)"></path>
                    </g>
                </g>
            </g>
        </g>
    </g>
</svg>