<?xml version="1.0" encoding="UTF-8"?>
<svg width="58px" height="55px" viewBox="0 0 58 55" version="1.1" xmlns="http://www.w3.org/2000/svg" xmlns:xlink="http://www.w3.org/1999/xlink">
    <title>C0386329-ADB4-4390-AB68-A39CE7C7A0A4</title>
    <g id="Page-1" stroke="none" stroke-width="1" fill="none" fill-rule="evenodd">
        <g id="landing" transform="translate(-1028.000000, -3299.000000)" fill="#005794" fill-rule="nonzero">
            <g id="our-customers" transform="translate(412.000000, 3173.000000)">
                <g id="row-1" transform="translate(0.000000, 126.000000)">
                    <g id="pzw-logo" transform="translate(616.000000, 0.000000)">
                        <path d="M7.46827371,45.9304769 C8.22938261,45.9304769 8.97273553,46.1257929 9.69833248,46.5164252 C10.4145276,46.8983902 11.003622,47.4811467 11.3933115,48.1931683 C12.199118,49.5945225 12.2025872,51.3178032 11.4024295,52.7223904 C11.0150696,53.431645 10.4320616,54.014653 9.72280701,54.4020129 C8.32364069,55.199329 6.6076279,55.199329 5.2084616,54.4020129 C4.49992269,54.0136977 3.91715425,53.4309292 3.52883911,52.7223904 C2.72402369,51.3190816 2.7273149,49.5933971 3.53747717,48.1931683 C3.92885195,47.481265 4.51896226,46.8986582 5.23581545,46.5164252 C5.96237216,46.1257929 6.7065249,45.9304769 7.46827371,45.9304769 Z M7.46827371,46.6815081 C6.81653988,46.6859806 6.1765202,46.8551888 5.60773186,47.1733975 C5.01073208,47.4939662 4.5191107,47.9802547 4.19205005,48.5737228 C3.51437342,49.7399286 3.51107976,51.1792593 4.18341199,52.3485544 C4.50922398,52.9384544 4.9958262,53.4237253 5.58661661,53.7479199 C6.75160561,54.417228 8.18446191,54.417228 9.34945089,53.7479199 C9.9404063,53.4237294 10.4265455,52.9375902 10.750736,52.3466348 C11.4188761,51.176183 11.4154047,49.7390136 10.741618,48.5718032 C10.4152195,47.978156 9.92317428,47.4922802 9.32545627,47.1733975 C8.72047223,46.8457911 8.1014114,46.681828 7.46827371,46.6815081 Z M5.47864088,52.9748137 L5.47864088,48.0943105 L7.15538405,48.0943105 C7.72837522,48.0943105 8.14316199,48.1394204 8.39974436,48.2296401 C8.65047627,48.3151912 8.86602692,48.4809865 9.01304652,48.7013741 C9.16047153,48.9107765 9.24019266,49.1603238 9.24147517,49.4164134 C9.24414541,49.7660721 9.10574343,50.1020429 8.85756141,50.3483639 C8.601619,50.6129445 8.26409484,50.7612312 7.844989,50.793224 C7.9978594,50.8531336 8.13840657,50.9406502 8.25961587,51.0514059 C8.45573178,51.2433628 8.69567783,51.5660102 8.97945408,52.0193484 L9.5745203,52.9748137 L8.61473603,52.9748137 L8.18283311,52.2069862 C7.84210967,51.6020022 7.56761136,51.2233673 7.35933817,51.0710815 C7.21537053,50.9587867 7.0050178,50.9026394 6.72828001,50.9026394 L6.26566399,50.9026394 L6.26566399,52.9762533 L5.47864088,52.9748137 Z M6.26614389,50.227911 L7.22160911,50.227911 C7.67846648,50.227911 7.99007644,50.1597663 8.156439,50.0234769 C8.43093228,49.7926849 8.48666279,49.3917983 8.28553,49.0948856 C8.20220716,48.9785209 8.08608794,48.8896354 7.95200496,48.839583 C7.8099569,48.7832757 7.54649614,48.755282 7.16162263,48.7555965 L6.26614389,48.7555965 L6.26614389,50.227911 Z" id="Shape"></path>
                        <path d="M29.5375535,2.84048159 L38.776437,2.84048159 C39.1051631,2.84048159 39.1066028,2.84048159 38.9424797,3.12841687 C37.9750171,4.82275606 37.0078745,6.51629543 36.0410518,8.20903497 C36.0064996,8.26950136 35.9853843,8.34292488 35.8937249,8.38419563 C35.8327786,8.27142094 35.8582129,8.16632456 35.8601325,8.06650699 C35.8870064,6.8994093 35.9138804,5.73231163 35.9498723,4.56329437 C35.9551511,4.3847745 35.9076418,4.32862712 35.7248029,4.33198636 C35.021281,4.34398366 34.3167993,4.34926248 33.6132775,4.33774507 C33.3910874,4.33390593 33.3296612,4.40588975 33.3253422,4.62040154 C33.2874307,5.87531949 33.2346425,7.12927768 33.1900126,8.38371572 C33.1314657,10.0377439 33.0749985,11.6917722 33.0206107,13.3458005 C33.0195177,13.5049423 32.9778978,13.661182 32.8996778,13.7997784 C30.0990273,18.7193127 27.3026958,23.6396468 24.5106833,28.5607808 C24.3575978,28.8300003 24.3575978,28.83144 24.6704874,28.8290405 C25.4219985,28.8228019 26.1739895,28.8108046 26.9259805,28.8084051 C31.8928641,28.7946482 36.8595878,28.7831308 41.8261515,28.7738529 C42.0267465,28.7738529 42.1404809,28.7143463 42.2369393,28.5339068 C42.6328503,27.7852751 43.0465173,27.0462412 43.4534659,26.3028883 C43.5820769,26.0691808 43.5820769,26.0677412 43.314777,26.0672613 L38.3238987,26.0629422 C35.3408892,26.0607027 32.3577197,26.0583032 29.3743902,26.0557439 C29.0864549,26.0557439 29.072538,26.0370281 29.1886719,25.8311543 C30.3583291,23.7564206 31.5295858,21.6824868 32.7024421,19.6093527 C32.7293162,19.5613635 32.7369944,19.4783421 32.8262543,19.496578 C32.8262543,19.8416205 32.8358522,20.1847434 32.8262543,20.5269065 C32.7872231,21.7013625 32.743393,22.8754986 32.6947639,24.0493148 C32.6880454,24.2100786 32.7427531,24.2523091 32.9001578,24.2499097 C33.6281541,24.239832 34.3561505,24.2335933 35.083667,24.244151 C35.2756238,24.2470304 35.3677632,24.1784058 35.4541437,24.0195615 C36.0276148,22.9666781 36.6092441,21.9185937 37.1894337,20.8695495 C39.0722106,17.4639149 40.9557872,14.0582803 42.8401637,10.6526457 C42.8780751,10.5840212 42.891992,10.4861232 43.0138846,10.4635683 C43.0138846,10.5408309 43.0186835,10.6041767 43.0138846,10.6670425 C42.9111877,11.813025 42.8081709,12.9588475 42.7048341,14.1045099 C42.5998977,15.2735272 42.495921,16.4428643 42.3929042,17.6125215 C42.2898874,18.7821786 42.184791,19.9519957 42.0776151,21.1219727 C41.9921942,22.0769581 41.9106126,23.0319434 41.8189532,23.985969 C41.8002374,24.1779259 41.8631033,24.2321537 42.0526607,24.2302341 C42.7883353,24.2225558 43.5259296,24.1995211 44.2601645,24.244151 C44.7155821,24.2724647 44.9267347,24.1251378 45.1268498,23.705712 C48.1536894,17.3599383 51.1941261,11.020723 54.2481597,4.68806633 C54.3057467,4.5680933 54.3594946,4.44812026 54.4305187,4.29263521 C54.3095859,4.29263521 54.224165,4.29263521 54.1387443,4.29263521 C53.2830966,4.30799176 52.4279288,4.34062442 51.572761,4.33150647 C51.2848257,4.33150647 51.1470966,4.41788706 51.0232845,4.68230763 C49.0752423,8.82537644 47.1204816,12.9647661 45.1590025,17.1004766 C45.1258899,17.1705408 45.1138926,17.2650796 45.0039973,17.3087498 C45.0039973,17.2324469 44.9996783,17.1772593 45.0039973,17.1230315 C45.1092537,15.9137033 45.2151498,14.7042151 45.321686,13.494567 C45.4263024,12.3009153 45.5312389,11.1071036 45.6364952,9.91313198 C45.7425513,8.7277984 45.8534065,7.54294466 45.9594626,6.35809098 C46.0151301,5.73711055 46.0655187,5.11565023 46.1173471,4.4941899 C46.1259852,4.38861364 46.1418216,4.28255747 45.9733795,4.29407488 C45.103335,4.35310162 44.2308911,4.33054669 43.359407,4.34542334 C43.1842464,4.3483027 43.0762706,4.42172619 42.9850911,4.58201017 C40.6009869,8.76986893 38.2128837,12.9556481 35.8207813,17.1393478 C35.7809503,17.2089322 35.7559959,17.2967524 35.6648163,17.3313047 C35.600031,17.2391654 35.6269049,17.1489457 35.6278647,17.0640048 C35.6369826,16.2726626 35.6556984,15.4803607 35.6552185,14.6890186 C35.6565498,14.4581244 35.7200392,14.2318499 35.8390173,14.0339658 C38.4371532,9.43339978 41.0319301,4.83219394 43.6233476,0.230348228 C43.7462,0.0119973035 43.7442805,0.00863805857 43.484179,0.00863805857 C39.2048207,0.00671848998 34.9259425,0.00383913713 30.647544,0 C30.4618257,0 30.3644077,0.0479892141 30.2933836,0.231308013 C29.989132,1.01257242 29.6666445,1.78711833 29.3508754,2.56406371 C29.2390606,2.84000169 29.2395405,2.84048159 29.5375535,2.84048159 Z" id="Path"></path>
                        <path d="M53.276858,8.88664268 C53.1410485,8.68364832 53.022995,8.68844723 52.9035019,8.89720032 C52.8121429,9.06604039 52.7463218,9.24749289 52.7081858,9.4356393 C52.3722613,10.9146669 51.9681921,12.3768982 51.6097127,13.850647 C51.3433725,14.945281 51.0818313,16.0379954 50.6158561,17.0712031 C49.9195326,18.6097374 48.9885418,20.0014245 48.0009238,21.3619188 C46.9825926,22.7651234 45.9196316,24.1366552 44.9747239,25.5931278 C44.4684377,26.3729525 43.9875858,27.1633349 43.7294038,28.066012 C43.6814146,28.2339743 43.541766,28.4499257 43.70205,28.5785368 C43.8493769,28.6970702 44.0312559,28.5262286 44.1766633,28.4403279 C44.6994453,28.1229298 45.3090828,27.9786658 45.9186718,28.0281005 C46.4028829,28.066012 46.8304668,28.2550895 47.257091,28.4537649 C48.4635398,29.0147588 49.5269808,29.7653101 50.3101647,30.8618636 C50.9820137,31.8019723 51.2617908,32.8385394 51.0247241,33.9893207 C51.0060083,34.0809801 50.9944909,34.1735993 50.9042712,34.2393445 C50.5856229,34.4706525 50.2324222,34.486489 49.8964977,34.2743766 C49.6287179,34.1068943 49.5471363,34.1217709 49.3628577,34.3641165 C48.2207144,35.8652191 47.0785711,37.3666416 45.9364278,38.8683842 C45.8884386,38.9293305 45.7924602,38.9897968 45.8246129,39.06466 C45.859645,39.1496009 45.9748191,39.1424026 46.0588002,39.1496009 C47.0027481,39.2307027 47.9255807,39.1371237 48.8181801,38.8050384 C48.9093234,38.7748432 48.993744,38.7272548 49.0667642,38.6649099 C49.5826483,38.1974949 50.0850953,37.7171229 50.5217972,37.1724453 C51.31026,36.1891463 51.8386212,35.0609199 52.3453873,33.9211761 C52.7614538,32.9877858 53.0465098,32.0016075 53.525922,31.0931716 C54.2150471,29.7893047 55.007349,28.5698987 56.1974815,27.6581037 C56.2934599,27.5846802 56.2872214,27.5078974 56.2646664,27.4061603 C55.7396644,25.0738845 55.5980963,22.6984184 55.4704449,20.3210328 C55.4368525,19.697173 55.5313912,19.0761925 55.5184342,18.4528127 C55.5040374,17.596685 55.4541286,16.7434368 55.2381771,15.9093842 C54.6933396,13.8004183 54.1424234,11.692572 53.5854286,9.58584552 C53.5220451,9.33728315 53.4177658,9.1009922 53.276858,8.88664268 Z" id="Path"></path>
                        <path d="M18.1022037,24.1283756 C18.8781893,24.1174595 19.653695,24.1078616 20.4296806,24.1155399 C20.6379537,24.1155399 20.7176158,24.0353979 20.7814415,23.8511193 C21.3184408,22.313065 21.8679173,20.7798096 22.4049166,19.2407955 C22.4677824,19.060836 22.5517636,18.994131 22.7470797,18.9979701 C23.3944542,19.0109272 24.0427885,19.002769 24.690163,19.002769 L24.690163,19.0123668 C25.1700551,19.0123668 25.6499473,18.9965304 26.1298394,19.0152462 C27.6151056,19.0737931 28.7351739,18.4528127 29.5409127,17.2228491 C29.9142689,16.653697 30.1110246,16.0116013 30.3216973,15.3743045 C30.9004472,13.6241379 31.5823739,11.9051643 31.9768453,10.0983704 C32.1971158,9.08723763 32.4773727,8.07994397 32.3502013,7.02274157 C32.2307082,6.02840508 31.7791297,5.25721841 30.8903694,4.7634094 C30.3562495,4.46683605 29.7770197,4.3358255 29.1737953,4.28927596 C27.6554165,4.17218228 26.1351182,4.31902928 24.6196188,4.23744761 C24.3590374,4.22305084 24.2712172,4.32094884 24.1925148,4.55177696 C22.0032469,10.967455 20.0467266,17.4608755 17.9140859,23.8914303 C17.8392227,24.1136203 17.9208044,24.1304165 18.1022037,24.1283756 Z M23.2874382,15.808127 C23.8530712,14.0785957 24.4147049,12.3474649 24.9723396,10.6147343 C25.3241005,9.52873838 25.6797006,8.4437022 26.0242632,7.35530685 C26.0808904,7.1763071 26.1581531,7.100964 26.3601876,7.10432324 C27.0953824,7.11728038 27.8329766,7.1388755 28.5676915,7.09952433 C29.0715782,7.07265038 29.5514704,7.60485078 29.4574115,8.19079909 C29.3249613,9.01237444 29.0734978,9.80467635 28.854667,10.6046566 C28.4529973,12.0760059 27.9697459,13.5209611 27.4284275,14.9467207 C27.3454062,15.1655515 27.2163152,15.3579882 27.0891438,15.5509048 C26.8626347,15.8945076 26.5291096,16.0408747 26.1293596,16.0461536 C25.6816202,16.0523921 25.2338808,16.0461536 24.7856615,16.0461536 L24.7856615,16.0461536 C24.3460803,16.0461536 23.9060192,16.0370356 23.4669179,16.0499926 C23.2548056,16.0586307 23.2279317,15.9976844 23.2874382,15.808127 Z" id="Shape"></path>
                        <path d="M57.4955898,28.8386383 C57.4955898,28.6706761 57.4096891,28.6553196 57.2820378,28.6773946 C57.0617863,28.721512 56.8558726,28.8194405 56.6826525,28.9624505 C56.3592052,29.2110347 56.1365352,29.5435999 55.9114658,29.8742456 C55.1239628,31.0303057 54.5615292,32.30202 53.9981359,33.5737341 C53.4160267,34.8886386 52.8511937,36.2131409 52.0670499,37.4263082 C50.7564645,39.456252 48.9112791,40.5935964 46.5003011,40.8023495 C44.3485246,40.9942972 42.1824679,40.6567107 40.1911591,39.8190504 C39.7914089,39.6530078 39.7362213,39.5637478 39.7818111,39.1414427 C39.7976475,38.9974751 39.8470764,38.9163733 40.0126392,38.8986173 C40.2583439,38.8722232 40.5069281,38.8851804 40.7516731,38.8299927 C41.1096726,38.7484111 41.1667798,38.6658696 41.0487263,38.3208272 C40.8774048,37.8198198 40.6168234,37.3610429 40.3768773,36.8897888 C40.0366338,36.2179398 39.8624329,35.4957022 39.8010067,34.7528291 C39.74195,34.002632 39.7568988,33.2484428 39.8456367,32.5011752 C39.8744302,32.2444329 39.7741328,32.2132399 39.5802564,32.1777279 C38.0858722,31.9181062 36.5934077,31.6498466 35.0985437,31.3907048 C33.1044575,31.0538722 31.0892923,30.8566371 29.0677391,30.8004374 C27.9491105,30.7654053 26.8285624,30.7855608 25.7084941,30.7884401 C25.565534,30.7960414 25.4254486,30.7462947 25.3193016,30.6502312 C22.4241123,28.0842479 19.1968377,25.9756018 15.9431689,23.9111059 C13.9756112,22.6633863 11.8770428,21.6556128 9.78423315,20.6416007 C7.72741547,19.6443848 5.54774534,19.08723 3.29321206,18.7930562 C2.89874072,18.7412278 2.49563132,18.7052359 2.11555675,18.8952732 C1.86265359,19.0219647 1.82762146,19.08723 1.92072054,19.3665273 C2.00056844,19.6016191 2.11058228,19.8253569 2.24800698,20.0321377 C2.72789912,20.7697319 3.21115051,21.5030071 3.69440189,22.2396415 C4.23524034,23.0616967 4.66138456,23.9303016 4.792875,24.9212788 C4.88597409,25.6243208 4.89557193,26.3235237 4.70601453,27.0136085 C4.68633895,27.0851125 4.67002262,27.1882893 4.57548387,27.1950078 C4.49006306,27.2012464 4.4756663,27.1028685 4.44255375,27.0433618 C3.87004242,26.0255106 3.35127901,24.9831849 2.96208649,23.8760738 C2.67751044,23.0664957 2.33822671,22.277553 1.73068325,21.6479345 C1.54236313,21.4545173 1.41978421,21.2066728 1.38036199,20.9396137 C1.31413687,20.5628984 1.21623887,20.1881026 1.0074858,19.8584167 C0.821767532,19.5661624 0.602936719,19.5704814 0.414818999,19.8627357 C0.322314408,20.0131973 0.252613114,20.1765345 0.207985486,20.3474268 C-0.0214925223,21.175684 -0.0616760097,22.0449595 0.0904119112,22.8908551 C0.255014916,23.8626368 0.625011757,24.7758715 0.973413452,25.6934253 C1.87705036,28.0775294 3.13292809,30.2524006 4.82214843,32.1719692 C6.23543079,33.7791279 7.86802387,35.135783 9.61387147,36.3628673 C10.5429426,37.0160004 11.4676948,37.6744124 12.3108653,38.4393606 C12.4586955,38.5612776 12.553201,38.7360009 12.5743261,38.9264511 C12.637192,39.4816862 12.7062964,40.0359617 12.7849988,40.5892773 C12.8272293,40.8868105 12.8233901,41.2020996 12.9990306,41.4641207 C13.6180636,42.3976404 14.314437,43.2774981 15.0808027,44.0944096 C15.6696304,44.7182694 16.3179647,45.2773436 16.9197494,45.8839273 C17.2787087,46.245766 17.6482257,46.5418595 18.1357961,46.6954249 C18.2984795,46.7462935 18.3239138,46.7122212 18.3210345,46.5562562 C18.3123964,46.0686858 18.3176752,45.5811154 18.3176752,45.093545 L18.2466512,45.093545 C18.2466512,44.6136528 18.2548094,44.1337607 18.2423321,43.6538686 C18.2375332,43.4523139 18.2792839,43.3577751 18.505793,43.3884882 C18.7358451,43.4164071 18.9675207,43.4287525 19.1992371,43.4254399 C19.3624004,43.4254399 19.404151,43.4969439 19.4003119,43.6442707 C19.3883146,44.1654336 19.4881322,44.679398 19.5034887,45.1991213 C19.5073278,45.3430889 19.5610758,45.4193918 19.7117619,45.4328288 C20.0174532,45.4601825 20.3029891,45.5638393 20.5851656,45.6775737 C21.4393736,46.0221363 22.2359946,46.4837925 23.0532509,46.9027384 C24.0528663,47.4157431 25.0659185,47.8577237 26.220539,47.9133912 C27.2554855,47.9524959 28.2424902,48.3597204 29.0039134,49.0617731 C29.1872322,49.2282957 29.3763097,49.3895394 29.5668269,49.5479038 C31.4532829,51.1185909 33.4366772,52.5712243 35.2775434,54.1975788 C35.315692,54.2381717 35.3664133,54.2647159 35.4215111,54.2729219 C35.9158979,54.3202075 36.4128675,54.3347959 36.9091767,54.316592 C37.1275276,54.3069942 37.1731174,54.2105359 37.1275276,54.0075415 C37.0075546,53.4743814 36.8002412,52.9733739 36.5900484,52.4718866 C36.3059523,51.794279 35.9623495,51.1406658 35.7391996,50.4390636 C35.5122106,49.7259438 35.7137653,49.7868901 36.2833973,49.8070456 C36.4095831,49.801094 36.5195663,49.8921577 36.5372603,50.0172384 C36.6212414,50.4222673 36.8626271,50.7404358 37.1044928,51.0610038 C37.1708115,51.1617969 37.2910698,51.213039 37.4097042,51.1910546 C38.8906514,51.0427678 40.3763974,51.0034167 41.8640631,50.9990977 C42.4077808,50.9990977 42.9606166,51.0322103 43.492817,50.9511084 C45.0980562,50.6991651 46.6269926,50.2029566 48.0465135,49.3928986 C49.6028037,48.5055781 50.8466841,47.2487406 52.0939238,45.996702 C52.8354748,45.2433484 53.4527748,44.3770876 53.9227928,43.4302388 C54.6578177,41.9663159 55.2902388,40.4530913 55.8154874,38.9014967 C56.0554335,38.2051732 56.2406719,37.4963725 56.2473904,36.7501402 C56.2473904,36.5193121 56.1658087,36.4516473 55.9479376,36.4962773 C55.6979138,36.5481056 55.4459705,36.5965747 55.1925874,36.6258482 C54.9612794,36.6527221 54.8960141,36.5557839 54.9871936,36.3431916 C55.083172,36.1214815 55.2228206,35.9261654 55.3615095,35.7308493 C55.9127455,34.9553436 56.4652614,34.1807977 57.0190569,33.4072115 C57.0958663,33.3054002 57.148392,33.1873815 57.1726224,33.0621691 C57.4293647,31.6661629 57.5162251,30.2567196 57.4955898,28.8386383 Z M11.5699118,24.4801938 C12.51242,24.4850568 13.2975235,25.2524044 13.2869659,26.1598804 C13.2768882,27.0807934 12.5066613,27.8097496 11.5478368,27.8068872 C10.6106074,27.803511 9.8442197,27.0577586 9.84373936,26.1493228 C9.84325987,25.240887 10.6336423,24.4744992 11.5718314,24.4801938 L11.5699118,24.4801938 Z M6.97542448,29.9107174 C6.78346761,29.8963206 6.6740522,29.7398758 6.59151075,29.5815114 C6.43362624,29.2844581 6.4053126,28.9576516 6.3875566,28.6284456 C6.35780328,28.070331 6.3875566,27.5102969 6.33956738,26.9512226 C6.17064534,24.9423941 5.68115536,23.0348228 4.6042774,21.3072111 C4.56967249,21.2352108 4.52218034,21.1701531 4.46414889,21.1152543 C4.31538233,20.9986405 4.3288193,20.8647506 4.50110058,20.7750107 C4.69305744,20.675673 4.87541646,20.7313405 5.04577817,20.8340375 C5.23341599,20.9477719 5.37402439,21.1133347 5.50647462,21.2841763 C6.29061838,22.2962688 7.0459686,23.3256375 7.60696253,24.4850568 C7.76676664,24.8147427 7.96784143,25.1247531 8.15164009,25.4448411 C8.52883536,26.0965347 8.65216763,26.8197322 8.75102537,27.5501279 C8.78077872,27.7713583 8.82684838,27.9921086 8.80957225,28.2181378 C8.80237385,28.3539473 8.80429342,28.4907166 8.78653738,28.6246065 C8.63201216,29.7590715 7.83443143,29.9759827 6.97542448,29.9107174 Z M17.0013311,29.6842083 C16.6788435,30.4573146 16.1245682,31.0351047 15.4359229,31.483324 C14.5078115,32.0879881 13.5345903,32.5985933 12.418841,32.7708746 C12.0643836,32.8295116 11.7055463,32.8576085 11.3462821,32.8548557 C10.7819289,32.8687726 10.230053,32.7977485 9.70169172,32.5923547 C9.24884648,32.4182736 8.87398691,32.0866932 8.64592898,31.6584846 C8.40166394,31.2145844 8.5739452,30.8628234 9.06967376,30.7884401 C9.50157669,30.7236547 9.9286807,30.8234723 10.3553048,30.8796196 C10.8831861,30.949204 11.4110675,31.0552602 11.9495065,31.0509411 C13.0628563,31.042783 14.0893455,30.727014 15.044331,30.1674597 C15.2670009,30.036929 15.4282447,29.8315352 15.6086841,29.6506159 C15.9110162,29.3434849 16.1912731,29.0118794 16.5454335,28.760416 C16.6658865,28.675475 16.7973769,28.5593411 16.9600603,28.6394831 C17.1227438,28.7196251 17.1193845,28.9000645 17.1342612,29.058429 C17.1563363,29.2810989 17.0853122,29.4840933 17.0013311,29.6842083 Z M22.16737,37.5544394 C21.7397861,37.605308 21.3150815,37.6844902 20.8865379,37.7267207 C20.69938,37.7449566 20.6854631,37.8270181 20.708018,37.9748249 C20.7713637,38.3851327 20.8246318,38.7973601 20.8908569,39.2071879 C20.9182107,39.3770698 20.8721411,39.456252 20.690262,39.4682493 C20.4910387,39.4833646 20.2930443,39.5117411 20.0975952,39.5531902 C19.9089976,39.5920615 19.8408529,39.5162385 19.8202176,39.3377186 C19.7722283,38.9408479 19.7103223,38.5463765 19.6642526,38.1499856 C19.6440971,37.9733853 19.6028264,37.8841254 19.3878347,37.9229966 C18.9794465,37.9969 18.5643398,38.032412 18.1535521,38.0919186 C18.0148633,38.1120741 17.949118,38.0852001 17.9376006,37.9287553 C17.9198447,37.6984071 17.8771343,37.4699784 17.8373032,37.186842 C17.8123488,37.0908636 17.8852924,37.0428744 18.0239812,37.0284777 C18.4520451,36.9766493 18.8781893,36.9085046 19.3067329,36.8590757 C19.444462,36.8432393 19.4727756,36.8086871 19.4507006,36.6671189 C19.3739178,36.2102615 19.3244889,35.7495651 19.252985,35.291748 C19.226111,35.1204265 19.2654622,35.0407644 19.4502207,35.0278073 C19.6570542,35.0134106 19.8619681,34.9754991 20.0668821,34.9409468 C20.2204476,34.9150327 20.2991499,34.9500648 20.3193054,35.1266651 C20.3716136,35.5864017 20.4517556,36.0432591 20.5045438,36.5029957 C20.5218198,36.657521 20.5818064,36.6863146 20.7195354,36.6671189 C21.1389611,36.6100117 21.5607863,36.5711404 21.9782925,36.5029957 C22.1467346,36.4761218 22.2153592,36.5183523 22.2326353,36.6834352 C22.2551903,36.9056252 22.2863833,37.1273355 22.3199757,37.3485657 C22.3367719,37.4714181 22.3118176,37.5366834 22.16737,37.5544394 Z M26.087129,42.913395 C25.8783759,42.966663 25.6710625,43.0266495 25.4675882,43.0976735 C25.313063,43.1514215 25.2381998,43.1144698 25.1940497,42.9537059 C25.0822349,42.5376394 24.9497846,42.1273316 24.8379698,41.7112652 C24.7981387,41.5634584 24.7472702,41.5231474 24.5908253,41.5720964 C24.1800376,41.7016673 23.7606119,41.8038843 23.3488644,41.9310558 C23.2048968,41.9756857 23.1468299,41.9368145 23.1127575,41.7976458 C23.0668371,41.5949858 23.0091524,41.3951723 22.9399964,41.1992202 C22.8723316,41.0173412 22.9092833,40.9295209 23.1069988,40.8805718 C23.5019501,40.7845934 23.8887431,40.6516633 24.2832145,40.5537653 C24.4554957,40.5115348 24.4698925,40.4419504 24.4219033,40.2893448 C24.2832145,39.847844 24.1646811,39.4001046 24.0259922,38.9586038 C23.9808824,38.8146362 24.0159145,38.7560894 24.1570028,38.7186578 C24.3659649,38.6690734 24.5719987,38.607872 24.7741441,38.535339 C24.9397069,38.4748726 25.0140902,38.5103846 25.0620794,38.6855452 C25.1777334,39.1174481 25.3202614,39.5411929 25.433036,39.9735757 C25.4810252,40.1597739 25.553489,40.1919266 25.7339284,40.1333798 C26.1283997,40.0052486 26.531989,39.9059109 26.9293397,39.7873776 C27.0651492,39.7465867 27.1361732,39.7749004 27.1726451,39.9183882 C27.2345511,40.1655326 27.3103741,40.4093178 27.3612426,40.5902371 C27.4005938,40.7855533 27.3050952,40.7965907 27.217275,40.8205854 C26.8180047,40.93336 26.4201742,41.0528532 26.0175447,41.1565099 C25.8505422,41.2006599 25.8044725,41.2649654 25.8630194,41.4415658 C25.9959495,41.8427556 26.0952872,42.2573825 26.224858,42.6571325 C26.2790859,42.8174166 26.2325364,42.8759634 26.087129,42.913395 L26.087129,42.913395 Z M31.4268889,43.5852439 C31.0199403,43.7268122 30.6182706,43.8837369 30.2103623,44.0224257 C30.0788719,44.0670557 30.0563169,44.1208036 30.1052659,44.2455756 C30.26507,44.6544437 30.4114371,45.0685906 30.5722009,45.4774587 C30.6264288,45.6161475 30.6134717,45.6948498 30.4575067,45.7447586 C30.2456186,45.8130101 30.0373892,45.8921374 29.8336469,45.9818253 C29.6896793,46.0451711 29.6200949,46.0082194 29.5682666,45.8632919 C29.4214196,45.449625 29.2596959,45.0412368 29.1138087,44.6270898 C29.0658196,44.4931999 29.0130314,44.4581678 28.8738627,44.5133554 C28.489949,44.6654812 28.0930782,44.7945721 27.7072449,44.9452583 C27.5388027,45.0119633 27.444264,44.9985263 27.3890764,44.8070494 C27.3254239,44.5999055 27.2499571,44.396578 27.1630472,44.1980663 C27.1068998,44.0622568 27.1472108,43.9979512 27.2806208,43.9509218 C27.6722128,43.8136727 28.0570862,43.656268 28.4515576,43.5286167 C28.6401552,43.4671905 28.6550318,43.3875284 28.5868871,43.2186064 C28.4189249,42.8044595 28.2744774,42.3811946 28.106995,41.9660879 C28.049408,41.8221203 28.0686036,41.7506163 28.2216892,41.7002276 C28.471713,41.6172063 28.7154983,41.5169089 28.9448867,41.4300484 C29.0754174,41.427169 29.0826158,41.5212279 29.1090098,41.5908122 C29.2654547,42.00112 29.432937,42.4066289 29.5682666,42.8250948 C29.6397705,43.0444055 29.7338294,43.0679203 29.9325047,42.9872984 C30.3092201,42.8337329 30.6969729,42.7075213 31.0775274,42.5625938 C31.2013396,42.5146046 31.2651652,42.5357199 31.3078756,42.6676902 C31.3788997,42.8879607 31.4566422,43.1067915 31.5478217,43.3184239 C31.617406,43.4719894 31.568937,43.5334156 31.4268889,43.5833244 L31.4268889,43.5852439 Z M35.1182192,45.8215414 C35.2952995,46.0173373 35.4637416,46.2208116 35.6504196,46.4065299 C35.7747116,46.5308219 35.7550361,46.6119237 35.6278647,46.7117412 C35.5021811,46.8089903 35.3836614,46.9151609 35.2732244,47.0294299 C35.1537312,47.1532421 35.0668707,47.1647595 34.9468977,47.0203119 C34.723268,46.7496528 34.4761235,46.4981893 34.2476949,46.2308893 C34.1545958,46.1224337 34.0907702,46.1109163 33.9808749,46.2150529 C33.7255722,46.454999 33.4529935,46.6791086 33.1957713,46.9195346 C33.0796374,47.02895 33.0009351,47.0231913 32.9049567,46.899859 C32.8089298,46.7719646 32.7028574,46.651931 32.5877479,46.5408997 C32.4500189,46.4118087 32.4519385,46.3177498 32.6011849,46.1958572 C32.8488093,45.9938226 33.076758,45.7677935 33.3234226,45.5652789 C33.4621114,45.4510646 33.490905,45.3704427 33.3498167,45.2293545 C33.0969136,44.9745317 32.8699246,44.6918753 32.6213404,44.4341732 C32.4922495,44.3012431 32.5066462,44.2143826 32.6424557,44.1064069 C32.7782652,43.9984311 32.9049567,43.8722195 33.0364471,43.7560856 C33.0714793,43.7253725 33.1117902,43.700898 33.1429831,43.6783431 C33.2260045,43.6927398 33.2600768,43.7512866 33.3018275,43.7978362 C33.5590497,44.0819323 33.8186713,44.3650687 34.0696549,44.6549236 C34.1622741,44.7619395 34.2251399,44.7753765 34.335995,44.6702801 C34.5965765,44.4231357 34.8749139,44.194707 35.1398143,43.9504419 C35.2391521,43.8597423 35.3010581,43.8659809 35.3946371,43.9638789 C35.9225184,44.5123956 35.9253978,44.5099961 35.3466479,45.013403 C35.2804227,45.0714699 35.212758,45.1280972 35.1470127,45.1856843 C34.8106084,45.4798582 34.8106084,45.4798582 35.1182192,45.8196218 L35.1182192,45.8215414 Z M39.5034736,46.2630421 C39.3470288,46.3854146 39.0893267,46.4741947 39.0643723,46.6440765 C39.0394179,46.8139583 39.2736053,46.9612852 39.3897392,47.1239686 L39.4185327,47.16236 C39.759736,47.602901 39.7544572,47.5995417 39.3172755,47.936426 C39.1910638,48.0324045 39.1094822,48.0487208 39.0072651,47.9047531 C38.8498605,47.683043 38.6670216,47.4800486 38.5086572,47.2597781 C38.4198772,47.1364458 38.3512526,47.1388453 38.2413573,47.2300248 C38.0316444,47.4027859 37.8185723,47.5731477 37.5954224,47.7271931 C37.2954899,47.9349863 37.3026882,47.571708 37.1779163,47.4718905 C37.0891362,47.4008664 36.8952598,47.2765743 37.1174499,47.1148506 C37.3175649,46.970883 37.5042429,46.8038806 37.7096368,46.6661515 C37.8742398,46.5562562 37.9227089,46.4708354 37.7667439,46.3033531 C37.5747871,46.0993989 37.4212216,45.8637719 37.2436615,45.6478204 C37.1601603,45.5465631 37.152482,45.4736196 37.2676561,45.3934776 C37.3828302,45.3133356 37.4946451,45.2163973 37.6088595,45.129057 C37.6441436,45.10493 37.6806653,45.0826646 37.7182748,45.062352 C37.8046554,45.080108 37.8358485,45.1410543 37.8742398,45.1890435 C38.0527596,45.4145928 38.2331991,45.6391824 38.4021211,45.8714502 C38.4894615,45.9909433 38.5576062,46.0230961 38.6842978,45.9136807 C38.8839329,45.7418793 39.1051631,45.5950323 39.3081575,45.4265901 C39.4233316,45.3306117 39.4953155,45.3214937 39.5960928,45.4515445 C39.9603309,45.9069622 39.9632103,45.9007235 39.5034736,46.2616024 L39.5034736,46.2630421 Z M44.2472074,47.5217992 C43.8820095,48.0170479 43.8848889,48.0194473 43.4251522,47.6292951 C43.3032596,47.5256384 43.181367,47.4224616 43.0580347,47.3202445 C43.0215629,47.2904912 42.9817318,47.264577 42.950059,47.2420221 C42.8747159,47.2506601 42.8468822,47.3039282 42.81185,47.3451989 C42.6290111,47.5568314 42.4456924,47.7684638 42.2681323,47.9844152 C42.1927892,48.0755947 42.1212852,48.1034285 42.0310655,48.0108093 C42.0251658,48.0052909 42.0189141,48.0001613 42.0123498,47.9954528 C41.5444549,47.6331342 41.5473342,47.6355337 41.9240496,47.1863546 C42.0545803,47.0303896 42.3036443,46.8849823 42.2729312,46.7064625 C42.2465371,46.5533769 42.0008323,46.437243 41.8506261,46.3067123 C41.7296932,46.2020958 41.61068,46.0955598 41.4825488,45.9991014 C41.3812916,45.9213589 41.3899296,45.858493 41.4633531,45.7620347 C41.8328701,45.2763839 41.8304706,45.2749442 42.2892475,45.6598177 C42.4178586,45.7677935 42.5546278,45.8671311 42.6731612,45.9847047 C42.7916945,46.1022782 42.8651181,46.1051576 42.972134,45.9650291 C43.1357772,45.7490777 43.3258145,45.5528018 43.5000154,45.3411693 C43.5763182,45.2485501 43.6353449,45.2384724 43.7370821,45.3133356 C44.2385694,45.6799732 44.2404889,45.6770938 43.8373795,46.13923 C43.7957889,46.1875391 43.7545182,46.2364881 43.7135674,46.286077 C43.4328305,46.6258406 43.4328305,46.6258406 43.7817121,46.9147357 C43.9295189,47.0371081 44.0739664,47.1633198 44.2251324,47.2818532 C44.3196711,47.3600756 44.3196711,47.4224616 44.2472074,47.5217992 Z" id="Shape"></path>
                    </g>
                </g>
            </g>
        </g>
    </g>
</svg>