<?xml version="1.0" encoding="UTF-8"?>
<svg width="79px" height="70px" viewBox="0 0 79 70" version="1.1" xmlns="http://www.w3.org/2000/svg" xmlns:xlink="http://www.w3.org/1999/xlink">
    <title>1774D87F-56B7-47DE-A306-A7DA3F0A11F3</title>
    <g id="Page-1" stroke="none" stroke-width="1" fill="none" fill-rule="evenodd">
        <g id="landing" transform="translate(-1382.000000, -5751.000000)" fill="#61DAFB" fill-rule="nonzero">
            <g id="our-customers" transform="translate(440.000000, 5643.000000)">
                <g id="row-1" transform="translate(0.000000, 108.000000)">
                    <g id="React-icon" transform="translate(942.000000, 0.000000)">
                        <path d="M78.6037995,35.008011 C78.6037995,29.8008698 72.0828565,24.8661021 62.0851453,21.8059052 C64.3923095,11.6159304 63.3669032,3.50881209 58.8487068,0.913252461 C57.8072786,0.304417487 56.5896086,0.016021973 55.2597848,0.016021973 L55.2597848,3.58892195 C55.9967956,3.58892195 56.5896086,3.73311971 57.0862898,4.00549325 C59.2652781,5.25520714 60.2105745,10.0137331 59.4735637,16.1341268 C59.297322,17.6401923 59.0089265,19.2263676 58.6564431,20.8445869 C55.5161364,20.0755322 52.0874342,19.4827192 48.4824903,19.0981918 C46.3195239,16.1341268 44.0764477,13.4424353 41.8173495,11.0872053 C47.0405127,6.23254749 51.9432364,3.57289998 55.2758068,3.57289998 L55.2758068,0 C55.2758068,0 55.2758068,0 55.2758068,0 C50.8697642,0 45.101854,3.14030671 39.2698558,8.58777752 C33.4378576,3.17235065 27.6699474,0.064087892 23.2639048,0.064087892 L23.2639048,3.63698787 C26.5804532,3.63698787 31.4991989,6.28061341 36.7223621,11.1032273 C34.4792859,13.4584573 32.2362097,16.1341268 30.1052873,19.0981918 C26.4843214,19.4827192 23.0556191,20.0755322 19.9153124,20.8606088 C19.546807,19.2584115 19.2744335,17.7042802 19.0821698,16.2142367 C18.3291371,10.093843 19.2584115,5.33531701 21.4213779,4.06958114 C21.9020371,3.78118563 22.526894,3.65300984 23.2639048,3.65300984 L23.2639048,0.080109865 C23.2639048,0.080109865 23.2639048,0.080109865 23.2639048,0.080109865 C21.9180591,0.080109865 20.7003891,0.368505379 19.6429389,0.977340352 C15.1407645,3.57289998 14.1313802,11.6639963 16.4545663,21.8219272 C6.48889906,24.898146 4.55371861e-15,29.8168917 4.55371861e-15,35.008011 C4.55371861e-15,40.2151522 6.52094301,45.1499199 16.5186542,48.2101167 C14.21149,58.4000916 15.2368963,66.5072099 19.7550927,69.1027695 C20.7965209,69.7116045 22.0141909,70 23.3600366,70 C27.7660792,70 33.5339895,66.8596933 39.3659876,61.4122225 C45.1979858,66.8276493 50.9658961,69.9359121 55.3719387,69.9359121 C56.7177844,69.9359121 57.9354543,69.6475166 58.9929046,69.0386816 C63.495079,66.443122 64.5044633,58.3520256 62.1812772,48.1940948 C72.1149004,45.1338979 78.6037995,40.1991302 78.6037995,35.008011 Z M57.7431907,24.321355 C57.1503777,26.3881895 56.4133669,28.5191119 55.5802243,30.6500343 C54.9233234,29.3682765 54.2343786,28.0865187 53.4813458,26.8047608 C52.7443351,25.523003 51.9592584,24.2732891 51.1741817,23.0556191 C53.4493019,23.3920806 55.6443122,23.8086519 57.7431907,24.321355 Z M50.405127,41.3847562 C49.1554131,43.5477226 47.8736553,45.5985351 46.5438315,47.5051499 C44.1565576,47.7134356 41.7372396,47.8255894 39.3018997,47.8255894 C36.8825818,47.8255894 34.4632639,47.7134356 32.0920119,47.5211719 C30.7621881,45.6145571 29.4644083,43.5797665 28.2146944,41.4328222 C26.9970245,39.3339437 25.8915084,37.2030213 24.8821241,35.0560769 C25.8754864,32.9091325 26.9970245,30.7621881 28.1986725,28.6633097 C29.4483864,26.5003433 30.7301442,24.4495308 32.059968,22.542916 C34.4472419,22.3346304 36.8665599,22.2224765 39.3018997,22.2224765 C41.7212177,22.2224765 44.1405356,22.3346304 46.5117876,22.526894 C47.8416114,24.4335088 49.1393912,26.4682994 50.3891051,28.6152438 C51.606775,30.7141222 52.7122911,32.8450446 53.7216754,34.991989 C52.7122911,37.1389334 51.606775,39.2858778 50.405127,41.3847562 Z M55.5802243,39.3018997 C56.4454108,41.4488441 57.1824216,43.5957885 57.7912566,45.678645 C55.6923781,46.1913481 53.4813458,46.6239414 51.1902037,46.9604028 C51.9752804,45.7267109 52.7603571,44.4609751 53.4973678,43.1631952 C54.2343786,41.8814374 54.9233234,40.5836576 55.5802243,39.3018997 Z M39.3339437,56.3973449 C37.8439002,54.8592355 36.3538567,53.1448844 34.8798352,51.2703136 C36.3218128,51.3344015 37.7958343,51.3824674 39.2858778,51.3824674 C40.7919432,51.3824674 42.2819867,51.3504234 43.7399863,51.2703136 C42.2980087,53.1448844 40.8079652,54.8592355 39.3339437,56.3973449 Z M27.4135958,46.9604028 C25.1384756,46.6239414 22.9434653,46.2073701 20.8445869,45.694667 C21.4373999,43.6278325 22.1744106,41.49691 23.0075532,39.3659876 C23.6644541,40.6477455 24.3533989,41.9295033 25.1064317,43.2112612 C25.8594644,44.493019 26.6285191,45.7427329 27.4135958,46.9604028 Z M39.2538338,13.618677 C40.7438773,15.1567864 42.2339208,16.8711376 43.7079423,18.7457084 C42.2659648,18.6816205 40.7919432,18.6335546 39.3018997,18.6335546 C37.7958343,18.6335546 36.3057908,18.6655985 34.8477913,18.7457084 C36.2897688,16.8711376 37.7798123,15.1567864 39.2538338,13.618677 Z M27.3975738,23.0556191 C26.6124971,24.2893111 25.8274205,25.5550469 25.0904097,26.8528267 C24.3533989,28.1345846 23.6644541,29.4163424 23.0075532,30.6981003 C22.1423667,28.5511559 21.4053559,26.4042115 20.7965209,24.321355 C22.8953994,23.8246738 25.1064317,23.3920806 27.3975738,23.0556191 Z M12.8976883,43.1151293 C7.22590982,40.6958114 3.556878,37.5234607 3.556878,35.008011 C3.556878,32.4925612 7.22590982,29.3041886 12.8976883,26.9008927 C14.2755779,26.3080797 15.7816434,25.7793545 17.3357748,25.2826734 C18.2490272,28.4229801 19.4506752,31.6914626 20.9407187,35.0400549 C19.4666972,38.3726253 18.2810712,41.6250858 17.3838407,44.7493706 C15.7976654,44.2526894 14.2915999,43.7079423 12.8976883,43.1151293 Z M21.5175097,66.0105287 C19.3385214,64.7608148 18.393225,60.0022889 19.1302358,53.8818952 C19.3064775,52.3758297 19.594873,50.7896544 19.9473564,49.1714351 C23.0876631,49.9404898 26.5163653,50.5333028 30.1213092,50.9178302 C32.2842756,53.8818952 34.5273518,56.5735866 36.78645,58.9288167 C31.5632868,63.7834745 26.6605631,66.443122 23.3279927,66.443122 C22.6070039,66.4271 21.9981689,66.2829023 21.5175097,66.0105287 Z M59.5216297,53.8017853 C60.2746624,59.922179 59.345388,64.680705 57.1824216,65.9464408 C56.7017624,66.2348363 56.0769055,66.3630121 55.3398947,66.3630121 C52.0233463,66.3630121 47.1046006,63.7193866 41.8814374,58.8967727 C44.1245136,56.5415427 46.3675898,53.8658732 48.4985122,50.9018082 C52.1194781,50.5172808 55.5481804,49.9244678 58.6884871,49.1393912 C59.0569924,50.7576104 59.345388,52.3117418 59.5216297,53.8017853 Z M65.6900893,43.1151293 C64.3121996,43.7079423 62.8061341,44.2366674 61.2520027,44.7333486 C60.3387503,41.5930419 59.1371023,38.3245594 57.6470588,34.975967 C59.1210803,31.6433967 60.3067063,28.3909361 61.2039368,25.2666514 C62.7901122,25.7633326 64.2961776,26.3080797 65.7061112,26.9008927 C71.3778897,29.3202106 75.0469215,32.4925612 75.0469215,35.008011 C75.0308995,37.5234607 71.3618677,40.7118334 65.6900893,43.1151293 Z" id="Shape"></path>
                        <circle id="Oval" cx="39.2858778" cy="35.008011" r="7.32204166"></circle>
                    </g>
                </g>
            </g>
        </g>
    </g>
</svg>