<?xml version="1.0" encoding="UTF-8"?>
<svg width="70px" height="70px" viewBox="0 0 70 70" version="1.1" xmlns="http://www.w3.org/2000/svg" xmlns:xlink="http://www.w3.org/1999/xlink">
    <title>22384C95-BA9D-43C1-BBFA-891CC268313D</title>
    <g id="Page-1" stroke="none" stroke-width="1" fill="none" fill-rule="evenodd">
        <g id="landing" transform="translate(-694.000000, -5751.000000)">
            <g id="our-customers" transform="translate(440.000000, 5643.000000)">
                <g id="row-1" transform="translate(0.000000, 108.000000)">
                    <g id="sf-logo" transform="translate(254.000000, 0.000000)">
                        <path d="M35,0 C54.3302935,0 70,15.6697065 70,35 C70,54.3302935 54.3302935,70 35,70 C15.6697065,70 0,54.3302935 0,35 C0,15.6697065 15.6697065,0 35,0" id="Fill-1" fill="#000000"></path>
                        <path d="M50.3019023,12.9504488 C46.7472927,13.0751282 43.6415289,15.0350883 41.3337133,17.7456184 C38.7740453,20.7179752 37.0734184,24.2451553 35.8465731,27.8434027 C33.6534625,26.0455258 31.9615631,23.7190083 28.4431106,22.704118 C25.7213594,21.9223782 22.8662012,22.244051 20.2392063,24.2015175 C18.9936592,25.1316258 18.1371117,26.5367626 17.7294101,27.8571174 C16.6721288,31.290788 18.8378099,34.34668 19.8227771,35.4451054 L21.9734967,37.7466871 C22.4173554,38.1992733 23.4833642,39.3787404 22.9634511,41.0681462 C22.3986535,42.9071673 20.1843474,44.0953619 17.911442,43.3959105 C16.8965517,43.0817184 15.4378028,42.3274081 15.7657096,41.2651396 C15.9003634,40.8287618 16.2120618,40.5008549 16.380379,40.1280636 C16.5337347,39.8038971 16.6060487,39.5620191 16.6521801,39.4198846 C17.0673625,38.0633728 16.5000712,36.3004061 15.0488031,35.8528071 C13.693538,35.4388715 12.3095968,35.7680251 11.7722286,37.5097962 C11.1612995,39.4934454 12.1101097,43.0854588 17.1883015,44.6526788 C23.1380023,46.4817256 28.1713095,43.2400613 28.8844756,39.0159233 C29.3345683,36.3702266 28.1376461,34.4027857 25.9495227,31.8730408 L24.1666073,29.9018595 C23.0856369,28.8208891 22.7153391,26.9818681 23.8324665,25.5692505 C24.7762895,24.3760687 26.1190866,23.8673767 28.3221716,24.4645911 C31.5351596,25.3348532 32.9677258,27.5653676 35.3565831,29.3644913 C34.3703691,32.5999216 33.7245298,35.8478199 33.142277,38.7628242 L32.7844471,40.9322457 C31.0750926,49.891707 29.7721929,54.8103092 26.383407,57.6342975 C25.7014107,58.121794 24.7239242,58.847428 23.2539541,58.8985466 C22.4821887,58.9234825 22.2340767,58.3923482 22.2216087,58.1604446 C22.2041536,57.619336 22.661727,57.371224 22.9646979,57.1280992 C23.4172841,56.8799872 24.101774,56.4710388 24.0556426,55.1606583 C24.0045241,53.607153 22.7203263,52.2631091 20.8650969,52.3266956 C19.472428,52.372827 17.3541251,53.6807139 17.4339199,56.0795455 C17.5162083,58.5531847 19.8227771,60.4096609 23.3013323,60.2899687 C25.1615489,60.2288757 29.3133728,59.4720718 33.4041037,54.6083286 C38.1656099,49.0314192 39.4984326,42.6391066 40.5008549,37.9611357 L41.6179823,31.7857652 C42.2401325,31.859326 42.9034269,31.9104446 43.6265674,31.9266529 C49.5575663,32.0538259 52.5236891,28.9804788 52.5698205,26.746224 C52.5984967,25.3934526 51.6821032,24.0631234 50.3979054,24.0930465 C49.480265,24.1192291 48.3257338,24.7301582 48.0489456,25.9993944 C47.7783913,27.2461884 49.9365916,28.3707965 48.2496794,29.4642348 C47.0515104,30.2409875 44.9032844,30.7870832 41.8785623,30.3432246 L42.4296452,27.3022941 C43.550513,21.5371188 44.9369478,14.4453548 50.1896908,14.274544 C50.5724565,14.2545953 51.9738529,14.2919991 52.0062696,15.2171203 C52.0149972,15.5263252 51.9389427,15.60612 51.5773725,16.3142989 C51.2070747,16.8653819 51.0686805,17.3354232 51.0848889,17.8765318 C51.1372542,19.3477486 52.2556284,20.3152608 53.8752137,20.2579082 C56.0408948,20.186841 56.6642918,18.0785124 56.6293816,16.9938017 C56.5396124,14.444108 53.8540182,12.8357438 50.3019023,12.9504488" id="Fill-3" fill="#FFFFFF"></path>
                    </g>
                </g>
            </g>
        </g>
    </g>
</svg>