<?xml version="1.0" encoding="UTF-8"?>
<svg width="44px" height="55px" viewBox="0 0 44 55" version="1.1" xmlns="http://www.w3.org/2000/svg" xmlns:xlink="http://www.w3.org/1999/xlink">
    <title>A3CF3656-CF0F-45F7-A2CB-DB26455C1F92</title>
    <g id="Page-1" stroke="none" stroke-width="1" fill="none" fill-rule="evenodd">
        <g id="landing" transform="translate(-842.000000, -3394.000000)" fill="#1A2B68" fill-rule="nonzero">
            <g id="our-customers" transform="translate(412.000000, 3173.000000)">
                <g id="row-2" transform="translate(39.000000, 221.000000)">
                    <g id="uam-logo-2" transform="translate(391.000000, 0.000000)">
                        <path d="M22.4312813,49.3040564 L22.3779349,49.3040564 L18.9831621,49.3598276 L20.95698,44.873878 C20.95698,44.873878 21.0636729,44.4883288 21.3182808,44.873878 L22.4240068,49.2967818 L22.4240068,49.2967818 L22.4240068,49.2967818 L22.4312813,49.3040564 Z M41.7305642,18.2515854 L41.7305642,18.2515854 C40.9521913,17.7835917 40.4720734,16.5178265 40.4502499,14.9319827 C41.8736296,15.0507997 42.8750875,14.8034663 43.4449244,14.1827078 C44.1578266,13.3849362 44.0099115,12.1434194 43.8256239,11.2729026 L43.794101,11.0958895 L43.6655846,11.2244059 C43.0714994,11.8160663 42.5574338,12.0221775 42.1306624,11.8451643 C41.0976815,11.4111184 40.7582043,8.79229372 40.7557794,7.93390119 C40.6466617,5.75154731 39.851315,4.11720673 38.5225039,3.35095803 C37.4410263,2.72050024 36.0976663,2.72534992 34.8609991,3.36308222 C34.1399254,3.70435422 33.5984208,4.33669745 33.3721488,5.10169081 C33.010848,6.32623383 33.4739919,7.81023447 34.0001817,8.73894729 C31.3328603,10.894628 26.7862897,10.370863 26.1121848,10.2787192 C25.2800976,8.81357069 24.8423017,7.15763276 24.8415699,5.47269098 L24.8415699,5.44116809 C24.8415699,5.2423314 24.8949163,5.11623984 25.004034,5.06046857 C25.3095636,4.89315478 26.0297404,5.28840331 26.2794986,5.45814195 L26.4031654,5.30295234 C26.4031654,5.30295234 25.7751324,4.71614163 24.8488444,2.18218628 C24.2838573,0.921270704 22.6155689,0.373257395 21.9390392,0.191394571 C20.598104,-0.26205007 19.7639599,0.0822768767 19.208672,1.30924473 C19.165025,1.40866307 18.8425216,1.42806177 18.5806391,1.44746047 C18.1950899,1.46928401 17.7586191,1.49838207 17.5403837,1.7263168 C16.9729717,2.33495105 17.4530896,3.74378173 17.4749131,3.80197783 L17.5161354,3.92079488 L17.6179785,3.85289942 C17.6301027,3.85289942 18.6582339,3.20789261 19.4196329,3.61041566 C19.9458227,3.87957264 20.2343784,4.60702393 20.2731758,5.71032507 C20.2731758,6.607515 19.5069271,8.11333918 17.9259329,10.3029676 C17.2542529,10.3951114 12.7343555,10.9285757 10.0549099,8.76562051 C10.5738252,7.82720833 11.024845,6.34078285 10.6732435,5.113815 C10.4418955,4.35550137 9.89999039,3.73076853 9.18196836,3.39460511 C8.0167381,2.7927363 6.62049359,2.84987634 5.50833932,3.54494504 C3.99524062,4.45910884 3.13927293,6.37715542 3.13927293,8.79956823 C3.13927293,9.54399339 2.72947537,11.656027 1.80076255,11.9979291 C1.3594421,12.1603932 0.830827489,11.8960859 0.263415479,11.2098569 L0.122774895,11.0570921 L0.0839774927,11.2535039 C-0.117284032,12.2501122 0.0621539538,13.6225703 0.92297132,14.4348909 C1.37641596,14.8689369 2.21540979,15.300558 3.6072666,14.9683552 C3.58301822,16.5444997 3.10047553,17.8054153 2.32937716,18.2709841 C1.81531158,18.5813633 1.19940281,18.5401411 0.471951517,18.1545919 L0.299788044,18.0624481 L0.331310933,18.2564351 C0.549546322,19.7016383 1.10483414,20.6109524 1.92685411,20.9116323 C3.05440362,21.3093057 4.66692065,20.5673054 6.72075814,18.7292784 C6.19456837,21.0716716 5.57623477,23.6686727 4.0388877,24.4640195 C3.33083511,24.8277451 2.4869916,24.7962222 1.46128528,24.3646011 L1.30367083,24.2967057 L1.32791921,24.4664443 C1.61162521,26.4596608 2.31967781,27.8369686 3.32841027,28.3461845 C4.02918835,28.7026357 4.84635864,28.6347402 5.75324792,28.1473479 C8.15868687,26.8621839 9.44385083,22.8927247 9.49234758,22.722986 C9.51174628,22.6502409 9.53599466,22.5774958 9.5578182,22.5047506 L9.58934109,22.5362735 C9.99310525,22.928937 10.5581673,23.1086069 11.114564,23.0212411 C11.9388877,22.8751494 12.647554,22.3521716 13.0301857,21.6075607 C13.2896433,21.0619722 13.4836304,20.5964034 13.653369,20.1866058 C13.7964344,19.8471286 13.9201011,19.5609977 14.0510424,19.2991153 C13.972474,19.96835 13.7355724,20.6092313 13.3599636,21.1686651 L13.3599636,21.1541161 C13.2338721,21.2753579 13.2096237,21.3772011 13.279944,21.4499463 C13.4957545,21.6706065 14.9773303,20.9965016 15.2586115,20.722495 C15.3271468,20.664705 15.4251772,20.6578428 15.5010953,20.7055211 C15.7169058,20.8243381 15.8745203,21.2438351 15.6805333,22.0585805 C15.3653044,23.3534438 15.0040036,23.7559669 14.6184544,24.1609148 C14.3201993,23.8820584 13.0811073,22.8054305 12.0626755,23.1909797 C11.4225183,23.4334635 11.0418188,24.1948625 10.9254266,25.4679022 C10.1979753,26.1953535 9.68390975,27.4295959 10.0621844,28.234642 C10.2513218,28.6371651 10.7459886,29.0881849 12.0020545,28.9620933 C11.9731224,29.0864421 11.954469,29.2129604 11.9462833,29.340368 L11.9462833,29.340368 C12.0214532,30.2521069 12.3148586,30.8728654 12.8143752,31.1832446 C13.3138917,31.4936238 14.0995391,31.4863493 15.0476506,31.1032249 L15.1519187,31.0620027 L15.0961474,30.9625844 C14.8536636,30.5261136 14.3080752,29.6192243 14.5384347,29.1221326 C14.642274,28.938721 14.8283371,28.8167865 15.0379513,28.7947795 C15.086448,28.8457011 15.13252,28.8990475 15.1882912,28.9645181 C15.5156443,29.3500673 16.0054615,29.9344532 16.7498867,29.7647146 C17.9623055,29.4761589 18.5733646,28.952394 18.5733646,28.2031191 C18.5733646,27.3713998 18.3599789,26.5057328 16.8905273,25.7467586 C16.9147756,25.1405492 17.2785013,24.9295883 17.8313643,24.6264836 C18.5556562,24.2872809 19.1656324,23.7447054 19.5869467,23.0648881 C19.5869467,23.0648881 19.6402931,22.9848685 19.6402931,22.9848685 C19.6402931,22.9848685 19.7130383,22.8902998 19.7688095,22.8902998 C19.8245808,22.8902998 19.8779272,22.9363717 19.940973,23.0212411 L20.016143,23.1449078 C20.8454375,24.3573266 21.0685225,26.4329876 20.8357381,26.6293995 C20.7577367,26.6891601 20.6768086,26.7450004 20.5932543,26.7967133 C20.1082868,27.085269 19.2426198,27.6187332 19.2959662,28.2516159 C19.3299139,28.6711128 19.7397115,29.0324136 20.5544569,29.3597667 L20.5714308,29.3597667 C20.6708492,29.4543353 20.7096466,30.2036102 20.328947,31.1371727 C19.9482475,32.0707352 19.1504759,33.2031344 16.9341743,32.984899 L16.7911089,32.9703499 L16.8299063,33.1061408 C17.2494032,34.5877167 17.7634688,35.3200176 19.3662865,35.3951876 C18.8187437,35.8184353 18.2381567,36.1971142 17.6301027,36.5275868 L17.5694818,36.5566848 L17.5694818,36.6270051 C17.5694818,36.6415541 17.8119656,38.0528097 20.0258423,38.0819077 C20.0937378,39.1051892 21.2018886,40.0460262 21.9487386,40.6740592 L22.0142092,40.7298304 L22.077255,40.6740592 C22.8265298,40.048451 23.9346806,39.1100389 23.9977264,38.0794829 C26.2188777,38.0431103 26.4565118,36.6245803 26.4565118,36.6245803 L26.4565118,36.55426 L26.393466,36.5227371 C25.7874746,36.1922994 25.2085592,35.8144639 24.6621319,35.3927628 C26.2673744,35.3175928 26.7790152,34.5852918 27.1888128,33.1012912 L27.2251853,32.9655003 L27.0845447,32.9824741 C24.8536941,33.2007095 23.8425368,32.044062 23.4739615,31.1226236 C23.1053862,30.2011853 23.3478699,29.4422112 23.4448634,29.3597667 L23.4594124,29.3597667 C24.2717331,29.0299888 24.6718313,28.6686879 24.7179032,28.249191 C24.7663999,27.6114587 23.883759,27.0779944 23.4133405,26.7942884 C23.3281779,26.7459872 23.2470829,26.6908426 23.1708568,26.6293995 C22.928373,26.4329876 23.1708568,24.3573266 23.9856022,23.1473326 L24.0995696,22.9678946 L24.3929749,22.9969927 L24.422073,23.0382149 C24.8334111,23.7160757 25.443979,24.2504284 26.1703809,24.5682875 C26.7402178,24.8689673 27.1160676,25.0775034 27.140316,25.7443337 C25.6854134,26.4960334 25.4599035,27.368975 25.4599035,28.2031191 C25.4599035,28.952394 26.0758123,29.473734 27.2906559,29.7598649 C28.0350811,29.9296035 28.5248983,29.3476425 28.8498265,28.9645181 C28.9055978,28.8941978 28.9516697,28.8432763 29.0001665,28.7923547 C29.204389,28.8171284 29.3845447,28.9378327 29.485134,29.1172829 C29.7276178,29.6167995 29.1674803,30.5552116 28.932271,30.9577347 L28.8764998,31.057153 L28.9831926,31.0983753 C29.9531277,31.491199 30.7072522,31.5105977 31.2455661,31.1589962 C31.7838801,30.8073948 32.0651613,30.0920676 32.099109,29.0324136 L32.099109,29.0324136 L32.099109,29.0324136 C32.099109,29.0081652 32.08456,28.9911914 32.0772855,28.966943 C33.309103,29.0663613 33.7916457,28.622616 33.9783582,28.2225178 C34.3517832,27.4174717 33.8304431,26.1953535 33.1078415,25.4606277 C32.9890244,24.1851631 32.6083249,23.4140648 31.9681678,23.1837052 C31.0855269,22.8612018 29.9531277,23.6516988 29.4148137,24.1536402 C29.0147155,23.7462675 28.6655389,23.3461693 28.3527348,22.051306 C28.156323,21.2365605 28.3139374,20.8219133 28.5273231,20.6982466 C28.6037893,20.652815 28.7004159,20.6595789 28.7698069,20.7152205 C29.0583626,21.0013513 30.5520626,21.6997045 30.7654483,21.4790443 C30.874566,21.3650769 30.7315006,21.2171618 30.6757293,21.1613906 C30.2974352,20.6051287 30.0602466,19.9651356 29.9846506,19.2966904 C30.1058925,19.5561481 30.2271343,19.8301547 30.3701998,20.1623575 C30.5423632,20.5745799 30.7387751,21.0474232 31.0055072,21.6002862 C31.3875633,22.3458281 32.0963244,22.869773 32.921129,23.0163914 C33.4796745,23.1030393 34.0466161,22.9236274 34.4536264,22.5314239 L34.4802996,22.5047506 C34.4996983,22.5750709 34.5239467,22.6453912 34.5457702,22.7157115 C34.5966918,22.887875 35.8794309,26.8573342 38.282445,28.1497727 C39.1869095,28.6347402 39.9968052,28.7026357 40.7072827,28.3461845 C41.71844,27.8345438 42.4264926,26.4548112 42.7101986,24.4664443 L42.7320221,24.2967057 L42.5744077,24.3646011 C41.5462765,24.7962222 40.702433,24.8277451 39.9943804,24.4615946 C38.4570333,23.6686727 37.8386997,21.0668219 37.3100851,18.7292784 C39.3687723,20.5624557 40.9812893,21.3020312 42.1088388,20.9116323 C42.9405581,20.6182269 43.495846,19.6992135 43.7213559,18.2443109 L43.7456042,18.0527487 L43.5782904,18.1448925 C42.8508391,18.5280169 42.2203814,18.5668143 41.7087406,18.2564351 L41.7305642,18.2515854 Z M20.0694894,8.53526093 L20.0694894,8.53526093 C20.7217707,7.56532587 21.5825881,5.60363221 20.0112933,3.4067293 L20.0112933,3.4067293 L20.0112933,3.4067293 C19.8325473,3.20424426 19.6057354,3.04997879 19.3517375,2.95813433 L19.2474694,2.52893807 L19.2280707,2.4537681 L19.1432014,2.4537681 C18.7301205,2.51748344 18.3273171,2.6357152 17.9453316,2.80536956 C17.8913062,2.60320003 17.9294776,2.38748732 18.0495997,2.21613401 C18.2484363,1.97365024 18.6994561,1.90332995 19.3468878,2.01002281 L19.3614368,2.01002281 C19.5893716,2.01002281 19.6451428,1.80876128 19.7009141,1.61234943 C19.7442295,1.42946919 19.8206593,1.25606388 19.926424,1.10070869 C20.3313719,0.557545056 20.8599865,0.555120219 21.5340914,0.715159504 C22.1184772,0.8630746 23.182981,1.28742119 23.7334191,1.77481356 C24.5433149,2.48771583 24.6815306,3.39460511 24.7033542,4.1414551 C24.3881253,4.0056642 24.1359422,3.95716744 23.9613538,4.04203676 C23.7901033,4.13815078 23.6768489,4.31210957 23.6582491,4.50760559 C23.3560954,5.97588671 23.598275,7.50394546 24.3396285,8.80684275 C25.0670798,10.0192616 25.258642,10.9116018 25.3095636,11.4111184 C25.1662232,11.2195553 25.0358016,11.0186574 24.9191647,10.8097586 C24.7033542,10.4266343 24.5578639,10.1841505 24.3566024,10.1841505 L24.2935566,10.1841505 L24.2668834,10.237497 C24.0243996,10.6933664 23.764942,11.207432 23.8231381,11.731197 C23.2969483,11.5202361 22.8168305,11.178334 22.7901573,10.1114054 L22.6010199,10.0823074 L22.45068,10.4945298 C22.2348694,11.088615 22.0214837,11.6730008 21.8881177,11.9300336 C21.344954,10.8315822 21.0345748,10.5139285 20.8502871,10.327216 L20.7581433,10.237497 C20.7343739,10.2735009 20.71252,10.3107335 20.6926727,10.3490395 C20.5447576,10.6230423 20.4089667,10.834007 20.2925745,11.027994 C20.1641136,11.2176139 20.0606107,11.4229899 19.9846201,11.6390531 C19.845139,11.3991405 19.6929665,11.1668347 19.5287506,10.9431247 C19.5287506,10.9116018 19.0656066,10.0022877 20.0694894,8.54253544 L20.0694894,8.53526093 Z M19.0049857,10.7176148 L19.0049857,10.7176148 L19.0049857,10.7418632 C19.0049857,11.0837653 19.0049857,11.3480726 18.8861686,11.4693145 C18.8301085,11.5047447 18.765719,11.5248141 18.6994561,11.5275106 C18.71643,11.0740659 18.8279725,10.8582554 18.9201164,10.7661116 C18.946331,10.7465583 18.9748308,10.7302727 19.0049857,10.7176148 L19.0049857,10.7176148 Z M19.5360251,11.9615565 L19.5360251,11.9615565 C19.7930579,12.582315 20.0209927,13.3461388 20.0209927,13.3558382 L20.1325352,13.7074396 L20.224679,13.3364395 C20.224679,13.3218905 20.5350582,11.9882297 20.9157578,11.5008374 C21.3421737,12.0914221 21.7223851,12.7140284 22.0530066,13.3631127 L22.2348694,13.3146159 C22.2348694,13.3146159 22.2130459,12.3446809 22.763484,11.7045237 C22.8944253,11.8475892 23.0229417,12.0173278 23.1538829,12.1894913 C23.481236,12.6308117 23.8207133,13.0866812 24.2014128,13.0866812 L24.3008311,13.0866812 L24.3008311,12.9872629 C24.3008311,12.1652429 24.4584456,11.774844 24.5433149,11.6220793 L25.5350735,12.5920143 C25.6684395,12.7884262 25.3580603,14.6822244 24.8755176,15.3369305 C24.5583364,14.6286319 24.1508113,13.9643661 23.6630988,13.3606879 L23.5952034,13.2927924 L23.5273079,13.3606879 C23.4131453,13.5365409 23.3417285,13.7366742 23.3187719,13.9450737 C23.226628,14.3524465 23.0908371,14.8907604 22.7853076,15.1720416 C22.533744,14.8828976 22.329921,14.5554711 22.181523,14.2021065 C22.081629,13.9545037 21.9415281,13.7250987 21.7668758,13.523152 L21.6747319,13.433433 L21.6116862,13.5498252 C21.4551668,13.8572524 21.3378576,14.1831114 21.2625095,14.5197603 C21.2156793,14.7338239 21.1337443,14.9386614 21.0200258,15.1259697 L19.9482475,14.0638908 L19.7057638,13.821407 L19.53845,13.656518 L19.53845,13.8990018 C19.558041,14.3321621 19.5197133,14.7659992 19.4244826,15.1890154 C18.8990402,14.6445772 18.5173753,13.9779137 18.313907,13.2491453 C18.8026401,12.903922 19.2200847,12.46754 19.5432996,11.9639814 L19.5360251,11.9615565 Z M14.6863498,20.1866058 L14.6863498,20.1866058 C15.0137029,19.4179323 15.4138011,17.8636114 15.3022586,17.0755391 C15.2440625,16.6875651 15.1179709,16.2244211 14.8318401,16.1977479 C14.6039053,16.180774 14.3977941,16.4620552 14.2110816,17.0343169 C12.5500679,22.3544107 11.2115575,22.3932081 10.4380343,22.2331688 C11.0199953,21.7918484 11.6868257,20.7443185 11.99478,18.945089 C12.3706299,16.3117153 12.1257213,15.7928 11.9123356,15.613362 C11.7964682,15.5249058 11.6404416,15.5098671 11.5098125,15.5745646 C11.0127208,15.7709765 10.3580146,17.6890231 9.42445212,20.5867041 C8.99040619,21.9349138 8.58060862,23.2079536 8.27750392,23.8675094 C7.01658834,26.4790595 5.6101825,27.8515177 4.31289436,27.7278509 C3.35993316,27.6332823 2.55488706,26.7094191 2.13054047,25.2520917 C3.42297894,25.4727519 4.55537812,25.2157191 5.45984257,24.4615946 C8.12716398,22.259842 8.34054969,16.6026958 8.33812486,14.9222833 L8.33812486,14.9077343 C8.33812486,14.4227667 8.22900716,14.1220869 8.02774564,14.0881391 C7.86528152,14.0590411 7.71736642,14.2021065 7.61552324,14.4809628 C5.72899954,19.8616776 3.59271757,20.3369458 2.76584793,20.3005732 C2.04470796,20.2646505 1.4073264,19.8202722 1.12423285,19.1560498 C1.79410145,19.3831659 2.53201235,19.2787785 3.11259972,18.8747687 C4.9724502,17.5386831 5.05246984,13.4019101 5.05246984,13.3606879 C5.05246984,12.8975439 4.98457439,12.6696091 4.83180961,12.6089882 C4.67904484,12.5483672 4.53840426,12.6696091 4.44141075,12.7666026 C3.52482212,13.8432305 2.68340345,14.2918255 2.0165731,14.0808646 C1.34974275,13.8699038 1.04663804,13.1618512 0.939945184,12.6526353 C1.50008268,12.9314916 2.00202407,12.9654393 2.42637066,12.7253804 C3.80367845,11.9494323 3.97099225,8.62013025 3.99281579,7.61624746 C3.98796611,6.57599211 4.63297293,5.33447523 5.56411058,4.60702393 C6.19384318,4.06319374 7.04128478,3.84438342 7.85558216,4.01536355 C8.88371333,4.30391923 9.53114498,4.82525932 9.77847842,5.56725964 C10.2076747,6.86212295 9.32260894,8.42614323 8.94190943,8.92081012 L8.89826235,8.97658138 L8.93705976,9.03477748 C10.5277533,11.3020007 16.3885859,11.7360466 17.4894622,11.8015172 C16.8468802,12.7399294 15.9205922,12.5920143 14.4268922,12.3301319 L14.012245,12.2622364 C11.9414336,11.9130598 9.72513199,10.4145101 8.8691643,9.78647716 C7.61067356,8.86261401 7.45063428,8.05514307 7.45063428,7.45620817 C7.44530634,7.40743252 7.45282987,7.35811158 7.47245782,7.31314275 C7.56945132,7.31314275 7.93802664,7.72778999 8.1538372,8.54738512 L8.19990911,8.70984924 L8.31872616,8.59103219 C8.68002697,8.2370059 8.65577859,7.92662668 8.62910538,7.57017554 C8.62910538,7.46590752 8.61455635,7.36163951 8.61455635,7.25009697 C8.61455635,7.08520801 8.63395505,7.05368512 8.63880473,7.05126029 C8.72324028,7.06270408 8.80518554,7.08810711 8.88128849,7.12643025 C9.00900176,7.18323324 9.14020959,7.23182873 9.27411219,7.27192051 L9.39535407,7.30586824 L9.39535407,7.17735184 C9.39535407,6.74815558 8.86673947,6.09102458 8.40117064,5.90916175 C8.34386838,5.63036789 8.3708811,5.34082531 8.47876544,5.07744244 C8.53454824,4.91447707 8.56878609,4.74491816 8.58060862,4.57307621 L8.58060862,4.47365786 L8.47391577,4.47365786 C8.1538372,4.47365786 8.05441885,4.70401744 7.85315733,5.15988692 C7.7804122,5.33447523 7.68341869,5.55271062 7.55247746,5.80974341 C7.25994708,5.68385033 7.03259756,5.44245605 6.92444451,5.14291305 C6.86594712,4.9774586 6.77436721,4.82565046 6.65528753,4.69674293 L6.58496724,4.62884747 L6.51707178,4.69916776 C6.39665969,4.87904241 6.34107208,5.0945513 6.35945733,5.31022685 C6.35945733,5.6545538 6.44675149,6.11042328 6.63588883,6.2922861 C6.87837259,6.53476987 6.99233996,6.65843659 6.99718964,6.91546938 C6.00543104,8.77289502 8.93705976,10.7491377 10.6999167,11.9348833 C12.7780026,13.3364395 15.7484287,13.3364395 16.8687037,13.3364395 L16.9026514,13.3364395 C17.0200277,13.3350003 17.1373968,13.3398569 17.2542529,13.3509885 L17.1281613,13.4285833 C16.9956683,13.4995431 16.8719633,13.5858111 16.759586,13.6856161 L16.759586,13.6856161 L16.759586,13.6856161 C16.5340761,14.0638908 16.3497885,14.2433288 16.1509518,14.270002 C15.9521151,14.2966752 15.6659842,14.1414856 15.2755854,13.7559364 L15.1858664,13.6613677 L15.1228206,13.7777599 C14.9094349,14.1681588 14.6718008,14.3718452 14.4123432,14.3912439 C14.0704411,14.4106426 13.6703429,14.1099627 13.2314472,13.4892042 L13.1635518,13.3970604 L13.0835321,13.4770801 C12.7149568,13.8432305 12.443375,14.0081195 12.2687867,13.9620476 C12.0941984,13.9159757 11.9535578,13.5352762 11.8347408,13.1376028 C11.8080675,13.0478838 11.7789695,12.9581648 11.7498714,12.8684458 L11.7159237,12.7520536 L11.6092308,12.8126745 C11.1412372,13.0939557 10.8332828,13.178825 10.6732435,13.0939557 C10.5132042,13.0090864 10.4501585,12.7035569 10.3919623,12.3155828 C10.3774133,12.2113148 10.3604395,12.104622 10.3386159,11.9906546 L10.3143675,11.8597133 L10.1955505,11.9227591 C9.68390975,12.1943409 9.34928216,12.2816351 9.13347161,12.1919161 C8.91766106,12.1021971 8.76732112,11.7627198 8.61698119,11.3068504 L8.59758249,11.2486543 L8.53696154,11.2486543 C7.52822908,11.117713 7.32454272,11.0061705 7.32454272,9.9440916 L7.32454272,9.81072553 L7.19845116,9.85194777 C6.28913704,10.147778 6.06605198,9.89317001 6.02967941,9.83739875 L6.02967941,8.86746369 C6.22767757,8.75432455 6.35121786,8.54504362 6.35460766,8.31702554 C6.28087973,8.03349056 6.06801057,7.80691738 5.78962049,7.7156658 C5.6863657,7.66669752 5.56554322,7.67214816 5.46711708,7.73021483 C5.32284649,7.85869359 5.23560563,8.03928216 5.22463331,8.23215622 C5.22463331,8.23215622 5.17128688,10.6569939 5.17128688,10.6569939 L5.17128688,10.7467129 L5.26100588,10.7467129 L6.4734247,10.8776541 L6.4734247,11.9785304 L8.04956918,11.9785304 L8.04956918,13.821407 L8.18536009,13.7607861 L9.66451105,13.0939557 L9.97973995,14.4906622 L10.0039883,14.6167538 L10.1179557,14.5585577 L11.3303745,13.9329495 L11.6310544,14.8616624 L11.6650021,14.9610807 L11.7595708,14.9222833 L13.1611269,14.3718452 L13.6339703,15.4581724 L13.6751925,15.5575908 L13.7697612,15.5042443 L15.176167,14.7501198 L16.1800498,15.5187934 L16.2455204,15.5672901 L16.3037165,15.5115189 C16.5935118,15.1659653 16.8455119,14.7904038 17.0554162,14.3912439 C17.7828675,16.6317938 15.7993503,19.2409192 14.6790753,20.1914555 L14.6863498,20.1866058 Z M9.59419076,22.3980578 L9.59419076,22.3980578 C10.0549099,20.8485865 10.5786748,19.2966904 10.7532632,19.1293766 C10.8227624,19.1479927 10.8793921,19.1983301 10.9060279,19.2651675 C11.0224201,19.4858278 11.1218385,20.2351026 9.59419076,22.3980578 L9.59419076,22.3980578 Z M12.174218,28.5013741 L12.174218,28.5013741 C12.1987589,28.3001027 12.2832432,28.1108579 12.4167018,27.9582105 C12.5150097,27.8619289 12.6386095,27.7955045 12.7731529,27.7666483 C12.5100756,27.952307 12.2995566,28.2029248 12.1620938,28.4940996 L12.174218,28.5013741 Z M19.0656066,22.065855 L19.0656066,22.065855 L19.0534824,22.065855 L19.0534824,22.0852537 C18.597613,23.1934045 18.2072141,23.7826401 17.8895604,23.8505355 C17.700423,23.8844833 17.5476583,23.7317185 17.4045928,23.5813786 L17.3633706,23.5401563 L17.2930503,23.469836 L17.2033313,23.545006 C16.371612,24.367026 16.0175857,25.1017518 16.0175857,25.994092 L16.0175857,26.0716868 L16.0951805,26.0910855 C17.1548346,26.3578177 17.8750113,26.92038 18.0665735,27.6284326 C18.184804,27.9884984 18.1036249,28.3842463 17.8531878,28.6686879 C17.5641452,29.0059115 17.1352838,29.1903488 16.6916906,29.1682045 C16.4053756,29.1239887 16.1459203,28.9743695 15.9642393,28.7487076 C16.2978303,28.7659649 16.6204651,28.6270527 16.8371808,28.3728578 C16.9827607,28.1654986 16.9827607,27.8891382 16.8371808,27.681779 C16.7043761,27.4654232 16.4839656,27.3175977 16.2333962,27.2768311 C15.6708339,27.2307592 15.0500755,27.7763477 14.6330034,28.1909949 C14.0089231,28.7801416 13.7820673,29.6771674 14.0510424,30.4921659 C13.5272774,30.5115646 13.175676,30.3975972 13.0083622,30.1429892 C12.5912901,29.4931327 13.369663,28.0503543 13.7358135,27.3641253 C13.7988592,27.2509662 13.8497808,27.1539727 13.8885782,27.0731448 L13.9540489,26.9470532 L13.8085586,26.9470532 C12.6252378,26.8500597 12.0602507,27.189537 11.7959433,27.502341 C11.5704935,27.7638864 11.4634015,28.1071074 11.5001132,28.4504526 C11.2139823,28.4116552 10.7484135,28.1934198 10.7484135,27.1846873 C10.7484135,26.1759548 12.0917735,26.1638307 12.5306692,26.1614058 C12.6325123,26.1614058 12.7464797,26.1759548 12.8531726,26.1856542 C13.1199047,26.2171771 13.369663,26.2414255 13.5224278,26.1056345 C13.6081632,26.0199573 13.653169,25.9017068 13.6460945,25.7807063 C13.6460945,25.1963204 12.5112705,25.038706 11.9244597,25.0144576 C12.1669435,24.3985488 12.4748979,24.0445225 12.8361987,23.9548036 C13.5200029,23.8020388 14.3347484,24.60466 14.9870297,25.2496669 L15.05735,25.3175623 L15.1228206,25.3830329 L15.1931409,25.3175623 C15.3483305,25.1623727 16.7232135,23.4213393 16.5146774,22.3689597 C16.3522133,21.3432534 16.8929521,20.302998 17.3706451,19.3839846 C17.4652138,19.2069714 17.5500831,19.0396576 17.6325276,18.8771935 C17.8216649,18.4843698 17.9453316,18.4673959 17.9817042,18.4698208 C18.0859722,18.4698208 18.1926651,18.7123046 18.238737,18.8577948 L18.238737,18.884468 L18.2605605,18.9038667 C18.4036259,19.0930041 19.1844237,21.8136719 19.0437831,22.0731295 L19.0656066,22.065855 Z M23.9928767,33.1449383 L23.9928767,33.1449383 C24.6074351,33.6609942 25.4069322,33.9020706 26.2043287,33.8117686 C25.9671111,34.2529648 25.5097462,34.5312802 25.0088837,34.5392199 C24.1432167,34.5634683 23.3405954,33.9524092 22.8653272,32.9024545 L22.7271115,32.6017746 L22.6810396,32.9267029 C22.554948,33.7705464 23.7358439,35.6982923 25.6223676,36.7215738 C25.4120259,36.9283951 25.1292807,37.0449731 24.8342954,37.046502 C24.0759999,37.0261848 23.3656564,36.671013 22.8944253,36.076567 L22.7974318,35.9650244 L22.734386,36.1008153 C22.6252683,36.3287501 22.7683337,36.5857829 22.9210985,36.8719137 C23.0517701,37.0656245 23.1348524,37.2874542 23.1635823,37.5193454 C23.1635823,37.6624108 23.1320594,38.9184767 22.0457321,39.6047058 C20.95698,38.9184767 20.9206074,37.6648356 20.9206074,37.5217702 C20.9482413,37.2896113 21.0314174,37.0675312 21.1630912,36.8743386 C21.3134311,36.5930574 21.4540717,36.3287501 21.3473789,36.1008153 L21.2843331,35.9650244 L21.1873396,36.0789918 C20.7143945,36.6713235 20.0051018,37.0259699 19.2474694,37.0489269 C18.9496198,37.0486537 18.6638702,36.9310434 18.4521227,36.7215738 C20.3265222,35.7007171 21.5122678,33.775396 21.3983004,32.9315525 L21.3498037,32.5969249 L21.2091631,32.9024545 C20.7241956,33.9524092 19.926424,34.5634683 19.0631818,34.5392199 C18.5660942,34.528974 18.1134187,34.2506899 17.879861,33.8117686 C18.6497634,33.9364831 19.4363491,33.7274911 20.0428162,33.2370821 C21.3037318,32.1847025 21.4637711,30.1454141 21.4807449,29.7113681 L22.5937454,29.7113681 C22.6131441,30.1357147 22.7756082,32.0634607 23.9928767,33.1328141 L23.9928767,33.1449383 Z M23.2048045,27.9751844 L23.2048045,27.9751844 C23.2790686,28.1443868 23.2626421,28.3396798 23.1611574,28.4940996 C22.8823011,28.8941978 22.0505818,29.0299888 21.8493202,29.0299888 C21.6480587,29.0299888 20.2077052,28.8554004 20.2077052,28.1279491 C20.2077052,27.5241646 21.3934508,27.3398769 21.8493202,27.322903 C22.5767715,27.322903 23.1490332,27.9242628 23.1999548,27.9751844 L23.2048045,27.9751844 Z M23.3672686,23.290398 L23.3672686,23.290398 C23.2521686,23.3811418 23.0963039,23.4007416 22.9623207,23.3413196 L22.8216801,23.2782738 L22.8216801,23.4286138 C22.7908652,23.8092971 22.6766188,24.1785284 22.4870526,24.5100914 C22.1790982,24.3912743 22.0505818,24.1342415 21.8735686,23.7486924 C21.8274967,23.6516988 21.7838496,23.5522805 21.7280784,23.4431628 L21.614111,23.2176529 L21.5462155,23.4601367 C21.3522285,24.1633396 21.7644509,24.9417125 22.5379741,25.3102878 C22.6440081,25.3423081 22.7148669,25.4421093 22.7101376,25.5527716 C22.7101376,25.7952553 22.3270133,26.1638307 22.0263334,26.2802229 C21.9147909,26.3262948 21.8444706,26.3262948 21.8177974,26.3068961 C19.5942212,21.0474232 19.6499925,19.9392724 19.8027573,19.2942656 C20.172211,19.524919 20.4867137,19.8336282 20.7241956,20.19873 L20.8430126,20.3975667 L20.9012087,20.1720568 C21.0008083,19.7911545 21.1222511,19.4163013 21.2649344,19.049357 C21.5559149,19.3888343 22.0724053,20.1890307 22.0821047,20.2011549 L22.1306014,20.2739 L22.0748302,20.3999916 L21.4710456,21.7627503 C21.1513323,21.4510799 20.8645024,21.1073715 20.6150779,20.737044 L20.4380647,20.812214 C20.7217707,22.1240511 21.0927709,22.5580971 21.5171175,22.9533456 L21.6795816,23.1061104 L21.6795816,22.8854501 C21.8187973,22.4710353 22.0128934,22.0771343 22.256693,21.7142536 C22.4060203,22.1203992 22.6427709,22.4887699 22.9501965,22.7933063 C23.0265562,22.8670999 23.1075489,22.9359436 23.1926803,22.9994175 C23.2920987,23.081862 23.4036412,23.1740058 23.406066,23.2273523 C23.4084909,23.2806987 23.3842425,23.2709993 23.3721183,23.2831235 L23.3672686,23.290398 Z M24.303256,20.676423 L24.303256,20.676423 L24.0195499,20.4096909 L23.9516545,20.3417955 L23.8813342,20.4096909 C23.8667852,20.4266648 23.5515563,20.7758414 23.1926803,22.0755544 C22.8361068,21.5435451 22.5223176,20.9840761 22.2542681,20.4024164 L22.2009217,20.288449 C22.2251701,20.2496516 22.2494185,20.19873 22.2494185,20.19873 L23.0083926,18.8335464 C23.2508764,19.4009584 23.4933602,20.0702136 23.4933602,20.079913 L23.5539811,20.2399523 L23.660674,20.1065862 C23.9572828,19.707475 24.3129649,19.3558812 24.7154784,19.063906 C24.7115213,19.6284961 24.5655943,20.1830186 24.2911318,20.676423 L24.303256,20.676423 Z M24.8318706,16.8330554 L24.8318706,16.8330554 L24.7106287,16.7554606 L24.6839555,16.8936763 C24.586962,17.3301471 24.2935566,18.4455724 24.0050009,18.8674942 C23.8740597,18.6468339 23.7382688,18.3825266 23.6073275,18.1400429 C23.4195834,17.7137151 23.174868,17.314829 22.8798763,16.9542973 L22.7610592,16.837905 L22.719837,16.9979443 C22.5767715,17.4974609 22.4967519,17.8830101 22.4312813,18.1909645 C22.3996412,18.4725077 22.3174994,18.7460399 22.1887975,18.9984354 C21.5680391,18.3388796 21.1000454,17.1725326 21.0830716,17.1604085 L20.9812284,16.8888266 L20.9012087,17.1701078 L20.4380647,18.8238471 C20.0107966,18.4792077 19.757091,17.9638127 19.7445612,17.4150164 L19.7445612,17.0464411 L19.5699729,17.3737942 L18.9613386,18.5352914 C18.7188548,18.2346115 18.0302009,17.1361601 18.4133253,14.8980349 C18.7328466,15.4402969 19.1127321,15.9446416 19.5457245,16.4014343 L19.6742409,16.5275258 L19.7106134,16.3505127 L19.9846201,15.0338258 C20.3216725,15.5309176 20.7411694,16.2171466 20.7411694,16.4135585 L20.7411694,16.6560422 L20.9109081,16.4911533 C21.3375969,16.0610112 21.6725218,15.5487245 21.8953922,14.9853291 C22.302847,15.4003069 22.585929,15.9211106 22.7125625,16.4887284 L22.9065495,16.4693297 L22.9065495,16.510552 C22.9065495,16.4960029 22.9623207,16.4135585 23.0156672,16.3262643 C23.3462098,15.8153195 23.6426838,15.2831244 23.9031577,14.733146 C24.1431718,15.3272945 24.3496084,15.9344611 24.5214913,16.5517742 L24.5530142,16.6730161 L24.6645568,16.6099703 C25.1776561,16.2671466 25.6049527,15.8108105 25.9133482,15.2763096 C25.8890998,16.7772841 25.7120866,17.2501274 25.1858969,17.8029904 C25.1301256,17.0755391 24.8342954,16.8330554 24.8221712,16.8330554 L24.8318706,16.8330554 Z M31.3449845,27.7448248 L31.3449845,27.7448248 C31.4729414,27.77523 31.5902616,27.8397562 31.6844618,27.9315373 C31.8097491,28.0668546 31.8938641,28.2350846 31.9269455,28.4165048 C31.7907916,28.1456776 31.5900984,27.912507 31.3425597,27.7375503 L31.3449845,27.7448248 Z M29.0001665,25.2908891 L29.0001665,25.2908891 L29.0680619,25.3587846 L29.1335326,25.2908891 L29.1917287,25.232693 C29.8488597,24.5828365 30.6466312,23.7777904 31.3474093,23.9281303 C31.711135,24.00815 32.0215142,24.3718756 32.2688476,24.9877844 C31.6771872,25.0120328 30.5472129,25.1720721 30.5472129,25.7516083 C30.538157,25.8727001 30.5814113,25.9918699 30.6660299,26.0789613 C30.8212196,26.2171771 31.0734027,26.1905039 31.3401348,26.158981 C31.4454926,26.1450597 31.5515385,26.1369646 31.6577885,26.1347326 C32.1015338,26.1347326 33.4424691,26.1347326 33.4424691,27.1531644 C33.4424691,28.1715962 32.9817499,28.3825571 32.6931942,28.4237793 C32.7323125,28.0802018 32.6249257,27.7360357 32.397364,27.4756678 C32.1354816,27.1677134 31.5704944,26.8209617 30.3798991,26.9228048 L30.2344088,26.9228048 L30.3023043,27.0513212 C30.3411017,27.1337657 30.3992978,27.2356089 30.4623436,27.3544259 C30.4914416,27.4101972 30.5278142,27.4780927 30.5641868,27.5387136 L30.5472129,27.5387136 L30.5690364,27.5387136 C30.9594353,28.2661649 31.5729192,29.5125314 31.1946446,30.1066167 C31.0249059,30.3491004 30.6708796,30.4727672 30.1495395,30.4557933 C30.4253974,29.6453615 30.2059123,28.7485001 29.5869772,28.1570472 C29.1335326,27.7036026 28.544297,27.1871121 27.9890092,27.2428834 C27.7290205,27.2718257 27.4966607,27.4183912 27.3585514,27.6405568 C27.2087978,27.8492565 27.2087978,28.1302103 27.3585514,28.33891 C27.5759695,28.5918972 27.898375,28.7298151 28.2314929,28.712335 C28.0494515,28.9380052 27.7903183,29.0883025 27.5040417,29.1342568 C27.0610136,29.1543028 26.6334508,28.9691449 26.3449693,28.6323154 C26.0927746,28.3507992 26.0096178,27.9562665 26.1267339,27.5969097 C26.3207209,26.8864323 27.0384728,26.3238699 28.1054014,26.054713 L28.1781465,26.0353143 L28.1781465,25.9577195 C28.1781465,25.0653792 27.8192705,24.3306534 26.9899761,23.5086334 L26.9220806,23.4383131 L26.8541852,23.5086334 L26.8105381,23.5522805 C26.6601981,23.7026204 26.5025837,23.85781 26.3255706,23.8190126 C26.005492,23.7559669 25.6126683,23.1643065 25.1567988,22.0561557 L25.1567988,22.036757 L25.1567988,22.036757 C25.0161582,21.7797242 25.7945311,19.0566315 25.9424462,18.8626445 L25.9618449,18.8432458 C25.9618449,18.8432458 25.9618449,18.8214222 25.9618449,18.8214222 C26.0030671,18.6686575 26.1146097,18.4382979 26.2213025,18.4310234 C26.2552503,18.4310234 26.378917,18.4455724 26.5704792,18.8359713 C26.6504988,19.0008602 26.737793,19.168174 26.8275119,19.3451872 C27.3124795,20.2617758 27.8507934,21.304456 27.6883293,22.3325872 C27.4749436,23.3995157 28.8764998,25.1453988 29.0122907,25.2763401 L29.0001665,25.2908891 Z M34.3081361,22.1386002 L34.3081361,22.1386002 L34.264489,22.065855 L34.1432471,21.8936915 C34.1432471,21.8936915 34.0899007,21.8088222 34.0899007,21.8088222 L33.9929072,21.6584823 L33.9347111,21.5808875 C33.9347111,21.5808875 33.8571163,21.4523711 33.8571163,21.4523711 C33.8401939,21.4266301 33.8248097,21.3999102 33.8110444,21.3723515 C33.8110444,21.3723515 33.7310247,21.2414102 33.7310247,21.2414102 L33.6849528,21.1638154 C33.6849528,21.1638154 33.6194822,21.049848 33.6194822,21.049848 L33.5806848,20.9722532 L33.5273384,20.8679852 C33.5273384,20.8679852 33.4958155,20.7952401 33.4958155,20.7952401 C33.4958155,20.7952401 33.4351945,20.6885472 33.4351945,20.6885472 C33.4351945,20.6885472 33.413371,20.6255015 33.413371,20.6255015 L33.3648743,20.5260831 C33.3648743,20.5260831 33.3406259,20.4654622 33.3406259,20.4654622 C33.3406259,20.4654622 33.3042533,20.3854425 33.2994036,20.378168 L33.2848546,20.3248216 L33.2848546,20.3248216 L33.2848546,20.3248216 L33.2509069,20.2496516 L33.2387827,20.2108542 L33.2387827,20.1963052 L33.2096846,20.109011 C33.2096846,20.109011 33.2096846,20.0847627 33.2096846,20.0750633 L33.1878611,19.9950437 L33.1878611,19.9950437 L33.1878611,19.9950437 L33.1708872,19.9562463 L33.1563382,19.8907756 C33.1551991,19.8778683 33.1551991,19.8648856 33.1563382,19.8519782 L33.1563382,19.7937821 L33.1563382,19.7792331 L33.1563382,19.7452854 C33.1497963,19.7255224 33.1449295,19.7052438 33.1417892,19.6846644 L33.1417892,19.6410174 C33.1417892,19.6410174 33.1417892,19.5876709 33.1417892,19.5876709 L33.1417892,19.4858278 C33.1417892,19.4858278 33.1417892,19.4349062 33.1417892,19.4349062 L33.1417892,19.4349062 L33.1611879,19.3912591 C33.1606207,19.3856154 33.1606207,19.379929 33.1611879,19.3742852 C33.1611879,19.3742852 33.1611879,19.3500369 33.1611879,19.3354878 L33.1611879,19.3354878 L33.1757369,19.2942656 L33.1999853,19.2627427 L33.1999853,19.2409192 C33.1999853,19.2409192 33.1999853,19.2263701 33.2145343,19.2190956 L33.2145343,19.2190956 L33.2145343,19.2190956 L33.2145343,19.2190956 L33.2145343,19.2190956 L33.2145343,19.2190956 L33.2387827,19.2021218 L33.2581814,19.1875727 L33.2581814,19.1875727 L33.2800049,19.1875727 L33.294554,19.1875727 L33.294554,19.1875727 C33.4594429,19.3451872 33.9880575,20.8970833 34.4487767,22.4465545 L34.2838877,22.2186198 L34.3081361,22.1386002 Z M41.3401653,20.2666255 L41.3401653,20.2666255 C40.5132957,20.3126974 38.3770137,19.8422789 36.49049,14.4591393 C36.3886468,14.180283 36.2480062,14.0347927 36.0806924,14.0638908 C35.8770061,14.1002633 35.7654635,14.3912439 35.7654635,14.8859107 L35.7654635,14.8980349 C35.7654635,16.5784474 35.9764244,22.2331688 38.6534452,24.4349214 C39.567609,25.1890459 40.6903088,25.4485035 41.9827473,25.2254185 C41.5681,26.6803211 40.7703284,27.6066091 39.8003934,27.7011777 C38.5055301,27.8248444 37.0942746,26.4548112 35.8309341,23.8408362 C35.5254046,23.1837052 35.1034829,21.9009661 34.6767114,20.5454818 C33.7407241,17.6575002 33.0908676,15.7491529 32.591351,15.5527411 C32.4614705,15.4884714 32.3063653,15.5035119 32.1912528,15.5915385 C31.9730174,15.763702 31.7329585,16.2947414 32.1063835,18.9184158 C32.4191876,20.7200701 33.0884428,21.7651752 33.6704038,22.2089204 C32.8920309,22.3713846 31.560795,22.3374368 29.8900819,17.0149182 C29.7033694,16.4426565 29.499683,16.1613753 29.2717483,16.1783492 C28.9856175,16.2025976 28.8619507,16.6633167 28.8061795,17.0561404 C28.6873624,17.8442127 29.0898855,19.3961088 29.4196634,20.1647823 C28.2945387,19.1948472 26.3110215,16.6099703 27.0408977,14.3669955 C27.2493098,14.7657226 27.500551,15.1405517 27.7901725,15.4848456 L27.8483686,15.5454666 L27.9186889,15.494545 L28.9128723,14.747695 L30.2974546,15.5187934 L30.3895985,15.569715 L30.4308207,15.4702966 L30.8988144,14.3839693 L32.307645,14.9344075 L32.3949392,14.9732049 L32.4313118,14.8737865 L32.7344165,13.9450737 L33.9468353,14.568257 L34.0608027,14.6264531 L34.085051,14.5027864 L34.4196786,13.0939557 L35.9182283,13.7413874 L36.0515944,13.8020083 L36.0515944,11.9615565 L37.6301637,11.9615565 L37.6301637,10.8606802 L38.8425825,10.7273142 L38.9323015,10.7273142 L38.9323015,10.6375952 L38.8789551,8.22730655 C38.87251,8.03052867 38.7846993,7.84524798 38.6364713,7.7156658 C38.53705,7.65799992 38.4157203,7.65256725 38.3115431,7.70111678 C38.0319484,7.7911138 37.8190144,8.01965068 37.7489807,8.30490135 C37.7496974,8.52604315 37.8666674,8.73051041 38.0569351,8.84321531 L38.0569351,9.81315037 C38.0254122,9.85922229 37.8144513,10.1259544 36.8857385,9.83012423 L36.7572221,9.78647716 L36.7572221,9.91984323 C36.7572221,10.9746476 36.5608103,11.0934647 35.5448033,11.2268307 L35.4841824,11.2268307 L35.4623588,11.2850268 C35.3144437,11.7433211 35.190777,12.0755239 34.9482932,12.1725174 C34.7058095,12.2695109 34.3930054,12.1725174 33.8837895,11.9033604 L33.7649725,11.8403146 L33.7407241,11.9712559 C33.7213254,12.0852232 33.7019267,12.1919161 33.6873777,12.298609 C33.6291816,12.6841581 33.5831096,12.9921125 33.4060965,13.074557 C33.2290833,13.1570015 32.9405277,13.074557 32.4773837,12.8029752 L32.3755405,12.7423543 L32.3343183,12.8587465 C32.3100699,12.9460406 32.2833967,13.0333348 32.2567234,13.1182041 C32.1403312,13.5207271 32.0142397,13.8990018 31.8251023,13.9523482 C31.635965,14.0056947 31.3765074,13.8335312 31.0079321,13.4673807 L30.9254876,13.3873611 L30.8575921,13.4795049 C30.4186965,14.1002633 30.0210231,14.4009432 29.679121,14.3791197 C29.4220882,14.3645706 29.1941535,14.1608843 28.9710684,13.7704854 L28.9104475,13.6540932 L28.8158788,13.746237 C28.4303296,14.1317862 28.1635975,14.2894007 27.9453621,14.2627275 C27.7271267,14.2360542 27.5573881,14.0566163 27.334303,13.6783416 L27.334303,13.6783416 L27.334303,13.6783416 C27.2230315,13.5793609 27.10103,13.4931465 26.9705774,13.4213088 C26.9269303,13.3970604 26.8808584,13.3679624 26.8444858,13.343714 C26.9608032,13.3378128 27.077345,13.3378128 27.1936624,13.343714 L27.230035,13.343714 C28.3478852,13.343714 31.3134616,13.343714 33.4012468,11.9348833 C35.683019,10.4048108 38.0278371,8.62740476 37.1039739,6.91304454 C37.1039739,6.67056077 37.2155164,6.54931889 37.4676996,6.2922861 C37.6519872,6.1055736 37.7392814,5.64727929 37.7392814,5.30295234 C37.7604427,5.08184844 37.7010257,4.86054169 37.5719676,4.67976906 L37.4992224,4.60702393 L37.4337518,4.67976906 C37.3133514,4.80581695 37.2215461,4.95634458 37.1645949,5.12108952 C37.0574116,5.42285489 36.8274708,5.66512964 36.5317122,5.78791987 C36.4056207,5.53331192 36.3086272,5.31750137 36.235882,5.14291305 C36.0321957,4.68704358 35.9303525,4.45425916 35.6126988,4.45425916 L35.5108556,4.45425916 L35.5108556,4.55367751 C35.5243134,4.72595157 35.561019,4.89561265 35.6199733,5.05804374 C35.7275507,5.32160155 35.752909,5.61153165 35.6927184,5.88976305 C35.2319992,6.06920104 34.7082343,6.72875688 34.7082343,7.15795314 L34.7082343,7.28889438 L34.831901,7.25494665 C34.9635991,7.21303111 35.0930896,7.16447215 35.2198751,7.10945639 C35.2900194,7.0712866 35.3663676,7.04583718 35.445385,7.03428642 C35.445385,7.03428642 35.474483,7.06580931 35.474483,7.23069827 C35.474483,7.3422408 35.474483,7.44650882 35.459934,7.54592717 C35.4332608,7.90480314 35.4138621,8.21518236 35.7703132,8.57163349 L35.8915551,8.69287538 L35.9327773,8.52798642 C36.1510127,7.70354161 36.5244377,7.29131921 36.6190064,7.29374405 C36.6190064,7.29374405 36.6432548,7.32526694 36.6432548,7.43680947 C36.6432548,8.03574437 36.4832155,8.84321531 35.2247247,9.76707846 C34.3663322,10.3951114 32.1524554,11.8985108 30.0816441,12.2476874 L29.6742713,12.3180077 C28.1757217,12.5798901 27.2494337,12.7253804 26.6044269,11.7893931 C27.7028783,11.7263473 33.5637109,11.2850268 35.1544044,9.01780362 L35.1956267,8.95718268 L35.1544044,8.90141141 C34.7737049,8.41644388 33.8862143,6.83787457 34.3105609,5.54786094 C34.5530447,4.80586062 35.205326,4.28452053 36.235882,3.99354001 C37.0478572,3.82494841 37.8920562,4.04361566 38.5200791,4.58520039 C39.4463671,5.31265169 40.0913739,6.56144308 40.0913739,7.60654811 C40.1131974,8.60800606 40.2780864,11.9348833 41.657819,12.7132562 C42.0797408,12.95574 42.5889567,12.9193674 43.1490942,12.6405111 C43.047251,13.1521518 42.7150482,13.8699038 42.0724663,14.0711653 C41.4298843,14.2724268 40.5545179,13.8286815 39.6476286,12.7666026 C39.5433606,12.6599098 39.4051448,12.5410927 39.2451056,12.6017137 C39.0850663,12.6623346 39.0317198,12.8878445 39.0317198,13.3509885 C39.0317198,13.3922107 39.1165892,17.5289838 40.97159,18.8650693 C41.5474041,19.2710506 42.281943,19.379071 42.9502575,19.1560498 C42.6692423,19.8115801 42.0380999,20.2486697 41.3256163,20.2811745 L41.3401653,20.2666255 Z M16.655318,54.9878758 L16.655318,54.9878758 L16.7547363,54.8617843 L16.6844161,54.6193005 C16.7547363,53.3729339 18.5054691,50.5285994 18.5054691,50.5285994 C18.5054691,50.5285994 22.1790982,50.6377171 22.7683337,50.5576974 L23.8061642,54.3161958 C23.3211967,54.6750718 23.2242032,54.9345294 23.3211967,55 C24.1407918,54.5950521 25.7581585,54.418039 26.6577733,54.5877776 C26.7426426,54.6023266 28.4667022,55.0460719 28.6170421,54.9830261 C28.4764015,54.8278365 28.2072446,54.6217253 28.1781465,54.4131893 C28.1590443,54.2888736 28.1517373,54.1630305 28.156323,54.0373395 C27.9453621,50.9626453 29.4002647,39.7550457 29.4002647,39.6168299 C29.5675785,38.3704634 29.9070558,39.4883135 29.9070558,39.4883135 C29.9070558,39.4883135 32.8580832,53.7124112 33.0593447,54.6823463 L33.0593447,54.7259933 L33.1320898,54.9515032 L33.7601228,54.9515032 L33.8352928,54.6823463 C34.4512015,52.4999924 38.0326867,40.0120785 38.0326867,39.9684314 C38.3285169,39.0372937 38.626772,39.7938431 38.626772,39.7938431 C39.0971905,40.3297322 39.4390926,54.1876794 39.417269,54.2167774 C38.6316216,54.6726469 38.7746871,55 38.7843864,55 C40.522995,54.1197839 43.8353232,54.9830261 43.8765455,54.9466536 L42.4725645,53.6420909 L42.4725645,53.6420909 C42.1306624,52.3399531 40.9885638,34.4155532 41.0176619,33.9136118 C40.9352174,33.5474613 41.822708,32.999448 41.8784792,32.999448 C40.5161253,33.2478101 39.1206083,33.2535563 37.7562552,33.0164219 C37.3003858,32.9121538 38.2218241,33.3898469 38.1393796,33.7438732 C37.9308436,35.8389329 34.3760316,46.5955127 34.4051296,46.5712643 C33.6146325,45.8268392 31.9511939,34.2821871 31.9439194,34.1221478 C31.8832984,33.6056574 32.7756387,33.2055592 32.6277236,32.999448 C30.7460496,33.8481412 28.0690288,32.999448 28.0690288,32.999448 C27.768349,33.1352389 28.6655389,33.4844155 28.6412905,34.2627884 C28.6170421,35.0411613 27.2057866,50.9941682 26.9584532,52.4029989 C26.8955526,52.8735674 26.7883846,53.33715 26.6383746,53.7875812 L26.483185,53.5450974 C24.8415699,50.4607039 23.9225564,43.1473936 23.9928767,42.8515634 C24.063197,42.5557332 24.6475829,42.3811449 24.6475829,42.3811449 L20.9400061,42.3520468 C20.8842349,43.2710603 16.3109911,52.9704109 15.2489122,53.9015485 L15.2489122,53.9015485 C15.2489122,53.9015485 15.3677292,35.2715209 15.3653044,34.3015858 C15.3531802,33.5329123 16.3352394,32.9921735 16.3352394,32.9921735 L16.192174,33.013997 C15.5439348,33.1871481 14.8746606,33.2687669 14.2038071,33.2564808 C13.5332961,33.2618646 12.8656861,33.1678925 12.2227148,32.9776245 C11.980231,32.9315525 11.9462833,33.0018728 11.9462833,33.0188467 L12.2081657,33.3607488 C13.4981794,34.5416447 12.084499,41.8913277 11.99478,42.0537918 C5.97633298,59.7551066 3.57816855,49.3428538 3.57816855,49.3428538 C2.9307369,46.4597218 4.43898591,34.716233 4.48263299,34.6895598 C4.88515604,33.8893634 6.13637227,33.1376637 6.10727422,33.0430951 L6.07332649,33.0042977 C3.73093332,34.0882001 0.0354807397,32.9606506 0.0112323631,32.9800493 L0.0112323631,32.9800493 L0.0112323631,33.0042977 C-0.143957247,33.0867421 1.3594421,33.7632719 1.40793885,34.3767558 C1.40793885,34.6798605 0.564095348,48.0116179 0.564095348,47.9558466 C0.362833823,54.8860326 4.44383559,54.9709019 4.44383559,54.9709019 C9.84637388,54.881183 12.249388,44.679891 12.2978847,44.4204333 C12.3463815,44.1609757 12.6470614,44.2652437 12.6470614,44.2652437 L12.7028326,53.7221106 L12.5136953,54.2264768 L12.0796494,54.9733268 C13.4836304,54.5029083 14.9118597,54.6023266 16.3303898,54.9078562 C16.5049781,54.9466536 16.6262199,54.9684771 16.6674422,54.9733268 L16.655318,54.9878758 Z M21.3255553,1.72389197 L21.4516469,1.74086583 L21.4007253,1.86210771 C21.3164751,2.03912571 21.1643434,2.17464538 20.9788035,2.23795755 C20.7002255,2.29997189 20.4085572,2.23218353 20.1858816,2.05366989 L20.0331168,1.95425154 L20.1980058,1.88150641 C20.4621802,1.76351571 20.7476952,1.70080143 21.0369996,1.69721875 L21.3255553,1.72389197 Z" id="Shape"></path>
                    </g>
                </g>
            </g>
        </g>
    </g>
</svg>