<?xml version="1.0" encoding="UTF-8"?>
<svg width="55px" height="55px" viewBox="0 0 55 55" version="1.1" xmlns="http://www.w3.org/2000/svg" xmlns:xlink="http://www.w3.org/1999/xlink">
    <title>FC3EDF30-3C5F-4195-99F2-CDB263D528EB</title>
    <g id="Page-1" stroke="none" stroke-width="1" fill="none" fill-rule="evenodd">
        <g id="landing" transform="translate(-451.000000, -3394.000000)" fill="#001E50" fill-rule="nonzero">
            <g id="our-customers" transform="translate(412.000000, 3173.000000)">
                <g id="Shape" transform="translate(39.000000, 221.000000)">
                    <path d="M27.5,52.47 C13.805,52.47 2.585,41.195 2.585,27.5 C2.585,24.42 3.135,21.505 4.18,18.755 L18.755,48.07 C18.92,48.455 19.195,48.785 19.635,48.785 C20.075,48.785 20.35,48.455 20.515,48.07 L27.225,33.055 C27.28,32.89 27.39,32.725 27.555,32.725 C27.72,32.725 27.775,32.89 27.885,33.055 L34.595,48.07 C34.76,48.455 35.035,48.785 35.475,48.785 C35.915,48.785 36.19,48.455 36.355,48.07 L50.93,18.755 C51.975,21.505 52.525,24.42 52.525,27.5 C52.415,41.195 41.195,52.47 27.5,52.47 Z M27.5,21.835 C27.335,21.835 27.28,21.67 27.17,21.505 L19.36,3.905 C21.89,2.97 24.64,2.475 27.5,2.475 C30.36,2.475 33.11,2.97 35.64,3.905 L27.83,21.505 C27.72,21.725 27.665,21.835 27.5,21.835 Z M19.525,39.93 C19.36,39.93 19.305,39.765 19.195,39.6 L6.545,14.08 C8.8,10.615 11.825,7.7 15.51,5.665 L24.64,25.96 C24.75,26.29 25.025,26.4 25.3,26.4 L29.7,26.4 C30.03,26.4 30.25,26.345 30.415,25.96 L39.545,5.665 C43.175,7.7 46.255,10.615 48.51,14.08 L35.75,39.6 C35.695,39.765 35.585,39.93 35.42,39.93 C35.255,39.93 35.2,39.765 35.09,39.6 L30.305,28.71 C30.14,28.325 29.92,28.27 29.59,28.27 L25.19,28.27 C24.86,28.27 24.64,28.325 24.475,28.71 L19.855,39.6 C19.8,39.765 19.69,39.93 19.525,39.93 Z M27.5,55 C42.735,55 55,42.735 55,27.5 C55,12.265 42.735,0 27.5,0 C12.265,0 0,12.265 0,27.5 C0,42.735 12.265,55 27.5,55 Z"></path>
                </g>
            </g>
        </g>
    </g>
</svg>