<svg width="115" height="128" viewBox="0 0 115 128" xmlns="http://www.w3.org/2000/svg"><g fill="#1685E4" fill-rule="nonzero"><path d="m62.08 110.258-12.717-5.781 13.055-6.528c3.142-1.57 4.53-5.36 3.162-8.627a21.878 21.878 0 0 1-1.71-8.5V70.804c0-2.438-.285-4.873-.85-7.24a1.874 1.874 0 1 0-3.647.87c.496 2.082.748 4.225.748 6.37v10.018c0 3.434.673 6.782 2 9.95.62 1.476.026 3.12-1.38 3.823l-14.554 7.277a4.122 4.122 0 0 1-.353-1.664v-5.787c6.026-3.91 10.02-10.696 10.02-18.398v-5.696a3.91 3.91 0 0 0-1.316-2.924 3.821 3.821 0 0 0-2.992-.939c-8.69 1.052-16.029-.527-21.812-4.693-4.306-3.103-6.116-6.575-6.145-6.632a1.875 1.875 0 0 0-3.35 1.683c.084.17 2.14 4.21 7.121 7.859 4.536 3.323 12.492 6.976 24.637 5.506.01 0 .026-.003.054.023.02.017.054.056.054.118v5.696c0 10.016-8.15 18.165-18.166 18.165s-18.165-8.15-18.165-18.165v-5.526a4.11 4.11 0 0 1 1.212-2.926l2.247-2.247a1.875 1.875 0 0 0-2.652-2.651l-2.247 2.246a7.835 7.835 0 0 0-2.31 5.577v5.526c0 7.703 3.994 14.489 10.02 18.398v5.787c0 .584-.125 1.148-.352 1.664L7.138 94.595c-1.406-.703-2-2.347-1.38-3.824 1.327-3.167 2-6.515 2-9.949v-10.81c0-9.319 5.017-18.01 13.092-22.68a1.875 1.875 0 0 0-1.877-3.246C9.743 49.425 4.008 59.359 4.008 70.012v10.81c0 2.934-.575 5.794-1.71 8.5C.93 92.59 2.32 96.38 5.462 97.95l13.055 6.527-12.718 5.78A9.912 9.912 0 0 0 0 119.263v6.863a1.875 1.875 0 0 0 3.75 0v-6.863a6.154 6.154 0 0 1 3.6-5.59l8.69-3.95 14.552 6.87a7.833 7.833 0 0 0 3.347.754 7.83 7.83 0 0 0 3.348-.753l14.55-6.872 8.692 3.951a6.154 6.154 0 0 1 3.6 5.59v6.863a1.875 1.875 0 0 0 3.75 0v-6.862a9.912 9.912 0 0 0-5.798-9.005ZM35.687 113.2a4.076 4.076 0 0 1-3.493 0l-11.677-5.514.655-.298a7.904 7.904 0 0 0 4.623-7.18v-3.84a21.8 21.8 0 0 0 8.146 1.57 21.8 21.8 0 0 0 8.145-1.57v3.84a7.903 7.903 0 0 0 4.623 7.18l.656.298-11.678 5.514ZM94.119 0c-10.98 0-19.912 8.932-19.912 19.911 0 10.98 8.933 19.912 19.912 19.912 10.98 0 19.911-8.933 19.911-19.912S105.098 0 94.12 0Zm0 36.072c-8.912 0-16.162-7.25-16.162-16.16C77.957 11 85.207 3.75 94.12 3.75c8.911 0 16.161 7.25 16.161 16.161 0 8.912-7.25 16.161-16.161 16.161Z"/><path d="M47.968 12.024c-13.19 0-23.92 10.73-23.92 23.92 0 13.189 10.73 23.919 23.92 23.919 13.189 0 23.919-10.73 23.919-23.92 0-13.189-10.73-23.919-23.92-23.919Zm0 44.089c-11.122 0-20.17-9.048-20.17-20.17 0-11.12 9.048-20.169 20.17-20.169 11.121 0 20.169 9.048 20.169 20.17 0 11.12-9.048 20.169-20.17 20.169Z"/><path d="M48.028 23.603c-3.509-.065-6.531 2.498-7.017 5.974a7.038 7.038 0 0 0-.067.966 1.875 1.875 0 1 0 3.75 0 3.19 3.19 0 0 1 6.379-.172 3.17 3.17 0 0 1-.873 2.369 3.164 3.164 0 0 1-2.314.995c-1.035 0-1.875.839-1.875 1.875v5.297a1.875 1.875 0 1 0 3.75 0v-3.683a6.974 6.974 0 0 0 3.159-1.902 6.886 6.886 0 0 0 1.898-5.146c-.187-3.613-3.17-6.5-6.79-6.573ZM94.31 8.543c-3.259-.062-6.063 2.318-6.514 5.547a6.526 6.526 0 0 0-.061.895 1.875 1.875 0 0 0 3.75 0 2.693 2.693 0 1 1 2.692 2.692c-1.035 0-1.875.84-1.875 1.875v4.777a1.875 1.875 0 0 0 3.75 0v-3.183a6.47 6.47 0 0 0 2.797-1.726 6.39 6.39 0 0 0 1.762-4.775c-.174-3.354-2.942-6.034-6.302-6.102ZM83.509 46.595a7.862 7.862 0 0 0-8.024 7.861 1.875 1.875 0 0 0 3.75 0 4.1 4.1 0 0 1 4.198-4.112 4.122 4.122 0 0 1 4.022 3.89 4.083 4.083 0 0 1-1.125 3.052 4.075 4.075 0 0 1-2.983 1.283c-1.035 0-1.875.839-1.875 1.875v6.26a1.875 1.875 0 0 0 3.75 0V62.09a7.9 7.9 0 0 0 3.827-2.221 7.798 7.798 0 0 0 2.15-5.829c-.212-4.092-3.59-7.362-7.69-7.445Z"/><circle cx="47.874" cy="47.516" r="1.875"/><circle cx="94.177" cy="30.29" r="1.875"/><circle cx="83.347" cy="74.52" r="1.875"/></g></svg>