<?xml version="1.0" encoding="UTF-8"?>
<svg width="115px" height="128px" viewBox="0 0 115 128" version="1.1" xmlns="http://www.w3.org/2000/svg" xmlns:xlink="http://www.w3.org/1999/xlink">
    <title>woman</title>
    <g id="Page-1" stroke="none" stroke-width="1" fill="none" fill-rule="evenodd">
        <g id="home-2" transform="translate(-744.000000, -1156.000000)" fill="#1685E4" fill-rule="nonzero">
            <g id="why" transform="translate(340.000000, 940.000000)">
                <g id="woman" transform="translate(404.000000, 216.000000)">
                    <path d="M62.0807575,110.257569 L49.3630572,104.476592 L62.4175062,97.9493674 C65.5597439,96.3781235 66.9487385,92.5886383 65.5797438,89.3219011 C64.4457483,86.6159117 63.8707505,83.7561728 63.8707505,80.8221843 L63.8707505,70.8039734 C63.8707505,68.3664829 63.5845016,65.9307425 63.0202538,63.5640017 C62.7800048,62.5567556 61.7700087,61.9347581 60.7615127,62.1750071 C59.7542666,62.4152562 59.132269,63.4265022 59.3725181,64.4337483 C59.8690161,66.5157402 60.1207652,68.6589818 60.1207652,70.8037234 L60.1207652,80.8219343 C60.1207652,84.2561709 60.7937625,87.6036578 62.1212573,90.7711454 C62.7402549,92.2481397 62.1467572,93.8918832 60.7405127,94.5948805 L46.1868196,101.871602 C45.9595705,101.355854 45.834321,100.791606 45.834321,100.208359 L45.834321,94.4208812 C51.8597974,90.5116464 55.8545318,83.7254229 55.8545318,76.023453 L55.8545318,70.3274753 C55.8545318,69.2102296 55.3747837,68.1444838 54.538287,67.4032367 C53.7175402,66.6757395 52.6275444,66.3329909 51.5462986,66.4642404 C42.8565826,67.5162363 35.5173613,65.9369924 29.7341339,61.7705087 C25.4276507,58.6680208 23.6181577,55.1955344 23.5891579,55.1390346 C23.1244097,54.2170382 22.0009141,53.8442897 21.0766677,54.3065379 C20.1504213,54.7697861 19.7749228,55.8957817 20.2381709,56.822028 C20.3231706,56.9922774 22.3789126,61.0312616 27.3601431,64.6809973 C31.8961254,68.0042344 39.8515943,71.6574701 51.9972969,70.1872258 C52.0062969,70.1862258 52.0225468,70.1842258 52.0512967,70.2097257 C52.0712966,70.2274757 52.1045465,70.2662255 52.1045465,70.3277253 L52.1045465,76.023703 C52.1045465,86.0399139 43.9555783,94.1888821 33.9391174,94.1888821 C23.9229066,94.1888821 15.7739384,86.0399139 15.7739384,76.023703 L15.7739384,70.4977246 C15.7739384,69.3927289 16.2041867,68.353733 16.9856836,67.572486 L19.2326749,65.3252448 C19.964922,64.5929977 19.964922,63.4057523 19.2326749,62.6735052 C18.5004277,61.941258 17.3131824,61.941258 16.5811852,62.6735052 L14.334194,64.9204964 C12.8444498,66.4099906 12.023953,68.3907328 12.023953,70.4974746 L12.023953,76.023453 C12.023953,83.7256729 16.0184374,90.5116464 22.0441639,94.4208812 L22.0441639,100.208359 C22.0441639,100.791606 21.9189144,101.355854 21.6916653,101.871602 L7.13797212,94.5948805 C5.73172761,93.8918832 5.13822993,92.2478897 5.75722751,90.7713954 C7.08497232,87.6041578 7.7579697,84.2564209 7.7579697,80.8221843 L7.7579697,70.0114765 C7.7579697,60.6932629 12.7747001,52.0027969 20.8504186,47.3315651 C21.7466651,46.8130671 22.0531639,45.6660716 21.5346659,44.7695751 C21.0159179,43.8733286 19.8691724,43.5670798 18.9726759,44.0855778 C9.74221194,49.4248069 4.00798434,59.3592681 4.00798434,70.0117265 L4.00798434,80.8224343 C4.00798434,83.7564228 3.43298659,86.6161617 2.29874102,89.3224011 C0.929746368,92.5888883 2.31899094,96.3786235 5.46097867,97.9496174 L18.5156777,104.476842 L5.79797735,110.257819 C2.27574111,111.858813 7.1053996e-15,115.393299 7.1053996e-15,119.262284 L7.1053996e-15,126.124757 C7.1053996e-15,127.160253 0.839496721,128 1.87499268,128 C2.91048863,128 3.74998535,127.160253 3.74998535,126.124757 L3.74998535,119.262284 C3.74998535,116.860294 5.16297983,114.665552 7.34972129,113.671806 L16.0409373,109.721321 L30.5918805,116.592545 C31.6556263,117.094793 32.7973719,117.346042 33.9393674,117.346042 C35.081113,117.346042 36.2231085,117.095043 37.2868543,116.592545 L51.8377975,109.721321 L60.5290136,113.672056 C62.715755,114.666052 64.1287495,116.860544 64.1287495,119.262534 L64.1287495,126.125007 C64.1287495,127.160503 64.9682462,128 66.0037422,128 C67.0392381,128 67.8787348,127.160503 67.8787348,126.125007 L67.8787348,119.262534 C67.8787348,115.393049 65.6029937,111.858563 62.0807575,110.257569 Z M35.6856106,113.201308 C34.5761149,113.725306 33.3031199,113.725306 32.1933742,113.201308 L20.5159199,107.686829 L21.1711673,107.389081 C23.9796563,106.112585 25.7943992,103.294097 25.7943992,100.208859 L25.7943992,96.3683736 C28.3138894,97.3806196 31.0626287,97.9388674 33.9396174,97.9388674 C36.8166062,97.9388674 39.5653454,97.3806196 42.0848356,96.3683736 L42.0848356,100.208859 C42.0848356,103.294097 43.8995785,106.112585 46.7083175,107.388831 L47.363565,107.686579 L35.6856106,113.201308 Z" id="Shape"></path>
                    <path d="M94.1188823,0 C83.1396752,0 74.2074601,8.93221511 74.2074601,19.9114222 C74.2074601,30.8903793 83.1396752,39.8225944 94.1188823,39.8225944 C105.098089,39.8225944 114.030055,30.8903793 114.030055,19.9114222 C114.030055,8.93221511 105.097839,0 94.1188823,0 Z M94.1188823,36.0723591 C85.2074172,36.0723591 77.9574455,28.8226374 77.9574455,19.9111722 C77.9574455,10.999707 85.2074172,3.74998535 94.1188823,3.74998535 C103.030348,3.74998535 110.280069,10.999957 110.280069,19.9114222 C110.280069,28.8228874 103.030098,36.0723591 94.1188823,36.0723591 L94.1188823,36.0723591 Z" id="Shape"></path>
                    <path d="M47.9678126,12.024203 C34.7786141,12.024203 24.0484061,22.7544111 24.0484061,35.9436096 C24.0484061,49.1328081 34.7786141,59.8627662 47.9678126,59.8627662 C61.1570111,59.8627662 71.8869692,49.1328081 71.8869692,35.9436096 C71.8869692,22.7544111 61.1567611,12.024203 47.9678126,12.024203 Z M47.9678126,56.1127808 C36.8463561,56.1127808 27.7983914,47.0648162 27.7983914,35.9436096 C27.7983914,24.822153 36.8463561,15.7741884 47.9678126,15.7741884 C59.0890192,15.7741884 68.1369838,24.822153 68.1369838,35.9436096 C68.1369838,47.0648162 59.0890192,56.1127808 47.9678126,56.1127808 L47.9678126,56.1127808 Z" id="Shape"></path>
                    <path d="M48.0283124,23.6029078 C44.5190761,23.5379081 41.4968379,26.100648 41.0113398,29.5771345 C40.96709,29.8953832 40.9443401,30.220382 40.9443401,30.5428807 C40.9443401,31.5786266 41.7838368,32.4178734 42.8193327,32.4178734 C43.8548287,32.4178734 44.6943254,31.5786266 44.6943254,30.5428807 C44.6943254,30.3931313 44.7048254,30.2426319 44.7253253,30.0953824 C44.9480744,28.4988887 46.336069,27.3186433 47.9528127,27.3521432 C49.6163062,27.385643 50.9868008,28.7116378 51.0730505,30.3706314 C51.1190503,31.2571279 50.8090515,32.0981246 50.2003039,32.7396221 C49.5910563,33.3811196 48.7690595,33.7346182 47.8860629,33.7346182 C46.850567,33.7346182 46.0110703,34.5738649 46.0110703,35.6096109 L46.0110703,40.9073402 C46.0110703,41.9430862 46.850567,42.7823329 47.8860629,42.7823329 C48.9215589,42.7823329 49.7610556,41.9430862 49.7610556,40.9073402 L49.7610556,37.2241046 C50.955301,36.8871059 52.0540467,36.2331085 52.9197933,35.321612 C54.2437881,33.9271175 54.9177855,32.0998746 54.8180359,30.1763821 C54.6305366,26.5631462 51.6482982,23.6756575 48.0283124,23.6029078 L48.0283124,23.6029078 Z" id="Path"></path>
                    <path d="M94.3091316,8.54346663 C91.0511443,8.48096687 88.2469053,10.8614576 87.796407,14.089695 C87.7554072,14.3846938 87.7346573,14.6859426 87.7346573,14.9849415 C87.7346573,16.0204374 88.574154,16.8599341 89.60965,16.8599341 C90.6451459,16.8599341 91.4846426,16.0204374 91.4846426,14.9849415 C91.4846426,14.858192 91.4933926,14.7304425 91.5106425,14.6069429 C91.6986418,13.2601982 92.8686372,12.2674521 94.2336319,12.292952 C95.6371264,12.3212019 96.7933719,13.4396975 96.8658716,14.839192 C96.9046215,15.5871891 96.6431225,16.2969363 96.1296245,16.8379342 C95.6156265,17.3794321 94.9221292,17.6774309 94.1771321,17.6774309 C93.1416362,17.6774309 92.3021394,18.5169277 92.3021394,19.5524236 L92.3021394,24.328655 C92.3021394,25.3641509 93.1416362,26.2036476 94.1771321,26.2036476 C95.2126281,26.2036476 96.0521248,25.3641509 96.0521248,24.328655 L96.0521248,21.1461674 C97.1086207,20.8231687 98.0781169,20.231671 98.8491139,19.4199241 C100.077859,18.1256792 100.703357,16.4299358 100.610857,14.6446928 C100.436858,11.2909559 97.6688685,8.61096636 94.3091316,8.54346663 Z" id="Path"></path>
                    <path d="M83.5089238,46.595068 C79.5246894,46.5145683 76.1104527,49.4240569 75.5607048,53.3617916 C75.510455,53.7217901 75.4849551,54.0900387 75.4849551,54.4560373 C75.4849551,55.4915332 76.3244519,56.33103 77.3599478,56.33103 C78.3954438,56.33103 79.2349405,55.4915332 79.2349405,54.4560373 C79.2349405,54.262788 79.2484404,54.0690388 79.2746903,53.8800395 C79.5616892,51.8222976 81.3409323,50.2958035 83.4334241,50.3440533 C85.5771657,50.3870532 87.3436588,52.0960465 87.4546584,54.2345381 C87.5139081,55.3762837 87.1144097,56.4600295 86.3299128,57.2862762 C85.5449158,58.113273 84.48567,58.5685212 83.3474244,58.5685212 C82.3119285,58.5685212 81.4724317,59.4080179 81.4724317,60.4435139 L81.4724317,66.7047394 C81.4724317,67.7402354 82.3119285,68.5797321 83.3474244,68.5797321 C84.3829204,68.5797321 85.2224171,67.7402354 85.2224171,66.7047394 L85.2224171,62.0897575 C86.6711614,61.7315089 88.0089062,60.9645119 89.0494022,59.8685161 C90.5491463,58.2892723 91.3126433,56.2192804 91.1993938,54.0402889 C90.9871446,49.9480549 87.6089078,46.6778177 83.5089238,46.595068 L83.5089238,46.595068 Z" id="Path"></path>
                    <circle id="Oval" cx="47.873813" cy="47.5155644" r="1.87499268"></circle>
                    <circle id="Oval" cx="94.1773821" cy="30.2898817" r="1.87499268"></circle>
                    <circle id="Oval" cx="83.3474244" cy="74.5197089" r="1.87499268"></circle>
                </g>
            </g>
        </g>
    </g>
</svg>