<?xml version="1.0" encoding="UTF-8"?>
<svg width="132px" height="34px" viewBox="0 0 132 34" version="1.1" xmlns="http://www.w3.org/2000/svg" xmlns:xlink="http://www.w3.org/1999/xlink">
    <title>2DCF4421-620D-4537-ACEB-2A17FEFEBA39</title>
    <g id="Page-1" stroke="none" stroke-width="1" fill="none" fill-rule="evenodd">
        <g id="landing" transform="translate(-1183.000000, -3310.000000)" fill="#27366D" fill-rule="nonzero">
            <g id="our-customers" transform="translate(412.000000, 3173.000000)">
                <g id="row-1" transform="translate(0.000000, 126.000000)">
                    <g id="ziołolek-logo" transform="translate(771.000000, 11.000000)">
                        <path d="M68.8281937,15.0513595 C69.5882061,15.0513595 70.204318,14.4352477 70.204318,13.6752352 C70.204318,12.9152227 69.5882061,12.2991109 68.8281937,12.2991109 C68.0681812,12.2991109 67.4520694,12.9152227 67.4520694,13.6752352 C67.4636009,14.4304196 68.0730093,15.039828 68.8281937,15.0513595" id="Path"></path>
                        <path d="M128.152052,14.7288304 C129.508639,13.8650309 130.44966,12.4807203 130.753787,10.9014847 C130.879485,10.4714652 130.801099,10.0075531 130.541092,9.64270568 C130.281086,9.2778583 129.868163,9.05235153 129.420667,9.0308157 C128.721871,9.07859001 128.162443,9.62905354 128.103387,10.3269865 C128.044331,11.0249194 128.503312,11.661556 129.184145,11.8260682 C128.883183,12.6698131 128.354848,13.413946 127.657507,13.9762624 C126.947943,14.6213207 127.657507,14.9223478 128.152052,14.6213207" id="Path"></path>
                        <path d="M125.550317,9.0308157 C124.771385,9.04235732 124.14273,9.67101181 124.131189,10.4499439 C124.131843,11.1300621 124.621985,11.7109715 125.292294,11.8260682 C124.991331,12.6698131 124.462997,13.413946 123.765656,13.9762624 C123.056092,14.6213207 123.765656,14.9223478 124.2602,14.6213207 C125.606258,13.7920093 126.55417,12.4478393 126.883437,10.9014847 C127.008509,10.4749316 126.932746,10.0146459 126.677555,9.65068454 C126.422363,9.28672315 126.01546,9.05861577 125.571819,9.0308157" id="Path"></path>
                        <path d="M44.2299719,20.082814 C43.4510398,20.0943556 42.8223853,20.7230101 42.8108437,21.5019421 C42.8114974,22.1820603 43.3016397,22.7629698 43.9719486,22.8780664 C43.6782383,23.7255665 43.1485878,24.4715531 42.4453107,25.0282606 C41.7357466,25.6733189 42.4453107,25.995848 42.9613573,25.6948209 C44.3128389,24.8199829 45.2456976,23.4284686 45.5415903,21.8459732 C45.6666623,21.4194201 45.5908988,20.9591345 45.3357075,20.5951731 C45.0805162,20.2312117 44.6736132,20.0031043 44.2299719,19.9753042" id="Path"></path>
                        <path d="M117.121556,19.6097712 C117.275813,18.7142599 117.678074,17.879942 118.282661,17.2015537 C118.691197,16.8145187 119.293252,17.2015537 119.035229,17.9111178 C118.700798,18.7278489 118.024806,19.3566795 117.186062,19.6312732 M93.8779563,17.481079 L93.8779563,18.1476392 C93.4778635,17.600836 93.2126345,16.9672335 93.1038863,16.2984721 L93.5554271,15.9544411 C94.1574815,15.7824255 94.0929757,16.5564954 93.9424621,17.481079 M91.2117154,22.8780664 C90.8031785,23.1360897 90.5021513,23.0070781 90.2871319,22.5125334 C90.262524,20.4979967 90.9220128,18.5346909 92.1578009,16.9435304 C92.2653106,17.7176003 92.5878397,19.308744 93.619933,19.8247906 C93.0532385,21.0083495 92.2306842,22.051231 91.2117154,22.8780664 M77.1494453,17.5240828 C77.1612884,17.7461118 77.1612884,17.9686141 77.1494453,18.190643 C76.7570033,17.6418243 76.4992006,17.0083663 76.3968773,16.341476 L76.8484181,15.9974449 C77.4504725,15.8254294 77.3859666,16.5994993 77.235453,17.5240828 M74.4186986,22.9210703 C74.0101617,23.1790936 73.6876326,23.050082 73.4726132,22.5555373 C73.4295462,20.5486559 74.0660415,18.5861286 75.2787763,16.9865343 C75.386286,17.7606042 75.7088152,19.3517479 76.7194064,19.8677945 C76.1664764,21.0538722 75.3501845,22.0981374 74.3326909,22.9210703 M56.7441022,15.8469314 C57.3398648,14.4753699 57.3398648,12.9181044 56.7441022,11.5465429 C56.3355653,10.6004575 55.4539857,10.772473 55.4969895,11.7830643 C55.7233266,13.1122886 55.627469,14.4764152 55.2174643,15.7609236 C54.206873,17.9111178 53.0672701,19.6527751 52.0566788,19.2442382 C48.6808739,17.846612 53.3037914,9.52536037 56.5075808,10.3209322 C58.3960259,10.9757638 60.3789059,11.3171387 62.377611,11.3315235 C60.9245855,12.5905577 59.6448293,14.03661 58.5717673,15.6319119 C57.9708437,15.6553673 57.3733942,15.7345473 56.7871061,15.8684333 M109.251845,16.2124644 C109.681884,15.7824255 110.111923,16.0189469 109.918405,16.728511 C109.585018,17.6207202 108.964864,18.3770055 108.155246,18.8787052 C108.183247,17.8603605 108.571857,16.8850253 109.251845,16.1264566 M122.15301,22.1254985 C121.894987,22.3620198 121.722971,22.684549 121.400442,22.8350625 C121.095605,23.0043204 120.721474,22.9876923 120.432855,22.7920587 C119.753037,22.2250019 119.171793,21.5493054 118.712699,20.792378 C125.163282,17.3305654 120.217835,12.0625895 116.411992,18.2981528 L119.572777,10.4714458 L116.562505,10.4714458 L112.090101,21.3299266 C110.090421,23.8241519 107.187658,23.4801208 107.488686,21.1579111 C112.584646,18.3841605 112.133105,15.8684333 110.498958,15.1158653 C108.142991,14.9202109 105.945201,16.3180052 105.123472,18.5346741 C104.601718,19.5320694 104.39195,20.6633157 104.521418,21.7814674 C102.134702,23.0070781 100.221029,23.6951402 100.56506,21.566448 L104.736437,10.7509711 L102.091698,10.7509711 L99.1029282,18.4486664 C98.1353408,19.7172809 95.9851466,21.2869227 95.2325786,19.3517479 C96.3076757,16.3844799 95.3615903,12.9011653 91.9212795,15.5674061 C89.2975464,16.4943812 87.5639844,18.9993783 87.6208911,21.7814674 C85.2341755,23.0070781 83.3205027,23.6951402 83.6645337,21.566448 L85.6857163,16.2339663 L87.6208911,15.223375 L87.6208911,13.6967371 L86.5027901,14.2987915 L87.9219183,10.7509711 L85.2771794,10.7509711 L82.1808997,18.7711955 C81.1273046,19.9538023 79.2566356,21.1149072 78.5685735,19.3517479 C79.6436706,16.3844799 78.6975851,12.9011653 75.2357724,15.5674061 C72.4688664,16.4929277 70.6173852,19.1006477 70.6558588,22.0179887 C68.6776801,23.1145878 67.3230577,23.2651014 67.7745985,22.0179887 L69.7957811,15.9974449 L67.0220305,16.4489857 L65.344879,21.4589383 L65.344879,21.6739577 C62.2851214,22.1037642 59.1803035,22.1037642 56.1205459,21.6739577 C57.3676585,20.1043159 59.5823586,18.8141994 61.1089964,17.0510401 C62.8291518,17.0510401 64.3557897,16.728511 64.3557897,16.2554683 C64.3557897,15.7824255 63.3236965,15.8254294 62.2055955,15.7394216 C63.2591907,14.2557876 64.1192683,12.6861459 65.2158674,11.0950021 L65.2158674,11.0950021 C65.4738907,10.4499439 65.2158674,9.97690115 64.2267781,10.2564264 C63.5817198,10.7079672 59.9263896,8.79429433 58.2492381,8.70828656 C53.3897992,8.4717652 47.906804,14.1912818 50.143006,19.0722227 C52.2932002,22.2115062 55.2819701,19.0722227 56.4860789,16.9220285 L56.6580944,16.5994993 C57.0042727,16.7872358 57.3843583,16.9041852 57.7761954,16.9435304 C56.4860789,18.4701683 55.0884526,19.9107984 53.7553322,21.3944324 L53.2607876,21.3944324 C51.5732486,20.8134331 49.7276387,20.8980236 48.1003215,21.6309538 C46.8317069,22.4695295 46.8317069,23.781148 48.1003215,24.0176694 C49.3402096,24.0549414 50.5645494,23.7339255 51.62664,23.0930859 C52.7822299,23.1893243 53.9310438,23.3544663 55.0669507,23.5876305 C58.4571944,24.3083173 61.9909895,23.8769975 65.1083577,22.3620198 C65.1083577,23.6521363 65.9469334,24.2756927 67.6885907,24.2111868 C68.8440181,24.1006211 69.9531072,23.701349 70.9138821,23.050082 C71.1215422,23.3710191 71.4110063,23.6307946 71.7524578,23.8026499 C73.6231268,24.6627276 75.6228074,24.2111868 77.9020133,20.8568839 L77.9020133,20.8568839 C78.9924325,21.398349 80.2734067,21.398349 81.3638259,20.8568839 L81.1918104,21.2869227 C80.6972657,23.2651014 81.6003473,24.146681 83.4710163,24.2971946 C85.0406365,24.3230682 86.5824813,23.8814719 87.9004163,23.02858 C89.126027,26.1033578 93.9424621,23.3511092 94.5445165,20.8783858 L94.5445165,20.8783858 C95.6814422,21.4785815 97.0414189,21.4785815 98.1783447,20.8783858 L97.9848272,21.3944324 C97.4687806,23.3726111 98.3718622,24.2541907 100.135021,24.4047043 C101.767474,24.407102 103.365676,23.9366033 104.736437,23.050082 C105.940546,24.7917393 109.036825,24.7487354 111.595557,23.2220975 C111.918347,23.627063 112.376449,23.9019246 112.885673,23.9961674 C113.573735,24.2111868 114.240295,24.512214 114.605828,23.9961674 L115.809937,21.9749849 C116.214065,23.2276525 117.240052,24.1803547 118.519182,24.4907121 C119.905971,24.902488 121.400046,24.3726125 122.217516,23.1790936 C122.798068,22.2330082 122.217516,22.2115062 121.937991,22.4695295" id="Shape"></path>
                        <path d="M130.947304,23.6521363 C130.563296,24.395147 129.783276,24.8480617 128.947624,24.8132412 C128.532622,24.8292144 128.121875,24.7246607 127.765017,24.512214 C127.393578,24.3176166 127.087145,24.0186576 126.883437,23.6521363 C126.66644,23.2805453 126.554927,22.8567956 126.560908,22.4265256 C126.595875,22.0976267 126.706247,21.7812282 126.883437,21.5019421 C127.091734,20.9232454 127.537876,20.4614499 128.109048,20.2333275 C128.393861,20.078746 128.709931,19.9905405 129.033632,19.9752733 C129.345122,19.9736346 129.653257,20.0396634 129.936713,20.1688217 C130.215608,20.2744529 130.465955,20.4438052 130.667779,20.6633664 C130.902342,20.8992131 131.078989,21.186264 131.183826,21.5019421 C131.311547,21.8010035 131.377376,22.1228346 131.377343,22.4480276 C131.383325,22.8782975 131.271812,23.3020472 131.054814,23.6736383 M131.721374,21.3299266 C131.577768,20.9776075 131.3574,20.6617473 131.076316,20.4053431 C130.816628,20.1435978 130.500306,19.944977 130.151733,19.8247906 C129.805301,19.6770812 129.431694,19.6038249 129.055134,19.6097712 C128.671841,19.6063577 128.29172,19.6794579 127.937033,19.8247906 C127.583417,19.9578642 127.261263,20.162871 126.990947,20.426845 C126.728361,20.6861553 126.516839,20.9924976 126.367391,21.3299266 C126.30033,21.5058515 126.242906,21.6853005 126.195375,21.8674752 C126.174244,22.0604158 126.174244,22.255087 126.195375,22.4480276 C126.19706,22.839906 126.277493,23.2274484 126.431897,23.5876305 C126.581749,23.9302551 126.801451,24.2378383 127.076955,24.4907121 C127.344255,24.7535626 127.657677,24.9649399 128.001538,25.1142684 C128.358539,25.2516801 128.737137,25.3244874 129.119639,25.3292878 C130.141953,25.3247574 131.087679,24.7866722 131.613865,23.9101597 C132.059574,23.1206863 132.122848,22.1715784 131.78588,21.3299266" id="Shape"></path>
                        <path d="M128.34557,22.1685023 L128.34557,21.1364091 L129.033632,21.1364091 C129.528176,21.1364091 129.764698,21.3084247 129.764698,21.6309538 C129.764698,21.9534829 129.764698,21.9964868 129.549678,22.0609926 C129.366629,22.1397707 129.168246,22.1765082 128.969126,22.1685023 L128.34557,22.1685023 Z M130.022721,22.297514 C130.185552,22.1233286 130.270881,21.8906133 130.259242,21.6524557 C130.275406,21.386264 130.17309,21.126539 129.979717,20.9428916 C129.71393,20.784773 129.406878,20.7098822 129.098137,20.7278722 L127.829523,20.7278722 L127.829523,24.0176694 L128.34557,24.0176694 L128.34557,22.5770392 L128.90462,22.5770392 L129.7862,24.0176694 L130.34525,24.0176694 L129.420667,22.5770392 C129.646227,22.5511663 129.857396,22.4531237 130.022721,22.297514" id="Shape"></path>
                        <path d="M40.3381203,20.082814 C39.5627673,20.0945631 38.9404051,20.7265001 38.9404941,21.5019421 C38.9392793,22.1752757 39.4183362,22.7537596 40.080097,22.8780664 C39.7955513,23.7246025 39.2729692,24.4711483 38.5749611,25.0282606 C37.865397,25.6733189 38.5749611,25.995848 39.0695058,25.6948209 C40.4273234,24.8223908 41.3677855,23.4311287 41.6712408,21.8459732 C41.7883423,21.4165091 41.7064231,20.9571594 41.4480834,20.5946505 C41.1897437,20.2321415 40.7822859,20.0047849 40.3381203,19.9753042" id="Path"></path>
                        <path d="M16.7074859,31.7798705 C8.39484962,31.7798705 1.65612644,25.0411473 1.65612644,16.728511 C1.65612644,8.41587467 8.39484962,1.67715149 16.7074859,1.67715149 C25.0201222,1.67715149 31.7588454,8.41587467 31.7588454,16.728511 C31.7588454,25.0411473 25.0201222,31.7798705 16.7074859,31.7798705 M16.7074859,0 C9.94817606,0 3.85483842,4.0728681 1.27017579,10.3184897 C-1.31448684,16.5641113 0.118839328,23.7517777 4.90146982,28.528253 C9.6841003,33.3047282 16.8736066,34.7287967 23.1158945,32.1360929 C29.3581823,29.5433891 33.4231942,23.4448114 33.4145089,16.6855071 C33.3908168,7.47179017 25.9212257,0.011812438 16.7074859,0" id="Shape"></path>
                        <path d="M20.2768083,5.56900301 C20.5563336,5.69801467 20.6853452,5.82702632 20.6208394,5.97753991 C20.5563336,6.12805351 20.2768083,6.10655157 20.018785,5.97753991 C19.7607617,5.84852826 19.653252,5.71951661 19.7177578,5.56900301 C19.7822637,5.41848942 20.018785,5.43999136 20.2768083,5.56900301 M20.6638433,4.62291756 C20.9218666,4.73042727 21.0508782,4.85943892 20.9863724,5.00995252 C20.9218666,5.16046611 20.7068472,5.18196805 20.4273219,5.00995252 C20.1477967,4.83793698 20.040287,4.75192921 20.1047928,4.60141562 C20.1692986,4.45090202 20.384318,4.45090202 20.6638433,4.60141562 M14.6648014,12.9011653 L13.9767393,10.3639361 C13.1187374,9.86162084 12.5162734,9.01660644 12.3210897,8.04172636 C11.9125528,6.40757876 12.3210897,5.18196805 13.9982412,4.77343115 C15.3256646,4.39738272 16.746065,4.53558384 17.9761005,5.16046611 C18.9651899,5.95603797 19.2447151,6.34307293 19.9972831,6.45058264 C20.7498511,6.55809235 21.6314307,6.45058264 21.8034462,5.95603797 C22.1904812,5.00995252 21.4164113,4.19287872 20.0617889,4.10687095 C19.3092209,4.10687095 18.6856646,4.27888648 17.9115947,4.10687095 C16.6079239,3.85496587 15.2725498,3.81142106 13.9552373,3.97785929 C13.0529865,4.11048153 12.2550841,4.6341058 11.774364,5.40905968 C11.293644,6.18401355 11.1789999,7.13147718 11.4610121,7.99872247 C11.9955782,9.92517507 13.1150284,11.6381592 14.6648014,12.9011653" id="Shape"></path>
                        <path d="M18.3631355,18.7281916 C21.136886,24.5552179 20.5133297,28.7265947 17.1160228,29.0491238 C13.718716,29.371653 12.9231441,26.2538713 12.6221169,24.3186966 C12.2811468,25.9414927 12.8660386,27.6197442 14.141772,28.6790988 C15.4175054,29.7384534 17.1746553,30.0050068 18.7071666,29.371653 C21.523921,28.2750539 21.523921,23.6521363 20.2553064,20.0183081 L18.3631355,18.7281916 Z" id="Path"></path>
                        <path d="M14.2562645,26.9634354 L18.4276413,26.9634354 L18.9866918,25.0282606 L18.5781549,25.0282606 C18.4910763,25.8073258 17.8354103,26.3983486 17.051517,26.4043849 L15.6968947,26.4043849 L18.4491432,21.5019421 L18.4491432,21.1579111 L14.8798209,21.1579111 L14.3207704,22.8995684 L14.8583189,22.8995684 C15.1378442,22.2115062 15.3098597,21.7169616 15.9979218,21.7169616 L17.0300151,21.7169616 L14.2777665,26.6194044 L14.2562645,26.9634354 Z" id="Path"></path>
                        <polygon id="Path" points="24.9642317 9.288839 25.7813055 6.2785671 18.0836102 14.7073284 19.8897734 11.4605352 19.2017112 11.0950021 17.9761005 13.3312041 19.6962559 6.66560206 17.2880384 7.99872247 16.5784743 6.49358652 15.8689102 7.99872247 13.4821946 6.66560206 15.567883 14.7503323 7.63366636 6.10655157 8.45074016 9.11682347 4.94592359 9.37484677 6.60157313 11.2670177 3.52679541 12.5571342 12.1920781 15.7179197 12.1490742 15.8254294 10.2354014 15.2663789 9.95587611 16.0619508 11.6545295 16.5779974 2.79572938 16.2769702 5.74149545 18.2981528 3.48379152 20.9643936 6.38655371 21.0934052 5.52647603 24.7702373 16.7934937 17.1800518 28.0605114 24.7702373 27.2004337 21.0934052 30.1246978 20.9643936 27.845492 18.2981528 30.81276 16.2769702 22.1474773 16.4489857 23.8461307 15.9329391 23.5451035 15.1373673 21.3949093 15.7824255 21.3304035 15.6319119 29.9096784 12.7291497 26.8133987 11.4390332 28.4905502 9.54686231"></polygon>
                    </g>
                </g>
            </g>
        </g>
    </g>
</svg>